<svg width="29" height="35" viewBox="0 0 29 35" fill="none" xmlns="http://www.w3.org/2000/svg">
<path d="M2.92394 18.836C3.11719 19.0426 3.26589 19.38 3.35011 19.6548C3.37672 19.7408 3.26367 19.7606 3.27801 19.8225C3.30617 19.9436 3.40866 20.0078 3.42943 20.1319C3.43587 20.1733 3.26854 20.2231 3.27854 20.2645C3.33435 20.4904 3.48247 20.6435 3.57233 20.8512C4.01467 21.8743 4.54235 22.821 5.07596 23.802C5.25202 24.1254 5.3632 24.584 5.62314 24.8683C5.65361 24.9015 5.76379 24.8 5.77857 24.8006C6.00644 24.8123 5.7318 24.935 5.74478 25.029C5.79698 25.4018 5.99003 25.7305 6.215 25.978C6.31108 26.0831 6.48259 25.8073 6.41976 26.0147C6.41566 26.0289 6.2645 26.0829 6.27107 26.1243C6.28621 26.2181 6.39866 26.3427 6.42449 26.4064C6.4736 26.5295 6.4865 26.5469 6.55116 26.6518C6.63839 26.7959 6.68031 27.0068 6.80727 27.1402C6.83476 27.1684 6.94271 27.0392 6.99878 27.0764C7.05484 27.1138 7.13083 27.2585 7.1284 27.3252C7.12597 27.3918 7.00701 27.4398 6.98784 27.4635C6.82493 27.662 7.21121 27.6395 7.23127 27.6555C7.58875 27.952 7.62987 28.3752 7.85312 28.725C8.02295 28.9904 8.25742 29.2404 8.411 29.498C8.52406 29.6884 8.60129 29.8768 8.69101 30.0603L7.26741 30.1337C7.33413 30.0316 7.3977 29.9251 7.45196 29.8047C7.4672 29.7713 7.27937 29.7248 7.29769 29.6838C7.49801 29.2377 7.72477 28.8388 8.06176 28.4636C8.09565 28.4261 8.21397 28.558 8.25663 28.5252C8.51035 28.3302 9.01021 28.0787 8.454 27.5864C8.57419 27.4176 8.70713 27.2274 8.91835 27.1388C9.05405 27.0822 9.16205 27.264 9.15922 27.1047C9.1588 27.0688 8.99993 27.0312 9.0099 26.9829C9.05147 26.7807 9.2031 26.6049 9.22221 26.3957C9.22581 26.3529 9.09584 26.2957 9.07862 26.2738C8.9408 26.0935 9.31637 26.1153 9.35452 26.0966C9.64167 25.9525 9.66948 25.7474 9.79229 25.5298C9.82079 25.4795 9.62131 25.4485 9.64217 25.3978C9.75154 25.1385 9.90647 24.8879 10.1153 24.6821C10.1621 24.6365 10.2767 24.7647 10.3064 24.7469C10.4354 24.6675 10.1812 24.4947 10.3003 24.4151C10.3247 24.3988 10.4393 24.4784 10.4549 24.4816C10.7002 24.5317 10.4345 24.3117 10.4372 24.2912C10.4649 24.029 10.8502 24.0632 10.9215 23.8313C10.9297 23.8034 10.7451 23.7744 10.7777 23.7009C10.9973 23.2054 11.3067 22.7519 11.6918 22.3566C11.7508 22.2962 11.8368 22.4119 11.8535 22.4153C12.1153 22.4685 11.8458 22.254 11.8477 22.2247C11.8704 21.9978 12.2151 21.9691 11.934 21.6442C12.499 20.9384 12.7467 20.0586 13.5069 19.4852C13.5162 19.4777 13.6503 19.5802 13.6682 19.5648C13.8863 19.3808 13.6358 19.2929 13.4531 18.9764C13.4074 18.8967 13.8081 18.9752 13.8383 18.9796C13.95 18.9951 14.141 19.1616 14.1658 19.1593C14.3635 19.136 13.6451 18.7311 13.7291 18.5897C13.7329 18.586 13.8522 18.6823 13.8722 18.6782C13.9348 18.6658 13.9048 18.5984 13.9712 18.5892C14.1242 18.5688 14.4853 18.7456 14.3608 18.5001C14.3444 18.4686 13.9288 18.2522 14.0236 18.1374C14.0617 18.0919 14.1891 17.865 14.2528 17.8183C14.3164 17.7716 14.4195 17.8924 14.4278 17.8913C14.6995 17.8273 14.7317 17.9336 15.0345 18.0032C15.3363 18.0725 14.7231 17.7317 14.6769 17.657C14.631 17.5823 14.8459 17.5455 14.913 17.5453C14.9801 17.5451 15.039 17.6323 15.0829 17.6225C15.3712 17.556 14.8333 17.3636 14.7739 17.2473C14.6334 16.9721 15.1425 17.1364 15.263 17.0375C15.2957 17.0107 15.1777 16.9764 15.1869 16.9403C15.2248 16.7981 15.4073 16.8112 15.365 16.5969C15.3581 16.562 15.1606 16.2871 15.3998 16.3368C15.4342 16.3441 15.5265 16.4411 15.5827 16.4055C15.667 16.3523 15.7763 16.2304 15.7906 16.1258C15.801 16.0485 15.5768 16.0046 15.6805 15.9637C15.7267 15.9457 15.7935 16.0744 15.8715 16.035C15.9492 15.996 16.0454 15.8322 16.0802 15.7687C16.1149 15.7053 15.9568 15.6525 15.9507 15.6418C15.9165 15.5787 15.9246 15.4195 15.9313 15.4092C16.2454 14.8744 16.7814 14.5431 17.0337 13.9884C17.0537 13.9451 16.8934 13.8785 16.895 13.8709C16.9232 13.6962 17.2343 14.0506 17.4231 14.039C17.1238 13.8636 17.2127 13.842 17.2431 13.7261C17.2575 13.67 17.1288 13.6216 17.1201 13.6099C16.994 13.4303 17.2453 13.527 17.2983 13.5444C17.4934 13.608 17.3298 13.4307 17.4606 13.4729C17.5904 13.5145 17.7072 13.6916 17.7647 13.5995C17.6778 13.5059 17.3625 13.3954 17.3642 13.2973C17.3711 12.9245 17.9074 12.5777 18.069 12.3853C18.2299 12.1933 18.258 12.1111 18.3772 12.0151C18.5932 11.8414 18.3397 11.7866 18.3415 11.5885C18.3438 11.3901 18.7869 11.7905 18.9052 11.8428C19.0232 11.8955 18.9295 11.8008 19.0034 11.8166C19.0772 11.8325 19.1135 11.9324 19.1732 11.8918C19.2328 11.8512 19.1505 11.5718 19.0546 11.4766C18.8513 11.2751 18.5607 11.1753 18.7478 11.0875C18.7587 11.0826 18.8677 11.1985 18.903 11.1751C19.1812 10.9836 19.3746 10.72 19.6409 10.5268C19.6777 10.5004 19.797 10.6316 19.82 10.6174C20.0598 10.4703 19.7682 10.3772 19.5865 10.0733C19.9193 10.3498 20.18 10.4385 20.2976 10.2787C20.3684 10.1829 20.2034 10.0897 20.1406 9.94945C20.1217 9.90722 20.2759 9.91454 20.213 9.85032C20.0076 9.63993 19.6981 9.51427 19.923 9.42398C19.9332 9.42032 20.0448 9.53652 20.0708 9.51709C20.2391 9.39227 20.0083 9.19453 20.1062 8.9987C20.182 8.84654 20.5147 8.70736 20.6542 8.57107C21.0406 8.86439 21.0603 8.65263 20.8375 8.3925C20.9237 8.30068 20.99 8.1818 21.0994 8.11427C21.137 8.09095 21.2323 8.19761 21.2475 8.20266C21.485 8.28378 21.2607 8.04143 21.267 8.01211C21.3494 7.70045 21.6909 7.66249 21.6729 7.29492C21.6722 7.28186 21.4172 7.06084 21.6567 7.15447C21.6729 7.16124 21.7367 7.32805 21.8268 7.23288C21.9149 7.14012 22.2156 7.0522 22.2084 6.81223C22.2069 6.75411 22.0652 6.49417 22.2879 6.55896C22.318 6.56796 22.3848 6.63905 22.4374 6.65959C22.6054 6.7246 22.3606 6.4858 22.6259 6.61836C22.8918 6.75034 23.1415 6.78731 23.1052 6.51834C23.1045 6.51012 22.9251 6.30363 22.9659 6.26124C23.0313 6.19374 23.1593 6.12869 23.2203 6.05388C23.2494 6.01798 23.1023 5.93231 23.1052 5.9242C23.2368 5.62361 23.4857 5.56321 23.7606 5.34862C23.8103 5.31054 23.7569 5.02601 23.9704 5.05875C24.2037 5.09528 24.728 5.74204 24.776 5.39727C24.7935 5.26169 24.1312 4.43883 24.6767 4.64765C24.8677 4.24812 25.3272 4.17225 25.494 3.74C25.5013 3.72091 25.3402 3.4709 25.3749 3.44271C25.4266 3.40141 25.547 3.47456 25.5866 3.44897C25.7514 3.34754 25.8103 3.13247 25.964 3.01662C26.0222 2.97245 26.0982 3.09362 26.167 3.04204C26.2354 2.99088 26.1548 2.81417 26.3001 2.8056C26.4106 2.7995 26.7213 3.03154 26.8398 2.98875C26.6009 2.70126 26.6679 2.6538 26.7154 2.48641C26.7244 2.45408 26.6187 2.37264 26.6188 2.35213C26.6175 2.26618 26.7239 2.31846 26.717 2.23015C26.7154 2.20882 26.6356 2.10919 26.6299 2.08608C26.5794 1.88497 26.8685 2.02278 26.9171 2.0484C27.1033 2.14403 27.0401 1.98328 27.1431 1.99895C27.2459 2.01498 27.2164 2.1544 27.3105 2.14025C27.5047 2.1113 27.666 1.97014 27.8056 1.88233C27.8608 1.84672 27.7282 1.7308 27.7338 1.72244C27.8296 1.60514 28.0517 1.67808 27.9388 1.34847C28.4858 2.04235 27.9678 1.22879 28.2352 1.27542C28.2564 1.27955 28.48 1.62965 28.4613 1.71106C28.4431 1.7922 28.3002 1.7265 28.2801 1.85091C28.2744 1.88048 28.3899 2.26775 28.3912 2.29517C28.3955 2.51165 28.0387 2.00475 28.014 1.98011C27.7443 1.71767 27.8724 2.13823 27.8605 2.18208C27.8053 2.38253 27.6417 2.39435 27.5865 2.55467C27.5506 2.65867 27.789 2.98805 27.7291 3.01863C27.533 3.11956 27.1088 2.73374 27.2527 3.25316C27.2833 3.36431 27.606 3.67258 27.2519 3.51518C27.2296 3.50509 26.9247 3.34583 27.0055 3.5437C27.0157 3.56868 27.1011 3.6659 27.0996 3.68167C27.088 3.7854 26.9807 3.74261 26.9497 3.83673C26.9187 3.93082 26.8917 4.05483 26.7886 4.09042C26.7267 4.11179 26.5047 3.98921 26.4424 3.96672C26.2624 3.90245 26.3957 4.16055 26.2167 4.04686C26.0366 3.93279 25.8921 3.63575 25.7012 3.63377C25.9309 3.87935 26.1624 4.13564 26.3917 4.38423C26.1795 4.57266 25.8844 4.71455 25.6971 4.92965C25.6736 4.95716 25.8292 5.05624 25.8074 5.08886C25.7152 5.2258 25.5223 5.2418 25.4408 5.40405C25.3785 5.52981 25.4165 5.77078 25.3623 5.90189C25.0218 5.7041 24.9801 5.9449 24.8534 6.03457C24.8091 6.06614 24.7346 5.9953 24.6843 6.0015C24.4961 6.02709 24.7957 6.20166 24.8099 6.26645C24.8713 6.54249 24.2784 6.05129 24.1654 6.21089C24.159 6.21937 24.3871 6.58318 24.3953 6.61291C24.4497 6.80547 24.2749 6.53388 24.2066 6.56719C24.0817 6.62818 23.9488 6.63333 23.9429 6.82695C23.9415 6.8839 24.0697 7.12909 23.8624 7.06905C23.8352 7.06125 23.735 6.9697 23.723 6.9717C23.5136 7.01673 23.8419 7.28852 23.8944 7.45171C23.9476 7.61399 23.6297 7.5384 23.5453 7.5079C23.3267 7.42904 23.5097 7.40309 23.4957 7.38637C23.3281 7.1866 23.2957 7.29594 23.2279 7.34519C22.8962 7.09092 22.8437 7.19564 23.1589 7.39741C23.1934 7.41931 23.2029 7.34577 23.2279 7.34519C23.5013 7.65877 23.4653 7.78669 23.0798 7.65522C22.8991 7.59378 22.7742 7.41455 22.7099 7.61807C22.6807 7.71032 22.9272 7.86245 22.94 7.97259C22.9711 8.22135 22.6179 8.23705 22.5376 8.40949C22.5086 8.47192 22.6731 8.51678 22.6576 8.56272C22.617 8.68484 22.4577 8.69803 22.4308 8.83267C22.4285 8.84497 22.5759 8.92363 22.5543 8.95523C22.3929 9.19762 22.1627 9.32705 21.9795 9.56731C21.8915 9.68265 21.8086 9.9472 21.7045 10.0581C21.5273 10.2471 21.1449 10.3656 21.061 10.5819C21.0058 10.7224 21.1585 10.7925 21.2132 10.9089C21.3198 11.1338 20.8785 11.081 20.8131 11.0689C20.811 11.0684 20.8514 10.9446 20.744 10.9496C20.5779 10.8788 20.8133 11.0673 20.8131 11.0689C20.7705 11.0613 20.5959 11.2431 20.593 11.3019C20.5916 11.3339 20.7279 11.4116 20.7247 11.4266C20.6473 11.7789 20.4856 12.0803 20.2345 12.3158C20.2286 12.3189 20.0898 12.2123 20.0776 12.2209C19.9024 12.3381 20.0074 12.563 20.021 12.7682C20.0345 12.9735 19.9273 13.0558 19.6249 12.9675C19.5871 13.0907 19.3788 13.1624 19.2559 13.2011C19.1328 13.2401 19.4075 13.4412 19.4081 13.4523C19.4331 13.8017 19.1826 13.8268 18.9979 14.0509C18.9095 14.1574 18.8013 14.4116 18.7517 14.5555C18.7128 14.6696 18.6075 14.6851 18.5913 14.8033C18.589 14.8193 18.724 14.8896 18.7264 14.8965C18.8127 15.0961 18.5339 14.8458 18.4649 14.8306C18.2142 14.7752 18.0761 14.7526 18.0869 14.9441C18.0892 14.9883 18.4805 15.3648 18.4716 15.4361C18.4592 15.5285 18.3158 15.3983 18.3068 15.4977C18.3059 15.5061 18.4059 15.5686 18.3722 15.6115C18.2169 15.8114 18.0108 16.0068 17.8799 16.2352C17.8617 16.2661 18.0442 16.3274 18.0205 16.3737C17.909 16.5909 17.761 16.8128 17.5611 16.9672C17.5114 17.0049 17.4198 16.9044 17.3802 16.8945C17.1395 16.8358 17.3707 17.1106 17.3666 17.1295C17.2762 17.5846 16.8386 17.7042 16.7318 18.1597C16.7265 18.1849 16.9421 18.5341 16.631 18.4409C16.6102 18.4348 16.2931 18.3374 16.443 18.5137C16.4525 18.5247 16.6203 18.5673 16.5596 18.6345C16.4989 18.7018 16.5191 18.8813 16.3003 18.8916C16.2314 18.8948 15.9093 18.8077 16.068 19.0393C16.0792 19.0552 16.4819 19.5065 16.1074 19.3555C16.0459 19.3305 15.6899 19.1037 15.804 19.3338C15.8263 19.378 15.9317 19.3854 15.9463 19.4753C15.9691 19.6132 15.7997 19.6762 15.8941 19.8847C15.9109 19.9214 16.1073 20.1511 15.8809 20.1065C15.8454 20.0995 15.7362 20.0076 15.7017 20.0348C15.5369 20.1637 15.5123 20.3898 15.3273 20.5114C15.262 20.5547 15.0842 20.4079 14.9942 20.4402C14.9043 20.4726 14.7785 20.5706 14.8293 20.6896C14.8802 20.8086 15.2355 20.9201 15.2025 21.0338C15.0598 21.526 14.6235 21.8532 14.3491 22.2672C14.3083 22.3288 14.4516 22.3402 14.3992 22.4361C14.2037 22.795 13.9697 23.4521 13.5561 23.6238C13.225 23.761 13.2529 23.3689 13.0686 23.5127C12.98 23.5824 13.2928 23.887 13.2922 23.9153C13.2904 24.1939 13.0451 24.2494 12.9894 24.467C12.978 24.512 13.1488 24.5567 13.1373 24.5943C13.0983 24.7252 12.9638 24.81 12.9147 24.9273C12.8931 24.98 13.0124 25.0342 12.9783 25.0749C12.8982 25.1727 12.7972 25.2421 12.6318 25.2884C12.6167 25.2927 12.5102 25.1493 12.4607 25.2265C12.3808 25.3521 12.1882 25.4516 12.2132 25.6656C12.2214 25.7288 12.4822 25.8739 12.2486 25.8715C12.1998 25.871 11.8992 25.6734 12.1097 25.9341C12.1445 25.9779 12.409 26.3654 12.1228 26.3281C12.0474 26.3183 11.7561 26.24 11.7678 26.3152C11.7703 26.3259 11.9269 26.3735 11.9168 26.425C11.8798 26.603 11.7734 26.7637 11.7303 26.9498C11.719 26.9996 11.8998 27.0138 11.8784 27.0855C11.8198 27.2829 11.6651 27.4821 11.5286 27.6276C11.4779 27.6811 11.3798 27.5731 11.3642 27.5706C11.1109 27.5285 11.3757 27.7299 11.3794 27.7637C11.3972 27.9742 11.1983 28.0201 11.1591 28.1814C11.148 28.2256 11.3011 28.271 11.3093 28.2854C11.3872 28.4298 11.1704 28.2383 11.116 28.2749C10.9623 28.378 10.8927 28.5373 10.8325 28.695C10.8106 28.7531 11.0035 28.7762 10.9821 28.8272C10.8579 29.1314 10.6914 29.4139 10.4607 29.6423C10.416 29.687 10.3092 29.5892 10.2751 29.5857C10.0367 29.5603 10.25 29.8117 10.2628 29.8504C10.3209 30.0273 10.188 30.0155 10.1566 30.1273C10.0537 30.5103 9.81011 30.9474 9.59455 31.2973L7.93526 34.1091L6.49595 31.4571C6.41819 31.3089 6.34589 31.1647 6.27833 31.0324C5.96003 30.4109 5.78262 29.8844 5.39756 29.3437C5.37323 29.3092 5.23913 29.4449 5.21615 29.4165C4.92656 29.0449 4.74002 28.6164 4.44243 28.2488C4.41829 28.2185 4.29937 28.36 4.25562 28.3145C4.16485 28.2218 4.0866 28.081 4.06519 27.9425C4.05446 27.8751 4.22719 27.8647 4.21379 27.7986C4.18287 27.6443 4.10902 27.5049 4.00427 27.3929C3.95936 27.3455 3.85917 27.524 3.81266 27.4547C3.4927 26.9853 3.16708 26.5314 3.05601 25.9219C3.04842 25.8801 3.33909 25.6542 3.23489 25.6214C3.1457 25.6707 3.04494 25.7352 2.95174 25.7913C2.45852 25.1253 2.12643 24.3668 1.69795 23.6569C1.67985 23.627 1.54845 23.7822 1.51257 23.7248C1.30473 23.3928 1.05516 23.1009 1.00292 22.6593C0.99751 22.6156 1.29668 22.4494 1.1902 22.3783C1.17116 22.3659 1.038 22.2416 0.950948 22.2429C0.938184 22.2437 0.820935 22.3564 0.786494 22.311C0.588702 22.0453 0.433549 21.7336 0.338691 21.4031C0.323639 21.3496 0.497332 21.3063 0.487854 21.2674C0.419532 20.9921 0.153591 20.8146 0.145711 20.5151C0.140951 20.3142 0.42278 20.2103 0.617473 19.9781C0.644924 19.9453 0.593193 19.852 0.732061 19.7571C1.0811 19.5182 1.49931 19.3132 1.86808 19.0535C1.94756 18.9976 1.78279 18.9334 2.026 18.8787C2.04241 18.8753 2.1636 18.9207 2.24439 18.8995C2.30032 18.8849 2.4274 18.7662 2.50623 18.7589C2.58501 18.7517 2.48544 18.8621 2.58744 18.8683C2.69029 18.874 2.84022 18.7473 2.92394 18.836ZM18.7035 13.3801C18.5154 13.3681 19.0058 13.7108 18.9429 13.547C18.9393 13.5387 18.7129 13.3805 18.7035 13.3801ZM25.5721 4.39085C25.2951 4.29584 25.5191 4.62214 25.722 4.706C25.9258 4.78882 25.6555 4.42026 25.5721 4.39085ZM26.3466 3.37839C26.1001 3.32177 26.6592 3.9601 26.6532 3.73319C26.653 3.72026 26.3609 3.38175 26.3466 3.37839ZM0.914443 20.2915C0.920443 20.2862 0.885871 20.2174 0.878246 20.2201C0.696077 20.2877 0.765318 20.4251 0.914443 20.2915ZM27.1609 2.41195C27.0557 2.34842 27.0393 2.53103 27.1708 2.60861C27.2761 2.67132 27.2909 2.49134 27.1609 2.41195ZM15.5139 17.1871C15.5055 17.1837 15.4699 17.2263 15.5134 17.2517C15.6536 17.3335 15.6546 17.2444 15.5139 17.1871ZM28.9367 1.26561C28.6567 1.36411 28.1296 0.855508 28.5012 0.750722C28.5664 0.733713 28.4751 1.01467 28.5788 1.03271C28.7617 1.06873 28.665 0.627403 28.9011 0.780849C28.9408 0.810114 28.9512 1.26173 28.9366 1.26672C28.9366 1.26635 28.9367 1.26598 28.9367 1.26561ZM18.0753 13.0273C18.0676 13.0244 18.0193 13.0836 18.0248 13.0895C18.1602 13.2288 18.2576 13.1099 18.0753 13.0273ZM13.5443 19.7438C13.5276 19.7389 13.4246 19.8829 13.4351 19.8957C13.6563 20.1322 13.865 19.842 13.5443 19.7438ZM20.6664 8.57637C20.5633 8.39511 20.6056 8.30133 20.8371 8.39266C20.7773 8.45098 20.7258 8.51655 20.6664 8.57637Z" fill="#541E80"/>
</svg>
