<svg width="49" height="49" viewBox="0 0 49 49" fill="none" xmlns="http://www.w3.org/2000/svg">
<g clip-path="url(#clip0_527_2696)">
<path d="M43.0441 8.44828L44.9244 6.57088L46.2317 7.87689C46.6433 8.28502 47.2969 8.28502 47.7004 7.87689C48.112 7.46876 48.112 6.81576 47.7004 6.40763L43.6171 2.32634C43.2055 1.91821 42.5599 1.91821 42.1484 2.32634C41.7368 2.73447 41.7368 3.38747 42.1484 3.7956L43.4557 5.10161L41.6561 6.97901C32.1095 -2.32634 17.0028 -2.32634 7.4481 6.97901L5.56783 5.10161L6.87515 3.7956C7.28671 3.38747 7.28671 2.73447 6.87515 2.32634C6.46359 1.91821 5.80993 1.91821 5.40644 2.32634L1.33117 6.40763C0.919613 6.81576 0.919613 7.46876 1.33117 7.87689C1.74274 8.28502 2.38832 8.28502 2.79988 7.87689L4.1072 6.57088L5.98747 8.44828C-2.3406 18.0801 -2.00974 32.6912 7.21408 41.8332C16.7688 51.3835 32.279 51.3835 41.8256 41.8332C50.9687 32.6912 51.3802 18.0801 43.0522 8.44828H43.0441ZM24.5158 46.9757C12.1044 46.9757 2.06553 36.9357 2.06553 24.5286C2.06553 12.1214 12.1044 2.08146 24.5158 2.08146C36.9272 2.08146 46.9661 12.1214 46.9661 24.5286C46.9661 36.9357 36.9272 46.9757 24.5158 46.9757Z" fill="#541E80"/>
<path d="M24.5161 5.10156C13.8236 5.10156 5.08398 13.8355 5.08398 24.4469C5.08398 35.0583 13.8155 43.8738 24.5161 43.8738C35.2167 43.8738 43.9483 35.1399 43.9483 24.4469C43.8676 13.8355 35.2167 5.10156 24.5161 5.10156ZM25.4926 41.8332V37.7519C25.4926 37.1805 25.0003 36.6908 24.4354 36.6908C23.8705 36.6908 23.3783 37.1805 23.3783 37.7519V41.8332C14.6467 41.3434 7.62598 34.3236 7.05302 25.508H11.1364C11.7093 25.508 12.1935 25.0183 12.1935 24.4469C12.1935 23.8755 11.7012 23.3858 11.1364 23.3858H7.05302C7.54528 14.6518 14.566 7.63196 23.3783 7.06058V11.1419C23.3783 11.7133 23.8705 12.203 24.4354 12.203C25.0003 12.203 25.4926 11.7133 25.4926 11.1419V7.06058C34.2241 7.55034 41.2449 14.5702 41.8178 23.3858H37.7345C37.1616 23.3858 36.6693 23.8755 36.6693 24.4469C36.6693 25.0183 37.1616 25.508 37.7345 25.508H41.8178C41.3256 34.3236 34.3048 41.3434 25.4926 41.8332Z" fill="#541E80"/>
<path d="M25.4919 21.6717V16.3661C25.4919 15.7947 24.9996 15.3049 24.4348 15.3049C23.8699 15.3049 23.3776 15.7947 23.3776 16.3661V21.6717C22.151 22.0799 21.3359 23.2226 21.3359 24.5287C21.3359 25.8347 22.151 26.9774 23.3776 27.3856V28.6099C23.3776 29.1813 23.8699 29.6711 24.4348 29.6711C24.9996 29.6711 25.4919 29.1813 25.4919 28.6099V27.3856C26.7185 26.9774 27.5336 25.8347 27.5336 24.5287C27.5336 23.2226 26.7185 22.0799 25.4919 21.6717ZM24.5154 25.5082C23.9425 25.5082 23.4583 25.0184 23.4583 24.447C23.4583 23.8756 23.9506 23.3859 24.5154 23.3859C25.0803 23.3859 25.5726 23.8756 25.5726 24.447C25.5726 25.0184 25.0803 25.5082 24.5154 25.5082Z" fill="#541E80"/>
</g>
<defs>
<clipPath id="clip0_527_2696">
<rect width="49" height="49" fill="white"/>
</clipPath>
</defs>
</svg>
