<svg width="48" height="47" viewBox="0 0 48 47" fill="none" xmlns="http://www.w3.org/2000/svg">
<g clip-path="url(#clip0_527_2743)">
<path d="M12.4577 41.7605C12.8603 42.1515 13.4998 42.1515 13.8945 41.7605L24.1182 31.6723C24.5209 31.2813 24.5209 30.6557 24.1182 30.2646L23.163 29.3262C22.7603 28.9352 22.1209 28.9352 21.7261 29.3262C21.3235 29.7172 21.3235 30.3428 21.7261 30.7339L22.0498 31.0467L13.184 39.649L7.43665 34.0184L16.3024 25.3378L16.6261 25.6507C17.0288 26.0417 17.6603 26.0417 18.063 25.6507C18.4656 25.2596 18.4656 24.634 18.063 24.243L17.0288 23.2264C16.6261 22.8354 15.9866 22.8354 15.5919 23.2264L5.28928 33.3146C4.88665 33.7056 4.88665 34.3312 5.28928 34.7222L12.4735 41.7605H12.4577Z" fill="#541E80"/>
<path d="M24.7581 17.5957C25.1607 17.9867 25.8002 17.9867 26.1949 17.5957C26.5975 17.2047 26.5975 16.5791 26.1949 16.188L25.8791 15.8752L34.7449 7.27291L40.4923 12.9035L31.6265 21.5841L31.3107 21.2712C30.9081 20.8802 30.2686 20.8802 29.8739 21.2712C29.4791 21.6623 29.4712 22.2879 29.8739 22.6789L30.916 23.6955C31.3186 24.0865 31.9502 24.0865 32.3528 23.6955L42.6554 13.6073C43.0581 13.2163 43.0581 12.5907 42.6554 12.1997L35.4712 5.16143C35.0686 4.77041 34.437 4.77041 34.0344 5.16143L23.8107 15.2496C23.416 15.6406 23.416 16.2663 23.8107 16.6573L24.766 17.5957H24.7581Z" fill="#541E80"/>
<path d="M31.3026 16.2662C30.9 15.8751 30.2605 15.8751 29.8658 16.2662L17.0842 28.7786C16.6816 29.1697 16.6816 29.7953 17.0842 30.1863C17.4868 30.5773 18.1263 30.5773 18.521 30.1863L31.3026 17.5956C31.7053 17.2046 31.7053 16.579 31.3026 16.2662Z" fill="#541E80"/>
<path d="M46.9579 0H1.03421C0.481579 0 0 0.469218 0 1.01664V45.9834C0 46.5308 0.481579 47 1.03421 47H46.9579C47.5184 47 47.9921 46.5308 47.9921 45.9834V1.01664C47.9132 0.469218 47.4316 0 46.9579 0ZM45.9158 44.9667H1.99737V1.95508H45.9237V44.9667H45.9158Z" fill="#541E80"/>
</g>
<defs>
<clipPath id="clip0_527_2743">
<rect width="48" height="47" fill="white"/>
</clipPath>
</defs>
</svg>
