<svg width="49" height="48" viewBox="0 0 49 48" fill="none" xmlns="http://www.w3.org/2000/svg">
<g clip-path="url(#clip0_527_2736)">
<path d="M13.2899 4.47266C8.47852 4.47266 4.65039 9.10494 4.65039 12.9385C4.65039 13.4976 5.142 13.9768 5.70615 13.9768C6.27029 13.9768 6.7619 13.4976 6.7619 12.9385C6.7619 10.0633 9.85664 6.46933 13.3624 6.46933C13.9346 6.46933 14.4182 5.99013 14.4182 5.43106C14.257 4.95186 13.7654 4.47266 13.2737 4.47266H13.2899Z" fill="#541E80"/>
<path d="M25.193 40.5724C27.8848 37.9368 30.5766 35.3012 33.1797 32.5857C33.5907 32.1864 33.5907 31.5475 33.1797 31.1481C32.7687 30.7488 32.1159 30.7488 31.7129 31.1481C29.1823 33.7837 26.41 36.4992 23.7262 39.1348C23.3152 39.5342 23.3152 40.1731 23.7262 40.5724C23.8874 40.7322 24.2178 40.8919 24.4596 40.8919C24.9512 40.9718 25.193 40.5724 25.193 40.5724Z" fill="#541E80"/>
<path d="M35.549 28.6722C35.96 29.0716 36.6048 28.9917 37.0158 28.5924C37.5074 28.0333 38.0796 27.3944 38.5632 26.8353C38.8855 26.436 38.8855 25.797 38.402 25.3977C37.9909 25.0782 37.3462 25.0782 36.9352 25.5574C36.4436 26.1165 35.96 26.6756 35.4684 27.2346C35.0574 27.7138 35.146 28.3528 35.549 28.6722Z" fill="#541E80"/>
<path d="M47.9362 45.9235H26.9016C37.7413 35.3012 48.9114 23.9601 48.9114 12.4592C48.9114 5.59068 43.2054 0 36.1939 0C30.2462 0 27.1434 2.79534 24.4516 7.50749C21.7679 2.87521 18.6732 0 12.7174 0C5.70592 0 0 5.59068 0 12.4592C0 18.9285 3.58635 25.0782 7.50313 30.2696C11.5005 35.5408 16.7954 40.812 22.0178 45.9235H1.05576C0.483553 45.9235 0 46.4027 0 46.9617C0 47.5208 0.491612 48 1.05576 48H47.9362C48.5084 48 49 47.5208 49 46.9617C48.9194 46.4027 48.4278 45.9235 47.9362 45.9235ZM2.03898 12.4592C2.03898 6.70882 6.85033 1.99667 12.7174 1.99667C17.69 1.99667 20.4623 3.99335 23.5571 10.0632C23.9681 10.782 25.0238 10.782 25.3543 10.0632C28.449 3.99335 31.1408 1.99667 36.1939 1.99667C42.061 1.99667 46.8724 6.70882 46.8724 12.4592C46.8724 17.411 44.511 22.8419 39.7803 29.0716C35.6217 34.5025 29.9964 40.0932 24.4516 45.5241C18.9069 40.0932 13.2816 34.5824 9.12303 29.0716C4.40033 22.8419 2.03898 17.411 2.03898 12.4592Z" fill="#541E80"/>
</g>
<defs>
<clipPath id="clip0_527_2736">
<rect width="49" height="48" fill="white"/>
</clipPath>
</defs>
</svg>
