<svg width="53" height="46" viewBox="0 0 53 46" fill="none" xmlns="http://www.w3.org/2000/svg">
<g clip-path="url(#clip0_527_2775)">
<path d="M46.1449 18.6793V7.68121C46.1449 7.07021 45.6149 6.54649 45.0067 6.54649H34.0244C33.4944 2.88046 30.2449 0 26.3785 0C22.5121 0 19.2626 2.88046 18.7326 6.54649H7.74158C7.12469 6.54649 6.60338 7.07021 6.60338 7.68121V18.6793C2.91076 19.203 0.00878906 22.4326 0.00878906 26.2732C0.00878906 30.1139 2.91076 33.3435 6.60338 33.8672V44.8653C6.60338 45.4763 7.13338 46 7.74158 46H19.7839C20.4008 46 20.9221 45.4763 20.9221 44.8653C20.9221 41.8975 23.3809 39.3662 26.4567 39.3662C29.5324 39.3662 31.9912 41.8102 31.9912 44.8653C31.9912 45.4763 32.5212 46 33.1294 46H45.2586C45.8755 46 46.3968 45.4763 46.3968 44.8653V33.7799C50.0894 33.2562 52.9914 30.0266 52.9914 26.186C52.7308 22.3454 49.8288 19.203 46.1362 18.6793H46.1449ZM45.0935 31.685C44.4767 31.685 43.9553 32.2087 43.9553 32.8197V43.7305H34.0244C33.4944 40.0645 30.2449 37.1841 26.3785 37.1841C22.5121 37.1841 19.2626 40.0645 18.7326 43.7305H8.80158V32.8197C8.80158 32.2087 8.27157 31.685 7.66338 31.685C4.67453 31.685 2.12879 29.241 2.12879 26.186C2.12879 23.1309 4.58764 20.6869 7.66338 20.6869C8.28026 20.6869 8.80158 20.1632 8.80158 19.5522V8.81594H19.7926C20.4094 8.81594 20.9308 8.29222 20.9308 7.68121C20.9308 4.71347 23.3896 2.18216 26.4653 2.18216C29.5411 2.18216 31.9999 4.62619 31.9999 7.68121C31.9999 8.29222 32.5299 8.81594 33.1381 8.81594H44.1204V19.7268C44.1204 20.3378 44.6504 20.8615 45.2673 20.8615C48.2562 20.8615 50.8019 23.3055 50.8019 26.3605C50.8019 29.4156 48.0737 31.685 45.0849 31.685H45.0935Z" fill="#541E80"/>
<path d="M15.3788 9.86328H12.0424C11.4255 9.86328 10.8955 10.387 10.8955 10.998V16.4098C10.8955 17.0208 11.4255 17.5445 12.0424 17.5445C12.6593 17.5445 13.1806 17.0208 13.1806 16.4098V12.0454H15.3788C15.9957 12.0454 16.517 11.5217 16.517 10.9107C16.517 10.387 15.987 9.86328 15.3788 9.86328Z" fill="#541E80"/>
</g>
<defs>
<clipPath id="clip0_527_2775">
<rect width="53" height="46" fill="white"/>
</clipPath>
</defs>
</svg>
