<svg width="48" height="48" viewBox="0 0 48 48" fill="none" xmlns="http://www.w3.org/2000/svg">
<g clip-path="url(#clip0_527_2821)">
<path d="M23.9606 30.9111C21.2448 30.9111 18.9316 33.147 18.9316 35.9419C18.9316 38.7368 21.1659 40.9727 23.9606 40.9727C26.7553 40.9727 28.9895 38.7368 28.9895 35.9419C28.9895 33.147 26.6764 30.9111 23.9606 30.9111ZM23.9606 38.8965C22.2869 38.8965 20.929 37.539 20.929 35.8621C20.929 34.1851 22.2869 32.8276 23.9606 32.8276C25.6343 32.8276 26.9922 34.1851 26.9922 35.8621C26.9922 37.539 25.6343 38.8965 23.9606 38.8965Z" fill="#541E80"/>
<path d="M46.9579 45.924H30.5842C33.7816 43.7679 35.9368 40.0947 35.9368 35.9423C35.9368 31.7899 33.7026 27.8771 30.2684 25.8009L40.3342 11.5071L40.8947 15.1005C40.9737 15.5796 41.3763 15.9789 41.85 15.9789C42.4895 15.9789 42.9711 15.4199 42.8053 14.8609C42.4895 12.625 41.85 8.87193 41.85 8.79207C41.7711 8.31295 41.3684 7.99354 40.8947 7.99354H34.8237C34.2632 7.99354 33.7816 8.47266 33.7816 9.03163C33.7816 9.59061 34.2632 10.0697 34.8237 10.0697H38.8974L28.5158 24.8426C27.3947 24.3635 26.2026 24.124 25.0026 23.9643V3.12247L28.3579 5.83749C28.7605 6.1569 29.4 6.07705 29.7947 5.67778C30.1105 5.27851 30.0316 4.63969 29.6368 4.24042C24.4342 0.0880305 24.6789 0.247738 24.6 0.167884C24.2842 0.00817695 23.9605 -0.0716766 23.6447 0.0880306C23.5395 0.141266 23.4605 0.194502 23.4079 0.247738C23.0053 0.567152 18.7737 4.00086 18.4579 4.24042C18.0553 4.55983 17.9763 5.19866 18.3 5.67778C18.6158 6.07705 19.2553 6.1569 19.7368 5.83749L23.0921 3.12247V24.0441C21.8132 24.124 20.6132 24.4434 19.5789 24.9225L8.94474 9.98988H13.0184C13.5789 9.98988 14.0605 9.51076 14.0605 8.95178C14.0605 8.39281 13.5789 7.91368 13.0184 7.91368H6.94737C6.54474 7.99354 6.15 8.2331 6.07105 8.63237C6.07105 8.71222 5.03684 14.7012 5.03684 14.7012C4.95789 15.3401 5.43947 15.899 5.99211 15.899C6.47368 15.899 6.86842 15.5796 6.94737 15.1005L7.58684 11.5869L17.6526 25.8009C14.2974 27.9569 11.9842 31.7101 11.9842 35.9423C11.9842 40.1745 14.1395 43.7679 17.3368 45.924H1.03421C0.473684 45.924 0 46.4031 0 46.9621C0 47.5211 0.481579 48.0002 1.03421 48.0002H46.9579C47.5184 48.0002 48 47.5211 48 46.9621C47.9211 46.4031 47.4395 45.924 46.9579 45.924ZM13.9737 35.9423C13.9737 30.4324 18.45 25.9606 23.9526 25.9606C29.4553 25.9606 33.9316 30.4324 33.9316 35.9423C33.9316 41.4522 29.4632 45.924 23.9526 45.924C18.4421 45.924 13.9737 41.4522 13.9737 35.9423Z" fill="#541E80"/>
<path d="M5.02865 33.9458C6.70233 33.9458 8.06023 32.5883 8.06023 30.9114C8.06023 29.2345 6.70233 27.877 5.02865 27.877C3.35496 27.877 1.99707 29.3143 1.99707 30.9114C1.99707 32.5085 3.35496 33.9458 5.02865 33.9458ZM5.02865 29.9531C5.58918 29.9531 6.06286 30.4323 6.06286 30.9912C6.06286 31.5502 5.58128 32.0293 5.02865 32.0293C4.47602 32.0293 3.99444 31.5502 3.99444 30.9912C3.99444 30.4323 4.47602 29.9531 5.02865 29.9531Z" fill="#541E80"/>
<path d="M38.9766 38.8967C38.9766 40.5737 40.3345 41.9312 42.0081 41.9312C43.6818 41.9312 45.0397 40.5737 45.0397 38.8967C45.0397 37.2198 43.6818 35.8623 42.0081 35.8623C40.3345 35.8623 38.9766 37.2997 38.9766 38.8967ZM42.9713 38.8967C42.9713 39.4557 42.4897 39.9348 41.9292 39.9348C41.3687 39.9348 40.8871 39.4557 40.8871 38.8967C40.8871 38.3378 41.3687 37.8586 41.9292 37.8586C42.4897 37.8586 42.9713 38.4176 42.9713 38.8967Z" fill="#541E80"/>
</g>
<defs>
<clipPath id="clip0_527_2821">
<rect width="48" height="48" fill="white"/>
</clipPath>
</defs>
</svg>
