<svg width="48" height="48" viewBox="0 0 48 48" fill="none" xmlns="http://www.w3.org/2000/svg">
<g clip-path="url(#clip0_527_2815)">
<path d="M24 0C10.715 0 0 10.72 0 24C0 37.28 10.715 48 24 48C37.285 48 48 37.28 48 24C48 10.72 37.2771 0 24 0ZM24 46C11.8379 46 2.00066 36.16 2.00066 24C2.00066 11.84 11.8379 2 24 2C36.1621 2 45.9993 11.84 45.9993 24C45.9993 36.16 36.1621 46 24 46Z" fill="#541E80"/>
<path d="M23.9999 5.04004C13.5221 5.04004 4.95801 13.6 4.95801 24.08C4.95801 34.56 13.5142 43.12 23.9999 43.12C34.4855 43.12 43.0417 34.56 43.0417 24.08C43.0417 13.6 34.4776 5.04004 23.9999 5.04004ZM23.9999 41.04C14.6371 41.04 6.95867 33.44 6.95867 24C6.95867 14.56 14.558 6.96004 23.9999 6.96004C33.4417 6.96004 41.041 14.56 41.041 24C41.041 33.44 33.3626 41.04 23.9999 41.04Z" fill="#541E80"/>
<path d="M37.1185 19.7602C36.9603 19.3602 36.6361 19.0402 36.1616 19.0402H27.6055L24.9643 10.8802C24.8061 10.4802 24.4819 10.1602 24.0074 10.1602C23.6041 10.1602 23.2088 10.4002 23.0506 10.8802L20.4094 19.0402H11.8532C11.4499 19.0402 11.0546 19.2802 10.8964 19.7602C10.7383 20.1602 10.8964 20.6402 11.2997 20.8802L18.2585 25.9202L15.6173 34.0802C15.4592 34.4802 15.6173 34.9602 16.0206 35.2002C16.3369 35.4402 16.8193 35.4402 17.2226 35.2002L24.1814 30.1602L31.1402 35.2002C31.4565 35.4402 31.9389 35.4402 32.3422 35.2002C32.6585 34.9602 32.8246 34.4802 32.7455 34.0802L30.1043 25.9202L37.0631 20.8802C37.1422 20.5602 37.3004 20.1602 37.1422 19.7602H37.1185ZM28.0799 24.7202C27.7557 24.9602 27.5976 25.4402 27.6766 25.8402L29.5982 31.7602L24.561 28.0802C24.2368 27.8402 23.7623 27.8402 23.359 28.0802L18.3218 31.7602L20.2434 25.8402C20.4015 25.4402 20.2434 24.9602 19.8401 24.7202L14.8028 21.0402H21.042C21.4453 21.0402 21.8407 20.8002 21.9989 20.3202L23.9205 14.4002L25.842 20.3202C26.0002 20.7202 26.3244 21.0402 26.7989 21.0402H33.0381L28.0799 24.7202Z" fill="#541E80"/>
</g>
<defs>
<clipPath id="clip0_527_2815">
<rect width="48" height="48" fill="white"/>
</clipPath>
</defs>
</svg>
