<svg width="274" height="144" viewBox="0 0 274 144" fill="none" xmlns="http://www.w3.org/2000/svg">
<g opacity="0.65">
<path d="M70.5699 134.521C70.5099 134.521 70.4599 134.501 70.4099 134.471C70.3599 134.431 70.3199 134.351 70.2999 134.221L69.7699 129.691C69.7299 129.311 69.6899 129.021 69.6499 128.821C69.6099 128.621 69.5699 128.471 69.5299 128.371C69.4899 128.271 69.4499 128.181 69.3999 128.101C69.3399 127.991 69.2899 127.901 69.2499 127.831C69.2099 127.761 69.1799 127.701 69.1799 127.631C69.1799 127.561 69.2199 127.491 69.2999 127.421C69.3799 127.351 69.4799 127.291 69.5999 127.241C69.7199 127.191 69.8399 127.141 69.9699 127.111C70.0999 127.081 70.2099 127.061 70.2999 127.061C70.4099 127.061 70.5099 127.121 70.5999 127.231C70.6999 127.351 70.7799 127.541 70.8599 127.821C70.9399 128.101 70.9999 128.481 71.0399 128.981L71.4599 133.391L71.0499 133.521L73.3199 128.481L73.4399 130.121L71.8499 133.881C71.7899 134.031 71.6499 134.181 71.4299 134.321C71.2099 134.461 70.9299 134.531 70.5799 134.531L70.5699 134.521ZM73.9899 134.521C73.9299 134.521 73.8799 134.501 73.8299 134.471C73.7799 134.431 73.7399 134.351 73.7199 134.221L73.2099 129.961L73.0699 129.191C73.0099 128.851 72.9599 128.591 72.9099 128.421C72.8599 128.251 72.8099 128.111 72.7499 128.011C72.6899 127.901 72.6499 127.821 72.6199 127.751C72.5899 127.681 72.5699 127.621 72.5699 127.551C72.5699 127.481 72.6099 127.411 72.6799 127.351C72.7499 127.291 72.85 127.241 72.95 127.201C73.06 127.161 73.1699 127.121 73.2899 127.101C73.4099 127.081 73.5099 127.061 73.5899 127.061C73.7699 127.061 73.9199 127.211 74.0399 127.501C74.1599 127.801 74.2599 128.291 74.3399 128.981L74.8499 133.391L74.4899 133.521L76.1499 129.191C76.2299 128.981 76.2899 128.811 76.3099 128.671C76.3299 128.541 76.3399 128.411 76.3399 128.301C76.3399 128.191 76.3399 128.061 76.3599 127.921C76.3699 127.791 76.4399 127.671 76.5599 127.561C76.6799 127.451 76.8099 127.361 76.9599 127.291C77.1099 127.211 77.2599 127.151 77.3899 127.111C77.5199 127.071 77.6299 127.051 77.6899 127.051C77.8799 127.051 77.9799 127.111 77.9799 127.231C77.9799 127.271 77.9799 127.311 77.9599 127.351C77.9499 127.401 77.9199 127.451 77.8999 127.501L75.2399 133.831C75.1999 133.931 75.1199 134.031 75.0199 134.141C74.9199 134.251 74.7799 134.341 74.6099 134.411C74.4399 134.481 74.2399 134.521 73.9999 134.521H73.9899Z" fill="white"/>
<path d="M79.2201 134.531C78.6101 134.531 78.1401 134.351 77.8101 134.001C77.4801 133.641 77.3101 133.121 77.3101 132.431C77.3101 131.971 77.3901 131.551 77.5401 131.161C77.6901 130.771 77.9001 130.431 78.1601 130.131C78.4201 129.831 78.7201 129.601 79.0601 129.441C79.4001 129.281 79.76 129.191 80.14 129.191C80.75 129.191 81.2101 129.371 81.5301 129.731C81.8501 130.091 82.0101 130.631 82.0101 131.361C82.0101 131.801 81.9401 132.211 81.7901 132.591C81.6501 132.971 81.4501 133.311 81.1901 133.601C80.9301 133.891 80.64 134.121 80.3 134.291C79.96 134.461 79.6001 134.541 79.2101 134.541L79.2201 134.531ZM79.4701 133.741C79.7401 133.741 79.9701 133.641 80.1601 133.441C80.3501 133.241 80.5001 132.971 80.6001 132.631C80.7001 132.291 80.7501 131.901 80.7501 131.471C80.7501 131.011 80.6801 130.651 80.5401 130.381C80.4001 130.111 80.18 129.981 79.86 129.981C79.6 129.981 79.3701 130.081 79.1701 130.281C78.9701 130.481 78.8101 130.751 78.7101 131.091C78.6001 131.431 78.55 131.821 78.55 132.261C78.55 132.751 78.6301 133.121 78.7801 133.371C78.9301 133.621 79.1601 133.751 79.4701 133.751V133.741Z" fill="white"/>
<path d="M82.8999 134.521C82.8099 134.521 82.7399 134.501 82.6899 134.471C82.6399 134.441 82.6199 134.361 82.6199 134.221C82.6199 134.091 82.6299 133.871 82.6699 133.581L83.1699 129.181H83.9099C84.0499 129.181 84.1499 129.261 84.2199 129.411C84.2899 129.561 84.3199 129.741 84.3199 129.941C84.3199 130.031 84.2899 130.171 84.2399 130.371C84.1899 130.561 84.1299 130.771 84.0599 130.981C83.9899 131.191 83.9299 131.381 83.8699 131.551L83.5999 132.421L83.9899 132.361L83.8099 134.081C83.8099 134.151 83.7599 134.211 83.6899 134.271C83.6199 134.331 83.5299 134.371 83.4299 134.411C83.3299 134.451 83.2299 134.481 83.1399 134.491C83.0399 134.511 82.9699 134.521 82.9099 134.521H82.8999ZM86.0199 134.521C85.8899 134.521 85.8199 134.501 85.7899 134.451C85.7599 134.401 85.7499 134.321 85.7499 134.201C85.7499 134.091 85.7599 133.921 85.7899 133.681C85.8099 133.441 85.8699 133.071 85.9499 132.581L86.1399 131.491C86.1699 131.351 86.1899 131.211 86.2099 131.071C86.2299 130.931 86.2399 130.791 86.2399 130.651C86.2399 130.551 86.2199 130.481 86.1899 130.431C86.1599 130.381 86.0999 130.361 86.0199 130.361C85.9199 130.361 85.7599 130.451 85.5399 130.621C85.3199 130.801 85.0899 131.051 84.8499 131.371C84.6099 131.691 84.3899 132.091 84.1899 132.541C83.9899 133.001 83.8699 133.511 83.8099 134.071L83.5599 132.521C83.7699 131.911 84.0099 131.391 84.2799 130.971C84.5499 130.551 84.8199 130.211 85.0899 129.941C85.3599 129.681 85.6299 129.491 85.8799 129.371C86.1299 129.251 86.3499 129.191 86.5299 129.191C86.7599 129.191 86.9399 129.231 87.0699 129.321C87.1999 129.401 87.2899 129.521 87.3399 129.651C87.3899 129.791 87.4199 129.931 87.4199 130.081C87.4199 130.261 87.3899 130.441 87.3399 130.631C87.2799 130.821 87.2099 131.051 87.1099 131.321C87.0099 131.591 86.9099 131.941 86.7999 132.361L87.1499 132.231L86.9599 134.071C86.9599 134.141 86.9099 134.201 86.8399 134.261C86.7699 134.321 86.6799 134.361 86.5799 134.401C86.4799 134.441 86.3799 134.461 86.2699 134.481C86.1699 134.501 86.0799 134.511 86.0199 134.511V134.521ZM89.1799 134.481C89.0999 134.481 89.0499 134.441 89.0099 134.371C88.9699 134.301 88.9499 134.211 88.9499 134.121C88.9499 134.031 88.9399 133.951 88.9399 133.901C88.9399 133.801 88.9399 133.671 88.9599 133.521C88.9799 133.371 88.9899 133.201 89.0099 133.031C89.0299 132.861 89.0499 132.711 89.0699 132.581L89.2499 131.481C89.2699 131.341 89.2899 131.211 89.3099 131.081C89.3299 130.961 89.3399 130.821 89.3399 130.681C89.3399 130.571 89.3199 130.491 89.2799 130.441C89.2399 130.381 89.1799 130.361 89.1099 130.361C89.0199 130.361 88.8699 130.451 88.6599 130.621C88.4499 130.801 88.2199 131.051 87.9799 131.371C87.7399 131.691 87.5199 132.091 87.3199 132.541C87.1199 132.991 86.9999 133.511 86.9399 134.071L86.7099 132.521C86.9999 131.701 87.3199 131.051 87.6799 130.571C88.0399 130.081 88.3899 129.731 88.7399 129.521C89.0899 129.311 89.3999 129.201 89.6599 129.201C89.8799 129.201 90.0499 129.241 90.1799 129.321C90.3099 129.401 90.4099 129.511 90.4699 129.661C90.5299 129.811 90.5699 129.981 90.5699 130.191C90.5699 130.341 90.5599 130.491 90.5299 130.661C90.5099 130.831 90.4799 131.001 90.4499 131.181L89.9399 134.491H89.1699L89.1799 134.481Z" fill="white"/>
<path d="M92.92 134.541C92.38 134.541 91.96 134.371 91.66 134.031C91.36 133.691 91.22 133.221 91.22 132.621C91.22 132.121 91.29 131.661 91.43 131.251C91.57 130.831 91.77 130.471 92.02 130.161C92.27 129.851 92.57 129.611 92.91 129.441C93.25 129.271 93.62 129.191 94.02 129.191C94.5 129.191 94.87 129.291 95.12 129.501C95.37 129.701 95.5 130.001 95.5 130.381C95.5 130.761 95.37 131.111 95.11 131.391C94.85 131.681 94.48 131.931 94 132.131C93.52 132.331 92.94 132.511 92.27 132.651L92.13 132.021C92.52 131.971 92.87 131.891 93.2 131.771C93.52 131.651 93.78 131.491 93.98 131.291C94.18 131.091 94.28 130.851 94.28 130.581C94.28 130.391 94.24 130.251 94.17 130.151C94.1 130.051 93.96 130.001 93.77 130.001C93.48 130.001 93.24 130.111 93.04 130.321C92.84 130.531 92.69 130.811 92.59 131.141C92.49 131.481 92.44 131.841 92.44 132.221C92.44 132.731 92.52 133.081 92.68 133.251C92.84 133.421 93.07 133.511 93.38 133.511C93.69 133.511 93.99 133.461 94.23 133.361C94.47 133.261 94.68 133.151 94.86 133.041C94.92 133.001 94.97 132.981 95.01 132.961C95.05 132.941 95.09 132.931 95.12 132.931C95.16 132.931 95.18 132.941 95.2 132.971C95.22 133.001 95.23 133.031 95.23 133.061C95.23 133.191 95.17 133.331 95.06 133.501C94.95 133.671 94.79 133.831 94.58 134.001C94.37 134.161 94.13 134.301 93.85 134.411C93.57 134.521 93.26 134.571 92.92 134.571V134.541Z" fill="white"/>
<path d="M96.3401 134.521C96.2501 134.521 96.1801 134.501 96.1301 134.471C96.0801 134.441 96.0601 134.361 96.0601 134.221C96.0601 134.091 96.07 133.871 96.11 133.581L96.61 129.181H97.3501C97.4601 129.181 97.55 129.261 97.64 129.411C97.72 129.561 97.7701 129.741 97.7701 129.941C97.7701 130.031 97.7401 130.171 97.6901 130.371C97.6401 130.561 97.5801 130.771 97.5001 130.981C97.4301 131.191 97.3701 131.381 97.3101 131.551L97.0401 132.421L97.4301 132.361L97.2601 134.091C97.2601 134.161 97.2101 134.221 97.1301 134.281C97.0501 134.341 96.96 134.381 96.86 134.421C96.75 134.461 96.6501 134.481 96.5601 134.501C96.4601 134.521 96.4001 134.531 96.3501 134.531L96.3401 134.521ZM99.5001 134.481C99.4201 134.481 99.36 134.441 99.33 134.371C99.29 134.301 99.2701 134.211 99.2601 134.121C99.2501 134.031 99.2401 133.951 99.2401 133.901C99.2401 133.801 99.2401 133.671 99.2601 133.521C99.2801 133.371 99.2901 133.201 99.3101 133.031C99.3301 132.861 99.3501 132.711 99.3701 132.581L99.55 131.481C99.57 131.341 99.59 131.211 99.61 131.081C99.63 130.961 99.64 130.821 99.64 130.681C99.64 130.571 99.62 130.491 99.58 130.441C99.54 130.381 99.4801 130.361 99.4101 130.361C99.3201 130.361 99.1701 130.451 98.9601 130.621C98.7501 130.801 98.5201 131.051 98.2801 131.381C98.0401 131.711 97.8201 132.101 97.6301 132.561C97.4401 133.021 97.3101 133.531 97.2501 134.091L96.9801 132.531C97.1901 131.921 97.4301 131.401 97.6901 130.981C97.9501 130.561 98.2201 130.221 98.5001 129.951C98.7701 129.691 99.04 129.501 99.3 129.381C99.56 129.261 99.7801 129.201 99.9801 129.201C100.19 129.201 100.36 129.241 100.49 129.321C100.62 129.401 100.72 129.511 100.78 129.641C100.84 129.781 100.87 129.941 100.87 130.121C100.87 130.301 100.86 130.471 100.83 130.641C100.81 130.811 100.78 130.991 100.75 131.171L100.24 134.481H99.4901H99.5001Z" fill="white"/>
<path d="M104.89 134.461C104.79 134.461 104.71 134.421 104.65 134.331C104.59 134.251 104.55 134.141 104.52 134.001C104.49 133.871 104.48 133.731 104.48 133.601C104.48 133.311 104.5 133.031 104.53 132.761C104.57 132.491 104.6 132.201 104.63 131.891L105.14 127.021H105.88C106.06 127.021 106.18 127.091 106.24 127.231C106.3 127.371 106.33 127.531 106.33 127.721C106.33 127.891 106.33 128.041 106.31 128.171C106.3 128.301 106.28 128.471 106.25 128.661C106.23 128.851 106.2 129.111 106.16 129.441L105.63 134.451H104.89V134.461Z" fill="white"/>
<path d="M107.29 134.521C107.2 134.521 107.13 134.501 107.08 134.471C107.03 134.441 107.01 134.361 107.01 134.221C107.01 134.091 107.02 133.871 107.06 133.581L107.56 129.181H108.3C108.41 129.181 108.5 129.261 108.59 129.411C108.67 129.561 108.72 129.741 108.72 129.941C108.72 130.031 108.69 130.171 108.64 130.371C108.59 130.561 108.53 130.771 108.45 130.981C108.38 131.191 108.32 131.381 108.26 131.551L107.99 132.421L108.38 132.361L108.21 134.091C108.21 134.161 108.16 134.221 108.08 134.281C108 134.341 107.91 134.381 107.81 134.421C107.7 134.461 107.6 134.481 107.51 134.501C107.41 134.521 107.35 134.531 107.3 134.531L107.29 134.521ZM110.45 134.481C110.37 134.481 110.31 134.441 110.28 134.371C110.24 134.301 110.22 134.211 110.21 134.121C110.2 134.031 110.19 133.951 110.19 133.901C110.19 133.801 110.19 133.671 110.21 133.521C110.23 133.371 110.24 133.201 110.26 133.031C110.28 132.861 110.3 132.711 110.32 132.581L110.5 131.481C110.52 131.341 110.54 131.211 110.56 131.081C110.58 130.961 110.59 130.821 110.59 130.681C110.59 130.571 110.57 130.491 110.53 130.441C110.49 130.381 110.43 130.361 110.36 130.361C110.27 130.361 110.12 130.451 109.91 130.621C109.7 130.801 109.47 131.051 109.23 131.381C108.99 131.711 108.77 132.101 108.58 132.561C108.39 133.021 108.26 133.531 108.2 134.091L107.93 132.531C108.14 131.921 108.38 131.401 108.64 130.981C108.9 130.561 109.17 130.221 109.45 129.951C109.72 129.691 109.99 129.501 110.25 129.381C110.51 129.261 110.73 129.201 110.93 129.201C111.14 129.201 111.31 129.241 111.44 129.321C111.57 129.401 111.67 129.511 111.73 129.641C111.79 129.781 111.82 129.941 111.82 130.121C111.82 130.301 111.81 130.471 111.78 130.641C111.76 130.811 111.73 130.991 111.7 131.171L111.19 134.481H110.44H110.45Z" fill="white"/>
<path d="M117.04 134.461C116.93 134.461 116.85 134.381 116.8 134.221C116.75 134.061 116.73 133.891 116.73 133.701C116.73 133.511 116.74 133.301 116.77 133.061C116.79 132.821 116.83 132.501 116.88 132.091L117.33 128.071L115.91 128.381C115.83 128.391 115.75 128.411 115.69 128.421C115.63 128.431 115.59 128.441 115.56 128.441C115.48 128.441 115.43 128.421 115.39 128.371C115.35 128.321 115.34 128.261 115.35 128.191C115.35 128.011 115.38 127.851 115.43 127.701C115.48 127.551 115.53 127.431 115.6 127.341C115.67 127.241 115.75 127.201 115.83 127.201H118.1C118.64 127.201 119.07 127.191 119.37 127.171C119.68 127.151 119.91 127.131 120.06 127.111C120.21 127.091 120.33 127.081 120.4 127.081C120.47 127.081 120.52 127.091 120.55 127.121C120.58 127.151 120.6 127.201 120.6 127.291C120.6 127.431 120.59 127.581 120.54 127.731C120.49 127.881 120.43 128.021 120.36 128.131C120.29 128.241 120.21 128.291 120.13 128.291C120.08 128.291 120.01 128.291 119.91 128.261C119.81 128.241 119.7 128.231 119.57 128.211L118.57 128.071L117.87 134.451H117.02L117.04 134.461Z" fill="white"/>
<path d="M120.88 134.521C120.79 134.521 120.72 134.501 120.67 134.461C120.62 134.421 120.6 134.331 120.6 134.201C120.6 134.071 120.61 133.861 120.64 133.581L121.09 129.421C121.13 129.021 121.19 128.621 121.25 128.221C121.31 127.821 121.36 127.421 121.38 127.021H122.12C122.26 127.021 122.36 127.111 122.43 127.311C122.5 127.511 122.53 127.691 122.53 127.891C122.53 128.041 122.53 128.181 122.51 128.311C122.5 128.431 122.47 128.561 122.45 128.701C122.42 128.831 122.38 129.001 122.33 129.211L121.65 132.311L122 131.881C121.95 132.331 121.91 132.761 121.88 133.161C121.85 133.561 121.83 133.891 121.81 134.131C121.81 134.201 121.75 134.271 121.62 134.331C121.49 134.391 121.36 134.441 121.21 134.481C121.06 134.521 120.95 134.541 120.86 134.541L120.88 134.521ZM124.02 134.481C123.96 134.481 123.92 134.441 123.88 134.371C123.84 134.301 123.81 134.211 123.8 134.121C123.79 134.031 123.78 133.951 123.78 133.901C123.78 133.801 123.78 133.671 123.8 133.521C123.82 133.371 123.83 133.201 123.85 133.031C123.87 132.861 123.89 132.711 123.91 132.581L124.09 131.481C124.11 131.341 124.13 131.211 124.15 131.081C124.17 130.961 124.18 130.821 124.18 130.681C124.18 130.571 124.16 130.491 124.12 130.441C124.08 130.381 124.02 130.361 123.95 130.361C123.86 130.361 123.71 130.451 123.5 130.621C123.29 130.791 123.07 131.041 122.83 131.371C122.59 131.701 122.38 132.091 122.19 132.551C122 133.011 121.87 133.531 121.81 134.121L121.55 132.531C121.84 131.711 122.16 131.061 122.52 130.581C122.88 130.101 123.24 129.741 123.59 129.531C123.94 129.321 124.25 129.211 124.52 129.211C124.83 129.211 125.06 129.301 125.2 129.481C125.34 129.661 125.41 129.891 125.41 130.171C125.41 130.331 125.4 130.491 125.37 130.661C125.35 130.831 125.32 131.011 125.29 131.191L124.78 134.501H124.01L124.02 134.481Z" fill="white"/>
<path d="M127.76 134.541C127.22 134.541 126.8 134.371 126.5 134.031C126.2 133.691 126.06 133.221 126.06 132.621C126.06 132.121 126.13 131.661 126.27 131.251C126.41 130.831 126.61 130.471 126.86 130.161C127.11 129.851 127.41 129.611 127.75 129.441C128.09 129.271 128.46 129.191 128.86 129.191C129.34 129.191 129.71 129.291 129.96 129.501C130.21 129.701 130.34 130.001 130.34 130.381C130.34 130.761 130.21 131.111 129.95 131.391C129.69 131.681 129.32 131.931 128.84 132.131C128.36 132.331 127.78 132.511 127.11 132.651L126.97 132.021C127.36 131.971 127.71 131.891 128.04 131.771C128.36 131.651 128.62 131.491 128.82 131.291C129.02 131.091 129.12 130.851 129.12 130.581C129.12 130.391 129.08 130.251 129.01 130.151C128.94 130.051 128.8 130.001 128.61 130.001C128.32 130.001 128.08 130.111 127.88 130.321C127.68 130.531 127.53 130.811 127.43 131.141C127.33 131.481 127.28 131.841 127.28 132.221C127.28 132.731 127.36 133.081 127.52 133.251C127.68 133.421 127.91 133.511 128.22 133.511C128.53 133.511 128.83 133.461 129.07 133.361C129.31 133.261 129.52 133.151 129.7 133.041C129.76 133.001 129.81 132.981 129.85 132.961C129.89 132.941 129.93 132.931 129.96 132.931C130 132.931 130.02 132.941 130.04 132.971C130.06 133.001 130.07 133.031 130.07 133.061C130.07 133.191 130.01 133.331 129.9 133.501C129.79 133.671 129.63 133.831 129.42 134.001C129.21 134.161 128.97 134.301 128.69 134.411C128.41 134.521 128.1 134.571 127.76 134.571V134.541Z" fill="white"/>
<path d="M134.1 134.461C134 134.461 133.92 134.421 133.86 134.331C133.8 134.251 133.76 134.141 133.73 134.001C133.7 133.871 133.69 133.731 133.69 133.601C133.69 133.311 133.71 133.031 133.74 132.761C133.78 132.491 133.81 132.201 133.84 131.891L134.35 127.021H135.09C135.27 127.021 135.39 127.091 135.45 127.231C135.51 127.371 135.54 127.531 135.54 127.721C135.54 127.891 135.54 128.041 135.52 128.171C135.51 128.301 135.49 128.471 135.46 128.661C135.44 128.851 135.41 129.111 135.37 129.441L134.84 134.451H134.1V134.461ZM134.72 131.051V130.261H138.64V131.051H134.72ZM138.34 134.461C138.24 134.461 138.16 134.421 138.1 134.331C138.04 134.251 138 134.141 137.97 134.001C137.94 133.861 137.93 133.731 137.93 133.601C137.93 133.311 137.95 133.031 137.98 132.761C138.02 132.491 138.05 132.201 138.08 131.891L138.59 127.021H139.33C139.51 127.021 139.63 127.091 139.69 127.231C139.75 127.371 139.78 127.531 139.78 127.721C139.78 127.891 139.78 128.041 139.76 128.171C139.74 128.301 139.73 128.471 139.7 128.661C139.68 128.851 139.65 129.111 139.61 129.441L139.08 134.451H138.34V134.461Z" fill="white"/>
<path d="M142.22 134.531C141.61 134.531 141.14 134.351 140.81 134.001C140.48 133.641 140.31 133.121 140.31 132.431C140.31 131.971 140.39 131.551 140.54 131.161C140.69 130.771 140.9 130.431 141.16 130.131C141.42 129.831 141.72 129.601 142.06 129.441C142.4 129.271 142.76 129.191 143.14 129.191C143.75 129.191 144.21 129.371 144.53 129.731C144.85 130.091 145.01 130.631 145.01 131.361C145.01 131.801 144.94 132.211 144.79 132.591C144.65 132.971 144.45 133.311 144.19 133.601C143.94 133.891 143.64 134.121 143.3 134.291C142.96 134.461 142.6 134.541 142.21 134.541L142.22 134.531ZM142.47 133.741C142.74 133.741 142.97 133.641 143.16 133.441C143.35 133.241 143.5 132.971 143.6 132.631C143.7 132.291 143.75 131.901 143.75 131.471C143.75 131.011 143.68 130.651 143.54 130.381C143.4 130.111 143.18 129.981 142.86 129.981C142.6 129.981 142.37 130.081 142.17 130.281C141.97 130.481 141.81 130.751 141.71 131.091C141.6 131.431 141.55 131.821 141.55 132.261C141.55 132.751 141.63 133.121 141.78 133.371C141.93 133.621 142.16 133.751 142.47 133.751V133.741Z" fill="white"/>
<path d="M145.92 136.681C145.81 136.681 145.72 136.631 145.65 136.541C145.58 136.451 145.54 136.331 145.51 136.211C145.49 136.081 145.47 135.971 145.47 135.861C145.47 135.721 145.47 135.551 145.49 135.341C145.5 135.141 145.53 134.891 145.55 134.611L146.16 129.181H146.9C147 129.181 147.08 129.221 147.14 129.311C147.2 129.391 147.24 129.501 147.27 129.611C147.3 129.731 147.31 129.841 147.31 129.941C147.31 130.071 147.27 130.271 147.19 130.531C147.11 130.791 147.01 131.131 146.88 131.541L146.64 132.341H146.96L146.8 133.771L146.7 133.911L146.64 136.681H145.9H145.92ZM147.83 134.531C147.53 134.531 147.25 134.491 147 134.411C146.75 134.331 146.54 134.251 146.36 134.161L146.7 133.121C146.89 133.251 147.09 133.361 147.3 133.451C147.51 133.541 147.7 133.611 147.89 133.661C148.07 133.711 148.22 133.731 148.33 133.731C148.55 133.731 148.75 133.631 148.92 133.441C149.1 133.251 149.24 132.981 149.34 132.631C149.44 132.291 149.49 131.891 149.49 131.461C149.49 131.051 149.46 130.741 149.4 130.531C149.34 130.321 149.24 130.211 149.11 130.211C149.03 130.211 148.87 130.311 148.63 130.501C148.39 130.691 148.11 131.031 147.78 131.511C147.45 131.991 147.11 132.671 146.74 133.531L146.51 132.591C146.91 131.701 147.29 131.011 147.65 130.511C148.01 130.011 148.34 129.661 148.66 129.461C148.98 129.261 149.29 129.161 149.58 129.161C150.02 129.161 150.31 129.331 150.46 129.661C150.61 129.991 150.68 130.441 150.68 130.991C150.68 131.671 150.55 132.281 150.3 132.811C150.05 133.341 149.7 133.751 149.27 134.061C148.84 134.371 148.36 134.511 147.82 134.511L147.83 134.531Z" fill="white"/>
<path d="M152.85 134.541C152.31 134.541 151.89 134.371 151.59 134.031C151.29 133.691 151.15 133.221 151.15 132.621C151.15 132.121 151.22 131.661 151.36 131.251C151.5 130.831 151.7 130.471 151.95 130.161C152.2 129.851 152.5 129.611 152.84 129.441C153.18 129.271 153.55 129.191 153.95 129.191C154.43 129.191 154.8 129.291 155.05 129.501C155.3 129.701 155.43 130.001 155.43 130.381C155.43 130.761 155.3 131.111 155.04 131.391C154.78 131.681 154.41 131.931 153.93 132.131C153.45 132.331 152.87 132.511 152.2 132.651L152.06 132.021C152.45 131.971 152.8 131.891 153.13 131.771C153.45 131.651 153.71 131.491 153.91 131.291C154.11 131.091 154.21 130.851 154.21 130.581C154.21 130.391 154.17 130.251 154.1 130.151C154.03 130.051 153.89 130.001 153.7 130.001C153.41 130.001 153.17 130.111 152.97 130.321C152.77 130.531 152.62 130.811 152.52 131.141C152.42 131.481 152.37 131.841 152.37 132.221C152.37 132.731 152.45 133.081 152.61 133.251C152.77 133.421 153 133.511 153.31 133.511C153.62 133.511 153.92 133.461 154.16 133.361C154.4 133.261 154.61 133.151 154.79 133.041C154.85 133.001 154.9 132.981 154.94 132.961C154.98 132.941 155.02 132.931 155.05 132.931C155.09 132.931 155.11 132.941 155.13 132.971C155.15 133.001 155.16 133.031 155.16 133.061C155.16 133.191 155.1 133.331 154.99 133.501C154.88 133.671 154.72 133.831 154.51 134.001C154.3 134.161 154.06 134.301 153.78 134.411C153.5 134.521 153.19 134.571 152.85 134.571V134.541Z" fill="white"/>
<path d="M159.04 134.461C158.92 134.461 158.84 134.401 158.79 134.291C158.74 134.181 158.72 134.031 158.72 133.841C158.72 133.701 158.73 133.541 158.75 133.361L159.42 127.191H161.39C162.26 127.191 162.9 127.331 163.33 127.621C163.76 127.911 163.97 128.391 163.97 129.061C163.97 129.471 163.88 129.841 163.69 130.181C163.5 130.521 163.26 130.811 162.97 131.061C162.68 131.311 162.37 131.501 162.03 131.631C161.7 131.761 161.39 131.831 161.1 131.831C161.02 131.831 160.94 131.811 160.84 131.761C160.74 131.711 160.66 131.651 160.6 131.571C160.53 131.491 160.5 131.421 160.5 131.341C160.5 131.261 160.52 131.211 160.57 131.181C160.62 131.151 160.67 131.131 160.73 131.121C161.05 131.061 161.34 130.951 161.62 130.791C161.9 130.631 162.12 130.421 162.3 130.161C162.48 129.901 162.56 129.581 162.56 129.211C162.56 128.891 162.48 128.651 162.33 128.471C162.18 128.291 161.96 128.171 161.67 128.101C161.38 128.031 161.02 127.991 160.59 127.991L159.89 134.471H159.03L159.04 134.461Z" fill="white"/>
<path d="M164.71 134.521C164.62 134.521 164.55 134.501 164.5 134.471C164.45 134.441 164.43 134.361 164.43 134.221C164.43 134.091 164.44 133.871 164.48 133.581L164.98 129.181H165.72C165.83 129.181 165.92 129.261 166.01 129.411C166.09 129.561 166.14 129.741 166.14 129.941C166.14 130.031 166.11 130.171 166.06 130.371C166.01 130.561 165.95 130.771 165.87 130.981C165.8 131.191 165.74 131.381 165.68 131.551L165.41 132.421L165.8 132.361L165.61 134.121C165.61 134.191 165.56 134.251 165.48 134.311C165.4 134.371 165.31 134.411 165.21 134.441C165.11 134.471 165.01 134.491 164.92 134.511C164.83 134.521 164.76 134.531 164.72 134.531L164.71 134.521ZM165.6 134.121L165.35 132.521C165.61 131.841 165.88 131.261 166.15 130.761C166.42 130.261 166.7 129.881 166.98 129.601C167.26 129.331 167.55 129.191 167.84 129.191C168 129.191 168.12 129.241 168.19 129.341C168.26 129.441 168.3 129.571 168.3 129.731C168.3 129.871 168.28 130.011 168.25 130.141C168.22 130.271 168.17 130.381 168.11 130.461C168.05 130.541 167.98 130.591 167.89 130.591C167.81 130.591 167.73 130.571 167.63 130.521C167.53 130.471 167.41 130.451 167.24 130.451C167.13 130.451 167 130.561 166.84 130.781C166.68 131.001 166.51 131.291 166.34 131.651C166.17 132.011 166.01 132.411 165.88 132.841C165.75 133.271 165.65 133.701 165.61 134.121H165.6Z" fill="white"/>
<path d="M170 134.531C169.39 134.531 168.92 134.351 168.59 134.001C168.26 133.641 168.09 133.121 168.09 132.431C168.09 131.971 168.17 131.551 168.32 131.161C168.47 130.771 168.68 130.431 168.94 130.131C169.2 129.831 169.5 129.601 169.84 129.441C170.18 129.271 170.54 129.191 170.92 129.191C171.53 129.191 171.99 129.371 172.31 129.731C172.63 130.091 172.79 130.631 172.79 131.361C172.79 131.801 172.72 132.211 172.57 132.591C172.43 132.971 172.23 133.311 171.97 133.601C171.72 133.891 171.42 134.121 171.08 134.291C170.74 134.461 170.38 134.541 169.99 134.541L170 134.531ZM170.25 133.741C170.52 133.741 170.75 133.641 170.94 133.441C171.13 133.241 171.28 132.971 171.38 132.631C171.48 132.291 171.53 131.901 171.53 131.471C171.53 131.011 171.46 130.651 171.32 130.381C171.18 130.111 170.96 129.981 170.64 129.981C170.38 129.981 170.15 130.081 169.95 130.281C169.75 130.481 169.59 130.751 169.49 131.091C169.38 131.431 169.33 131.821 169.33 132.261C169.33 132.751 169.41 133.121 169.56 133.371C169.71 133.621 169.94 133.751 170.25 133.751V133.741Z" fill="white"/>
<path d="M172.53 136.711C172.35 136.711 172.2 136.661 172.06 136.571C171.92 136.481 171.82 136.351 171.74 136.181C171.66 136.011 171.62 135.811 171.62 135.591C171.62 135.521 171.64 135.471 171.67 135.441C171.7 135.411 171.73 135.391 171.76 135.391C171.8 135.391 171.83 135.411 171.88 135.441C171.92 135.471 171.99 135.521 172.08 135.571C172.22 135.651 172.38 135.731 172.55 135.811C172.72 135.881 172.87 135.921 172.99 135.921C173.07 135.921 173.14 135.881 173.2 135.811C173.26 135.741 173.32 135.611 173.37 135.421C173.42 135.241 173.47 134.981 173.52 134.651C173.57 134.321 173.62 133.911 173.67 133.401L174.08 129.181H174.84C174.92 129.181 175 129.231 175.06 129.321C175.12 129.411 175.17 129.521 175.2 129.631C175.23 129.751 175.25 129.851 175.25 129.941C175.25 130.101 175.23 130.331 175.18 130.621C175.13 130.911 175.07 131.261 175.01 131.671C174.95 132.081 174.89 132.551 174.84 133.081L174.72 134.381C174.67 134.921 174.54 135.371 174.34 135.711C174.14 136.051 173.88 136.311 173.56 136.471C173.25 136.631 172.9 136.711 172.52 136.711H172.53ZM174.78 128.581C174.58 128.581 174.41 128.511 174.27 128.381C174.13 128.251 174.05 128.071 174.05 127.851C174.05 127.591 174.13 127.391 174.3 127.241C174.47 127.101 174.66 127.021 174.88 127.021C175.08 127.021 175.26 127.081 175.39 127.201C175.53 127.321 175.6 127.501 175.6 127.741C175.6 127.981 175.52 128.181 175.36 128.341C175.2 128.501 175 128.581 174.78 128.581Z" fill="white"/>
<path d="M177.41 134.541C176.87 134.541 176.45 134.371 176.15 134.031C175.85 133.691 175.71 133.221 175.71 132.621C175.71 132.121 175.78 131.661 175.92 131.251C176.06 130.831 176.26 130.471 176.51 130.161C176.76 129.851 177.06 129.611 177.4 129.441C177.74 129.271 178.11 129.191 178.51 129.191C178.99 129.191 179.36 129.291 179.61 129.501C179.86 129.701 179.99 130.001 179.99 130.381C179.99 130.761 179.86 131.111 179.6 131.391C179.34 131.681 178.97 131.931 178.49 132.131C178.01 132.331 177.43 132.511 176.76 132.651L176.62 132.021C177.01 131.971 177.36 131.891 177.69 131.771C178.01 131.651 178.27 131.491 178.47 131.291C178.67 131.091 178.77 130.851 178.77 130.581C178.77 130.391 178.73 130.251 178.66 130.151C178.59 130.051 178.45 130.001 178.26 130.001C177.97 130.001 177.73 130.111 177.53 130.321C177.33 130.531 177.18 130.811 177.08 131.141C176.98 131.481 176.93 131.841 176.93 132.221C176.93 132.731 177.01 133.081 177.17 133.251C177.33 133.421 177.56 133.511 177.87 133.511C178.18 133.511 178.48 133.461 178.72 133.361C178.96 133.261 179.17 133.151 179.35 133.041C179.41 133.001 179.46 132.981 179.5 132.961C179.54 132.941 179.58 132.931 179.61 132.931C179.65 132.931 179.67 132.941 179.69 132.971C179.71 133.001 179.72 133.031 179.72 133.061C179.72 133.191 179.66 133.331 179.55 133.501C179.44 133.671 179.28 133.831 179.07 134.001C178.86 134.161 178.62 134.301 178.34 134.411C178.06 134.521 177.75 134.571 177.41 134.571V134.541Z" fill="white"/>
<path d="M182.11 134.541C181.55 134.541 181.13 134.371 180.83 134.021C180.53 133.681 180.39 133.181 180.39 132.531C180.39 131.881 180.51 131.331 180.77 130.821C181.02 130.311 181.36 129.911 181.8 129.621C182.23 129.331 182.73 129.181 183.28 129.181C183.58 129.181 183.84 129.221 184.06 129.301C184.29 129.381 184.4 129.541 184.4 129.791C184.4 129.901 184.38 130.001 184.35 130.111C184.32 130.221 184.27 130.301 184.21 130.371C184.15 130.441 184.1 130.481 184.04 130.481C184.01 130.481 183.97 130.481 183.92 130.451C183.87 130.431 183.83 130.411 183.79 130.391C183.71 130.341 183.62 130.281 183.51 130.221C183.4 130.161 183.28 130.101 183.15 130.051C183.02 130.001 182.88 129.981 182.74 129.981C182.52 129.981 182.33 130.081 182.15 130.291C181.98 130.491 181.84 130.771 181.74 131.101C181.64 131.441 181.59 131.801 181.59 132.201C181.59 132.721 181.67 133.071 181.83 133.241C181.99 133.411 182.22 133.501 182.52 133.501C182.77 133.501 182.99 133.461 183.16 133.371C183.34 133.281 183.5 133.181 183.67 133.071C183.73 133.031 183.78 133.001 183.82 132.991C183.86 132.981 183.89 132.971 183.92 132.971C183.96 132.971 183.98 132.981 184 133.011C184.02 133.041 184.03 133.071 184.03 133.111C184.03 133.241 183.98 133.381 183.87 133.551C183.76 133.721 183.62 133.871 183.44 134.031C183.26 134.181 183.05 134.311 182.82 134.411C182.59 134.511 182.35 134.561 182.1 134.561L182.11 134.541Z" fill="white"/>
<path d="M185.89 134.541C185.55 134.541 185.31 134.441 185.18 134.241C185.04 134.041 185 133.731 185.05 133.311L185.46 130.091H185.12C185.01 130.091 184.96 130.031 184.96 129.921C184.96 129.851 185.01 129.751 185.1 129.611C185.2 129.481 185.32 129.331 185.46 129.171C185.61 129.011 185.76 128.851 185.92 128.711C186.08 128.561 186.22 128.441 186.36 128.351C186.49 128.251 186.6 128.211 186.67 128.211C186.75 128.211 186.8 128.241 186.83 128.301C186.86 128.361 186.87 128.441 186.85 128.531L186.75 129.361H187.93C188.04 129.361 188.1 129.381 188.12 129.411C188.14 129.451 188.13 129.501 188.1 129.581C188.02 129.821 187.94 129.971 187.86 130.021C187.79 130.071 187.65 130.101 187.45 130.101H186.6L186.34 132.361C186.33 132.491 186.31 132.621 186.3 132.741C186.29 132.861 186.28 132.971 186.28 133.071C186.28 133.231 186.32 133.351 186.4 133.411C186.48 133.471 186.6 133.511 186.78 133.511C186.96 133.511 187.1 133.471 187.22 133.401C187.34 133.331 187.43 133.291 187.48 133.291C187.54 133.291 187.56 133.331 187.56 133.401C187.56 133.471 187.52 133.571 187.45 133.701C187.38 133.831 187.27 133.961 187.12 134.091C186.98 134.221 186.8 134.331 186.59 134.421C186.38 134.511 186.14 134.551 185.87 134.551L185.89 134.541Z" fill="white"/>
</g>
<path d="M16.09 72.4606V59.2906H3.38C1.51 59.2906 0 57.7806 0 55.9106C0 54.0406 1.51 52.5306 3.38 52.5306H37.31C39.18 52.5306 40.69 54.0406 40.69 55.9106C40.69 57.7806 39.18 59.2906 37.31 59.2906H23.09V72.4606C23.09 74.3306 21.58 75.8406 19.71 75.8406H19.48C17.61 75.8406 16.1 74.3306 16.1 72.4606H16.09ZM19.59 21.6306C25.77 21.6306 30.9 26.5306 30.9 32.8206C30.9 39.1106 25.77 43.7806 19.59 43.7806C13.41 43.7806 8.28 39.0006 8.28 32.8206C8.28 26.6406 13.41 21.6306 19.59 21.6306ZM19.59 37.1406C21.81 37.1406 23.79 35.0406 23.79 32.8306C23.79 30.6206 21.81 28.6306 19.59 28.6306C17.37 28.6306 15.51 30.6106 15.51 32.8306C15.51 35.0506 17.38 37.1406 19.59 37.1406ZM45.59 72.4706V39.1306C45.59 37.2606 47.1 35.7506 48.97 35.7506H49.32C51.19 35.7506 52.7 37.2606 52.7 39.1306V72.4706C52.7 74.3406 51.19 75.8506 49.32 75.8506H48.97C47.1 75.8506 45.59 74.3406 45.59 72.4706Z" fill="white"/>
<path d="M94.4401 39.7007C94.4401 41.5707 92.9301 43.0807 91.0601 43.0807H77.9601C73.4701 43.0807 69.8401 39.4407 69.8401 34.9607V27.3007C69.8401 22.8107 73.4801 19.1807 77.9601 19.1807H91.0601C92.9301 19.1807 94.4401 20.6907 94.4401 22.5607C94.4401 24.4307 92.9301 25.9407 91.0601 25.9407H78.8601C77.8101 25.9407 76.9501 26.7907 76.9501 27.8507V34.4107C76.9501 35.4607 77.8001 36.3207 78.8601 36.3207H91.0601C92.9301 36.3207 94.4401 37.8307 94.4401 39.7007Z" fill="white"/>
<path d="M65.05 114.781C65.05 112.911 66.5601 111.401 68.4301 111.401H103.87C105.74 111.401 107.25 112.911 107.25 114.781C107.25 116.651 105.74 118.161 103.87 118.161H68.4301C66.5601 118.161 65.05 116.651 65.05 114.781ZM72.86 95.7808H75.4301V84.8208H72.86C70.99 84.8208 69.4801 83.3108 69.4801 81.4408C69.4801 79.5708 70.99 78.0608 72.86 78.0608H100.26C102.13 78.0608 103.64 79.5708 103.64 81.4408C103.64 83.3108 102.13 84.8208 100.26 84.8208H97.8101V95.7808H100.26C102.13 95.7808 103.64 97.2908 103.64 99.1608C103.64 101.031 102.13 102.541 100.26 102.541H72.86C70.99 102.541 69.4801 101.031 69.4801 99.1608C69.4801 97.2908 70.99 95.7808 72.86 95.7808ZM90.7001 84.8208H82.5401V95.7808H90.7001V84.8208Z" fill="white"/>
<path d="M176.51 101.611V104.061L184.84 111.581C186.23 112.831 186.33 114.981 185.08 116.361L184.97 116.481C183.72 117.861 181.58 117.961 180.2 116.711L172.91 110.111L165.73 116.681C164.35 117.941 162.21 117.851 160.95 116.461L160.74 116.231C159.48 114.841 159.58 112.701 160.97 111.441L169.17 104.041V101.591H162.29C160.42 101.591 158.91 100.081 158.91 98.2108C158.91 96.3408 160.42 94.8308 162.29 94.8308H183.04C184.91 94.8308 186.42 96.3408 186.42 98.2108C186.42 100.081 184.91 101.591 183.04 101.591H176.51V101.611ZM194.7 94.8508H202.16V81.6208C202.16 79.6608 203.75 78.0608 205.72 78.0608C207.68 78.0608 209.28 79.6508 209.28 81.6208V114.611C209.28 116.571 207.69 118.171 205.72 118.171C203.76 118.171 202.16 116.581 202.16 114.611V101.611H194.7C192.83 101.611 191.32 100.101 191.32 98.2308C191.32 96.3608 192.83 94.8508 194.7 94.8508ZM217.08 128.311V140.431C217.08 142.301 215.57 143.811 213.7 143.811H213.35C211.48 143.811 209.97 142.301 209.97 140.431V131.691H200.99C199.12 131.691 197.61 130.181 197.61 128.311C197.61 126.441 199.12 124.931 200.99 124.931H213.7C215.57 124.931 217.08 126.441 217.08 128.311ZM217.08 114.611V81.6208C217.08 79.6608 218.67 78.0608 220.64 78.0608C222.6 78.0608 224.2 79.6508 224.2 81.6208V114.611C224.2 116.571 222.61 118.171 220.64 118.171C218.68 118.171 217.08 116.581 217.08 114.611Z" fill="white"/>
<path d="M235.14 111.401H270.58C272.45 111.401 273.96 112.911 273.96 114.781C273.96 116.651 272.45 118.161 270.58 118.161H235.14C233.27 118.161 231.76 116.651 231.76 114.781C231.76 112.911 233.27 111.401 235.14 111.401ZM265.45 98.5806C265.45 100.451 263.94 101.961 262.07 101.961H248.63C244.27 101.961 240.74 98.4306 240.74 94.0706V77.7906C240.74 73.4306 244.27 69.9006 248.63 69.9006H262.07C263.94 69.9006 265.45 71.4106 265.45 73.2806C265.45 75.1506 263.94 76.6606 262.07 76.6606H250.76C249.15 76.6606 247.85 77.9606 247.85 79.5706V79.6906C247.85 81.3006 249.15 82.6006 250.76 82.6006H262.07C263.94 82.6006 265.45 84.1107 265.45 85.9807C265.45 87.8507 263.94 89.3606 262.07 89.3606H250.76C249.15 89.3606 247.85 90.6606 247.85 92.2706C247.85 93.8806 249.15 95.1806 250.76 95.1806H262.07C263.94 95.1806 265.45 96.6906 265.45 98.5606V98.5806Z" fill="white"/>
<path d="M91.1899 63.0609C84.8899 63.4509 78.3399 62.4509 71.8899 60.0709C68.6999 58.8909 65.9599 57.5209 63.5699 55.8809C60.8099 53.9909 61.4499 49.7509 64.6399 48.7609C66.0099 48.3309 67.5099 48.6609 68.5499 49.6509C71.0399 52.0009 74.2099 53.8409 78.3299 55.3709C86.6999 58.4609 95.2199 58.9709 102.96 56.8409C110.47 54.7709 117.37 50.1009 122.58 43.6009C122.97 43.1109 123.63 43.6009 123.53 44.3109C123.51 44.4509 123.46 44.5809 123.39 44.6909C117.24 53.1109 108.77 59.1509 99.5099 61.7009C96.8099 62.4409 94.0199 62.9008 91.1899 63.0808V63.0609Z" fill="white"/>
<path d="M141.04 99.6508C142.91 99.6508 144.42 98.1408 144.42 96.2708C144.42 94.4008 142.91 92.8908 141.04 92.8908H128.39C127.33 92.8908 126.47 92.0308 126.47 90.9708V90.8508C126.47 90.2308 126.77 89.6408 127.28 89.2808L140.72 79.7608C143.04 78.1208 144.42 75.4508 144.42 72.6108C144.42 67.7708 140.5 63.8508 135.66 63.8508H122.73C120.86 63.8508 119.35 65.3608 119.35 67.2308C119.35 69.1008 120.86 70.6108 122.73 70.6108H135.38C136.44 70.6108 137.3 71.4708 137.3 72.5308C137.3 73.1508 137 73.7408 136.49 74.1008L123.05 83.6208C120.73 85.2608 119.35 87.9308 119.35 90.7708V90.8908C119.35 95.7308 123.27 99.6508 128.11 99.6508H141.04Z" fill="white"/>
<path d="M150.39 111.401H136.52V105.401C136.52 103.441 134.93 101.841 132.96 101.841C131 101.841 129.4 103.431 129.4 105.401V111.401H115.18C113.38 111.401 111.81 112.761 111.69 114.561C111.56 116.531 113.12 118.171 115.06 118.171H150.5C152.44 118.171 154 116.531 153.87 114.561C153.75 112.761 152.18 111.401 150.38 111.401H150.39Z" fill="white"/>
<g opacity="0.65">
<path d="M130.77 22.3408L129.48 26.2408L132.21 29.6808C132.81 30.4408 132.28 31.4708 131.31 31.4208L126.91 31.2008L124.48 34.5208C123.94 35.2508 122.72 35.0208 122.4 34.1308L120.97 30.0908L116.73 28.6908C115.8 28.3808 115.57 27.2108 116.34 26.7108L119.86 24.4308L119.68 20.2508C119.64 19.3308 120.73 18.8408 121.52 19.4208L125.12 22.0508L129.24 20.8608C130.15 20.6008 131.05 21.4608 130.76 22.3208L130.77 22.3408Z" fill="white"/>
</g>
<g opacity="0.65">
<path d="M140.49 51.6807L141.7 52.9707L143.56 52.6407C143.97 52.5707 144.25 52.9807 144.03 53.3407L143.04 54.9607L143.79 56.5607C143.96 56.9107 143.62 57.3307 143.22 57.2707L141.4 56.9807L140 58.3007C139.69 58.5907 139.2 58.4407 139.17 58.0407L139.03 56.2407L137.41 55.4507C137.05 55.2807 137.09 54.7607 137.47 54.5807L139.2 53.7607L139.6 51.9607C139.69 51.5607 140.2 51.4007 140.47 51.6807H140.49Z" fill="white"/>
</g>
<path opacity="0.65" d="M126.03 34.9908C126.03 34.9908 126.07 35.1708 126.17 35.5008C126.75 37.3608 129.46 44.0508 139.92 51.3808C139.92 51.3808 131.48 40.3908 131.8 33.1208L127.59 32.5908" fill="white"/>
<path opacity="0.65" d="M214.37 16.8008C207.59 6.26077 199.82 1.84077 187.75 0.680772C181.73 -0.679228 174.39 0.020766 168.78 2.58077C161.63 5.85077 155.87 10.5708 152.67 18.0608C152.54 18.0408 152.41 18.0208 152.28 18.0308C151.68 18.0708 151.17 18.4308 150.94 18.9808L149.62 22.1708L146.22 22.7408C145.63 22.8408 145.16 23.2608 144.99 23.8308C144.81 24.4408 144.99 25.0908 145.48 25.5308L148.17 27.9808L147.82 31.5008C147.76 32.1208 148.05 32.7308 148.58 33.0708C148.73 33.1708 148.89 33.2308 149.05 33.2808C148.85 35.9208 149.05 38.4608 149.77 40.9408C148.2 44.2308 146.21 47.2208 143.74 48.6908C145.25 47.9708 146.46 46.7408 147.53 45.4608C149.69 42.7108 151.34 39.6308 152.72 36.4208C151.77 42.0908 149.25 47.4508 145.53 51.6808C144.33 53.1508 146.48 54.9008 147.68 53.4408C149.45 51.1308 150.89 48.6008 151.99 45.9408C152.35 46.5308 152.74 47.1208 153.18 47.7108C160.68 64.1908 185.27 60.4608 195.94 59.8408C200.01 58.8308 203.4 64.5008 199.97 68.6208C202.8 68.0908 205.03 65.8608 207.08 63.7308C214.3 57.5508 218.36 50.3808 219.82 43.0708C219.73 42.7908 219.65 42.5108 219.57 42.2308C219.65 42.4908 219.72 42.6408 219.76 42.7608C219.58 42.0408 219.59 42.2308 219.45 41.6908C219.41 41.4808 219.38 41.3408 219.43 41.4708C219.41 41.3908 219.38 41.3008 219.36 41.2208C219.35 41.1808 219.34 41.1408 219.33 41.1008C219.33 41.0608 219.31 41.0208 219.3 40.9808C219.27 40.8208 219.24 40.6708 219.2 40.5108C219.13 40.2008 219.07 39.8808 218.99 39.5208C218.99 39.5208 219.17 40.1808 219.14 39.9708C219.11 39.8408 219.08 39.7108 219.05 39.5808C218.92 39.0908 218.81 38.7608 218.7 38.4308C218.56 38.0308 218.43 37.6208 218.16 36.9408C217.84 36.1608 217.52 35.4008 217.19 34.7208C216.86 34.0408 216.52 33.4408 216.18 32.9608C216.13 32.9208 216.63 33.7108 216.21 33.0808C216.26 33.1308 216.21 33.0308 216.13 32.9108C216.06 32.8008 215.97 32.6708 215.96 32.6508C215.71 32.3208 215.52 32.0808 215.35 31.8708C215.19 31.6508 215.03 31.4708 214.82 31.2608C214.92 31.3508 214.61 30.9908 214.39 30.7608C214.48 30.8008 213.75 30.1008 214.64 30.9208C213.74 30.0708 213.01 29.4308 212.18 29.0208C212.27 29.0808 212.36 29.1408 212.44 29.2008C212.27 29.0908 212.09 28.9808 211.92 28.8708C211.82 28.8208 211.72 28.7608 211.63 28.7008C211.74 28.7608 211.86 28.8308 212.01 28.9208C211.85 28.8208 211.68 28.7308 211.52 28.6408C211.48 28.6208 211.44 28.6008 211.41 28.5808C211.19 28.4708 211.06 28.4008 210.9 28.3308C210.74 28.2608 210.56 28.1608 210.22 28.0208C210.37 28.0708 210.55 28.1308 210.72 28.2108C210.9 28.2808 211.07 28.3508 211.21 28.4208C210.75 28.1708 210.22 27.9908 209.67 27.8308C209.92 27.9708 210.16 28.1008 210.4 28.2608L210.33 28.2408C210.6 28.4308 210.76 28.5408 210.86 28.6108C210.96 28.6808 211.01 28.7008 211.05 28.7208C211.13 28.7608 211.17 28.7708 211.52 29.0908C211.5 29.0608 211.6 29.1408 211.56 29.0908C211.83 29.3308 212.4 29.9308 211.79 29.3808C212.13 29.6808 212.48 30.0608 212.64 30.2308C212.41 29.9208 212.33 29.8608 212.25 29.7408C212.47 29.9608 212.67 30.1908 212.86 30.4308C212.96 30.5508 213.04 30.6708 213.14 30.8008C213.23 30.9408 213.29 31.1108 213.28 31.2808C213.27 31.4008 213.28 31.3508 213.28 31.2408C213.28 31.1308 213.24 30.9608 213.16 30.8408C213.26 31.0308 213.29 31.2808 213.21 31.4808C213.13 31.6908 212.96 31.8408 212.77 31.9408C212.58 32.0308 212.35 32.0708 212.14 32.0308C211.92 31.9908 211.73 31.8508 211.61 31.6708C211.17 31.1508 210.67 30.6708 210.12 30.2208C209.98 30.1108 209.84 29.9908 209.7 29.8908C209.55 29.7808 209.41 29.6808 209.26 29.5708C209.11 29.4708 208.96 29.3708 208.8 29.2708C208.65 29.1608 208.48 29.0808 208.33 28.9708C208.44 29.0508 208.4 29.0308 208.31 28.9808C208.26 28.9608 208.2 28.9208 208.14 28.8908C208.08 28.8608 208.01 28.8308 207.96 28.8108C207.61 28.6308 207.17 28.4208 206.72 28.2608C206.61 28.2208 206.49 28.1808 206.38 28.1308C206.27 28.0908 206.16 28.0608 206.05 28.0208C205.94 27.9908 205.84 27.9508 205.74 27.9208C205.64 27.8908 205.55 27.8708 205.46 27.8408L205.69 27.8808C205.04 27.7108 204.45 27.6108 203.9 27.5608C203.76 27.5408 203.63 27.5408 203.5 27.5308C203.46 27.5308 203.41 27.5308 203.37 27.5308C203.33 27.5308 203.3 27.5308 203.26 27.5308C203.19 27.5308 203.12 27.5308 203.06 27.5308C203.03 27.5308 203 27.5308 202.97 27.5308C202.95 27.5308 202.97 27.5308 202.98 27.5308H203L203.05 27.5608C203.14 27.6008 203.23 27.6508 203.31 27.6908C203.36 27.7208 203.41 27.7408 203.45 27.7708C203.52 27.8108 203.6 27.8608 203.67 27.9008C203.73 27.9208 203.65 27.9208 203.45 27.8108C204.26 28.2308 205.13 28.9108 205.37 28.9908L205.09 28.8008C205.84 29.2908 206.63 29.8208 207.39 30.4108C207.77 30.7008 208.14 31.0108 208.48 31.3608C208.65 31.5408 208.81 31.7208 208.93 31.9408C208.99 32.0508 209.04 32.1808 209.03 32.3408C209.02 32.4208 208.99 32.5008 208.94 32.5608C208.89 32.6208 208.83 32.6608 208.76 32.6908C208.64 32.7308 208.65 32.7208 208.73 32.6908C208.77 32.6708 208.82 32.6408 208.88 32.5908C208.93 32.5408 208.99 32.4608 209 32.3708C209.03 32.1908 208.95 32.0508 208.92 31.9708C208.88 31.9008 208.86 31.8808 208.9 31.9708C208.94 32.0508 208.97 32.1308 208.98 32.2208C208.99 32.3108 208.98 32.4108 208.92 32.4908C208.86 32.5708 208.78 32.6208 208.7 32.6508C208.62 32.6808 208.54 32.7008 208.45 32.7208C208.28 32.7508 208.12 32.7508 207.95 32.7508C207.87 32.7508 207.78 32.7508 207.7 32.7408H207.58L207.51 32.7208C207.48 32.7208 207.45 32.7208 207.43 32.7008C206.9 32.3008 206.36 31.8808 205.8 31.4508C205.99 31.5808 205.95 31.5508 206.04 31.6108C204.93 30.7608 206.14 31.7308 205.2 31.0308C205.26 31.0508 205.22 31.0108 204.91 30.7808L204.61 30.6108C204.61 30.6108 204.59 30.5608 204.74 30.6508C204.51 30.5208 204.08 30.2308 203.65 29.9608C203.22 29.6908 202.79 29.4508 202.6 29.3708C202.51 29.3108 202.79 29.4208 202.65 29.3308C202.11 29.0208 201.71 28.8508 201.33 28.6908C201.23 28.6408 201.1 28.5808 200.95 28.5208C200.8 28.4608 200.65 28.3908 200.51 28.3408C200.25 28.2508 200.06 28.1808 200.12 28.2008C199.6 28.0308 199.56 28.0308 199.55 28.0408C199.54 28.0408 199.55 28.0608 199.14 27.9808C199.43 28.0508 199.71 28.1408 199.99 28.2308C199.74 28.1608 199.49 28.0808 199.23 28.0308L198.85 27.9408C198.72 27.9208 198.59 27.9008 198.46 27.8808C198.67 27.9008 198.87 27.9308 199.07 27.9708C198.98 27.9508 198.9 27.9208 198.81 27.9108C198.72 27.9008 198.63 27.8808 198.54 27.8708C198.36 27.8408 198.17 27.8208 197.98 27.8108C197.79 27.7908 197.6 27.7808 197.4 27.7808C197.2 27.7808 197 27.7808 196.8 27.8208C196.92 27.8108 197.05 27.8008 197.17 27.8208C197.01 27.8208 196.86 27.8408 196.72 27.8808C196.65 27.9008 196.59 27.9208 196.53 27.9508C196.48 27.9808 196.45 28.0208 196.43 28.0608C196.42 28.0608 196.39 28.1208 196.41 28.2108C196.43 28.3008 196.49 28.4108 196.55 28.5008C196.61 28.5908 196.67 28.6608 196.69 28.6908C196.71 28.7208 196.69 28.7008 196.59 28.6108C196.86 28.9608 197.17 29.2208 197.47 29.4608C197.77 29.7008 198.06 29.9108 198.36 30.1108C198.95 30.5108 199.54 30.8808 200.24 31.3008C200 31.1508 200.09 31.2208 200.03 31.1908C200.83 31.7008 201.34 31.9608 201.85 32.2208C201.74 32.1808 201.54 32.0708 201.53 32.0808C202.02 32.3608 202.17 32.4308 202.34 32.5108C202.51 32.5908 202.69 32.6808 203.24 32.9408C202.93 32.8108 203.02 32.8708 203.32 33.0108C203.31 33.0108 203.32 33.0108 203.34 33.0108C203.36 33.0108 203.4 33.0308 203.45 33.0508C203.53 33.0808 203.61 33.1508 203.69 33.2308C203.63 33.1808 203.59 33.1508 203.57 33.1408C203.54 33.1308 203.55 33.1408 203.57 33.1708C203.63 33.2308 203.79 33.3908 203.82 33.6108C203.86 33.8308 203.79 34.0508 203.72 34.1608C203.69 34.2208 203.66 34.2508 203.65 34.2508C203.65 34.2508 203.65 34.2308 203.67 34.1708C203.65 34.2108 203.6 34.3208 203.48 34.4408C203.35 34.5808 203.12 34.7008 202.89 34.7108C202.77 34.7108 202.66 34.7008 202.57 34.6708C202.48 34.6408 202.41 34.6108 202.36 34.5908C202.28 34.5608 202.25 34.5508 202.31 34.5908C201.51 34.2208 200.71 33.7808 199.91 33.3108C199.11 32.8308 198.3 32.3108 197.49 31.7408C197.64 31.8308 198.3 32.2808 197.89 31.9808C197.08 31.4108 196.47 30.9408 195.85 30.4608C195.24 29.9808 194.63 29.4708 193.9 28.8008C193.89 28.7508 194.28 29.1208 194.7 29.4908C194.91 29.6708 195.13 29.8608 195.29 30.0008C195.46 30.1408 195.58 30.2308 195.61 30.2308C194.8 29.5608 194.01 28.8508 193.23 28.0808C192.84 27.7008 192.46 27.3008 192.08 26.8808C191.99 26.7808 191.89 26.6708 191.8 26.5608L191.73 26.4808L191.69 26.4408C191.69 26.4408 191.66 26.4108 191.64 26.3808L191.53 26.2108C191.49 26.1508 191.46 26.0908 191.42 26.0408L191.3 25.8708C191.22 25.7608 191.13 25.6508 191.04 25.5408C190.82 25.2108 190.42 24.8108 189.91 24.4508C189.65 24.2708 189.37 24.1008 189.06 23.9508C188.75 23.8008 188.43 23.6708 188.09 23.5808C188.12 23.6008 188.1 23.6008 188.04 23.5808C187.98 23.5808 187.89 23.5608 187.76 23.5408C187.52 23.5208 187.16 23.5008 186.81 23.5908C186.93 23.5508 186.8 23.5708 186.67 23.6008C186.61 23.6208 186.54 23.6408 186.51 23.6508C186.48 23.6608 186.47 23.6608 186.51 23.6408C186.38 23.7208 186.17 23.8308 186.02 24.0408C185.86 24.2408 185.75 24.5008 185.69 24.7608C185.58 25.2808 185.65 25.7508 185.61 25.7208C185.65 25.8008 185.69 26.1608 185.79 26.5508C185.9 26.9408 186.04 27.3808 186.17 27.6208C186.53 28.3908 187.05 29.2308 187.68 30.0908C187.63 30.0108 187.65 30.0208 187.7 30.0908C187.76 30.1608 187.86 30.2808 187.97 30.4208C188.08 30.5608 188.21 30.7208 188.33 30.8608C188.4 30.9508 188.47 31.0208 188.53 31.0908C188.47 31.0208 188.41 30.9708 188.43 30.9908C188.53 31.1208 188.74 31.3508 188.98 31.6008C189.23 31.8408 189.5 32.1108 189.71 32.3308C189.9 32.5308 189.64 32.3108 189.96 32.6208C189.96 32.6208 190.05 32.6808 190.17 32.7908C190.29 32.9008 190.46 33.0508 190.64 33.2108C190.82 33.3708 191.02 33.5408 191.2 33.7008C191.38 33.8608 191.54 34.0008 191.65 34.1108C191.44 33.9308 191.42 33.9308 191.29 33.8308C192.39 34.7608 193.55 35.6908 194.69 36.6808C194.98 36.9208 195.26 37.1708 195.54 37.4308C195.82 37.6808 196.09 37.9408 196.37 38.2008L196.57 38.3908L196.77 38.5908C196.9 38.7208 197.03 38.8608 197.17 38.9908L197.28 39.1008L197.36 39.2308L197.51 39.4708C197.6 39.6408 197.7 39.8008 197.78 39.9708C197.7 39.8108 197.59 39.6608 197.5 39.5108C197.55 39.6208 197.6 39.7108 197.65 39.8008C197.69 39.8908 197.73 39.9708 197.76 40.0508C197.83 40.2008 197.87 40.3308 197.91 40.4408C197.95 40.5508 197.98 40.6408 198.01 40.7108C198.04 40.7908 198.06 40.8508 198.08 40.9208C198.12 41.0508 198.16 41.1608 198.19 41.3408C198.19 41.3908 198.21 41.4308 198.21 41.4908C198.21 41.5408 198.21 41.6108 198.22 41.6708C198.23 41.8008 198.22 41.9608 198.21 42.1608C198.15 42.6908 197.98 43.2008 197.7 43.6508C197.43 44.1008 197.07 44.5008 196.67 44.8308C195.86 45.5008 194.89 45.9308 193.89 46.1908C193.64 46.2508 193.39 46.3008 193.13 46.3508C193 46.3708 192.88 46.3908 192.75 46.4008C192.73 46.4008 192.73 46.4008 192.73 46.4008H192.69L192.6 46.4408L192.43 46.5008C191.98 46.6808 191.54 46.9308 191.2 47.2508C191.03 47.4108 190.89 47.6008 190.81 47.8108C190.79 47.8608 190.77 47.9108 190.77 47.9708L190.75 48.0508C190.75 48.0508 190.75 48.1008 190.75 48.1308V48.2008C190.75 48.2008 190.75 48.2008 190.75 48.2108L190.77 48.2508C190.79 48.3008 190.81 48.3608 190.84 48.4108C191.05 48.8208 191.4 49.1508 191.8 49.4008C192.04 49.5308 191.67 49.3108 191.65 49.2608C191.78 49.3608 191.86 49.4208 191.96 49.4808C192.06 49.5408 192.18 49.6108 192.39 49.7008L192.31 49.6408C192.69 49.8408 193.19 50.0308 193.75 50.2008C194.31 50.3808 194.92 50.5308 195.5 50.7608C195.54 50.7708 195.57 50.7908 195.61 50.8008L195.71 50.8408C195.78 50.8608 195.85 50.8808 195.92 50.9008C196.06 50.9408 196.21 50.9808 196.35 51.0308C196.63 51.1108 196.9 51.1908 197.15 51.2608C197.66 51.4008 198.09 51.5308 198.41 51.6308C199.24 51.8208 199.94 51.9808 200.7 52.1408C201.45 52.3008 202.25 52.4508 203.28 52.5908C203.92 52.7108 202.53 52.5108 203.4 52.6508C204.03 52.7408 204.66 52.8108 205.29 52.8708C206.2 52.9508 207.37 53.0708 208.6 53.1608H208.73L208.78 53.1708H208.81C208.81 53.1708 208.82 53.1808 208.83 53.1908L208.9 53.2508C208.96 53.3008 209.03 53.3508 209.09 53.4108C209.22 53.5208 209.34 53.6308 209.45 53.7708C209.56 53.9008 209.67 54.0508 209.71 54.2508C209.73 54.3508 209.71 54.4708 209.65 54.5708C209.59 54.6608 209.51 54.7208 209.43 54.7708C209.27 54.8608 209.1 54.9008 208.94 54.9308C208.78 54.9608 208.62 54.9808 208.46 54.9908C208.15 55.0108 207.84 55.0208 207.55 55.0108H207.65C207.7 55.0008 207.22 54.9608 206.85 54.9408C206.72 54.9408 206.97 54.9708 207.2 54.9908C206.16 54.9408 205.53 54.8608 204.96 54.8008C204.39 54.7308 203.87 54.6508 203.06 54.5208C203.76 54.6108 202.42 54.3908 202.35 54.3408C201.92 54.2808 202.59 54.4208 201.64 54.2608C201.47 54.2308 201.31 54.1908 201.14 54.1608H201.08L201.05 54.1408H201.04L200.92 54.1208C200.84 54.1108 200.76 54.0908 200.67 54.0808C200.34 54.0308 200.03 53.9708 199.72 53.9108C199.1 53.7908 198.52 53.6508 197.97 53.5108C197.52 53.4308 196.93 53.2708 196.89 53.3008C196.14 53.1008 195.57 52.9308 194.95 52.7308C194.34 52.5308 193.68 52.3108 192.8 51.9308L192.76 51.9008C192.52 51.8208 192.14 51.6408 191.79 51.4508C191.44 51.2608 191.12 51.0708 190.96 50.9808C191.01 50.9908 191.19 51.0908 191.15 51.0608C190.95 50.9508 190.76 50.8208 190.57 50.7008C190.66 50.7508 190.73 50.7908 190.75 50.7908C190.77 50.7908 190.68 50.7208 190.39 50.5108C189.78 50.0808 190.54 50.6508 190.23 50.4508C190.18 50.3908 190.13 50.3308 190.08 50.2808C189.97 50.1908 189.88 50.1208 189.82 50.0608C189.76 50.0108 189.71 49.9708 189.7 49.9708C189.67 49.9708 189.75 50.0708 190.02 50.3008C189.65 49.9908 189.3 49.6308 189.05 49.2008C188.8 48.7708 188.68 48.2408 188.78 47.7508C188.87 47.2608 189.13 46.8308 189.42 46.4808C189.72 46.1308 190.05 45.8308 190.39 45.5708C190.35 45.6108 190.3 45.6608 190.26 45.7008C190.63 45.4008 191.09 45.0908 191.53 44.8308C191.58 44.8008 191.64 44.7708 191.69 44.7408L191.73 44.7108C191.73 44.7108 191.75 44.7008 191.76 44.6908H191.8C191.8 44.6908 191.86 44.6608 191.89 44.6608C192 44.6308 192.11 44.6008 192.22 44.5808C192.42 44.5308 192.6 44.4908 192.74 44.4608C192.76 44.4508 192.98 44.3708 192.83 44.4008C193.36 44.2408 193.39 44.2408 193.43 44.2408C193.47 44.2408 193.53 44.2408 194.09 44.0308C193.82 44.1408 193.46 44.2508 193.41 44.2808C193.77 44.1708 194.12 44.0508 194.46 43.9008C194.8 43.7508 195.13 43.5808 195.41 43.3608C195.41 43.3608 195.49 43.3108 195.6 43.2308C195.71 43.1408 195.85 43.0108 195.98 42.8308C196.11 42.6508 196.21 42.4208 196.25 42.1808C196.29 41.9408 196.27 41.6808 196.22 41.4608C196.22 41.4408 196.22 41.5008 196.22 41.5908C196.22 41.6808 196.24 41.8008 196.23 41.9108C196.23 41.7208 196.19 41.5308 196.15 41.3408L196.11 41.1208C196.09 41.0508 196.07 40.9708 196.05 40.9008L196.03 40.8508C196.03 40.8508 196.03 40.8408 196.01 40.8208L195.94 40.7308L195.8 40.5608L195.53 40.2208L195.55 40.1808C195.34 39.9308 195.18 39.7708 195.04 39.6208C194.88 39.4808 194.74 39.3408 194.56 39.1508C193.87 38.4508 193.57 38.2008 193.33 37.9808C193.09 37.7708 192.91 37.5908 192.37 37.1408C192.2 37.1008 190.6 35.7608 190.29 35.5708C189.58 34.9508 188.69 34.2008 187.86 33.2808C187.76 33.1708 187.66 33.0408 187.56 32.9208C187.46 32.8008 187.36 32.6808 187.26 32.5508C187.17 32.4208 187.08 32.2908 186.98 32.1608L186.84 31.9708L186.82 31.9408L186.79 31.9108L186.7 31.8308C186.23 31.4008 185.81 30.9108 185.46 30.3908C185.5 30.4408 185.54 30.5008 185.58 30.5508C185.28 30.1108 185.12 29.8508 184.95 29.5908C184.79 29.3208 184.62 29.0408 184.41 28.5008C184.45 28.5908 184.49 28.6808 184.53 28.7608C184.48 28.6308 184.42 28.4808 184.37 28.3308L181.91 27.9708L176.3 33.9008C175.06 35.2108 172.84 34.5508 172.53 32.7808L171.14 24.7708L163.65 21.3308C162 20.5708 161.94 18.2908 163.55 17.4608L170.85 13.7208L171.83 5.66078C172.05 3.89078 174.24 3.13079 175.54 4.39079L181.45 10.0808L189.54 8.54079C191.32 8.20079 192.74 10.0208 191.93 11.6208L188.28 18.8808L190.26 22.3808H190.27L190.44 22.5108C190.55 22.5908 190.66 22.6808 190.77 22.7608C190.98 22.9308 191.19 23.1108 191.38 23.2808C191.65 23.5608 191.44 23.3708 191.36 23.3208C191.97 23.8908 192.52 24.5208 193.05 25.1208C193.58 25.7308 194.1 26.3108 194.63 26.8208C194.64 26.8408 194.66 26.8708 194.66 26.8808C194.66 26.8908 194.66 26.9108 194.67 26.9208C194.69 26.9308 194.7 26.9508 194.71 26.9608C194.72 26.9608 194.73 26.9308 194.74 26.9208C194.74 26.9108 194.75 26.9008 194.76 26.8808C194.76 26.8808 194.78 26.8508 194.78 26.8408C194.84 26.7608 194.88 26.7108 194.93 26.6508C194.95 26.6208 194.98 26.5908 195.02 26.5608C195.05 26.5308 195.09 26.4908 195.15 26.4608C195.25 26.3808 195.4 26.3008 195.64 26.2108C195.75 26.1708 195.59 26.2308 195.39 26.3408C195.19 26.4508 194.96 26.6408 194.88 26.7508C195.16 26.4808 195.39 26.3608 195.55 26.2808C195.71 26.2008 195.82 26.1608 195.92 26.1208C195.97 26.1008 196.02 26.0808 196.08 26.0608C196.14 26.0408 196.21 26.0208 196.29 26.0008C196.46 25.9608 196.69 25.9208 197.05 25.9108C196.93 25.9308 196.8 25.9508 196.68 25.9908C197.23 25.9508 197.54 25.9708 197.76 25.9708C197.98 25.9708 198.12 25.9708 198.32 25.9708C199.09 26.0508 199.35 26.1508 199.67 26.2508C199.83 26.3008 200.01 26.3608 200.27 26.4508C200.38 26.4908 200.51 26.5308 200.66 26.5808C200.71 26.5108 200.89 26.3008 201.1 26.1408C201.37 25.9308 200.98 26.1708 201.26 25.9608C201.6 25.7708 201.89 25.6908 202.14 25.6408C202.39 25.5908 202.6 25.5708 202.81 25.5508C203.23 25.5308 203.65 25.5408 204.38 25.6708C204.76 25.7808 204.58 25.7408 204.4 25.7108C204.22 25.6808 204.06 25.6508 204.47 25.7608C204.11 25.6908 203.74 25.6308 203.36 25.6008C203.84 25.6608 203.62 25.6408 203.3 25.6208C202.98 25.6008 202.55 25.6408 202.63 25.6608C202.99 25.6408 203.45 25.6408 203.92 25.7008C204.4 25.7508 204.9 25.8508 205.35 25.9708C205.35 25.9908 205.08 25.9208 204.87 25.8708C204.66 25.8208 204.5 25.8008 204.7 25.8708C204.86 25.9008 205.01 25.9308 205.17 25.9708C205.04 25.9508 205.02 25.9508 204.74 25.8908C204.9 25.9608 205.29 26.0208 205.73 26.1508C205.76 26.1508 205.75 26.1108 205.61 26.0508C205.63 26.0508 205.66 26.0708 205.72 26.1008C205.83 26.1308 205.96 26.1608 206.09 26.2008C206.15 26.2208 206.22 26.2408 206.29 26.2608C206.32 26.2708 206.36 26.2808 206.39 26.2908H206.43C206.43 26.2908 206.44 26.3108 206.45 26.3108C206.58 26.2708 206.71 26.2308 206.85 26.2008C207 26.1608 207.15 26.1408 207.31 26.1008C207.92 25.9908 208.53 25.9808 208.94 25.9808C208.81 25.9808 208.92 25.9908 208.96 26.0008C209.53 26.0408 210.13 26.0908 210.87 26.3108C211.07 26.3908 211 26.3908 211.04 26.4108C211.06 26.4208 211.1 26.4408 211.21 26.4908C211.26 26.5108 211.34 26.5408 211.43 26.5708C211.52 26.6108 211.64 26.6608 211.78 26.7108C211.89 26.7408 211.82 26.6908 211.84 26.6908C211.86 26.6908 211.97 26.7208 212.36 26.9108C212.16 26.8208 211.71 26.6208 212.05 26.8008C212.17 26.8508 212.26 26.8908 212.33 26.9308C212.4 26.9708 212.45 27.0008 212.49 27.0208C212.57 27.0608 212.6 27.0908 212.63 27.1108C212.69 27.1508 212.74 27.1908 213.12 27.4408C213.24 27.5008 213.35 27.5708 213.45 27.6308C213.55 27.7008 213.65 27.7608 213.73 27.8208C213.89 27.9408 214.01 28.0208 214.08 28.0308C214.2 28.1408 214.24 28.1908 214.31 28.2508C214.38 28.3208 214.49 28.4008 214.72 28.6208C214.67 28.5708 214.71 28.5908 214.78 28.6508C214.86 28.7108 214.98 28.8108 215.11 28.9208C215.36 29.1308 215.62 29.3808 215.62 29.3508C215.7 29.4608 215.5 29.2808 215.34 29.1508C215.18 29.0308 215.09 28.9508 215.37 29.2508C215.48 29.3408 215.61 29.4608 215.73 29.5808C215.86 29.7108 215.99 29.8308 216.11 29.9608C216.23 30.0808 216.34 30.2008 216.43 30.2808C216.51 30.3608 216.57 30.4208 216.6 30.4308C216.74 30.6008 216.83 30.7208 216.94 30.8808C217 30.9608 217.06 31.0408 217.13 31.1308C217.2 31.2308 217.28 31.3408 217.38 31.4808C217.32 31.3908 217.23 31.2908 217.19 31.2408C217.57 31.7108 217.98 32.3208 218.33 32.9008C218.68 33.4808 218.95 34.0308 219.12 34.3308C219.08 34.2808 219.12 34.4008 219.21 34.6008C219.28 34.8008 219.39 35.0808 219.49 35.3408C219.67 35.8608 219.82 36.3008 219.64 35.8808C219.72 36.1208 219.83 36.4208 219.92 36.6808C220.01 36.9408 220.09 37.1708 220.12 37.2508C220.08 37.2308 220.22 37.7208 220.36 38.2108C220.71 30.7308 218.49 23.2908 214.31 16.7908L214.37 16.8008ZM149.43 30.2108L149.73 27.2308L147.46 25.1608C146.96 24.7008 147.16 23.8908 147.8 23.7908L150.71 23.3108L151.84 20.5808C152.09 19.9808 152.92 19.9708 153.25 20.5608L154.75 23.2408L157.72 23.6208C158.37 23.7008 158.69 24.5108 158.25 24.9808L156.27 27.1208L156.98 30.0808C157.14 30.7308 156.49 31.2408 155.89 30.9408L153.17 29.5808L150.64 31.0308C150.08 31.3508 149.37 30.8608 149.44 30.2008L149.43 30.2108ZM183.1 30.3608C183.1 30.3608 184.48 38.2808 179.9 44.8708L178.97 41.7608C181.58 37.6108 182.68 34.5808 183.1 30.3608ZM171.69 42.5308L174.4 44.0708L177.17 42.9208C177.78 42.6708 178.47 43.1908 178.35 43.8108L177.77 46.6208L179.94 48.7908C180.42 49.2708 180.13 50.0208 179.46 50.0708L176.39 50.2708L174.96 52.7708C174.65 53.3208 173.77 53.2608 173.49 52.6708L172.18 49.9808L169.13 49.3508C168.46 49.2108 168.21 48.4208 168.7 48.0108L170.96 46.1508L170.5 43.2608C170.4 42.6208 171.11 42.2008 171.71 42.5308H171.69ZM169.04 45.9908C159.35 44.6208 155.76 37.6808 154.48 33.6408C154.48 33.0708 154.48 32.4908 154.45 31.9208C154.45 31.5408 154.18 31.3208 153.89 31.2808C153.82 30.9108 153.8 30.6908 153.8 30.6908L156.64 32.5608C157.18 32.9208 157.9 32.5408 157.91 31.8908L157.99 27.7708C160.35 42.4108 169.05 45.9908 169.05 45.9908H169.04Z" fill="white"/>
</svg>
