<svg width="176" height="40" viewBox="0 0 176 40" fill="none" xmlns="http://www.w3.org/2000/svg">
<g clip-path="url(#clip0_1_157)">
<path d="M39.4501 18.65C38.9701 8.59 30.7901 0.460001 20.7301 0.0200006C13.0501 -0.319999 6.28006 3.8 2.78006 10C1.99006 11.4 2.52006 13.18 3.99006 13.83C5.30006 14.42 6.78006 13.87 7.46006 12.66C7.46006 12.66 7.46006 12.65 7.46006 12.64C7.54006 12.5 7.62006 12.35 7.71006 12.21C7.74006 12.16 7.77006 12.11 7.80006 12.06C7.86006 11.96 7.92006 11.87 7.98006 11.77C8.02006 11.71 8.06006 11.66 8.09006 11.6C8.15006 11.51 8.21006 11.43 8.27006 11.35C8.31006 11.29 8.35006 11.23 8.40006 11.18C8.46006 11.1 8.52006 11.02 8.58006 10.94C8.63006 10.88 8.67006 10.82 8.72006 10.76C8.78006 10.68 8.84006 10.61 8.90006 10.53C8.95006 10.47 9.00006 10.42 9.05006 10.36C9.11006 10.29 9.18006 10.21 9.24006 10.14C9.29006 10.08 9.34006 10.03 9.39006 9.97C9.45006 9.9 9.52006 9.83 9.59006 9.76C9.64006 9.71 9.69006 9.65 9.75006 9.6C9.82006 9.53 9.89006 9.46 9.95006 9.4C10.0001 9.35 10.0601 9.3 10.1101 9.24C10.1801 9.17 10.2501 9.11 10.3301 9.04C10.3801 8.99 10.4401 8.94 10.4901 8.89C10.5701 8.82 10.6401 8.76 10.7201 8.69C10.7701 8.65 10.8301 8.6 10.8801 8.56C10.9601 8.49 11.0501 8.42 11.1401 8.36C11.1901 8.32 11.2401 8.28 11.2801 8.25C11.3901 8.17 11.5001 8.08 11.6201 8C11.6501 7.98 11.6701 7.96 11.7001 7.95C11.8401 7.85 11.9801 7.76 12.1201 7.66C12.1601 7.63 12.2101 7.61 12.2501 7.58C12.3501 7.52 12.4501 7.45 12.5601 7.39C12.6201 7.36 12.6701 7.32 12.7301 7.29C12.8201 7.24 12.9101 7.18 13.0101 7.13C13.0701 7.1 13.1401 7.06 13.2001 7.03C13.2901 6.98 13.3801 6.94 13.4701 6.89C13.5401 6.86 13.6001 6.82 13.6701 6.79C13.7601 6.75 13.8501 6.7 13.9301 6.66C14.0001 6.63 14.0701 6.6 14.1401 6.57C14.2301 6.53 14.3201 6.49 14.4101 6.45C14.4801 6.42 14.5501 6.39 14.6201 6.36C14.7101 6.32 14.8001 6.29 14.8901 6.25C14.9601 6.22 15.0301 6.2 15.1101 6.17C15.2001 6.14 15.3001 6.11 15.3901 6.07C15.4601 6.05 15.5301 6.02 15.6101 6C15.7101 5.97 15.8001 5.94 15.9001 5.91C15.9701 5.89 16.0401 5.87 16.1101 5.85C16.2101 5.82 16.3101 5.8 16.4101 5.77C16.4801 5.75 16.5501 5.73 16.6201 5.72C16.7301 5.69 16.8301 5.67 16.9401 5.65C17.0001 5.64 17.0701 5.62 17.1301 5.61C17.2601 5.59 17.3901 5.56 17.5101 5.54C17.5601 5.54 17.6001 5.52 17.6501 5.52C17.8301 5.49 18.0001 5.47 18.1801 5.45C18.2201 5.45 18.2601 5.45 18.3001 5.44C18.4401 5.42 18.5801 5.41 18.7201 5.4C18.7801 5.4 18.8501 5.4 18.9201 5.39C19.0401 5.39 19.1501 5.37 19.2701 5.37C19.3401 5.37 19.4201 5.37 19.4901 5.37C19.6001 5.37 19.7101 5.37 19.8201 5.37C19.8701 5.37 19.9201 5.37 19.9601 5.37C20.2501 5.37 20.5501 5.38 20.8301 5.4C20.8601 5.4 20.8801 5.4 20.9101 5.4C21.1301 5.42 21.3501 5.44 21.5701 5.47C26.0501 6 29.9001 8.62 32.1101 12.33C32.9401 13.72 32.4401 15.52 31.0101 16.28C29.6701 16.99 28.0201 16.52 27.2501 15.22C25.7501 12.71 23.0101 11.02 19.8801 11.02C16.2101 11.02 13.0801 13.33 11.8501 16.58C11.5001 17.52 11.3001 18.54 11.3001 19.6C11.3001 20.66 11.5001 21.68 11.8501 22.62C13.0701 25.86 16.2101 28.18 19.8801 28.18C23.0101 28.18 25.7601 26.49 27.2501 23.98C28.0201 22.68 29.6801 22.21 31.0101 22.92C32.4401 23.68 32.9301 25.48 32.1101 26.87C29.7201 30.87 25.4301 33.61 20.4901 33.82C20.2901 33.82 20.0901 33.84 19.8801 33.84C19.7001 33.84 19.5201 33.84 19.3401 33.83C19.2801 33.83 19.2201 33.83 19.1701 33.83C19.0501 33.83 18.9301 33.82 18.8101 33.81C18.7401 33.81 18.6701 33.8 18.6101 33.79C18.5001 33.79 18.3901 33.77 18.2901 33.76C18.2201 33.76 18.1501 33.74 18.0801 33.73C17.9701 33.72 17.8701 33.7 17.7701 33.69C17.7001 33.68 17.6301 33.67 17.5601 33.66C17.4501 33.64 17.3501 33.62 17.2401 33.6C17.1701 33.59 17.1101 33.58 17.0401 33.56C16.9301 33.54 16.8101 33.51 16.7001 33.49C16.6501 33.48 16.5901 33.47 16.5401 33.45C16.3701 33.41 16.2101 33.37 16.0401 33.32C15.8801 33.27 15.7101 33.22 15.5501 33.17C15.5001 33.15 15.4501 33.13 15.3901 33.12C15.2801 33.08 15.1701 33.05 15.0601 33.01C15.0001 32.99 14.9401 32.96 14.8801 32.94C14.7801 32.9 14.6801 32.87 14.5901 32.83C14.5301 32.8 14.4601 32.78 14.4001 32.75C14.3101 32.71 14.2101 32.67 14.1201 32.63C14.0601 32.6 14.0001 32.57 13.9301 32.55C13.8401 32.51 13.7401 32.46 13.6501 32.42C13.5901 32.39 13.5301 32.36 13.4801 32.33C13.3801 32.28 13.2801 32.23 13.1801 32.17C13.1301 32.14 13.0801 32.12 13.0301 32.09C12.8801 32.01 12.7401 31.93 12.6001 31.84C12.4601 31.76 12.3201 31.67 12.1801 31.58C12.1301 31.55 12.0901 31.52 12.0401 31.49C11.9501 31.43 11.8501 31.36 11.7601 31.3C11.7101 31.26 11.6601 31.23 11.6001 31.19C11.5201 31.13 11.4301 31.07 11.3501 31.01C11.3001 30.97 11.2401 30.93 11.1901 30.89C11.1101 30.83 11.0301 30.76 10.9501 30.7C10.9001 30.66 10.8501 30.62 10.7901 30.57C10.7101 30.5 10.6301 30.44 10.5501 30.37C10.5001 30.33 10.4501 30.29 10.4101 30.24C10.3301 30.16 10.2401 30.09 10.1601 30.01C10.1201 29.97 10.0801 29.94 10.0401 29.9C9.92006 29.78 9.80006 29.67 9.69006 29.55C9.57006 29.43 9.46006 29.31 9.35006 29.19C9.31006 29.15 9.28006 29.11 9.24006 29.07C9.17006 28.99 9.09006 28.9 9.02006 28.82C8.98006 28.77 8.94006 28.72 8.90006 28.67C8.83006 28.59 8.77006 28.51 8.71006 28.43C8.67006 28.38 8.63006 28.32 8.59006 28.27C8.53006 28.19 8.47006 28.11 8.41006 28.03C8.37006 27.98 8.33006 27.92 8.29006 27.87C8.23006 27.79 8.17006 27.7 8.11006 27.62C8.07006 27.57 8.04006 27.51 8.00006 27.46C7.94006 27.37 7.88006 27.27 7.82006 27.18C7.79006 27.13 7.76006 27.09 7.73006 27.04C7.64006 26.9 7.56006 26.75 7.48006 26.61C6.86006 25.51 5.59006 24.95 4.38006 25.31H4.36006C2.71006 25.8 1.93006 27.69 2.77006 29.19C6.12006 35.2 12.5501 39.27 19.9001 39.27C31.0301 39.27 40.0301 29.94 39.4901 18.69L39.4501 18.65Z" fill="white"/>
<path d="M2.94 22.55C4.56372 22.55 5.88 21.2337 5.88 19.61C5.88 17.9863 4.56372 16.67 2.94 16.67C1.31628 16.67 0 17.9863 0 19.61C0 21.2337 1.31628 22.55 2.94 22.55Z" fill="white"/>
<path d="M61.22 23.13C60.8 23.6 60.27 23.98 59.64 24.26C59 24.54 58.29 24.68 57.52 24.68C56.58 24.68 55.72 24.46 54.96 24.03C54.21 23.6 53.61 22.99 53.18 22.23C52.75 21.46 52.53 20.58 52.53 19.62C52.53 18.66 52.75 17.76 53.17 17C53.6 16.24 54.19 15.64 54.94 15.21C55.69 14.78 56.55 14.56 57.51 14.56C58.63 14.56 59.6 14.83 60.37 15.37C60.99 15.8 61.44 16.34 61.74 17C61.77 17.07 61.85 17.1 61.92 17.06L63.85 15.98C63.91 15.95 63.93 15.87 63.9 15.81C63.69 15.39 63.43 15 63.13 14.64C62.49 13.87 61.68 13.25 60.71 12.82C59.75 12.39 58.66 12.17 57.47 12.17C56.07 12.17 54.79 12.49 53.65 13.13C52.51 13.77 51.61 14.67 50.96 15.81C50.32 16.94 49.99 18.23 49.99 19.63C49.99 21.03 50.32 22.32 50.96 23.45C51.61 24.59 52.51 25.49 53.65 26.13C54.78 26.77 56.07 27.09 57.47 27.09C58.68 27.09 59.8 26.85 60.81 26.39C61.82 25.92 62.66 25.27 63.3 24.47C63.55 24.16 63.77 23.83 63.95 23.49C63.98 23.43 63.96 23.35 63.9 23.32L61.96 22.24C61.9 22.2 61.82 22.24 61.78 22.3C61.63 22.61 61.44 22.9 61.2 23.17L61.22 23.13Z" fill="white"/>
<path d="M73.04 22.67C74.73 22.67 76.1 21.3 76.1 19.61C76.1 17.92 74.73 16.55 73.04 16.55C71.35 16.55 69.98 17.92 69.98 19.61C69.98 21.3 71.35 22.67 73.04 22.67Z" fill="white"/>
<path d="M80.69 19.19C80.48 15.25 77.2 12.06 73.26 11.95C69.95 11.86 67.1 13.87 65.94 16.74C65.5 17.82 64.69 18.68 63.53 18.97C62.54 19.22 61.44 18.99 60.63 18.36C60.15 17.99 59.78 17.49 59.29 17.14C58.34 16.45 56.97 16.38 55.96 16.97C54.94 17.56 54.33 18.78 54.46 19.95C54.59 21.12 55.46 22.17 56.59 22.52C57.38 22.77 58.27 22.67 58.97 22.25C59.56 21.89 60 21.33 60.56 20.93C61.57 20.19 62.94 20.02 64.09 20.52C64.78 20.82 65.23 21.31 65.61 21.88C65.77 22.12 65.89 22.38 66 22.64C67.17 25.37 69.88 27.28 73.03 27.28C77.4 27.28 80.92 23.62 80.68 19.2L80.69 19.19ZM73.04 24.73C70.21 24.73 67.92 22.44 67.92 19.61C67.92 16.78 70.21 14.49 73.04 14.49C75.87 14.49 78.16 16.78 78.16 19.61C78.16 22.44 75.87 24.73 73.04 24.73Z" fill="white"/>
<path d="M115.03 24.14V14.73H122.67V12.47H112.56V26.4H122.82V24.14H115.03Z" fill="white"/>
<path d="M150.73 14.81C150.26 14.06 149.57 13.47 148.69 13.06C147.83 12.66 146.8 12.46 145.63 12.46H140.58V26.4H143.04V22.36H145.62C146.79 22.36 147.82 22.16 148.68 21.76C149.56 21.35 150.25 20.77 150.72 20.01C151.19 19.26 151.43 18.39 151.43 17.41C151.43 16.43 151.19 15.56 150.72 14.81H150.73ZM148.1 19.36C147.49 19.83 146.62 20.07 145.5 20.07H143.05V14.77H145.5C146.62 14.77 147.5 15.01 148.1 15.48C148.69 15.93 148.97 16.57 148.97 17.42C148.97 18.27 148.69 18.91 148.1 19.36Z" fill="white"/>
<path d="M155.74 24.11V12.47H153.28V26.4H163V24.11H155.74Z" fill="white"/>
<path d="M167.33 24.14V20.42H174.41V18.15H167.33V14.73H174.98V12.47H164.87V26.4H175.13V24.14H167.33Z" fill="white"/>
<path d="M135.39 23.13C134.97 23.6 134.44 23.98 133.81 24.26C133.17 24.54 132.46 24.68 131.69 24.68C130.75 24.68 129.89 24.46 129.13 24.03C128.38 23.6 127.78 22.99 127.35 22.23C126.92 21.46 126.7 20.58 126.7 19.62C126.7 18.66 126.92 17.76 127.34 17C127.77 16.24 128.36 15.64 129.11 15.21C129.86 14.78 130.72 14.56 131.68 14.56C132.8 14.56 133.77 14.83 134.54 15.37C135.16 15.8 135.61 16.34 135.91 17C135.94 17.07 136.02 17.1 136.09 17.06L138.02 15.98C138.08 15.95 138.1 15.87 138.07 15.81C137.86 15.39 137.6 15 137.3 14.64C136.66 13.87 135.85 13.25 134.88 12.82C133.92 12.39 132.83 12.17 131.64 12.17C130.24 12.17 128.96 12.49 127.82 13.13C126.68 13.77 125.78 14.67 125.13 15.81C124.49 16.94 124.16 18.23 124.16 19.63C124.16 21.03 124.49 22.32 125.13 23.45C125.78 24.59 126.68 25.49 127.82 26.13C128.95 26.77 130.24 27.09 131.64 27.09C132.85 27.09 133.97 26.85 134.98 26.39C135.99 25.92 136.83 25.27 137.47 24.47C137.72 24.16 137.94 23.83 138.12 23.49C138.15 23.43 138.13 23.35 138.07 23.32L136.13 22.24C136.07 22.2 135.99 22.24 135.95 22.3C135.8 22.61 135.61 22.9 135.37 23.17L135.39 23.13Z" fill="white"/>
<path d="M92.5 12.38V22.05L85.05 12.47H82.89V26.4H85.35V16.74L92.8 26.32H94.98V12.38H92.5Z" fill="white"/>
<path d="M131.8 22.61C133.49 22.61 134.86 21.24 134.86 19.55C134.86 17.86 133.49 16.49 131.8 16.49C130.11 16.49 128.74 17.86 128.74 19.55C128.74 21.24 130.11 22.61 131.8 22.61Z" fill="white"/>
<path d="M130.9 18.26H109.82V12.38H107.34V22.05L99.89 12.47H97.73V26.4H100.19V16.74L107.64 26.32H109.82V20.53H130.9V18.26Z" fill="white"/>
</g>
<defs>
<clipPath id="clip0_1_157">
<rect width="175.13" height="39.22" fill="white"/>
</clipPath>
</defs>
</svg>
