<svg width="17" height="20" viewBox="0 0 17 20" fill="none" xmlns="http://www.w3.org/2000/svg">
<path d="M4.16874 15.9525C4.42363 15.0585 4.97606 14.3099 5.29878 13.4449C5.69994 12.3706 5.89657 11.1845 6.41535 10.1442C6.93061 9.11205 7.50353 8.09841 8.13471 7.12135C8.76673 6.1436 9.4574 5.19946 10.2213 4.30859C10.9849 3.42041 11.818 2.58598 12.7528 1.8609C13.3841 1.37304 14.0641 0.936256 14.7887 0.603953C15.1071 0.457953 15.4286 0.335038 15.7631 0.235001C16.0091 0.162057 16.2612 0.102643 16.5118 0.0611333C16.5466 0.0554027 16.5838 0.0633107 16.6149 0.0839013C16.646 0.104531 16.6686 0.135875 16.6783 0.171903C16.688 0.207968 16.6843 0.246415 16.669 0.27982C16.6536 0.313156 16.6278 0.338655 16.5972 0.352087C16.3745 0.449055 16.1574 0.561119 15.9508 0.683765C15.7173 0.821822 15.5018 0.970064 15.2865 1.13376C15.1723 1.02321 15.0638 0.951908 14.9419 0.966991C14.8799 0.974552 14.8033 1.0104 14.7673 1.06804C14.735 1.11975 14.7257 1.18086 14.7176 1.23885C14.7093 1.29936 14.7006 1.35762 14.6701 1.39752C14.6174 1.46598 14.5915 1.56473 14.5664 1.66833C14.5572 1.70605 14.5481 1.7445 14.5377 1.78245C14.352 1.96204 14.1822 2.14168 14.0104 2.33373C13.9249 2.3873 13.8511 2.43652 13.7994 2.49278C13.7532 2.5431 13.7296 2.60967 13.7122 2.68178C13.6871 2.71219 13.6621 2.7428 13.6371 2.7736C13.4741 2.97412 13.3248 3.17085 13.1722 3.37996C13.0082 3.49797 12.842 3.62452 12.6509 3.82369C12.5684 3.90971 12.4795 3.98272 12.3923 4.05647C12.2643 4.16454 12.143 4.27106 12.0767 4.39297C12.033 4.47373 11.9578 4.53675 11.8828 4.60081C11.7823 4.68659 11.6817 4.77458 11.6603 4.90493C11.647 4.98659 11.6451 5.06673 11.6432 5.14165C11.6403 5.26066 11.6387 5.36453 11.5974 5.43115C11.5201 5.55603 11.4873 5.69095 11.4616 5.80614C11.4299 5.9459 11.4045 6.06329 11.3115 6.12109C11.2974 6.12985 11.2802 6.13921 11.2607 6.14972C11.1582 6.20493 10.9927 6.29615 10.9106 6.52147C10.8813 6.60189 10.8789 6.69297 10.877 6.78213C10.8742 6.9118 10.8718 7.03847 10.7885 7.12334C10.776 7.13605 10.7516 7.14259 10.7293 7.14855C10.701 7.15613 10.6762 7.16283 10.6841 7.18011C10.7072 7.23079 10.7251 7.29997 10.7449 7.37504C10.7594 7.43019 10.775 7.4886 10.7941 7.54512C10.6652 7.81827 10.5402 8.09082 10.4165 8.36633C10.3597 8.49263 10.3036 8.61888 10.2481 8.74525C10.1543 8.77531 10.0657 8.81049 9.9887 8.85669C9.88804 8.91707 9.81128 9.02421 9.71339 9.16278C9.64139 9.26472 9.55778 9.38393 9.44467 9.51546C9.23515 9.75892 9.11202 10.0568 9.0631 10.2604C9.05272 10.3034 9.04285 10.347 9.03255 10.3936C8.99372 10.5704 8.94446 10.7924 8.82363 11.1959C8.70857 11.58 8.58899 11.892 8.49893 12.1304C8.45312 12.2518 8.4155 12.3524 8.39138 12.4313C8.35006 12.5665 8.29613 12.7296 8.24179 12.8964C8.15683 13.1569 8.07633 13.4134 8.04298 13.5696C8.03137 13.6245 8.02091 13.6826 8.00967 13.7452C7.9783 13.9193 7.94303 14.1241 7.86333 14.4046C7.78073 14.6967 7.70311 14.8622 7.60214 15.0358C7.56146 15.1055 7.48309 15.1516 7.40231 15.199C7.28747 15.267 7.16905 15.3344 7.14609 15.4817C7.14078 15.516 7.14205 15.5549 7.1435 15.5954C7.14617 15.6699 7.14941 15.7501 7.11281 15.8181C7.10004 15.8418 7.07753 15.8588 7.05548 15.8755C7.03122 15.8938 7.0075 15.9118 6.99771 15.9379C6.9615 16.0344 6.93232 16.1342 6.90682 16.2225C6.87397 16.3362 6.84719 16.4305 6.81528 16.4838C6.75825 16.5792 6.74401 16.6955 6.72797 16.8202C6.71617 16.914 6.70491 17.0079 6.67524 17.0921C6.59194 17.3274 6.52696 17.6847 6.49441 18.0496C6.48134 18.1901 6.41485 18.2909 6.33096 18.4177C6.27871 18.4968 6.21717 18.595 6.16 18.7134C6.12748 18.7809 6.1428 18.8486 6.15723 18.9106C6.16192 18.9307 6.16651 18.9502 6.16935 18.9689C5.77023 20.2735 4.17862 20.3856 3.75007 19.0904C3.72512 19.0632 3.70652 19.0346 3.70335 18.9997C3.69904 18.952 3.73968 18.9056 3.77827 18.8615C3.82122 18.8125 3.86161 18.7663 3.83471 18.7245C3.82039 18.7023 3.78392 18.6824 3.74058 18.6587C3.72343 18.6494 3.70524 18.6393 3.68686 18.6284C3.69748 18.6253 3.70678 18.6221 3.71377 18.6195C3.76314 18.601 3.77175 18.5449 3.78016 18.4898C3.78352 18.4678 3.78677 18.4459 3.79266 18.4268C3.81433 18.3562 3.78236 18.25 3.75074 18.1716C3.73737 18.1384 3.7413 18.1023 3.74589 18.0601C3.74996 18.0227 3.75458 17.9806 3.74804 17.9314C3.74431 17.9034 3.7512 17.8783 3.75701 17.8574C3.76121 17.8423 3.76482 17.8295 3.76326 17.8194C3.76189 17.8107 3.74529 17.8094 3.7266 17.808C3.71315 17.807 3.69857 17.8059 3.68781 17.8019C3.66211 17.7923 3.64814 17.7728 3.64866 17.7552C3.64891 17.7471 3.65233 17.7395 3.65574 17.7319C3.65972 17.7231 3.66376 17.7143 3.66271 17.7047C3.65788 17.6604 3.62702 17.6271 3.59496 17.5926C3.55972 17.5546 3.52305 17.5149 3.51781 17.4575C3.51616 17.4394 3.51993 17.4181 3.5236 17.3974C3.52745 17.3758 3.53111 17.3548 3.52833 17.3391C3.51701 17.2757 3.46081 17.2331 3.40911 17.1939C3.37473 17.1678 3.34235 17.1432 3.32649 17.115C3.29744 17.0634 3.24404 17.0498 3.20463 17.0398C3.18421 17.0346 3.16746 17.0304 3.15983 17.0223C3.1577 17.0131 3.15575 17.0036 3.154 16.9943C3.15411 16.9851 3.15421 16.9755 3.15027 16.9681C3.14997 16.9676 3.14957 16.9671 3.14926 16.9665C3.14117 16.9136 3.13769 16.86 3.13429 16.8067C3.12666 16.687 3.11919 16.5687 3.05892 16.4632C3.04593 16.4405 3.0192 16.4224 2.99204 16.404C2.95875 16.3814 2.92471 16.3583 2.91432 16.3257C2.88956 16.248 2.88957 16.1602 2.88958 16.0737C2.88961 15.9436 2.8896 15.8164 2.80537 15.7311C2.77757 15.7029 2.74 15.6793 2.7022 15.6557C2.68114 15.6426 2.65992 15.6294 2.64044 15.6154C2.66509 15.6107 2.68764 15.6046 2.70866 15.599C2.752 15.5874 2.7891 15.5775 2.82623 15.5841C2.91398 15.5996 3.0309 15.6107 3.10104 15.5783C3.12007 15.5695 3.14231 15.5625 3.16475 15.5556C3.22103 15.5382 3.2785 15.5204 3.28917 15.4714C3.29636 15.4384 3.31014 15.3554 3.25175 15.3278C3.23903 15.3218 3.21868 15.3228 3.19607 15.324C3.15543 15.3261 3.10728 15.3285 3.08186 15.2911C3.07758 15.2848 3.07323 15.2778 3.0689 15.2705C3.05162 15.2416 3.03237 15.2092 2.9983 15.2071C2.95905 15.2047 2.92173 15.2224 2.87821 15.2429C2.82152 15.2697 2.7542 15.3015 2.65837 15.3006C2.63942 15.3004 2.62919 15.2903 2.62144 15.2828C2.61598 15.2774 2.61169 15.2734 2.60652 15.2747C2.60059 15.2763 2.58946 15.2828 2.57538 15.2911C2.52572 15.3203 2.43891 15.3713 2.40972 15.3053C2.40183 15.2874 2.39843 15.2649 2.39542 15.2447C2.39097 15.2149 2.38725 15.1902 2.37091 15.1928C2.36471 15.1938 2.35816 15.1954 2.35143 15.1971C2.34503 15.1745 2.33863 15.1518 2.33223 15.1292C2.3398 15.0942 2.32344 15.0553 2.30294 15.0067C2.29797 14.9949 2.29279 14.9825 2.28762 14.9694C2.27514 14.9247 2.26263 14.88 2.25023 14.8352C2.24504 14.798 2.24386 14.7567 2.24927 14.7107C2.26011 14.6185 2.30055 14.5266 2.34011 14.4369C2.35679 14.399 2.37335 14.3615 2.38743 14.3245C2.3945 14.3342 2.40172 14.3427 2.40944 14.3484C2.46228 14.3874 2.536 14.3834 2.60384 14.3797C2.64897 14.3772 2.69153 14.3749 2.72351 14.3854C2.78209 14.4048 2.83337 14.3814 2.8713 14.3642C2.89098 14.3552 2.90713 14.348 2.91875 14.3491C2.92808 14.3501 2.93514 14.3577 2.94245 14.3655C2.94881 14.3723 2.95543 14.3793 2.96377 14.3823C3.0651 14.4182 3.10254 14.382 3.15704 14.3293C3.1871 14.3002 3.2224 14.2662 3.27644 14.2364C3.33428 14.2065 3.3529 14.2023 3.38972 14.2272C3.40972 14.1896 3.42971 14.1519 3.4497 14.1143C3.44387 14.1046 3.42223 14.1038 3.38704 14.1043C3.32418 14.1054 3.27983 14.0487 3.24517 14.0044C3.22913 13.9839 3.21513 13.966 3.20235 13.9578C3.13436 13.914 3.07799 13.9552 3.0284 13.9916C3.0011 14.0115 2.97582 14.03 2.95181 14.032C2.94155 14.0329 2.93373 14.04 2.92575 14.0473C2.91958 14.053 2.91331 14.0587 2.90576 14.0617C2.85087 14.0832 2.79643 14.0626 2.7459 14.0435C2.71696 14.0325 2.68924 14.0221 2.66345 14.0203C2.65559 14.0198 2.64783 14.0199 2.64033 14.0201C2.62938 14.0204 2.61891 14.0206 2.60908 14.0185C2.58668 14.0136 2.56556 13.9943 2.54248 13.973C2.53065 13.9621 2.5183 13.9508 2.50497 13.9406C2.48771 13.9275 2.46356 13.9295 2.43831 13.9315C2.42046 13.9329 2.40205 13.9343 2.38505 13.9305C2.35429 13.9237 2.33318 13.8945 2.31359 13.8674C2.30506 13.8556 2.29671 13.8442 2.28808 13.8352C2.28456 13.8316 2.28002 13.8309 2.2747 13.8323C2.23887 13.7893 2.20349 13.7486 2.16896 13.709C1.99582 13.5105 1.84582 13.3388 1.78848 13.0199C1.77764 12.9596 1.75288 12.8998 1.72171 12.8417C1.66998 12.6377 1.61892 12.4333 1.5685 12.2289C1.60371 12.1715 1.62771 12.1084 1.63946 12.04C1.66151 11.9116 1.63404 11.7982 1.60163 11.6644C1.57767 11.5655 1.55105 11.4555 1.53968 11.3198C1.52059 11.0919 1.49047 10.8618 1.42657 10.6135C1.36294 10.3662 1.27972 10.0869 1.21423 9.89182C1.17853 9.78547 1.18171 9.65853 1.18462 9.54024C1.1887 9.37385 1.1923 9.22457 1.08695 9.17372C1.05329 9.15749 1.00214 9.14877 0.952425 9.14025C0.917022 9.13419 0.882386 9.1281 0.855119 9.11965C0.845354 9.07359 0.835499 9.02752 0.825785 8.98141C0.847189 8.885 0.856148 8.74429 0.756286 8.64892C0.74638 8.60132 0.73643 8.5537 0.727161 8.50759C0.7063 8.40723 0.686395 8.30885 0.666281 8.20958C0.659779 8.17716 0.653172 8.14443 0.646562 8.11161C0.64651 8.11129 0.646457 8.11098 0.646404 8.11066C0.6331 8.0446 0.619688 7.97805 0.606727 7.91251C0.601159 7.88444 0.595591 7.85638 0.590023 7.82831C0.575859 7.75699 0.561551 7.68518 0.547794 7.61448C0.540542 7.57706 0.533116 7.53931 0.525759 7.50146C0.513823 7.44007 0.501777 7.37822 0.489906 7.31664C0.470702 7.21706 0.451844 7.11785 0.433044 7.01841C0.429999 7.00214 0.432895 6.98432 0.441579 6.96877C0.450287 6.95322 0.463985 6.94115 0.480457 6.935C0.496938 6.92885 0.515251 6.92898 0.532002 6.93504C0.548704 6.94112 0.562387 6.95271 0.570708 6.96699C0.621445 7.05454 0.671962 7.14203 0.72249 7.22995C0.753721 7.28429 0.785135 7.33886 0.816197 7.3931C0.83535 7.42655 0.854361 7.45992 0.873321 7.49298C0.909077 7.55544 0.945301 7.61918 0.981154 7.68238C0.99528 7.70724 1.00941 7.7321 1.02353 7.75696C1.05661 7.81515 1.08998 7.87443 1.12313 7.93324C1.12333 7.9336 1.12353 7.93395 1.12373 7.93431C1.14004 7.96324 1.15634 7.99212 1.17248 8.02069C1.2221 8.10895 1.27128 8.19643 1.32105 8.286C1.34709 8.33216 1.37373 8.38045 1.40032 8.42833C1.41512 8.45499 1.42992 8.48158 1.44448 8.50769C1.45239 8.52198 1.46035 8.53649 1.46835 8.55107C1.65352 8.88522 1.83577 9.21763 2.01717 9.55407C2.19808 9.88919 2.37722 10.2257 2.55411 10.5618C2.73132 10.8988 2.90637 11.2359 3.07979 11.5739C4.18056 13.7191 5.23776 15.8909 6.21535 18.0936C6.22466 18.1145 6.23397 18.1355 6.24329 18.1565L3.59513 18.2895C3.65924 17.9723 3.73574 17.6326 3.81234 17.3121C3.89643 16.9616 3.98513 16.6166 4.07797 16.2771C4.10651 16.1725 4.13674 16.0644 4.16874 15.9525Z" fill="white"/>
</svg>
