<svg width="254" height="164" viewBox="0 0 254 164" fill="none" xmlns="http://www.w3.org/2000/svg">
<path d="M80.5591 107.321C88.3099 107.935 95.9618 109.875 103.257 112.525C104.315 112.929 105.474 113.409 106.534 113.829C107.234 114.14 109.041 114.954 109.758 115.277C110.459 115.636 112.235 116.521 112.918 116.883C113.608 117.275 115.303 118.248 116.005 118.648C117.797 119.753 116.3 122.409 114.421 121.422C113.692 120.954 112.133 119.924 111.427 119.464C110.8 119.087 109.148 118.121 108.489 117.73C107.805 117.363 106.132 116.464 105.474 116.113C104.831 115.8 103.055 114.945 102.386 114.622C98.2481 112.722 93.8581 111.085 89.4954 109.755C86.5525 108.866 83.5697 108.073 80.5427 107.461C80.5039 107.454 80.4777 107.417 80.4859 107.378C80.493 107.343 80.5247 107.319 80.5596 107.321H80.5591Z" fill="#6DB3F2"/>
<path d="M108.487 118.64C100.371 117.621 92.2679 116.525 84.2139 115.108C88.2767 115.532 92.3465 115.854 96.4181 116.141C100.49 116.423 104.569 116.672 108.64 116.878C109.842 116.981 109.695 118.746 108.487 118.64Z" fill="#6DB3F2"/>
<path d="M110.569 116.466C106.878 112.197 102.322 108.66 97.504 105.729C95.8804 104.727 94.1863 103.85 92.4824 102.991C94.2502 103.718 96.0153 104.465 97.717 105.341C102.017 107.498 106.087 110.152 109.746 113.289C110.484 113.933 111.191 114.568 111.904 115.307C112.726 116.215 111.359 117.413 110.569 116.465V116.466Z" fill="#6DB3F2"/>
<g opacity="0.5">
<path d="M130.275 124.042C130.275 124.042 104.401 88.0797 81.9331 96.5444C62.3075 103.938 76.7919 144.501 130.275 124.042Z" fill="#61D6FF"/>
</g>
<path d="M103.092 131.329C101.944 131.329 100.814 131.292 99.7027 131.217C91.848 130.694 85.0603 128.266 80.0738 124.197C74.1793 119.389 71.1632 112.446 72.2022 106.08C73.0375 100.963 76.3819 96.9489 81.3783 95.0663C86.8784 92.9944 92.9887 93.2404 99.5393 95.7984C104.646 97.7921 110.034 101.197 115.555 105.918C124.869 113.882 131.288 122.745 131.557 123.118C131.843 123.517 131.928 124.025 131.788 124.494C131.647 124.964 131.297 125.342 130.839 125.517C120.743 129.379 111.427 131.328 103.093 131.328L103.092 131.329ZM89.1046 96.8368C86.8762 96.8368 84.6621 97.2038 82.4895 98.0223C78.5212 99.5173 75.9738 102.56 75.3161 106.589C74.4584 111.843 77.0457 117.652 82.0672 121.749C86.7336 125.556 100.393 133.165 127.729 123.303C122.986 117.263 105.717 96.8363 89.1046 96.8363V96.8368Z" fill="#6DB3F2"/>
<path d="M175.823 82.0462C169.992 87.0332 164.706 92.7048 160.12 98.8477C159.687 99.4552 158.548 101.051 158.13 101.643C157.723 102.265 156.68 103.873 156.265 104.513C155.882 105.163 154.896 106.807 154.524 107.448C154.147 108.157 153.272 109.804 152.889 110.523C151.84 112.349 149.14 110.931 150.071 109.021C150.514 108.278 151.542 106.618 151.975 105.904C152.396 105.268 153.523 103.633 153.972 102.974C154.454 102.334 155.638 100.763 156.102 100.15C156.832 99.2693 157.613 98.2943 158.348 97.4287C161.4 93.9275 164.765 90.5563 168.306 87.5412C170.084 86.0331 171.911 84.5835 173.813 83.2372C174.445 82.7861 175.086 82.3492 175.741 81.932C175.773 81.9112 175.817 81.9205 175.838 81.9533C175.857 81.9844 175.85 82.0238 175.823 82.0462Z" fill="#6DB3F2"/>
<path d="M155.727 103.836C162.661 99.5335 169.564 95.1584 176.283 90.5176C173.101 93.0827 169.854 95.5702 166.587 98.0292C163.316 100.484 160.026 102.911 156.705 105.309C155.707 105.986 154.712 104.502 155.726 103.836L155.727 103.836Z" fill="#6DB3F2"/>
<path d="M152.107 104.034C154.319 96.6124 158.334 89.8455 163.208 83.8809C162.676 84.6754 162.12 85.4519 161.61 86.2579C159.048 90.2524 156.919 94.5405 155.355 99.0167C154.743 100.768 154.183 102.633 153.829 104.432C153.563 105.612 151.831 105.222 152.107 104.034V104.034Z" fill="#6DB3F2"/>
<g opacity="0.5">
<path d="M140.204 120.541C140.204 120.541 145.589 76.5529 169.353 73.1473C190.111 70.1726 196.922 112.705 140.204 120.541Z" fill="#61D6FF"/>
</g>
<path d="M140.204 122.121C139.793 122.121 139.395 121.96 139.098 121.667C138.748 121.323 138.579 120.836 138.639 120.349C138.694 119.893 140.058 109.031 144.392 97.5623C146.961 90.7643 150.047 85.184 153.564 80.9757C158.076 75.577 163.313 72.4175 169.131 71.5836C174.414 70.8252 179.277 72.7336 182.47 76.8161C186.442 81.896 187.136 89.4339 184.283 96.4889C181.868 102.458 177.086 107.856 170.453 112.1C162.708 117.056 152.604 120.422 140.42 122.105C140.348 122.115 140.276 122.12 140.204 122.12V122.121ZM171.416 74.5769C170.815 74.5769 170.202 74.6212 169.577 74.7109C150.145 77.4953 143.502 110.071 142.082 118.668C170.785 114.141 179.098 100.89 181.358 95.3045C183.789 89.2939 183.263 82.9563 179.985 78.7639C177.845 76.0276 174.848 74.5769 171.415 74.5769H171.416Z" fill="#6DB3F2"/>
<path d="M138.69 148.753C138.69 148.753 141.298 155.292 143.673 159.416C146.047 163.538 151.508 159.616 151.508 159.616C156.632 158.8 156.142 155.85 155.404 154.18C155.093 153.477 154.741 152.999 154.741 152.999C159.257 151.317 161.712 148.726 162.926 145.906C163.153 145.375 163.34 144.835 163.487 144.292C165.193 137.947 161.644 131.127 161.644 131.127L142.131 146.113L138.691 148.753H138.69Z" fill="#FFD527"/>
<path d="M138.69 148.753C138.69 148.753 141.298 155.292 143.673 159.417C146.047 163.538 151.508 159.616 151.508 159.616C156.632 158.8 156.142 155.85 155.404 154.18C155.404 154.18 154.394 156.611 151.359 156.915C148.322 157.219 146.564 154.99 147.239 153.526C147.914 152.062 151.761 154.286 154.661 152.582C156.695 151.386 160.567 148.819 162.926 145.905C163.153 145.374 163.34 144.833 163.487 144.291C161.131 147.493 155.699 152.65 146.701 149.118C146.701 149.118 144.503 147.347 142.13 146.112L138.69 148.752V148.753Z" fill="#F7A623"/>
<path d="M156.302 153.996C153.506 154.748 150.534 154.882 147.719 154.182C146.789 153.957 145.898 153.576 145.055 153.144C144.731 152.979 144.603 152.582 144.769 152.258C144.926 151.949 145.29 151.824 145.602 151.945C148.736 153.013 152.242 152.483 155.222 151.178C157.248 150.275 158.414 153.305 156.302 153.996Z" fill="#591428"/>
<path d="M146.877 162.811C146.484 162.811 146.088 162.773 145.694 162.688C144.291 162.385 143.14 161.513 142.366 160.168C139.967 155.999 137.398 149.585 137.289 149.315C137.039 148.687 137.236 147.969 137.772 147.557L160.724 129.928C161.078 129.657 161.533 129.556 161.968 129.652C162.403 129.749 162.774 130.033 162.979 130.428C163.156 130.768 167.273 138.82 164.506 146.021C163.208 149.399 160.641 151.992 156.863 153.747C157.314 154.842 157.643 156.335 157.047 157.795C156.361 159.475 154.692 160.569 152.081 161.049C151.276 161.573 149.136 162.811 146.877 162.811ZM140.522 149.249C141.354 151.247 143.247 155.652 144.979 158.662C145.33 159.27 145.758 159.612 146.326 159.737C147.835 160.067 149.945 158.875 150.63 158.388C150.819 158.253 151.04 158.162 151.27 158.126C152.915 157.865 153.975 157.342 154.256 156.653C154.64 155.713 153.766 154.216 153.529 153.896C153.247 153.515 153.16 153.024 153.295 152.569C153.43 152.114 153.771 151.749 154.215 151.584C158.022 150.167 160.535 147.935 161.687 144.951C163.3 140.77 161.963 135.979 161.025 133.502L140.522 149.249L140.522 149.249Z" fill="#591428"/>
<path d="M113.733 131.142C113.733 131.142 103.017 133.559 94.2324 134.844C94.2324 134.844 102.082 141.537 106.69 143.83C111.298 146.123 113.733 131.142 113.733 131.142Z" fill="white"/>
<path d="M107.64 145.58C107.098 145.58 106.553 145.447 106.018 145.181C101.299 142.833 93.5805 136.272 93.2538 135.993C92.8031 135.609 92.619 134.996 92.7823 134.427C92.9462 133.857 93.4275 133.437 94.0131 133.351C102.638 132.089 113.294 129.693 113.401 129.669C113.889 129.559 114.401 129.699 114.766 130.043C115.131 130.386 115.301 130.889 115.22 131.384C114.902 133.339 113.121 143.187 109.244 145.179C108.723 145.446 108.183 145.58 107.639 145.58H107.64ZM97.788 135.813C100.441 137.938 104.568 141.089 107.36 142.479C107.592 142.593 107.708 142.575 107.868 142.493C109.413 141.7 110.96 137.022 111.82 133.104C108.812 133.749 103.22 134.907 97.788 135.813Z" fill="#591428"/>
<path d="M158.162 111.561C158.635 114.164 161.022 115.984 163.662 115.854C181.474 114.977 194.565 98.0777 194.595 94.1844C194.627 90.0488 189.426 88.6779 189.426 88.6779C189.426 88.6779 189.246 85.9187 186.083 85.2538C182.934 84.5916 179.725 88.7069 179.725 88.7069C174.305 85.8214 173.538 93.1066 173.538 93.1066C169.383 97.3871 159.34 104.059 159.34 104.059C159.34 104.059 158.392 106.289 158.075 109.723C158.016 110.367 158.057 110.984 158.162 111.562V111.561Z" fill="#FFD527"/>
<path d="M179.753 91.9543C179.753 91.9543 183.123 88.856 184.78 92.4201C185.05 93.0025 185.583 93.4246 186.206 93.5739C187.823 93.9622 190.573 94.9995 189.426 97.4383C188.38 99.6638 186.239 100.185 184.901 100.282C184.222 100.331 183.551 100.114 183.018 99.6901C181.916 98.8157 179.972 97.2556 179.38 96.1735C178.606 94.7583 178.45 92.6383 179.752 91.9543H179.753Z" fill="#F7A623"/>
<path d="M157.408 104.109C160.049 102.245 162.678 100.318 165.244 98.3471C167.749 96.3999 170.347 94.381 172.565 92.1593L172.188 92.9631C172.304 92.0488 172.518 91.1969 172.85 90.3346C174.139 86.894 177.131 85.7178 180.363 87.507L178.656 87.8701C179.036 87.3982 179.432 86.9771 179.86 86.5615C181.438 85.0616 183.46 83.6754 185.77 83.8411C188.144 84.0123 190.365 85.8381 190.737 88.2501C190.757 88.3491 190.769 88.4885 190.78 88.588C190.781 88.5902 189.771 87.3632 189.771 87.3637C190.399 87.536 190.931 87.7498 191.51 88.0183C194.073 89.1578 196.315 91.6765 195.964 94.661C195.313 98.0912 192.014 101.885 189.705 104.375C183.615 110.703 175.654 115.57 166.862 116.869C164.658 117.17 162.406 117.199 160.215 116.852C159.651 116.763 159.266 116.233 159.355 115.669C159.434 115.17 159.855 114.812 160.341 114.796C164.455 114.67 168.521 114.122 172.384 112.674C178.162 110.539 183.374 106.842 187.652 102.406C189.078 100.917 190.403 99.322 191.522 97.6411C192.231 96.4999 192.974 95.4222 193.191 94.1639C193.236 91.9881 190.972 90.5965 189.081 89.9906C189.081 89.9906 188.072 88.7641 188.072 88.7658C187.995 88.2064 187.61 87.4742 187.069 87.1138C186.523 86.7294 185.751 86.4653 185.052 86.5626C183.458 86.8114 181.842 88.2835 180.787 89.5526C180.373 90.0726 179.655 90.2072 179.089 89.9048C178.512 89.5969 177.926 89.3995 177.457 89.3891C175.848 89.3809 175.263 91.4309 174.963 92.7816L174.919 93.0298C174.886 93.4033 174.781 93.797 174.511 94.0513C173.3 95.2876 172.04 96.3583 170.767 97.4213C168.226 99.526 165.61 101.505 162.96 103.457C161.637 104.428 160.314 105.384 158.964 106.334C157.481 107.32 155.954 105.193 157.409 104.107L157.408 104.109Z" fill="#591428"/>
<path d="M163.395 117.354C160.925 117.693 157.697 116.026 158.076 113.195C158.096 112.936 158.456 112.84 158.601 113.051C158.931 113.494 159.196 113.92 159.55 114.194C160.519 115.081 161.938 115.142 163.197 115.061C164.672 115.024 164.848 117.137 163.395 117.354L163.395 117.354Z" fill="#591428"/>
<path d="M108.786 156.995C109.872 161.698 113.896 160.446 113.896 160.446C115.57 160.726 117.323 160.339 117.323 160.339C117.323 160.339 122.049 163.35 128.877 162.235C135.703 161.121 138.315 151.353 138.315 151.353C138.315 151.353 149.491 150.651 157.305 143.389C159.211 141.62 160.916 139.461 162.211 136.829C163.091 135.044 163.686 133.237 164.051 131.447C164.853 127.542 164.574 123.692 163.786 120.211C162.886 116.233 161.321 112.738 159.942 110.185V110.182C158.467 107.448 157.206 105.795 157.206 105.795L118.695 114.957C117.405 116.077 116.466 117.678 115.796 119.47C113.992 124.296 114.162 130.524 114.837 132.583C114.888 132.744 114.944 132.877 115 132.985C115.597 134.099 116.953 137.38 116.756 140.134C116.689 141.052 116.452 141.91 115.951 142.61C115.265 143.579 114.085 144.244 112.179 144.337C104.766 144.704 107.695 152.291 108.785 156.993L108.786 156.995Z" fill="#FFD527"/>
<path d="M135.952 155.35C135.952 155.35 134.132 161.25 124.619 159.371C115.106 157.493 113.625 148.955 113.625 148.955L111.147 148.162C111.147 148.162 112.433 157.967 116.815 160.199C121.197 162.432 122.834 163.397 126.962 162.49C131.089 161.584 135.997 158.294 135.932 155.184" fill="#F7A623"/>
<path d="M115.951 142.611C121.069 147.228 129.556 151.68 138.615 150.495C147.373 149.347 153.301 146.841 157.305 143.389C159.327 141.644 160.901 139.499 162.2 136.851C162.204 136.844 162.208 136.837 162.211 136.83C162.22 136.813 162.227 136.795 162.236 136.778C163.126 134.949 163.887 132.884 164.569 130.54C164.569 130.54 164.407 130.876 164.052 131.448C162.289 134.273 155.719 142.794 140.178 143.733C130.401 144.322 122.277 142.248 116.756 140.136C116.69 141.054 116.453 141.912 115.952 142.611H115.951Z" fill="#591428"/>
<path d="M114.838 132.585C123.696 136.406 136.793 139.381 151.268 133.738C155.421 132.119 159.033 129.3 161.412 125.527C162.361 124.022 163.211 122.253 163.787 120.212C162.888 116.234 161.323 112.74 159.944 110.186C159.944 110.186 160.809 117.482 151.429 122.49C143.757 126.584 124.599 128.655 115.798 119.472C113.994 124.298 114.164 130.526 114.838 132.585L114.838 132.585Z" fill="#591428"/>
<path d="M126.442 148.749C122.32 147.703 118.658 144.921 116.511 141.247L116.037 140.376C115.748 139.868 115.477 139.101 115.233 138.565C114.509 136.706 117.172 135.566 118.011 137.382C118.223 137.921 118.409 138.629 118.65 139.149C118.718 139.3 119.016 139.951 119.074 140.084C119.22 140.339 119.438 140.719 119.584 140.975C119.632 141.067 119.741 141.24 119.804 141.322C120.079 141.73 120.473 142.279 120.797 142.64C120.949 142.834 121.174 143.084 121.352 143.255C122.871 144.849 124.813 146.107 126.905 146.821C128.17 147.176 127.731 149.015 126.443 148.748L126.442 148.749Z" fill="#591428"/>
<path d="M117.674 161.931C115.393 160.356 113.855 157.727 113.398 155.014C113.29 154.393 114.159 154.115 114.433 154.678C115.379 156.837 117.092 158.505 119.008 159.817C120.389 160.751 119.104 162.782 117.675 161.931H117.674Z" fill="#591428"/>
<path d="M157.983 105.201C168.672 118.723 169.942 138.182 153.782 147.959C149.096 150.749 143.819 152.372 138.41 152.859L139.771 151.743C139.431 152.939 139 154.031 138.489 155.152C136.914 158.51 134.569 161.817 130.957 163.22C126.525 164.737 120.545 163.955 116.515 161.613L117.648 161.813C117.44 161.857 117.299 161.88 117.13 161.906C115.963 162.079 114.846 162.124 113.647 161.935L114.342 161.888C111.918 162.588 109.248 161.617 108.067 159.337C107.713 158.716 107.488 157.983 107.309 157.303C106.533 153.776 104.829 149.535 106.469 145.96C107.226 144.327 108.986 143.287 110.676 142.998C111.581 142.814 112.66 142.87 113.512 142.586C116.739 141.514 114.773 135.875 113.659 133.672C112.866 131.885 112.888 129.826 112.859 127.962C112.973 123.082 113.913 117.28 117.708 113.817C119.246 112.544 121.157 114.7 119.71 116.074C117.384 118.197 116.536 121.594 116.107 124.66C115.825 127.046 115.707 129.624 116.223 131.95C116.258 132.087 116.286 132.16 116.328 132.265C116.672 132.922 116.955 133.592 117.202 134.256C118.084 136.743 118.762 139.55 117.859 142.182C117.065 144.532 114.703 145.755 112.363 145.836C111.175 145.909 109.723 146.138 109.168 147.308C108.837 147.958 108.751 148.939 108.829 149.967C109.014 152.184 109.719 154.377 110.246 156.62C110.602 158.097 111.25 159.027 112.638 159.087C112.889 159.1 113.234 159.057 113.449 159.006L114.144 158.959C115.037 159.101 116.094 159.042 117 158.866C117.46 158.766 117.886 158.896 118.253 159.135L118.408 159.22C121.499 160.822 125.128 161.284 128.553 160.756C130.959 160.376 132.773 158.737 134.222 156.617C135.094 155.334 135.81 153.886 136.368 152.422C136.545 151.963 136.731 151.416 136.86 150.963C137.026 150.334 137.568 149.904 138.181 149.85C139.385 149.744 140.643 149.522 141.837 149.267C150.578 147.397 158.821 142.496 161.869 133.696C164.68 125.661 162.099 116.916 158.3 109.643C157.727 108.528 157.084 107.416 156.414 106.364C155.77 105.348 157.174 104.272 157.984 105.201H157.983Z" fill="#591428"/>
<path d="M106.121 140.188C109.258 148.957 116.707 153.547 121.508 144.859C121.508 144.859 123.575 145.573 124.655 144.316C125.098 143.803 125.376 142.953 125.272 141.587C124.923 136.894 122.64 129.253 125.736 123.921L131.022 116.494L116.981 109.185C116.981 109.185 107.667 112.012 105.015 127.282C104.218 131.874 104.77 136.417 106.121 140.188V140.188Z" fill="#FFD527"/>
<path d="M106.121 140.188C109.258 148.957 116.707 153.547 121.508 144.859C121.508 144.859 123.575 145.573 124.655 144.316C124.655 144.316 123.961 141.334 121.435 141.102C118.91 140.869 118.465 142.985 116.283 144.647C114.099 146.31 109.984 147.32 106.488 140.83C106.357 140.588 106.236 140.372 106.121 140.189V140.188Z" fill="#F7A623"/>
<path d="M117.373 110.486C115.362 111.264 113.638 112.689 112.194 114.272C109.152 117.633 107.414 122.151 106.548 126.576C105.554 131.034 105.932 135.768 107.509 140.035C108.683 143.067 110.458 146.132 113.333 147.645C116.427 149.235 118.903 146.832 120.319 144.202L121.949 143.575C122.379 143.713 123.207 143.783 123.543 143.503C123.911 143.153 123.95 142.443 123.929 141.841C123.904 141.372 123.859 140.898 123.803 140.428C123.175 135.03 121.651 128.303 124.95 123.465C125.538 122.579 126.908 123.258 126.561 124.262C126.409 124.729 126.169 125.198 126.049 125.675L125.851 126.331C125.806 126.568 125.682 127.121 125.632 127.345C125.164 130.091 125.371 132.794 125.791 135.596C126.04 137.4 126.515 139.903 126.631 141.707C126.912 144.996 124.672 147.122 121.342 146.226C121.275 146.208 121.131 146.165 121.064 146.143L122.694 145.516C119.461 151.563 113.717 152.782 108.904 147.604C104.585 142.756 102.988 136.123 103.35 129.785C103.434 127.944 103.893 126 104.274 124.214C104.578 123.175 104.984 121.621 105.397 120.629C107.305 115.349 110.955 110.212 116.292 107.989C118.174 107.111 119.3 109.794 117.373 110.484V110.486Z" fill="#591428"/>
<path d="M111.289 108.004C111.289 108.004 111.251 114.901 117.662 114.566C117.662 114.566 119.003 119.793 125.82 118.28C125.82 118.28 127.256 121.513 132.236 120.526C132.236 120.526 135.228 121.962 138.877 121.191C142.595 120.885 145.11 118.963 145.11 118.963C150.163 118.482 150.616 114.973 150.616 114.973C157.58 114.471 157.372 109.079 157.372 109.079C163.611 107.564 161.603 100.966 161.603 100.966C161.603 100.966 141.397 93.0954 111.29 108.004H111.289Z" fill="white"/>
<path d="M136.678 122.997C134.561 122.997 132.865 122.468 132.059 122.162C128.188 122.773 126.087 121.181 125.101 120.015C120.239 120.705 117.634 118.243 116.581 116.137C114.835 116.019 113.367 115.4 112.206 114.291C109.718 111.914 109.71 108.154 109.711 107.996C109.714 107.399 110.054 106.854 110.589 106.589C126.422 98.7491 139.539 97.2114 147.754 97.3159C156.752 97.422 161.957 99.4107 162.174 99.4949C162.625 99.6705 162.971 100.043 163.112 100.507C163.158 100.659 164.225 104.263 162.52 107.253C161.724 108.649 160.494 109.661 158.856 110.274C158.448 112.594 156.656 115.699 151.8 116.43C151.184 117.837 149.612 119.981 145.678 120.488C144.772 121.083 142.353 122.466 139.104 122.756C138.255 122.928 137.439 122.997 136.677 122.997H136.678ZM132.236 118.947C132.471 118.947 132.704 119 132.919 119.103C132.937 119.111 135.507 120.289 138.551 119.646C138.616 119.633 138.682 119.623 138.748 119.617C141.923 119.356 144.136 117.72 144.158 117.704C144.39 117.529 144.672 117.419 144.96 117.391C148.469 117.058 148.992 115.066 149.052 114.758C149.124 113.991 149.732 113.454 150.502 113.398C155.883 113.011 155.802 109.298 155.795 109.14C155.766 108.389 156.27 107.721 157 107.545C158.338 107.22 159.245 106.617 159.772 105.701C160.451 104.522 160.379 103.054 160.248 102.18C158.536 101.659 154.084 100.53 147.536 100.472C139.872 100.402 127.709 101.837 112.96 108.945C113.103 109.827 113.468 111.138 114.396 112.016C115.164 112.743 116.205 113.063 117.579 112.989C118.325 112.954 119.003 113.445 119.19 114.174C119.293 114.539 120.388 117.869 125.479 116.738C126.231 116.571 126.968 116.91 127.257 117.625C127.403 117.904 128.471 119.663 131.93 118.977C132.032 118.957 132.134 118.947 132.237 118.947H132.236Z" fill="#591428"/>
<path d="M156.972 104.683C139.126 114.05 104.305 115.075 94.0326 91.6638C83.7601 68.2491 95.0072 34.7757 131.138 32.9226C167.269 31.0661 168.237 63.2326 168.237 63.2326C168.627 63.6148 168.999 64.0031 169.353 64.4001C171.298 66.5501 172.76 68.9113 173.745 71.3993C178.178 82.6189 172.797 96.3751 156.972 104.684V104.683Z" fill="#FFD527"/>
<g opacity="0.6">
<path d="M108.938 44.3223C114.933 40.8566 122.034 38.8913 130.044 38.4807C131.292 38.4167 132.53 38.391 133.719 38.4057C146.852 38.5747 156.278 43.519 161.733 53.1036C163.32 55.8918 164.332 58.6686 164.98 61.0357C164.594 58.4723 163.607 54.0966 161.101 49.692C155.97 40.6761 147.103 36.0249 134.75 35.8658C133.631 35.8516 132.467 35.8756 131.293 35.9358C123.758 36.3218 117.078 38.1706 111.439 41.4307C107.628 43.635 104.347 46.4434 101.646 49.8085C103.82 47.7076 106.256 45.8731 108.94 44.3212L108.938 44.3223Z" fill="white"/>
</g>
<path d="M172.014 82.1353C170.831 89.742 164.986 97.0715 155.571 102.013C148.354 105.799 138.425 107.989 129.015 107.868C121.724 107.774 115.03 106.312 109.66 103.64C103.652 100.653 99.3243 96.2147 96.7928 90.4496C95.6909 87.9419 94.8622 85.3385 94.293 82.6897C94.4798 83.1633 94.6732 83.6302 94.8781 84.095C104.951 107.054 139.099 106.048 156.599 96.8637C164.123 92.9125 169.238 87.7051 172.015 82.1353H172.014Z" fill="#F7A623"/>
<path d="M111.216 94.7753C116.983 94.606 121.574 91.6132 121.471 88.0907C121.367 84.5682 116.609 81.8499 110.843 82.0192C105.076 82.1884 100.485 85.1812 100.588 88.7037C100.691 92.2262 105.45 94.9446 111.216 94.7753Z" fill="#FF765F"/>
<path d="M174.813 72.7546C174.03 74.3125 172.629 75.8736 170.771 77.1127C166.872 79.7052 162.428 79.8774 160.846 77.4949C159.266 75.113 161.144 71.0786 165.043 68.4861C166.984 67.194 169.057 66.5034 170.846 66.4307C172.603 68.3735 173.924 70.5066 174.814 72.7546H174.813Z" fill="#FF765F"/>
<path d="M145.375 72.2764C145.375 72.2764 143.084 75.6234 135.142 75.1537C135.142 75.1537 140.112 85.1255 144.304 84.1549C148.496 83.1843 146.07 78.0945 145.375 72.2764Z" fill="#591428"/>
<path d="M146.37 82.6338C146.37 82.6338 145.338 74.9915 136.955 77.0525C136.955 77.0525 139.507 81.6621 142.059 82.8668C144.61 84.0714 146.145 83.3206 146.37 82.6338Z" fill="#FF765F"/>
<path d="M143.736 85.2603C139.157 85.2603 134.727 76.6534 134.211 75.6183C134.045 75.2858 134.069 74.89 134.274 74.5799C134.479 74.2699 134.833 74.0965 135.203 74.114C142.343 74.5389 144.505 71.7031 144.526 71.6741C144.771 71.3165 145.207 71.1541 145.627 71.258C146.048 71.3613 146.356 71.7217 146.407 72.152C146.572 73.5338 146.837 74.8675 147.093 76.158C147.877 80.1159 148.688 84.2082 144.538 85.169C144.27 85.2308 144.002 85.2603 143.735 85.2603H143.736ZM136.913 76.2373C138.741 79.382 141.902 83.6363 144.07 83.1403C146.068 82.6777 145.926 80.9695 145.053 76.5632C144.912 75.8507 144.76 75.0846 144.623 74.2912C143.229 75.1902 140.81 76.1892 136.914 76.2379L136.913 76.2373Z" fill="#591428"/>
<path d="M123.669 83.8084C127.692 83.0505 130.243 78.6563 129.366 73.9938C128.489 69.3313 124.517 66.166 120.494 66.924C116.471 67.6819 113.921 72.0761 114.798 76.7386C115.674 81.4011 119.646 84.5664 123.669 83.8084Z" fill="#591428"/>
<path d="M120.61 78.0059C122.249 77.697 123.289 75.9064 122.931 74.0063C122.574 72.1063 120.955 70.8164 119.316 71.1253C117.677 71.4342 116.637 73.2248 116.995 75.1249C117.352 77.0249 118.971 78.3148 120.61 78.0059Z" fill="white"/>
<g opacity="0.35">
<path d="M126.981 78.5204C127.155 77.257 126.413 76.1109 125.323 75.9604C124.233 75.81 123.208 76.7122 123.034 77.9756C122.86 79.239 123.602 80.3851 124.692 80.5356C125.782 80.686 126.807 79.7838 126.981 78.5204Z" fill="white"/>
</g>
<path d="M155.943 75.3364C159.68 74.6323 162.049 70.5503 161.235 66.219C160.42 61.8877 156.73 58.9473 152.993 59.6514C149.256 60.3555 146.887 64.4375 147.701 68.7688C148.516 73.1001 152.206 76.0405 155.943 75.3364Z" fill="#591428"/>
<path d="M153.1 69.9463C154.623 69.6594 155.588 67.996 155.256 66.231C154.924 64.466 153.421 63.2678 151.898 63.5547C150.375 63.8416 149.41 65.505 149.742 67.27C150.073 69.035 151.577 70.2332 153.1 69.9463Z" fill="white"/>
<g opacity="0.35">
<path d="M159.018 70.4259C159.18 69.2523 158.49 68.1876 157.478 68.0478C156.465 67.9081 155.513 68.7462 155.351 69.9199C155.19 71.0935 155.879 72.1582 156.892 72.298C157.905 72.4377 158.857 71.5996 159.018 70.4259Z" fill="white"/>
</g>
<path d="M129.727 112.425C123.851 112.425 117.854 111.593 112.22 109.617C102.975 106.375 96.2088 100.376 92.6519 92.2697C86.8011 78.9323 87.7986 63.1326 95.2555 51.0365C102.557 39.1936 115.272 32.2249 131.06 31.4146C142.873 30.8092 152.312 33.68 159.108 39.9504C168.114 48.2592 169.502 59.7681 169.71 62.571C175.172 68.1469 177.581 75.2501 176.498 82.6365C175.136 91.9301 168.274 100.453 157.671 106.019C150.733 109.662 140.433 112.425 129.726 112.425L129.727 112.425ZM134.092 34.3537C133.151 34.3537 132.193 34.3788 131.215 34.4292C116.447 35.1876 104.587 41.6482 97.8226 52.6223C90.8781 63.8867 89.9548 78.6141 95.4134 91.0569C98.671 98.4826 104.661 103.769 113.217 106.769C127.597 111.812 145.761 108.864 156.272 103.347C166.01 98.2338 172.295 90.5259 173.515 82.199C174.481 75.6071 172.233 69.2548 167.184 64.3116C166.906 64.0387 166.744 63.6696 166.731 63.2803C166.727 63.1545 166.214 50.5903 157.04 42.148C151.414 36.9708 143.703 34.3548 134.091 34.3548L134.092 34.3537Z" fill="#591428"/>
<path d="M139.215 19.5243C139.346 11.7869 142.866 3.88158 149.388 0.803003C150.114 0.476007 150.907 0.235955 151.753 0.106906C155.883 -0.523573 159.647 1.69924 160.16 5.0709C160.674 8.44257 157.743 11.6874 153.613 12.3179C151.913 12.5776 150.274 12.3523 148.899 11.7628C147.052 14.0442 146.057 17.9938 145.584 20.227C144.362 26.3382 144.164 32.9208 144.481 39.1933C144.592 41.0088 142.03 41.4189 141.566 39.6625C140.044 33.0132 139.083 26.4219 139.214 19.5249L139.215 19.5243Z" fill="#682942"/>
<path d="M103.753 31.7333C100.953 24.5202 101.226 15.8696 106.101 10.5518C106.65 9.97439 107.294 9.45163 108.028 9.01199C111.613 6.86574 115.937 7.4995 117.686 10.4266C119.436 13.3537 117.947 17.4669 114.362 19.6126C112.885 20.4968 111.284 20.908 109.788 20.8828C108.94 23.6935 109.511 27.7268 109.916 29.9731C111.093 36.0936 113.396 42.2622 116.057 47.9491C116.846 49.5874 114.629 50.9369 113.536 49.4862C109.616 43.906 106.237 38.1677 103.753 31.7327V31.7333Z" fill="#682942"/>
<path d="M211.295 57.005C210.98 57.11 210.7 57.18 210.42 57.25C210.14 57.32 209.825 57.355 209.475 57.285L208.775 57.25C208.635 57.25 208.53 57.18 208.495 57.075C208.425 57.005 208.355 56.97 208.215 56.935C207.9 56.795 207.725 56.585 207.725 56.305C207.655 56.2 207.69 56.06 207.76 55.92C207.83 55.815 207.865 55.71 207.935 55.57C207.97 55.5 208.04 55.43 208.11 55.325C208.18 55.255 208.215 55.15 208.285 55.045L208.775 54.625C208.81 54.59 208.88 54.52 208.95 54.415C209.02 54.345 209.055 54.24 209.125 54.17C209.195 54.1 209.3 54.03 209.405 53.925C209.475 53.855 209.615 53.75 209.755 53.61C209.895 53.505 210.035 53.365 210.245 53.155C210.42 52.98 210.665 52.735 210.945 52.42C210.98 52.35 211.085 52.245 211.225 52.105C211.365 51.965 211.47 51.86 211.54 51.72C211.4 51.755 211.155 51.79 210.805 51.86C210.42 51.965 210.035 52.035 209.65 52.105C209.475 52.175 209.3 52.21 209.16 52.21L208.635 52.315C208.285 52.385 208.04 52.455 207.865 52.49C207.655 52.56 207.445 52.63 207.165 52.665L207.06 52.525H206.955C206.885 52.525 206.885 52.525 206.885 52.49H206.815C206.64 52.49 206.465 52.42 206.325 52.28C206.15 52.21 206.045 52.105 206.01 51.965V51.86C205.94 51.825 205.905 51.755 205.905 51.65C205.87 51.58 205.905 51.44 205.975 51.23C206.045 51.16 206.15 51.09 206.29 51.02C206.395 50.95 206.535 50.915 206.71 50.88C206.78 50.88 206.85 50.845 206.955 50.81C207.025 50.81 207.165 50.775 207.305 50.74C207.41 50.705 207.515 50.67 207.655 50.67C207.76 50.67 207.83 50.67 207.9 50.635C208.145 50.6 208.355 50.565 208.565 50.495C208.705 50.46 208.915 50.425 209.125 50.355H209.23C209.09 50.145 209.02 49.97 209.02 49.795V49.48C209.02 49.34 209.055 49.2 209.125 48.99C209.09 48.71 209.125 48.395 209.195 48.045C209.23 47.695 209.3 47.345 209.405 46.995C209.475 46.645 209.545 46.33 209.685 46.015C209.755 45.735 209.86 45.455 209.93 45.245H209.86L209.79 45.315L209.475 45.525C209.335 45.595 209.195 45.63 209.02 45.63C208.74 45.63 208.53 45.63 208.32 45.7C208.11 45.77 207.9 45.84 207.76 45.91L207.305 46.085L204.855 46.75C204.61 46.75 204.435 46.715 204.365 46.645C204.225 46.61 204.155 46.61 204.085 46.61C203.98 46.645 203.91 46.68 203.84 46.68C203.77 46.715 203.7 46.715 203.63 46.715H203.385C203.28 46.715 203.14 46.645 202.965 46.435C202.755 46.295 202.72 46.085 202.825 45.805C202.86 45.595 203.035 45.42 203.385 45.21C203.7 45.035 204.015 44.895 204.365 44.79L206.85 44.09C207.69 43.88 208.6 43.67 209.545 43.46C210.455 43.25 211.365 43.075 212.31 42.9C213.22 42.76 214.06 42.62 214.9 42.515C215.005 42.48 215.11 42.445 215.25 42.445C215.355 42.48 215.46 42.515 215.565 42.515H215.705C215.74 42.55 215.775 42.55 215.81 42.55C215.985 42.935 216.02 43.285 215.95 43.565C215.915 43.635 215.915 43.67 215.915 43.705C215.88 43.775 215.845 43.95 215.81 44.195C215.6 44.195 215.46 44.3 215.355 44.44L215.145 44.58C214.97 44.65 214.83 44.65 214.69 44.58C214.55 44.545 214.375 44.51 214.235 44.51L213.57 44.58C213.255 44.65 212.94 44.685 212.625 44.72C212.275 44.79 211.96 44.86 211.68 44.895C211.75 45.21 211.82 45.385 211.855 45.385C211.925 45.595 211.995 45.77 211.995 45.945V46.68C211.96 46.96 211.925 47.17 211.925 47.31C211.89 47.52 211.855 47.695 211.855 47.835C211.82 48.01 211.785 48.15 211.75 48.29C211.61 48.71 211.54 49.095 211.54 49.375V49.69C211.505 49.795 211.47 49.9 211.47 49.97C211.575 49.97 211.715 49.935 211.925 49.865C211.995 49.865 212.065 49.83 212.135 49.83L212.415 49.795L212.66 49.725C212.73 49.69 212.87 49.655 213.01 49.655C213.115 49.655 213.185 49.655 213.255 49.62L213.36 49.585C213.64 49.585 213.885 49.55 214.095 49.55C214.235 49.585 214.41 49.69 214.55 49.83L214.655 49.9C214.69 49.97 214.76 50.04 214.83 50.075C214.865 50.145 214.9 50.32 214.9 50.565L214.865 51.02L214.62 51.265L214.41 51.44C214.34 51.545 214.27 51.615 214.235 51.685C214.165 51.755 214.13 51.825 214.095 51.86L213.115 52.875L212.415 53.575C212.205 53.785 212.03 53.995 211.89 54.135L211.33 54.695L211.085 54.905L210.84 55.08L210.525 55.395L211.68 55.115C212.065 55.115 212.415 55.045 212.695 54.905L213.43 54.765L213.815 54.625C213.955 54.625 214.06 54.59 214.2 54.555C214.27 54.555 214.375 54.52 214.515 54.45C214.585 54.415 214.69 54.38 214.83 54.345C214.935 54.345 215.04 54.31 215.145 54.24C215.425 54.275 215.6 54.345 215.67 54.45C215.74 54.59 215.775 54.73 215.81 54.87L215.775 55.325C215.775 55.5 215.705 55.605 215.565 55.675C215.425 55.78 215.25 55.85 215.075 55.92L214.935 56.095L214.655 56.13C214.13 56.27 213.605 56.375 213.045 56.515C212.485 56.655 211.89 56.83 211.295 57.005ZM204.785 40.1C204.89 39.26 204.995 38.455 205.135 37.72C205.205 37.02 205.31 36.25 205.415 35.41C205.065 35.48 204.82 35.55 204.645 35.62C204.435 35.69 204.12 35.795 203.735 35.9C203.595 35.97 203.455 36.005 203.28 36.005C203.07 36.075 202.895 36.075 202.685 36.075C202.545 36.04 202.475 36.005 202.405 35.935C202.3 35.935 202.16 35.865 202.02 35.795C202.02 35.515 202.055 35.305 202.195 35.235C202.335 35.13 202.405 35.06 202.475 34.99C202.475 34.955 202.51 34.885 202.545 34.78C202.685 34.675 202.86 34.57 203.035 34.5C203.175 34.43 203.35 34.36 203.525 34.29L204.015 34.01L204.4 33.87H204.575C205.03 33.73 205.38 33.59 205.66 33.52C205.87 33.485 206.115 33.45 206.325 33.38C206.465 33.345 206.605 33.345 206.71 33.38L207.165 33.485C207.515 33.555 207.795 33.695 207.97 33.905C208.11 34.15 208.215 34.43 208.285 34.745C208.39 34.955 208.46 35.165 208.46 35.305C208.46 35.515 208.39 35.725 208.285 35.97L208.11 36.95C208.005 37.51 207.9 38.07 207.83 38.63C207.69 39.225 207.585 39.68 207.515 39.96C207.445 40.03 207.41 40.1 207.41 40.17C207.34 40.275 207.305 40.38 207.27 40.45C207.13 40.66 207.06 40.94 206.99 41.255C206.85 41.605 206.745 41.78 206.605 41.85C206.43 41.92 206.255 41.99 206.08 41.99H205.87H205.73C205.66 42.025 205.59 42.025 205.555 41.99H205.345C205.275 41.955 205.205 41.885 205.17 41.78C205.1 41.71 205.03 41.675 204.995 41.64H204.855C204.785 41.64 204.75 41.64 204.715 41.605C204.645 41.605 204.575 41.57 204.575 41.535C204.575 41.36 204.61 41.115 204.68 40.8C204.715 40.52 204.75 40.31 204.785 40.1ZM212.66 41.71C212.66 41.395 212.66 41.08 212.695 40.765C212.695 40.485 212.73 40.135 212.8 39.715C212.8 39.365 212.835 38.91 212.87 38.385C212.87 37.895 212.905 37.23 212.975 36.46C212.59 36.6 212.24 36.67 211.96 36.705C211.645 36.775 211.295 36.88 210.945 36.985C210.735 37.055 210.56 37.125 210.42 37.125C210.245 37.195 210.07 37.195 209.895 37.16L209.65 37.055C209.3 36.915 209.16 36.775 209.23 36.565C209.23 36.6 209.23 36.565 209.3 36.425C209.3 36.355 209.335 36.25 209.37 36.145C209.44 36.075 209.545 35.97 209.65 35.795C209.685 35.76 209.755 35.69 209.895 35.585C210 35.515 210.105 35.48 210.175 35.41L210.84 35.165L211.05 35.06L211.435 34.92L211.61 34.885L211.925 34.78C212.17 34.71 212.45 34.605 212.8 34.5C213.08 34.43 213.36 34.395 213.605 34.325H213.885C213.955 34.36 214.165 34.395 214.515 34.43C214.865 34.5 215.145 34.64 215.32 34.85C215.46 35.095 215.635 35.41 215.775 35.795C215.88 36.005 215.95 36.215 215.95 36.355C215.915 36.565 215.88 36.775 215.81 37.02C215.81 37.09 215.775 37.23 215.775 37.37L215.67 38C215.6 38.42 215.565 38.77 215.53 39.085C215.46 39.435 215.39 39.715 215.355 39.96C215.285 40.205 215.215 40.45 215.145 40.66C215.04 40.94 214.97 41.185 214.935 41.43C214.865 41.815 214.69 42.025 214.445 42.095C214.165 42.2 213.85 42.235 213.5 42.2H213.255C213.185 42.13 213.15 42.06 213.115 41.99L212.905 41.78C212.8 41.745 212.73 41.71 212.66 41.71ZM212.38 59.14C212.31 59.21 212.205 59.28 212.135 59.385C211.995 59.455 211.925 59.56 211.855 59.665C211.645 59.84 211.505 59.98 211.4 60.085C211.26 60.155 211.19 60.26 211.12 60.365C211.015 60.435 210.945 60.505 210.875 60.61C210.77 60.68 210.665 60.75 210.56 60.89C211.155 60.75 211.785 60.61 212.45 60.47C213.08 60.26 213.745 60.085 214.375 59.91H214.655C214.795 59.84 214.935 59.805 215.145 59.77C215.32 59.7 215.46 59.665 215.6 59.63L216.335 59.56C216.475 59.665 216.615 59.805 216.755 59.98C216.86 60.12 216.93 60.295 216.965 60.47C216.965 60.68 216.895 60.855 216.685 60.995C216.44 61.1 216.23 61.17 216.055 61.24L215.53 61.31C215.425 61.345 215.355 61.38 215.32 61.415C215.25 61.415 215.145 61.45 215.04 61.52C214.76 61.59 214.48 61.66 214.13 61.8C213.745 61.87 213.395 61.975 213.08 62.08C212.73 62.15 212.415 62.22 212.17 62.29C211.89 62.36 211.75 62.395 211.715 62.395L211.155 62.535L210.63 62.745L210.21 62.885C210.14 62.85 210.105 62.85 210.07 62.885C210 62.885 209.93 62.92 209.895 62.955C209.72 63.025 209.545 63.095 209.405 63.095C209.335 63.095 209.23 63.095 209.16 63.13H208.845C208.635 63.165 208.425 63.165 208.145 63.095C207.83 62.99 207.62 62.885 207.515 62.745C207.375 62.675 207.305 62.535 207.27 62.395C207.2 62.22 207.165 62.045 207.235 61.87C207.235 61.835 207.235 61.8 207.305 61.765C207.34 61.695 207.375 61.59 207.41 61.52C207.48 61.415 207.55 61.31 207.69 61.205C207.795 61.065 207.9 60.96 208.04 60.855L208.775 60.225L209.79 59.28C209.93 59.14 210.14 58.965 210.385 58.72L210.98 58.125C211.05 58.02 211.12 57.95 211.26 57.88C211.33 57.845 211.4 57.81 211.47 57.74C211.75 57.565 211.995 57.425 212.205 57.355C212.24 57.355 212.31 57.355 212.38 57.32H212.52C212.59 57.32 212.625 57.32 212.695 57.285C212.765 57.32 212.835 57.355 212.94 57.425C213.01 57.495 213.08 57.565 213.15 57.6C213.22 57.775 213.22 57.95 213.22 58.16C213.15 58.405 213.08 58.58 212.975 58.685L212.38 59.14ZM231.147 56.795H230.832C230.692 56.795 230.587 56.795 230.482 56.76C230.377 56.76 230.307 56.725 230.272 56.69H230.097C229.537 56.795 228.977 56.865 228.452 56.935C227.892 57.04 227.297 57.145 226.737 57.215L226.632 57.355H226.317C226.212 57.39 226.142 57.39 226.107 57.32C226.072 57.32 226.037 57.355 226.037 57.355C226.002 57.39 225.967 57.425 225.932 57.425C225.827 57.495 225.757 57.53 225.687 57.6C225.582 57.705 225.407 57.74 225.162 57.67C224.812 57.67 224.497 57.67 224.287 57.74C224.042 57.81 223.832 57.88 223.657 57.95L220.682 58.72C220.542 58.72 220.367 58.685 220.227 58.615C220.087 58.58 220.017 58.58 219.947 58.58C219.842 58.615 219.772 58.65 219.702 58.65C219.492 58.72 219.282 58.72 219.107 58.65C218.967 58.615 218.827 58.51 218.687 58.335C218.512 58.195 218.477 57.985 218.547 57.74C218.582 57.6 218.792 57.39 219.142 57.18C219.492 56.97 219.842 56.83 220.262 56.69C221.032 56.48 221.907 56.27 222.852 56.06C223.762 55.885 224.672 55.71 225.652 55.5C226.562 55.325 227.507 55.15 228.417 55.01C229.327 54.87 230.167 54.765 230.937 54.66C231.112 54.625 231.287 54.625 231.462 54.625C231.602 54.695 231.707 54.73 231.847 54.73C232.022 54.975 232.127 55.15 232.127 55.255C232.127 55.395 232.092 55.57 232.057 55.745C232.022 55.815 232.022 55.885 232.022 55.955C231.987 56.095 231.952 56.165 231.952 56.235C231.882 56.305 231.777 56.34 231.707 56.41C231.567 56.515 231.497 56.585 231.427 56.655L231.147 56.795ZM223.412 39.155C223.657 39.225 223.832 39.295 223.937 39.435C224.007 39.575 224.007 39.715 224.007 39.855C224.042 39.995 224.042 40.1 224.042 40.135C224.007 40.205 223.972 40.31 223.972 40.38V40.52C223.937 40.59 223.937 40.66 223.937 40.765L223.517 41.36C223.482 41.43 223.447 41.5 223.447 41.57C223.377 41.675 223.342 41.745 223.342 41.78L222.047 44.23C221.907 44.44 221.802 44.615 221.732 44.825C221.592 45.035 221.487 45.21 221.417 45.35C221.067 45.98 220.787 46.505 220.577 46.855C220.367 47.24 220.192 47.59 220.087 47.905C220.052 47.975 220.017 48.01 220.017 48.08C219.982 48.185 219.947 48.255 219.947 48.255L219.877 48.36C219.807 48.605 219.702 48.745 219.597 48.815C219.527 48.955 219.422 49.095 219.352 49.165C219.072 49.375 218.757 49.48 218.477 49.48C218.127 49.515 217.917 49.445 217.847 49.27C217.777 49.13 217.742 48.955 217.777 48.675C217.777 48.64 217.777 48.605 217.812 48.535V48.43C217.847 48.36 217.882 48.255 217.882 48.115C217.882 48.045 217.882 47.975 217.917 47.87V47.66V47.31C217.917 47.1 218.092 46.68 218.407 46.085C218.687 45.525 219.002 44.93 219.352 44.3L219.632 43.74C219.702 43.565 219.772 43.39 219.877 43.25L220.507 42.235L220.472 42.27C220.542 42.13 220.647 41.955 220.717 41.815C220.787 41.675 220.857 41.535 220.962 41.36C220.997 41.255 221.067 41.115 221.172 40.975L221.382 40.66C221.522 40.38 221.697 40.135 221.872 39.925C222.012 39.715 222.257 39.54 222.607 39.33L223.412 39.155ZM225.442 47.17C225.582 47.17 225.722 47.24 225.827 47.345L226.037 47.765C226.037 47.975 226.072 48.15 226.072 48.36C226.072 48.57 226.037 48.78 226.037 48.92L226.072 49.235L225.827 52.7L225.722 52.91C225.722 53.05 225.687 53.19 225.652 53.33C225.582 53.54 225.477 53.715 225.407 53.89C225.302 54.1 225.197 54.345 225.057 54.555C224.987 54.87 224.847 55.045 224.637 55.115C224.357 55.185 224.112 55.22 223.867 55.22H223.342C223.237 55.045 223.202 54.905 223.202 54.8C223.167 54.73 223.132 54.625 223.132 54.45C223.097 54.135 223.097 53.75 223.132 53.26C223.132 52.84 223.202 52.35 223.272 51.86C223.307 51.37 223.377 50.88 223.447 50.39C223.517 49.9 223.587 49.445 223.657 49.025C223.692 48.85 223.727 48.675 223.762 48.465C223.762 48.325 223.797 48.15 223.832 48.01C224.007 47.73 224.217 47.52 224.497 47.38C224.742 47.275 225.057 47.205 225.442 47.17ZM222.607 45C222.642 44.615 222.782 44.335 223.027 44.125C223.237 43.95 223.552 43.775 224.007 43.635L225.092 43.355L226.072 43.075L226.492 42.97C226.597 42.97 226.737 42.935 226.877 42.865L227.402 42.795L227.787 42.655C227.927 42.62 228.102 42.585 228.312 42.515C228.522 42.515 228.767 42.445 229.117 42.375C229.467 42.34 229.782 42.375 230.132 42.445C230.447 42.55 230.622 42.76 230.692 43.075C230.692 43.215 230.657 43.355 230.622 43.53C230.552 43.74 230.447 43.95 230.342 44.125C230.202 44.335 230.027 44.475 229.887 44.615C229.712 44.79 229.537 44.86 229.327 44.86C229.117 44.895 228.942 44.86 228.872 44.72C228.767 44.65 228.697 44.51 228.697 44.37L227.472 44.615L227.262 44.58L227.017 44.72C226.807 44.79 226.632 44.825 226.457 44.86C226.247 44.93 226.037 44.965 225.792 45.035C225.512 45.105 225.162 45.175 224.812 45.245C224.427 45.35 223.972 45.455 223.412 45.595L222.607 45ZM248.269 55.815L248.619 53.995C248.654 53.75 248.689 53.505 248.759 53.295C248.759 53.12 248.794 52.945 248.829 52.735C248.829 52.595 248.864 52.42 248.934 52.21C248.934 52.035 248.969 51.79 249.039 51.51C248.689 51.65 248.374 51.755 248.094 51.825C247.779 51.965 247.499 52.07 247.289 52.14L245.819 52.665C245.749 52.735 245.679 52.805 245.609 52.84C245.539 52.91 245.434 52.91 245.294 52.91C245.224 52.91 245.084 52.91 244.874 52.84C244.629 52.805 244.524 52.63 244.524 52.315C244.524 52.175 244.559 52.035 244.629 51.86C244.699 51.72 244.839 51.545 245.049 51.335C245.119 51.265 245.329 51.16 245.679 50.985L246.939 50.46C246.904 50.46 246.869 50.39 246.834 50.285L246.799 49.9C246.799 49.83 246.764 49.725 246.694 49.655C246.624 49.62 246.589 49.48 246.589 49.27L246.834 48.08V47.66V47.555C246.799 47.555 246.764 47.485 246.764 47.415L246.974 47.03C246.974 46.82 247.009 46.61 247.079 46.4C247.079 46.19 247.149 46.015 247.289 45.805C247.184 45.735 247.149 45.595 247.149 45.42C247.149 45.35 247.149 45.245 247.219 45.105C247.254 45 247.289 44.895 247.359 44.755C247.429 44.65 247.499 44.51 247.604 44.37C247.604 44.3 247.569 44.195 247.499 44.09C247.429 44.02 247.394 43.985 247.394 43.915C247.394 43.74 247.464 43.6 247.674 43.495C247.674 43.46 247.709 43.425 247.744 43.39C247.744 43.39 247.779 43.39 247.779 43.355V43.32C247.779 43.25 247.814 43.18 247.884 43.11C247.954 43.04 247.989 42.935 247.989 42.725L247.954 42.445V41.71L248.269 40.45C248.304 40.17 248.374 39.925 248.444 39.68C248.514 39.47 248.549 39.155 248.549 38.805L248.619 38.21C248.619 38.035 248.689 37.86 248.794 37.72V37.3C248.794 37.195 248.899 37.055 249.039 36.915C249.144 36.81 249.284 36.705 249.494 36.565C249.634 36.46 249.809 36.355 250.019 36.285C250.159 36.215 250.334 36.18 250.474 36.18C250.579 36.18 250.684 36.25 250.789 36.32C250.964 36.32 251.104 36.46 251.174 36.67C251.244 36.95 251.314 37.195 251.454 37.405C251.559 37.72 251.629 38 251.629 38.245C251.629 38.385 251.594 38.49 251.594 38.56C251.559 38.7 251.524 38.805 251.524 38.945C251.454 39.085 251.454 39.19 251.489 39.33C251.489 39.505 251.489 39.715 251.419 39.925C251.419 40.03 251.454 40.1 251.489 40.17C251.489 40.24 251.489 40.345 251.524 40.415L251.384 41.36C251.349 41.675 251.349 41.885 251.349 41.955C251.314 42.095 251.314 42.165 251.314 42.2C251.279 42.27 251.244 42.305 251.244 42.34C251.209 42.41 251.174 42.515 251.174 42.655V42.795C251.174 42.865 251.174 42.9 251.209 42.97V43.145C251.209 43.285 251.174 43.355 251.174 43.425C251.139 43.53 251.104 43.6 251.069 43.6L250.999 43.95C250.929 44.37 250.894 44.825 250.824 45.315C250.754 45.84 250.684 46.33 250.649 46.75C250.509 47.1 250.404 47.38 250.299 47.59C250.159 47.835 250.054 47.975 250.054 48.045L249.704 48.885L249.354 49.48C249.284 49.585 249.249 49.655 249.249 49.655C249.459 49.585 249.704 49.515 249.914 49.445C250.124 49.41 250.299 49.375 250.509 49.305C250.544 49.305 250.614 49.27 250.684 49.27C250.789 49.27 250.894 49.34 250.999 49.41H251.069C251.069 49.445 251.104 49.445 251.139 49.445C251.139 49.48 251.174 49.48 251.209 49.48L251.454 49.725C251.559 49.725 251.664 49.865 251.734 50.11C251.804 50.39 251.839 50.635 251.839 50.81L251.804 51.51C251.664 52.385 251.559 52.98 251.524 53.295C251.454 53.645 251.454 53.855 251.454 53.925C251.419 54.065 251.419 54.1 251.419 54.1C251.419 54.1 251.384 54.205 251.384 54.38L251.279 55.08C251.279 55.15 251.244 55.255 251.244 55.325C251.209 55.465 251.209 55.535 251.209 55.605L250.964 55.92C251.034 55.99 251.069 56.06 251.139 56.095C251.174 56.165 251.209 56.2 251.209 56.27C251.209 56.34 251.139 56.515 251.069 56.76C251.069 56.9 250.964 57.04 250.824 57.25C250.649 57.46 250.474 57.67 250.299 57.845L249.984 58.16C249.844 58.16 249.704 58.195 249.564 58.195C249.424 58.23 249.284 58.23 249.179 58.23C248.899 58.23 248.654 58.125 248.479 57.915C248.269 57.705 248.199 57.355 248.199 56.795L248.269 55.815ZM234.409 50.25C234.444 50.04 234.514 49.795 234.654 49.585C234.619 49.55 234.619 49.48 234.619 49.41C234.619 49.34 234.619 49.27 234.689 49.165C234.689 49.165 234.689 49.13 234.724 49.095V48.885L234.759 48.815C234.899 48.675 234.969 48.57 234.969 48.465V48.15C234.969 48.115 235.004 48.01 235.074 47.87C235.074 47.765 235.109 47.625 235.179 47.485C235.319 47.03 235.564 46.435 235.844 45.665C236.089 44.965 236.369 44.265 236.649 43.635C236.614 43.53 236.614 43.425 236.614 43.32C236.579 43.25 236.579 43.215 236.579 43.18L236.894 42.69C236.929 42.655 236.999 42.55 237.069 42.375C237.139 42.235 237.209 42.06 237.314 41.85C237.349 41.745 237.419 41.57 237.524 41.36C237.594 41.185 237.664 40.975 237.734 40.765L238.084 40.205L238.119 40.065C238.189 39.785 238.294 39.47 238.434 39.12C238.539 38.84 238.819 38.7 239.309 38.735C239.449 38.77 239.659 38.84 239.939 38.98C240.184 39.12 240.289 39.19 240.254 39.19C240.324 39.4 240.394 39.54 240.394 39.61C240.394 39.75 240.394 39.855 240.464 39.96V40.45C240.429 40.695 240.394 40.94 240.324 41.15L240.114 41.885V42.305C240.044 42.445 239.974 42.655 239.869 42.935C239.729 43.25 239.624 43.6 239.484 43.95C239.344 44.37 239.204 44.755 239.064 45.105C238.889 45.525 238.749 45.84 238.679 46.05L238.469 46.575C238.399 46.715 238.364 46.82 238.364 46.96C238.294 47.1 238.259 47.275 238.224 47.45C238.119 47.555 238.014 47.73 237.944 47.94C237.874 48.01 237.839 48.15 237.769 48.325C237.699 48.535 237.629 48.675 237.594 48.745L237.454 48.815C237.384 48.92 237.244 49.06 237.069 49.235C237.034 49.305 237.034 49.375 237.034 49.445C236.999 49.585 236.964 49.655 236.929 49.725C236.894 49.865 236.859 49.935 236.859 50.005C236.824 50.11 236.789 50.215 236.719 50.285C236.649 50.425 236.544 50.53 236.404 50.6L236.299 50.705C236.264 50.74 236.229 50.74 236.229 50.74C236.159 50.88 236.124 50.985 236.089 51.09C236.019 51.23 235.984 51.335 235.949 51.335H235.739C235.634 51.37 235.529 51.37 235.459 51.37C235.354 51.405 235.249 51.405 235.179 51.405C235.039 51.405 234.969 51.405 234.969 51.37H234.864H234.374L234.409 50.25ZM244.244 50.25C244.174 50.46 244.139 50.565 244.069 50.6C243.999 50.67 243.894 50.67 243.754 50.67C243.579 50.67 243.369 50.6 243.159 50.425C243.019 50.32 242.914 50.25 242.809 50.18C242.669 50.18 242.529 50.11 242.389 50.04C242.319 50.005 242.179 49.9 241.969 49.76C241.759 49.62 241.444 49.375 241.094 48.955L240.744 48.675L240.604 48.535C240.534 48.465 240.429 48.36 240.324 48.22C240.184 48.115 240.114 48.01 240.044 47.87L239.869 47.8L239.624 47.065V46.925C239.624 46.89 239.589 46.82 239.589 46.68C239.519 46.54 239.554 46.33 239.694 46.015C239.729 45.98 239.834 45.91 240.044 45.84C240.184 45.805 240.359 45.77 240.499 45.77C240.499 45.805 240.569 45.84 240.674 45.84C240.744 45.875 240.814 45.91 240.884 45.91C240.919 45.945 240.989 45.98 241.059 46.015C241.094 46.085 241.129 46.085 241.199 46.085C241.199 46.12 241.234 46.12 241.304 46.12C241.304 46.155 241.374 46.19 241.479 46.26C241.689 46.435 241.864 46.575 242.039 46.68C242.179 46.82 242.319 46.925 242.459 46.995L242.599 47.24C242.774 47.31 242.914 47.45 243.019 47.59C243.019 47.625 243.019 47.66 243.054 47.66C243.054 47.695 243.089 47.73 243.124 47.765C243.124 47.835 243.159 47.87 243.229 47.87L243.264 47.905C243.334 47.975 243.404 48.045 243.509 48.115C243.579 48.255 243.684 48.43 243.894 48.64C243.929 48.78 243.964 48.85 243.999 48.92C243.999 48.99 244.034 49.06 244.104 49.095C244.104 49.375 244.174 49.585 244.244 49.725C244.314 49.935 244.314 50.11 244.244 50.25Z" fill="#541E80"/>
<path d="M10.107 146.005C9.79201 146.11 9.51201 146.18 9.23201 146.25C8.95201 146.32 8.63701 146.355 8.28701 146.285L7.58701 146.25C7.44701 146.25 7.34201 146.18 7.30701 146.075C7.23701 146.005 7.16701 145.97 7.02701 145.935C6.71201 145.795 6.53701 145.585 6.53701 145.305C6.46701 145.2 6.50201 145.06 6.57201 144.92C6.64201 144.815 6.67701 144.71 6.74701 144.57C6.78201 144.5 6.85201 144.43 6.92201 144.325C6.99201 144.255 7.02701 144.15 7.09701 144.045L7.58701 143.625C7.62201 143.59 7.69201 143.52 7.76201 143.415C7.83201 143.345 7.86701 143.24 7.93701 143.17C8.00701 143.1 8.11201 143.03 8.21701 142.925C8.28701 142.855 8.42701 142.75 8.56701 142.61C8.70701 142.505 8.84701 142.365 9.05701 142.155C9.23201 141.98 9.47701 141.735 9.75701 141.42C9.79201 141.35 9.89701 141.245 10.037 141.105C10.177 140.965 10.282 140.86 10.352 140.72C10.212 140.755 9.96701 140.79 9.61701 140.86C9.23201 140.965 8.84701 141.035 8.46201 141.105C8.28701 141.175 8.11201 141.21 7.97201 141.21L7.44701 141.315C7.09701 141.385 6.85201 141.455 6.67701 141.49C6.46701 141.56 6.25701 141.63 5.97701 141.665L5.87201 141.525H5.76701C5.69701 141.525 5.69701 141.525 5.69701 141.49H5.62701C5.45201 141.49 5.27701 141.42 5.13701 141.28C4.96201 141.21 4.85701 141.105 4.82201 140.965V140.86C4.75201 140.825 4.71701 140.755 4.71701 140.65C4.68201 140.58 4.71701 140.44 4.78701 140.23C4.85701 140.16 4.96201 140.09 5.10201 140.02C5.20701 139.95 5.34701 139.915 5.52201 139.88C5.59201 139.88 5.66201 139.845 5.76701 139.81C5.83701 139.81 5.97701 139.775 6.11701 139.74C6.22201 139.705 6.32701 139.67 6.46701 139.67C6.57201 139.67 6.64201 139.67 6.71201 139.635C6.95701 139.6 7.16701 139.565 7.37701 139.495C7.51701 139.46 7.72701 139.425 7.93701 139.355H8.04201C7.90201 139.145 7.83201 138.97 7.83201 138.795V138.48C7.83201 138.34 7.86701 138.2 7.93701 137.99C7.90201 137.71 7.93701 137.395 8.00701 137.045C8.04201 136.695 8.11201 136.345 8.21701 135.995C8.28701 135.645 8.35701 135.33 8.49701 135.015C8.56701 134.735 8.67201 134.455 8.74201 134.245H8.67201L8.60201 134.315L8.28701 134.525C8.14701 134.595 8.00701 134.63 7.83201 134.63C7.55201 134.63 7.34201 134.63 7.13201 134.7C6.92201 134.77 6.71201 134.84 6.57201 134.91L6.11701 135.085L3.66701 135.75C3.42201 135.75 3.24701 135.715 3.17701 135.645C3.03701 135.61 2.96701 135.61 2.89701 135.61C2.79201 135.645 2.72201 135.68 2.65201 135.68C2.58201 135.715 2.51201 135.715 2.44201 135.715H2.19701C2.09201 135.715 1.95201 135.645 1.77701 135.435C1.56701 135.295 1.53201 135.085 1.63701 134.805C1.67201 134.595 1.84701 134.42 2.19701 134.21C2.51201 134.035 2.82701 133.895 3.17701 133.79L5.66201 133.09C6.50201 132.88 7.41201 132.67 8.35701 132.46C9.26701 132.25 10.177 132.075 11.122 131.9C12.032 131.76 12.872 131.62 13.712 131.515C13.817 131.48 13.922 131.445 14.062 131.445C14.167 131.48 14.272 131.515 14.377 131.515H14.517C14.552 131.55 14.587 131.55 14.622 131.55C14.797 131.935 14.832 132.285 14.762 132.565C14.727 132.635 14.727 132.67 14.727 132.705C14.692 132.775 14.657 132.95 14.622 133.195C14.412 133.195 14.272 133.3 14.167 133.44L13.957 133.58C13.782 133.65 13.642 133.65 13.502 133.58C13.362 133.545 13.187 133.51 13.047 133.51L12.382 133.58C12.067 133.65 11.752 133.685 11.437 133.72C11.087 133.79 10.772 133.86 10.492 133.895C10.562 134.21 10.632 134.385 10.667 134.385C10.737 134.595 10.807 134.77 10.807 134.945V135.68C10.772 135.96 10.737 136.17 10.737 136.31C10.702 136.52 10.667 136.695 10.667 136.835C10.632 137.01 10.597 137.15 10.562 137.29C10.422 137.71 10.352 138.095 10.352 138.375V138.69C10.317 138.795 10.282 138.9 10.282 138.97C10.387 138.97 10.527 138.935 10.737 138.865C10.807 138.865 10.877 138.83 10.947 138.83L11.227 138.795L11.472 138.725C11.542 138.69 11.682 138.655 11.822 138.655C11.927 138.655 11.997 138.655 12.067 138.62L12.172 138.585C12.452 138.585 12.697 138.55 12.907 138.55C13.047 138.585 13.222 138.69 13.362 138.83L13.467 138.9C13.502 138.97 13.572 139.04 13.642 139.075C13.677 139.145 13.712 139.32 13.712 139.565L13.677 140.02L13.432 140.265L13.222 140.44C13.152 140.545 13.082 140.615 13.047 140.685C12.977 140.755 12.942 140.825 12.907 140.86L11.927 141.875L11.227 142.575C11.017 142.785 10.842 142.995 10.702 143.135L10.142 143.695L9.89701 143.905L9.65201 144.08L9.33701 144.395L10.492 144.115C10.877 144.115 11.227 144.045 11.507 143.905L12.242 143.765L12.627 143.625C12.767 143.625 12.872 143.59 13.012 143.555C13.082 143.555 13.187 143.52 13.327 143.45C13.397 143.415 13.502 143.38 13.642 143.345C13.747 143.345 13.852 143.31 13.957 143.24C14.237 143.275 14.412 143.345 14.482 143.45C14.552 143.59 14.587 143.73 14.622 143.87L14.587 144.325C14.587 144.5 14.517 144.605 14.377 144.675C14.237 144.78 14.062 144.85 13.887 144.92L13.747 145.095L13.467 145.13C12.942 145.27 12.417 145.375 11.857 145.515C11.297 145.655 10.702 145.83 10.107 146.005ZM3.59701 129.1C3.70201 128.26 3.80701 127.455 3.94701 126.72C4.01701 126.02 4.12201 125.25 4.22701 124.41C3.87701 124.48 3.63201 124.55 3.45701 124.62C3.24701 124.69 2.93201 124.795 2.54701 124.9C2.40701 124.97 2.26701 125.005 2.09201 125.005C1.88201 125.075 1.70701 125.075 1.49701 125.075C1.35701 125.04 1.28701 125.005 1.21701 124.935C1.11201 124.935 0.972012 124.865 0.832012 124.795C0.832012 124.515 0.867012 124.305 1.00701 124.235C1.14701 124.13 1.21701 124.06 1.28701 123.99C1.28701 123.955 1.32201 123.885 1.35701 123.78C1.49701 123.675 1.67201 123.57 1.84701 123.5C1.98701 123.43 2.16201 123.36 2.33701 123.29L2.82701 123.01L3.21201 122.87H3.38701C3.84201 122.73 4.19201 122.59 4.47201 122.52C4.68201 122.485 4.92701 122.45 5.13701 122.38C5.27701 122.345 5.41701 122.345 5.52201 122.38L5.97701 122.485C6.32701 122.555 6.60701 122.695 6.78201 122.905C6.92201 123.15 7.02701 123.43 7.09701 123.745C7.20201 123.955 7.27201 124.165 7.27201 124.305C7.27201 124.515 7.20201 124.725 7.09701 124.97L6.92201 125.95C6.81701 126.51 6.71201 127.07 6.64201 127.63C6.50201 128.225 6.39701 128.68 6.32701 128.96C6.25701 129.03 6.22201 129.1 6.22201 129.17C6.15201 129.275 6.11701 129.38 6.08201 129.45C5.94201 129.66 5.87201 129.94 5.80201 130.255C5.66201 130.605 5.55701 130.78 5.41701 130.85C5.24201 130.92 5.06701 130.99 4.89201 130.99H4.68201H4.54201C4.47201 131.025 4.40201 131.025 4.36701 130.99H4.15701C4.08701 130.955 4.01701 130.885 3.98201 130.78C3.91201 130.71 3.84201 130.675 3.80701 130.64H3.66701C3.59701 130.64 3.56201 130.64 3.52701 130.605C3.45701 130.605 3.38701 130.57 3.38701 130.535C3.38701 130.36 3.42201 130.115 3.49201 129.8C3.52701 129.52 3.56201 129.31 3.59701 129.1ZM11.472 130.71C11.472 130.395 11.472 130.08 11.507 129.765C11.507 129.485 11.542 129.135 11.612 128.715C11.612 128.365 11.647 127.91 11.682 127.385C11.682 126.895 11.717 126.23 11.787 125.46C11.402 125.6 11.052 125.67 10.772 125.705C10.457 125.775 10.107 125.88 9.75701 125.985C9.54701 126.055 9.37201 126.125 9.23201 126.125C9.05701 126.195 8.88201 126.195 8.70701 126.16L8.46201 126.055C8.11201 125.915 7.97201 125.775 8.04201 125.565C8.04201 125.6 8.04201 125.565 8.11201 125.425C8.11201 125.355 8.14701 125.25 8.18201 125.145C8.25201 125.075 8.35701 124.97 8.46201 124.795C8.49701 124.76 8.56701 124.69 8.70701 124.585C8.81201 124.515 8.91701 124.48 8.98701 124.41L9.65201 124.165L9.86201 124.06L10.247 123.92L10.422 123.885L10.737 123.78C10.982 123.71 11.262 123.605 11.612 123.5C11.892 123.43 12.172 123.395 12.417 123.325H12.697C12.767 123.36 12.977 123.395 13.327 123.43C13.677 123.5 13.957 123.64 14.132 123.85C14.272 124.095 14.447 124.41 14.587 124.795C14.692 125.005 14.762 125.215 14.762 125.355C14.727 125.565 14.692 125.775 14.622 126.02C14.622 126.09 14.587 126.23 14.587 126.37L14.482 127C14.412 127.42 14.377 127.77 14.342 128.085C14.272 128.435 14.202 128.715 14.167 128.96C14.097 129.205 14.027 129.45 13.957 129.66C13.852 129.94 13.782 130.185 13.747 130.43C13.677 130.815 13.502 131.025 13.257 131.095C12.977 131.2 12.662 131.235 12.312 131.2H12.067C11.997 131.13 11.962 131.06 11.927 130.99L11.717 130.78C11.612 130.745 11.542 130.71 11.472 130.71ZM11.192 148.14C11.122 148.21 11.017 148.28 10.947 148.385C10.807 148.455 10.737 148.56 10.667 148.665C10.457 148.84 10.317 148.98 10.212 149.085C10.072 149.155 10.002 149.26 9.93201 149.365C9.82701 149.435 9.75701 149.505 9.68701 149.61C9.58201 149.68 9.47701 149.75 9.37201 149.89C9.96701 149.75 10.597 149.61 11.262 149.47C11.892 149.26 12.557 149.085 13.187 148.91H13.467C13.607 148.84 13.747 148.805 13.957 148.77C14.132 148.7 14.272 148.665 14.412 148.63L15.147 148.56C15.287 148.665 15.427 148.805 15.567 148.98C15.672 149.12 15.742 149.295 15.777 149.47C15.777 149.68 15.707 149.855 15.497 149.995C15.252 150.1 15.042 150.17 14.867 150.24L14.342 150.31C14.237 150.345 14.167 150.38 14.132 150.415C14.062 150.415 13.957 150.45 13.852 150.52C13.572 150.59 13.292 150.66 12.942 150.8C12.557 150.87 12.207 150.975 11.892 151.08C11.542 151.15 11.227 151.22 10.982 151.29C10.702 151.36 10.562 151.395 10.527 151.395L9.96701 151.535L9.44201 151.745L9.02201 151.885C8.95201 151.85 8.91701 151.85 8.88201 151.885C8.81201 151.885 8.74201 151.92 8.70701 151.955C8.53201 152.025 8.35701 152.095 8.21701 152.095C8.14701 152.095 8.04201 152.095 7.97201 152.13H7.65701C7.44701 152.165 7.23701 152.165 6.95701 152.095C6.64201 151.99 6.43201 151.885 6.32701 151.745C6.18701 151.675 6.11701 151.535 6.08201 151.395C6.01201 151.22 5.97701 151.045 6.04701 150.87C6.04701 150.835 6.04701 150.8 6.11701 150.765C6.15201 150.695 6.18701 150.59 6.22201 150.52C6.29201 150.415 6.36201 150.31 6.50201 150.205C6.60701 150.065 6.71201 149.96 6.85201 149.855L7.58701 149.225L8.60201 148.28C8.74201 148.14 8.95201 147.965 9.19701 147.72L9.79201 147.125C9.86201 147.02 9.93201 146.95 10.072 146.88C10.142 146.845 10.212 146.81 10.282 146.74C10.562 146.565 10.807 146.425 11.017 146.355C11.052 146.355 11.122 146.355 11.192 146.32H11.332C11.402 146.32 11.437 146.32 11.507 146.285C11.577 146.32 11.647 146.355 11.752 146.425C11.822 146.495 11.892 146.565 11.962 146.6C12.032 146.775 12.032 146.95 12.032 147.16C11.962 147.405 11.892 147.58 11.787 147.685L11.192 148.14ZM34.4388 126.09C34.5788 126.09 34.7188 126.23 34.7888 126.475C34.8588 126.755 34.9288 127.035 35.0688 127.28C35.1738 127.63 35.2438 127.945 35.2438 128.19C35.2438 128.33 35.2088 128.47 35.2088 128.54C35.1738 128.68 35.1388 128.82 35.1388 128.96C35.0688 129.1 35.0688 129.205 35.1038 129.345C35.1038 129.485 35.1038 129.695 35.0338 129.94L35.1388 130.465L34.9988 131.48C34.9638 131.83 34.9638 132.04 34.9638 132.145C34.9288 132.285 34.9288 132.355 34.9288 132.39C34.8938 132.46 34.8588 132.53 34.8588 132.565C34.8238 132.635 34.7888 132.74 34.7888 132.88V133.055C34.7888 133.125 34.7888 133.16 34.8238 133.23V133.44C34.8238 133.58 34.7888 133.685 34.7888 133.755C34.7538 133.86 34.7188 133.93 34.6838 133.93L34.6138 134.315C34.5438 134.805 34.5088 135.295 34.4738 135.82C34.4038 136.38 34.3338 136.87 34.2988 137.325C34.1588 137.675 34.0538 137.99 33.9488 138.235C33.8088 138.515 33.7038 138.655 33.7038 138.725L33.3888 139.635L33.0388 140.3C32.8988 140.58 32.7938 140.79 32.7238 141C32.6538 141.245 32.4788 141.42 32.1988 141.525C32.0238 141.665 31.8838 141.735 31.7438 141.735C31.6038 141.77 31.4638 141.77 31.3238 141.77C31.1138 141.77 30.9738 141.7 30.9038 141.56C30.7638 141.455 30.6588 141.315 30.5888 141.175L30.5538 140.755C30.5538 140.65 30.5188 140.545 30.4488 140.475C30.3788 140.44 30.3438 140.3 30.3438 140.055L30.5888 138.76V138.305V138.2C30.5538 138.2 30.5188 138.13 30.5188 138.06L30.7288 137.64C30.7288 137.43 30.7638 137.185 30.7988 136.94C30.7988 136.73 30.8688 136.52 31.0088 136.31C30.9388 136.24 30.9038 136.1 30.9038 135.89C30.9038 135.785 30.9038 135.68 30.9738 135.54C31.0088 135.435 31.0438 135.33 31.1138 135.19L31.3238 134.77C31.3238 134.665 31.2888 134.56 31.2188 134.455C31.1488 134.385 31.1138 134.315 31.1138 134.245C31.1138 134.105 31.1838 133.93 31.3938 133.79C31.3938 133.755 31.4288 133.72 31.4638 133.685C31.4638 133.685 31.4988 133.685 31.4988 133.65V133.615C31.4988 133.545 31.4988 133.51 31.5338 133.475C30.9038 133.755 30.2738 134 29.6788 134.21C29.0488 134.49 28.5238 134.665 28.1738 134.805C28.0338 134.875 27.8938 134.91 27.7538 134.945C27.5788 135.015 27.4388 135.085 27.3338 135.085C26.8438 135.12 26.4938 135.05 26.3538 134.875C26.1788 134.735 26.0738 134.595 26.0738 134.385C26.0388 134.105 26.0738 133.965 26.2138 133.895C26.3188 133.895 26.4588 133.86 26.5988 133.825C26.5988 133.825 26.6688 133.79 26.8088 133.685L26.9838 133.51L27.1238 133.37C27.2288 133.335 27.4388 133.23 27.7888 133.09C28.1038 132.95 28.4888 132.81 28.9438 132.6C29.3638 132.46 29.8188 132.285 30.3088 132.075C30.7988 131.9 31.2538 131.725 31.7438 131.585L31.9888 130.5C32.0238 130.22 32.0938 129.94 32.1638 129.695C32.1988 129.485 32.2338 129.205 32.2338 128.785L32.3038 128.155C32.3038 127.945 32.3738 127.77 32.4788 127.63V127.175C32.4788 127.07 32.5838 126.93 32.7238 126.79C32.8288 126.65 32.9688 126.51 33.1438 126.37C33.2838 126.265 33.4588 126.16 33.6688 126.055C33.8088 125.985 33.9838 125.95 34.1238 125.95C34.2288 125.95 34.3338 126.02 34.4388 126.09ZM22.9588 129.835C23.4838 129.835 23.8338 130.01 24.0438 130.325C24.1838 130.675 24.2888 130.955 24.2888 131.2C24.2888 131.48 24.2538 131.83 24.1838 132.25L23.9388 132.355V132.425C23.9388 132.495 23.8688 132.67 23.7638 132.985C23.6238 133.335 23.3788 133.825 22.9938 134.49C22.8538 134.63 22.7488 134.805 22.6788 134.945C22.6088 135.155 22.5388 135.33 22.5038 135.47C22.4338 135.68 22.3638 135.855 22.2938 136.03C22.2238 136.24 22.0838 136.415 21.9438 136.555L21.6638 136.695V136.835C21.6288 136.975 21.5588 137.08 21.4888 137.22C21.3488 137.36 21.1738 137.64 20.9288 138.06L20.2638 139.145C20.0188 139.565 19.7738 139.95 19.5288 140.3L19.1438 140.615C19.0738 140.755 18.9338 140.895 18.7238 140.965C18.4788 141.105 18.2688 141.14 18.1288 141.14C18.1288 141.14 18.0588 141.14 17.9888 141.105C17.8838 141.105 17.7788 141.07 17.6738 141C17.5338 140.93 17.4288 140.825 17.3588 140.65C17.2188 140.51 17.1838 140.335 17.1838 140.055C17.1838 139.88 17.2888 139.74 17.4988 139.635V139.425L17.8488 139.04L17.8138 138.795C18.1638 138.55 18.4438 138.2 18.6538 137.745C18.8638 137.325 19.0738 136.94 19.3188 136.52L19.4938 136.345L20.7188 134.035C21.1038 133.265 21.4538 132.425 21.7688 131.55C21.4188 131.62 21.1038 131.69 20.8938 131.69C20.6138 131.76 20.4388 131.795 20.3338 131.83C20.1238 131.9 19.9488 131.97 19.8788 131.97C19.8438 131.97 19.7738 132.005 19.6688 132.005C19.5288 132.075 19.3888 132.11 19.2488 132.11C19.0738 132.18 18.9338 132.215 18.7938 132.215C18.6188 132.285 18.5138 132.32 18.4438 132.32C18.0238 132.32 17.7438 132.25 17.6038 132.075C17.4638 131.935 17.3938 131.795 17.3938 131.62C17.3938 131.41 17.4638 131.2 17.6738 130.99C17.8138 130.85 18.0238 130.71 18.3038 130.64H18.4788C18.7588 130.535 19.0738 130.465 19.3538 130.395C19.5988 130.395 19.8788 130.325 20.1588 130.22C20.6838 130.08 21.1738 130.01 21.5938 129.94C21.9788 129.905 22.4338 129.87 22.9588 129.835ZM28.9438 147.405C28.9788 146.74 29.1188 146.11 29.3288 145.48C29.5388 144.885 29.7488 144.43 30.0288 144.115C30.3088 143.73 30.7638 143.415 31.3588 143.17C31.9188 142.96 32.3738 142.855 32.7938 142.855C32.8988 142.89 33.0388 142.995 33.2138 143.135C33.3538 143.31 33.4938 143.52 33.6338 143.73C33.7738 144.01 33.8788 144.255 33.9838 144.535C34.0538 144.815 34.1238 145.095 34.1588 145.34V146.67C34.0888 147.125 34.0188 147.545 33.8788 147.895C33.6688 148.315 33.4938 148.665 33.2838 148.875C33.0388 149.085 32.7238 149.295 32.3738 149.575H31.9888C31.9188 149.575 31.8488 149.575 31.7788 149.61H31.4988C31.3588 149.61 31.2188 149.645 31.0088 149.715C30.9038 149.715 30.7988 149.75 30.7288 149.785C30.6238 149.785 30.5538 149.82 30.5188 149.82C30.3788 149.82 30.2038 149.715 30.0288 149.54C29.8188 149.33 29.6088 149.12 29.4688 148.91C29.2938 148.63 29.1538 148.385 29.0838 148.14C28.9438 147.86 28.9088 147.615 28.9438 147.405ZM26.8088 141.105C26.7388 141.105 26.6338 141.07 26.4938 141C26.3538 140.93 26.2138 140.86 26.0738 140.755C25.9338 140.685 25.7938 140.58 25.6888 140.475C25.5488 140.405 25.5138 140.37 25.5138 140.37C25.3038 140.265 25.1288 140.09 24.9538 139.845C24.7438 139.635 24.5688 139.425 24.4288 139.18C24.4288 139.215 24.3938 139.145 24.2888 138.97C24.1488 138.83 24.0438 138.76 24.0088 138.69L23.9738 138.55C23.8338 138.48 23.7638 138.34 23.6938 138.13C23.5888 137.99 23.5188 137.85 23.4838 137.71L23.2738 137.5C23.2388 137.43 23.2038 137.325 23.2038 137.255C23.1688 137.22 23.1688 137.15 23.1688 137.08V136.625V136.555C23.1338 136.555 23.1338 136.52 23.1338 136.45C23.1338 136.345 23.1338 136.24 23.1688 136.135C23.1688 136.065 23.2738 135.925 23.4138 135.785L23.6938 135.505C23.7988 135.505 23.9038 135.505 24.0088 135.47C24.0788 135.47 24.1488 135.435 24.2888 135.435C24.3588 135.505 24.4288 135.505 24.4988 135.505C24.5338 135.54 24.6388 135.61 24.7788 135.715L24.9888 135.925C25.0238 135.96 25.0938 136.03 25.2338 136.135C25.3388 136.275 25.4438 136.415 25.5838 136.555C25.6888 136.695 25.7938 136.835 25.8988 136.94C25.9688 137.08 26.0388 137.115 26.0388 137.115C26.1788 137.395 26.3188 137.64 26.4938 137.85C26.6338 138.095 26.7388 138.305 26.8788 138.515C27.0188 138.935 27.1588 139.215 27.2288 139.425C27.2988 139.67 27.2988 139.915 27.2638 140.125C27.1238 140.685 27.0538 140.965 27.0188 141L26.8088 141.105ZM32.1988 144.92C31.9538 144.92 31.7438 145.025 31.6038 145.165C31.4288 145.375 31.2888 145.585 31.2188 145.83C31.2888 145.935 31.3588 146.075 31.4288 146.285C31.4288 146.425 31.3938 146.53 31.3588 146.67C31.2888 146.81 31.2888 146.95 31.3588 147.055C31.3588 147.125 31.3938 147.23 31.4638 147.405C31.5338 147.615 31.6388 147.72 31.8138 147.755C31.8838 147.615 31.9538 147.44 32.0588 147.23C32.1288 147.055 32.1988 146.845 32.2688 146.6C32.3388 146.39 32.3738 146.145 32.4438 145.9C32.4788 145.69 32.4788 145.48 32.4788 145.27C32.4788 145.06 32.3738 144.92 32.1988 144.92ZM48.8629 132.635C48.793 132.845 48.723 133.02 48.6529 133.195C48.548 133.405 48.5129 133.65 48.5129 133.895C48.5129 134.07 48.478 134.21 48.4079 134.315C48.303 134.455 48.2679 134.595 48.2679 134.77C48.1979 135.05 48.1629 135.295 48.1279 135.575C48.058 135.89 47.9529 136.17 47.8829 136.415C47.7779 136.695 47.6729 136.94 47.5329 137.15C47.3929 137.36 47.2179 137.5 47.0429 137.57C46.9029 137.64 46.7279 137.675 46.5879 137.745C46.3779 137.85 46.1679 137.885 45.9579 137.815C45.7479 137.78 45.6779 137.64 45.6779 137.36C45.6429 137.15 45.6429 136.87 45.6429 136.52C45.6429 136.135 45.6429 135.715 45.7129 135.26C45.7129 134.84 45.7479 134.525 45.8179 134.245C45.8179 134.105 45.8879 133.965 45.9579 133.825C45.9929 133.72 46.0279 133.58 46.0979 133.44C45.5729 133.58 45.0479 133.685 44.4879 133.825C43.9279 133.965 43.4029 134.14 42.9479 134.28C42.9829 134.63 43.0529 134.91 43.1579 135.19C43.2279 135.505 43.2979 135.785 43.4029 136.03L43.5779 136.555L43.6479 136.835L43.8579 137.255L44.0329 137.675L44.1729 138.095C44.2079 138.235 44.2429 138.305 44.3129 138.34C44.3129 138.41 44.3829 138.445 44.5229 138.445L44.6979 139.18L44.6279 139.705C44.4879 139.845 44.4179 139.915 44.4179 139.95C44.3479 140.02 44.2779 140.055 44.1379 140.055C44.0679 140.09 44.0329 140.125 43.9979 140.125C43.9279 140.195 43.8929 140.195 43.8929 140.195L43.6829 140.16C43.5079 140.125 43.2979 140.055 43.0879 139.915C42.8429 139.845 42.5979 139.705 42.3179 139.495C42.1079 139.39 41.9329 139.215 41.7579 138.97C41.5479 138.76 41.4429 138.515 41.4429 138.2C41.3029 138.13 41.1979 137.955 41.0929 137.71C41.0229 137.64 40.9879 137.57 40.9529 137.43C40.8829 137.36 40.8129 137.29 40.8129 137.22L40.7079 137.15C40.4279 136.87 40.2529 136.485 40.1479 135.925C39.8679 135.19 39.6929 134.455 39.5879 133.755C39.4479 133.09 39.3779 132.355 39.3079 131.515C39.2379 131.48 39.2029 131.41 39.1679 131.34C39.0979 131.305 39.0979 131.235 39.1679 131.095C39.1679 130.955 39.2379 130.85 39.3779 130.71C39.3079 130.57 39.3079 130.36 39.3079 130.15C39.2729 129.975 39.2729 129.765 39.3079 129.555C39.3079 129.24 39.3779 128.925 39.4479 128.575C39.4829 128.295 39.5179 128.015 39.5879 127.805C39.8329 126.965 39.9729 126.475 39.9729 126.265C40.3229 125.915 40.6379 125.67 40.9179 125.46C41.1279 125.285 41.4079 125.25 41.7579 125.355C42.0729 125.495 42.2829 125.74 42.3529 126.125C42.4229 126.545 42.4579 126.86 42.4579 127.035C42.5979 127.315 42.7029 127.49 42.7029 127.595L42.6329 127.735L42.5979 128.26L42.4929 128.61L42.6329 129.345C42.6329 129.415 42.5979 129.485 42.5629 129.625C42.5279 129.695 42.5279 129.765 42.5279 129.8L42.6679 130.185L42.5979 130.815C42.5979 131.095 42.6329 131.375 42.6679 131.62C42.6679 131.9 42.6679 132.18 42.7379 132.425C43.1229 132.285 43.6129 132.145 44.2429 131.97C44.8379 131.83 45.4679 131.655 46.1329 131.515H46.2379C46.2379 131.445 46.2729 131.375 46.2729 131.305C46.2729 131.27 46.2729 131.2 46.3079 131.13L46.4129 130.5C46.4129 130.29 46.448 130.08 46.5179 129.835C46.5179 129.73 46.5879 129.52 46.6579 129.24C46.693 128.995 46.7279 128.715 46.7979 128.4C46.8679 128.12 46.9029 127.84 46.9729 127.525C47.008 127.245 47.0429 126.965 47.1129 126.72C47.1129 126.545 47.183 126.37 47.253 126.23C47.2879 126.125 47.3229 126.02 47.3929 125.915C47.4629 125.775 47.6379 125.6 47.8829 125.425C48.0929 125.285 48.478 125.25 49.038 125.32C49.2129 125.39 49.353 125.565 49.4929 125.88C49.5629 126.23 49.6329 126.615 49.6679 127.035C49.7029 127.875 49.6329 128.68 49.4929 129.485C49.283 130.325 49.108 131.06 48.9679 131.69C48.8979 131.83 48.8629 131.97 48.8629 132.04C48.8279 132.145 48.793 132.25 48.793 132.355L48.8629 132.635ZM52.993 146.18C52.993 146.425 52.853 146.635 52.6429 146.81C52.363 147.02 52.0829 147.16 51.8029 147.265C51.453 147.405 51.138 147.51 50.8579 147.58C50.5429 147.65 50.333 147.685 50.2279 147.685C50.0529 147.72 49.843 147.755 49.598 147.79C49.3179 147.86 49.038 147.895 48.793 147.965C48.6179 148 48.478 148.035 48.3379 148.105C48.1629 148.105 48.0229 148.14 47.9179 148.175C47.7779 148.175 47.6379 148.21 47.498 148.28C47.2879 148.28 47.0779 148.315 46.8679 148.385C46.5529 148.455 46.2379 148.525 45.8879 148.595C45.5029 148.665 45.1529 148.735 44.8029 148.805C44.4529 148.875 44.1029 148.91 43.8229 148.98C43.4729 149.015 43.1929 149.05 42.9829 149.05C42.5629 149.05 42.2829 148.98 42.1429 148.84C41.9329 148.63 41.7929 148.385 41.6879 148.07C41.5479 147.86 41.5129 147.58 41.5829 147.23C41.6179 146.915 41.8629 146.74 42.3179 146.67C42.4929 146.67 42.7379 146.635 43.0529 146.635H43.5779C43.7179 146.6 43.8579 146.565 43.9979 146.495C44.1029 146.46 44.1729 146.425 44.2429 146.425C44.3129 146.425 44.4179 146.46 44.4879 146.46C44.5579 146.495 44.6279 146.53 44.7329 146.53H44.8379C44.8379 146.565 44.9079 146.565 44.9779 146.565C45.0479 146.565 45.1529 146.565 45.2229 146.53C45.2929 146.53 45.3629 146.53 45.4679 146.495L45.6079 145.935V145.795C45.6079 145.76 45.5729 145.725 45.5729 145.655C45.5379 145.585 45.5379 145.55 45.5379 145.48C45.5379 145.375 45.6079 145.165 45.7129 144.85C45.7829 144.57 45.8529 144.22 45.9579 143.835C46.0279 143.485 46.1329 143.1 46.2729 142.715C46.3429 142.365 46.448 142.05 46.5179 141.77V141.49L46.693 141.175L46.9729 140.16C47.008 140.055 47.0429 139.95 47.0779 139.81C47.0779 139.74 47.1129 139.6 47.183 139.425L47.3579 139.11L47.8129 138.935C47.6729 138.9 47.5679 138.865 47.5329 138.795C47.4629 138.795 47.4279 138.76 47.4279 138.76C47.4279 138.69 47.498 138.55 47.5679 138.41C47.6029 138.27 47.6729 138.13 47.8129 137.92C47.9179 137.85 48.058 137.78 48.1979 137.71C48.303 137.64 48.478 137.64 48.723 137.675C48.8979 137.675 49.038 137.745 49.1779 137.85C49.2479 137.99 49.353 138.13 49.4929 138.27L49.528 139.04C49.528 139.18 49.5629 139.355 49.6329 139.495C49.6329 139.67 49.6679 139.81 49.7029 139.915L49.7379 140.195L49.4929 141.07C49.4229 141.28 49.3879 141.455 49.3179 141.63C49.2479 141.84 49.1429 142.12 49.0029 142.435C48.9679 142.47 48.9679 142.575 49.0029 142.715C49.0029 142.89 49.038 143.03 49.0729 143.135C49.0729 143.345 49.0029 143.555 48.8629 143.765C48.793 143.905 48.723 143.975 48.6879 144.045C48.6179 144.15 48.5829 144.29 48.548 144.43V144.535C48.548 144.57 48.5129 144.605 48.5129 144.675C48.478 144.745 48.4429 144.85 48.4079 144.99C48.3379 145.165 48.2679 145.375 48.1279 145.655L47.9179 145.935C47.8479 146.005 47.7779 146.075 47.7779 146.11C48.8979 145.9 49.843 145.76 50.6129 145.725C50.648 145.725 50.6829 145.76 50.7529 145.76C50.7529 145.83 50.7879 145.83 50.8579 145.795C51.0329 145.76 51.208 145.69 51.4179 145.585C51.558 145.515 51.8029 145.445 52.118 145.445C52.2929 145.445 52.4679 145.515 52.6429 145.655C52.7829 145.795 52.853 145.9 52.923 145.97L52.993 146.18Z" fill="#541E80"/>
</svg>
