<svg width="46" height="46" viewBox="0 0 46 46" fill="none" xmlns="http://www.w3.org/2000/svg">
<path d="M45.6047 21.5459C45.038 9.92143 35.5923 0.526116 23.9678 0.0223456C15.0889 -0.368076 7.25525 4.39255 3.2125 11.5587C2.30571 13.1707 2.91024 15.2236 4.61046 15.9919C6.12177 16.6719 7.83459 16.0422 8.61543 14.6443C8.61543 14.6443 8.61543 14.6317 8.61543 14.6191C8.70359 14.4554 8.80435 14.2916 8.9051 14.1279C8.94288 14.0775 8.98067 14.0146 9.00586 13.9642C9.08142 13.8508 9.14439 13.7375 9.21996 13.6367C9.25774 13.5738 9.30812 13.5108 9.3459 13.4478C9.40887 13.3471 9.48444 13.2463 9.54741 13.1581C9.59779 13.0952 9.64816 13.0196 9.69854 12.9566C9.76151 12.8685 9.83708 12.7677 9.90005 12.6796C9.95042 12.6166 10.0008 12.541 10.0638 12.4781C10.1393 12.3899 10.2023 12.3017 10.2779 12.2136C10.3283 12.1506 10.3912 12.075 10.4416 12.0121C10.5172 11.9239 10.5801 11.8483 10.6557 11.7602C10.7187 11.6972 10.7691 11.6342 10.832 11.5713C10.9076 11.4957 10.9832 11.4075 11.0587 11.332C11.1217 11.269 11.1847 11.206 11.235 11.1431C11.3106 11.0675 11.3862 10.9919 11.4743 10.9038C11.5373 10.8408 11.6003 10.7778 11.6632 10.7275C11.7514 10.6519 11.827 10.5763 11.9151 10.5008C11.9781 10.4504 12.0411 10.3874 12.104 10.337C12.1922 10.2615 12.2804 10.1859 12.3685 10.1103C12.4315 10.06 12.4945 10.0096 12.5574 9.95921C12.6582 9.88364 12.7589 9.79548 12.8597 9.71992C12.9101 9.68214 12.973 9.63176 13.0234 9.59398C13.1494 9.49322 13.2879 9.40506 13.4138 9.30431C13.439 9.27912 13.4768 9.26653 13.502 9.24134C13.6657 9.12799 13.8295 9.01464 13.9932 8.91389C14.0436 8.8761 14.0939 8.85091 14.1443 8.82573C14.2577 8.75016 14.3836 8.6746 14.4969 8.59903C14.5599 8.56125 14.6229 8.52346 14.6985 8.48568C14.7992 8.42271 14.9126 8.35974 15.0133 8.29677C15.0889 8.25899 15.1644 8.2212 15.2274 8.18342C15.3282 8.13304 15.4289 8.07007 15.5297 8.01969C15.6052 7.98191 15.6808 7.94413 15.7564 7.90635C15.8571 7.85597 15.9579 7.80559 16.0586 7.75522C16.1342 7.71743 16.2224 7.67965 16.2979 7.64187C16.3987 7.59149 16.4994 7.55371 16.6128 7.50333C16.6883 7.46555 16.7765 7.44036 16.8521 7.40258C16.9528 7.36479 17.0662 7.31442 17.1669 7.27663C17.2551 7.25145 17.3307 7.21366 17.4188 7.18847C17.5196 7.15069 17.6329 7.11291 17.7463 7.07513C17.8344 7.04994 17.91 7.02475 17.9982 6.98697C18.1115 6.94918 18.2248 6.92399 18.3256 6.88621C18.4138 6.86102 18.4893 6.83583 18.5775 6.81065C18.6908 6.77286 18.8042 6.74768 18.9301 6.72249C19.0057 6.6973 19.0939 6.6847 19.1694 6.65952C19.2954 6.63433 19.4213 6.60914 19.5472 6.58395C19.6228 6.57136 19.6984 6.54617 19.7739 6.53357C19.9251 6.50838 20.0636 6.4832 20.2147 6.45801C20.2651 6.45801 20.3281 6.43282 20.3785 6.43282C20.58 6.39504 20.7815 6.36985 20.9956 6.34466C21.046 6.34466 21.0837 6.34466 21.1341 6.33207C21.2978 6.31947 21.4616 6.29428 21.6127 6.28169C21.6883 6.28169 21.7638 6.28169 21.8394 6.26909C21.9779 6.26909 22.1039 6.2565 22.2424 6.24391C22.3306 6.24391 22.4187 6.24391 22.4943 6.24391C22.6202 6.24391 22.7462 6.24391 22.8721 6.24391C22.9225 6.24391 22.9855 6.24391 23.0359 6.24391C23.3759 6.24391 23.7159 6.24391 24.0434 6.28169C24.0812 6.28169 24.1064 6.28169 24.1441 6.28169C24.396 6.29428 24.6479 6.33207 24.9124 6.35725C30.0886 6.97437 34.5344 9.99699 37.091 14.2916C38.0482 15.9037 37.4689 17.9817 35.819 18.8633C34.2699 19.682 32.3682 19.1404 31.474 17.6417C29.7486 14.7324 26.5748 12.7803 22.9477 12.7803C18.7034 12.7803 15.0889 15.4503 13.6657 19.2034C13.2501 20.2865 13.036 21.4704 13.036 22.692C13.036 23.9136 13.2627 25.0975 13.6657 26.1806C15.0763 29.9337 18.7034 32.6037 22.9477 32.6037C26.5748 32.6037 29.736 30.6516 31.474 27.7423C32.3682 26.2436 34.2825 25.6894 35.819 26.5206C37.4689 27.4022 38.0482 29.4803 37.091 31.0924C34.3329 35.727 29.3708 38.8756 23.653 39.1275C23.4137 39.1275 23.187 39.1527 22.9477 39.1527C22.7462 39.1527 22.5321 39.1527 22.3306 39.1527C22.2676 39.1527 22.192 39.1527 22.1291 39.1527C21.9905 39.1527 21.852 39.1401 21.7135 39.1275C21.6379 39.1275 21.5623 39.1149 21.4742 39.1023C21.3482 39.1023 21.2223 39.0771 21.0963 39.0645C21.0208 39.0645 20.9326 39.0393 20.857 39.0393C20.7311 39.0267 20.6178 39.0016 20.4918 38.989C20.4162 38.989 20.3281 38.9638 20.2525 38.9512C20.1266 38.926 20.0132 38.9134 19.8873 38.8882C19.8117 38.8756 19.7362 38.863 19.6606 38.8504C19.5221 38.8252 19.3961 38.8 19.2702 38.7623C19.2072 38.7497 19.1442 38.7371 19.0813 38.7245C18.8923 38.6741 18.6908 38.6237 18.5019 38.5733C18.313 38.523 18.1241 38.46 17.9352 38.397C17.8722 38.3718 17.8092 38.3592 17.7589 38.3341C17.6329 38.2963 17.507 38.2459 17.381 38.2081C17.3055 38.1829 17.2425 38.1577 17.1669 38.1325C17.0536 38.0948 16.9402 38.0444 16.8269 38.0066C16.7513 37.9814 16.6758 37.9436 16.6128 37.9184C16.4994 37.8681 16.3987 37.8303 16.2853 37.7799C16.2098 37.7421 16.1468 37.7169 16.0712 37.6792C15.9579 37.6288 15.8571 37.5784 15.7438 37.528C15.6808 37.4902 15.6052 37.4651 15.5423 37.4273C15.4289 37.3643 15.3156 37.3013 15.1896 37.2509C15.1393 37.2258 15.0763 37.188 15.0259 37.1628C14.8622 37.0746 14.6859 36.9739 14.5221 36.8731C14.3584 36.7724 14.1947 36.6716 14.031 36.5709C13.9806 36.5331 13.9302 36.4953 13.8672 36.4701C13.7539 36.3945 13.6531 36.3316 13.5398 36.256C13.4768 36.2182 13.4138 36.1678 13.3635 36.1301C13.2627 36.0545 13.1746 35.9915 13.0738 35.916C13.0108 35.8656 12.9479 35.8278 12.8849 35.7774C12.7967 35.7019 12.696 35.6389 12.6078 35.5633C12.5448 35.5129 12.4819 35.4626 12.4315 35.4122C12.3433 35.3366 12.2426 35.2611 12.1544 35.1729C12.104 35.1225 12.0411 35.0721 11.9907 35.0218C11.8899 34.9336 11.8018 34.8455 11.701 34.7573C11.6506 34.7195 11.6129 34.6691 11.5625 34.6313C11.424 34.4928 11.2854 34.3669 11.1469 34.2283C11.0083 34.0898 10.8824 33.9513 10.7565 33.8127C10.7187 33.7623 10.6683 33.712 10.6305 33.6742C10.5424 33.5734 10.4542 33.4853 10.3786 33.3845C10.3283 33.3215 10.2779 33.2712 10.2401 33.2082C10.1645 33.12 10.089 33.0193 10.0134 32.9311C9.96302 32.8682 9.91264 32.8052 9.87486 32.7422C9.79929 32.654 9.73632 32.5533 9.66076 32.4651C9.61038 32.4022 9.5726 32.3392 9.52222 32.2762C9.45925 32.1755 9.38368 32.0747 9.32071 31.9866C9.28293 31.9236 9.23255 31.8606 9.19477 31.7976C9.1192 31.6843 9.05623 31.5835 8.98067 31.4702C8.94288 31.4198 8.9177 31.3694 8.87991 31.3065C8.77916 31.1427 8.67841 30.979 8.59025 30.8027C7.87237 29.5307 6.39885 28.8884 5.00088 29.2914H4.9757C3.06137 29.8581 2.16718 32.0369 3.13693 33.7749C7.01596 40.7144 14.434 45.4246 22.9351 45.4246C35.8064 45.4246 46.2093 34.6439 45.5796 21.6341L45.6047 21.5459Z" fill="#541E80"/>
<path d="M3.40045 26.0673C5.27846 26.0673 6.8009 24.5448 6.8009 22.6668C6.8009 20.7888 5.27846 19.2664 3.40045 19.2664C1.52243 19.2664 0 20.7888 0 22.6668C0 24.5448 1.52243 26.0673 3.40045 26.0673Z" fill="#541E80"/>
</svg>
