<svg width="87" height="80" viewBox="0 0 87 80" fill="none" xmlns="http://www.w3.org/2000/svg">
<path d="M64.7314 5.66138C66.187 5.66138 67.5062 6.82384 67.5062 8.42412C67.5062 9.14877 67.2181 9.87343 66.6267 10.3112C66.187 10.7491 65.4592 11.0359 64.7314 11.0359H53.7988C52.3431 11.0359 51.0239 9.87343 51.0239 8.27315C51.0239 7.5485 51.312 6.82384 51.7518 6.38603C52.328 5.94822 53.0709 5.66138 53.7988 5.66138H64.7314Z" fill="white"/>
<path d="M73.92 11.0359C75.3757 11.0359 76.6949 12.1983 76.6949 13.7986C76.6949 14.5233 76.4068 15.2479 75.8154 15.6857C75.3757 16.1235 74.6479 16.4104 73.92 16.4104H44.7614C43.3058 16.4104 41.9866 15.2479 41.9866 13.6476C41.9866 12.923 42.2747 12.1983 42.7144 11.7605C43.1541 11.3227 43.882 10.8849 44.6098 10.8849H73.92V11.0359Z" fill="white"/>
<path d="M83.8367 47.329V54.5906H34.6931V27.4463H43.8819C46.9449 27.4463 49.4165 24.9855 49.4165 21.9359H34.8296V16.4255H84.1096V47.3441H83.8215L83.8367 47.329Z" fill="white"/>
<path d="M18.2261 2.03809C22.2594 2.03809 25.5195 5.28393 25.5195 9.29972C25.5195 13.3155 22.2594 16.5614 18.2261 16.5614C14.1927 16.5614 10.9326 13.3155 10.9326 9.29972C10.9326 5.28393 14.1927 2.03809 18.2261 2.03809Z" fill="#C0AED1"/>
<path d="M49.28 21.9208C49.28 24.9704 46.8085 27.4312 43.7455 27.4312H27.2632V78.2324H8.90074V54.5755C5.83779 54.5755 3.36621 52.1147 3.36621 49.0651V27.4312C3.36621 24.3816 5.83779 21.9208 8.90074 21.9208H49.28Z" fill="#C0AED1"/>
<path d="M75.4061 79.244C74.6783 79.244 74.3599 79.6969 73.9201 78.9571L63.867 55.3002C63.4273 54.4246 63.867 53.2621 64.8829 52.9753C65.7624 52.5375 66.9299 52.9753 67.218 53.9868L77.2712 77.6437C77.7109 78.5193 77.9383 77.4323 76.9224 77.7192C76.7708 77.7192 75.6942 79.2289 75.4061 79.2289V79.244Z" fill="#541E80"/>
<path d="M43.5637 79.2439C42.7449 78.3683 42.4265 80.1195 42.1384 79.9837C41.2589 79.5459 40.8192 78.5344 41.1224 77.6587L51.1756 54.0018C51.6153 53.1262 52.6312 52.6884 53.5107 52.9903C54.3901 53.4281 54.8299 54.4396 54.5266 55.3152L44.4735 78.9722C44.1854 79.6968 44.0641 79.7874 43.5637 79.259V79.2439Z" fill="#541E80"/>
<path d="M59.3331 79.9836C58.3172 79.9836 57.4377 79.108 57.4377 78.0965V63.7242C57.4377 62.7127 58.3172 61.837 59.3331 61.837C60.3491 61.837 61.0769 62.7127 61.0769 63.7242V78.2474C61.0769 79.2589 60.1974 79.9836 59.3331 79.9836Z" fill="#541E80"/>
<path d="M18.226 79.9838C17.21 79.9838 16.3306 79.1081 16.3306 78.0967V54.5756C16.3306 53.5641 17.21 52.6885 18.226 52.6885C19.2419 52.6885 20.1213 53.5641 20.1213 54.5756V78.2325C20.1213 79.244 19.2419 79.9687 18.226 79.9687V79.9838Z" fill="#541E80"/>
<path d="M83.8366 56.4627H34.693C33.6771 56.4627 32.7976 55.5871 32.7976 54.5756V27.4312C32.7976 26.4197 33.6771 25.5441 34.693 25.5441C35.7089 25.5441 36.5884 26.4197 36.5884 27.4312V52.8394H82.2293V18.2976H74.0715C73.0556 18.2976 72.1761 17.4219 72.1761 16.4104C72.1761 15.3989 75.9063 14.3422 76.9222 14.3422L84.1247 14.5233C85.1406 14.5233 86.02 15.3989 86.02 16.4104V54.4397C85.7319 55.6021 84.8525 56.4778 83.8366 56.4778V56.4627Z" fill="#541E80"/>
<path d="M34.4655 23.3852C33.4496 23.3852 32.7976 22.9323 32.7976 21.9208V16.4104C32.7976 15.3989 33.6771 14.5233 34.693 14.5233L42.0471 14.3422C43.063 14.3422 46.6567 15.3989 46.6567 16.4104C46.6567 17.4219 45.7772 18.2976 44.7613 18.2976H36.6035V21.9208C36.4519 22.9323 35.4966 23.3852 34.4807 23.3852H34.4655Z" fill="#541E80"/>
<path d="M27.4147 79.9837C26.3988 79.9837 25.5193 79.108 25.5193 78.0965V27.4312C25.5193 26.4197 26.3988 25.544 27.4147 25.544H43.897C45.2162 25.544 46.3686 24.8194 47.1116 23.6569H9.1887C7.14168 23.6569 5.54956 25.2572 5.54956 27.2802V49.05C5.54956 51.0881 7.15685 52.6733 9.1887 52.6733C10.2046 52.6733 11.0841 53.5489 11.0841 54.5604V78.2173C11.0841 79.2288 8.18794 76.8284 8.68832 79.2288C8.9006 80.2252 7.29332 79.2288 7.29332 78.2173V56.1456C4.07874 55.2699 1.75879 52.5223 1.75879 49.1859V27.4161C1.75879 23.355 4.97336 20.1544 9.05223 20.1544H49.1434C50.1594 20.1544 51.0388 21.03 51.0388 22.0415C51.0388 26.1026 47.8394 29.3032 43.7454 29.3032H29.1585V78.2173C29.1585 79.2288 28.4307 79.9535 27.4147 79.9535V79.9837Z" fill="#541E80"/>
<path d="M18.2259 18.2975C13.2676 18.2975 9.03711 14.2364 9.03711 9.14876C9.03711 4.06108 13.116 0 18.2259 0C23.3359 0 27.4148 4.06108 27.4148 9.14876C27.4148 14.2364 23.3359 18.2975 18.2259 18.2975ZM18.2259 3.77424C15.163 3.77424 12.6914 6.23504 12.6914 9.28463C12.6914 12.3342 15.163 14.795 18.2259 14.795C21.2889 14.795 23.7605 12.3342 23.7605 9.28463C23.7605 6.23504 21.2889 3.77424 18.2259 3.77424Z" fill="#541E80"/>
<path d="M83.8367 79.9837H1.89539C0.879459 79.9837 0 79.1081 0 78.0966C0 77.0851 0.879459 76.2095 1.89539 76.2095H83.9732C84.9891 76.2095 85.8686 77.0851 85.8686 78.0966C85.7169 79.2591 84.8526 79.9837 83.8215 79.9837H83.8367Z" fill="#541E80"/>
<path d="M73.9199 18.2976H44.7613C42.2897 18.2976 40.2427 16.2595 40.2427 13.7987C40.2427 12.6362 40.6824 11.4737 41.5619 10.5981C42.4413 9.72248 43.6089 9.28467 44.7764 9.28467H53.8136C54.8296 9.28467 55.709 10.1603 55.709 11.1718C55.709 12.1833 61.2739 12.8174 60.2579 12.8174L44.6248 13.0589C44.3367 13.0589 44.0486 13.2099 44.0486 13.3457C43.897 13.4967 43.7605 13.6326 43.7605 13.9194C43.7605 14.3572 44.2002 14.7951 44.64 14.7951H73.7986C74.0867 14.7951 74.3748 14.6441 74.3748 14.5082C74.5264 14.3572 74.6629 14.0704 74.6629 13.9345C74.6629 13.4967 74.2231 13.0589 73.7834 13.0589L57.2253 12.8174C56.2094 12.8174 62.7144 12.1833 62.7144 11.1718C62.7144 10.1603 63.5938 9.28467 64.6098 9.28467H73.7986C76.2702 9.28467 78.3172 11.3228 78.3172 13.7836C78.3172 14.946 77.8774 16.1085 76.998 16.9841C76.2702 17.8597 75.1026 18.2976 73.935 18.2976H73.9199Z" fill="#541E80"/>
<path d="M64.7312 12.9229H53.7986C51.327 12.9229 49.28 10.8848 49.28 8.42402C49.28 7.26156 49.7198 6.09909 50.5992 5.22347C51.4787 4.34785 52.6462 3.91003 53.8138 3.91003H64.7464C67.218 3.91003 69.265 5.94812 69.265 8.40893C69.265 9.57139 68.8253 10.7339 67.9458 11.5944C67.0663 12.4549 65.8988 12.9078 64.7312 12.9078V12.9229ZM53.7986 7.41253C53.5105 7.41253 53.2224 7.5635 53.2224 7.69937C53.0708 7.85034 52.9343 8.13718 52.9343 8.27305C52.9343 8.71087 53.3741 9.14868 53.8138 9.14868H64.7464C65.0345 9.14868 65.3226 8.99771 65.3226 8.86184C65.4742 8.71087 65.6107 8.42402 65.6107 8.28815C65.6107 7.85034 65.1709 7.41253 64.7312 7.41253H53.7986Z" fill="#541E80"/>
<path d="M41.9865 45.5776C41.5467 45.5776 41.2586 45.4267 40.8189 45.1398C40.0911 44.5661 39.9394 43.4037 40.5308 42.5281L47.8242 33.3793C48.1123 32.9415 48.7037 32.6546 49.2799 32.6546C49.8561 32.6546 50.4475 32.9415 50.7356 33.5303L53.0707 37.0177L60.6522 28.0199C61.0919 27.5821 61.6681 27.2952 62.2595 27.4462C62.8357 27.4462 63.4271 27.884 63.7152 28.4577L66.0503 33.2434L73.3437 24.5325C73.9199 23.8078 75.0875 23.6569 75.9669 24.2456C76.6948 24.8193 76.8464 25.9818 76.255 26.8574L67.0662 37.7423C66.6265 38.1801 66.0503 38.467 65.4589 38.316C64.8827 38.316 64.2914 37.8782 64.0033 37.3045L61.6681 32.5188L54.3747 41.2297C53.935 41.6675 53.4952 41.9544 52.919 41.8034C52.3428 41.8034 51.7515 41.5166 51.4634 40.9278L49.1283 37.5913L43.4421 44.853C43.0024 45.2908 42.4262 45.5776 41.9865 45.5776Z" fill="#541E80"/>
<path d="M76.5433 32.8057C75.5274 32.8057 74.6479 31.93 74.6479 30.9185V25.4081H69.1134C68.0975 25.4081 67.218 24.5325 67.218 23.521C67.218 22.5095 68.0975 21.6339 69.1134 21.6339H76.4068C77.4228 21.6339 78.3022 22.5095 78.3022 23.521V30.7827C78.4539 32.0961 77.5744 32.8208 76.5585 32.8208L76.5433 32.8057Z" fill="#541E80"/>
<path d="M76.5433 49.216C75.5274 49.216 74.6479 48.3404 74.6479 47.3289V38.3311C74.6479 37.3196 75.5274 36.444 76.5433 36.444C77.5593 36.444 78.4387 37.3196 78.4387 38.3311V47.3289C78.4387 48.3404 77.5593 49.216 76.5433 49.216Z" fill="#541E80"/>
<path d="M71.1451 49.2161C70.1292 49.2161 69.2498 48.3405 69.2498 47.329V40.0673C69.2498 39.0558 70.1292 38.3312 71.1451 38.3312C72.1611 38.3312 73.0405 39.2068 73.0405 40.0673V47.329C72.8889 48.3405 72.1611 49.2161 71.1451 49.2161Z" fill="#541E80"/>
<path d="M65.6107 49.2161C64.5948 49.2161 63.7153 48.3405 63.7153 47.329V41.9545C63.7153 40.943 64.5948 40.0674 65.6107 40.0674C66.6266 40.0674 67.5061 40.943 67.5061 41.9545V47.4649C67.5061 48.3405 66.6266 49.201 65.6107 49.201V49.2161Z" fill="#541E80"/>
<path d="M60.2128 49.2161C59.1968 49.2161 58.3174 48.3405 58.3174 47.329V43.7057C58.3174 42.6942 59.1968 41.8186 60.2128 41.8186C61.2287 41.8186 62.1082 42.6942 62.1082 43.7057V47.329C61.9565 48.3405 61.2287 49.2161 60.2128 49.2161Z" fill="#541E80"/>
<path d="M83.8368 49.216H52.9344C51.9185 49.216 51.0391 48.3404 51.0391 47.3289C51.0391 46.3174 51.9185 45.4418 52.9344 45.4418H83.9884C85.0044 45.4418 85.8838 46.3174 85.8838 47.3289C85.7322 48.3404 84.8679 49.216 83.8368 49.216Z" fill="#541E80"/>
</svg>
