<svg width="82" height="91" viewBox="0 0 82 91" fill="none" xmlns="http://www.w3.org/2000/svg">
<path d="M31.6973 28.0273C33.0884 24.331 36.6349 21.7192 40.7929 21.7192C44.951 21.7192 48.3446 24.1783 49.7357 27.7218C49.43 28.0273 49.1243 28.18 48.8032 28.4855C48.4975 28.6382 48.1918 28.9437 47.7179 29.0964C47.565 29.2492 47.4121 29.2492 47.2593 29.4019C47.1064 29.4019 47.1064 29.5546 46.9535 29.5546C46.8007 29.5546 46.8007 29.7074 46.6478 29.7074C46.4949 29.7074 46.4949 29.8601 46.3421 29.8601C46.1892 29.8601 46.1892 30.0128 46.0363 30.0128C45.8835 30.0128 45.8835 30.0128 45.7306 30.1656C45.6287 30.1656 45.5268 30.2165 45.4248 30.3183C45.3229 30.4201 45.221 30.4711 45.1191 30.4711C45.0172 30.4711 44.9153 30.522 44.8134 30.6238C44.6605 30.6238 44.3548 30.7765 44.2019 30.7765H43.8962C43.4376 30.9293 43.1318 30.9293 42.6579 31.082H42.3522C42.0465 31.082 41.7407 31.082 41.4197 31.2347H36.4821C36.3801 31.2347 36.2782 31.1838 36.1763 31.082C35.7177 30.9293 35.1062 30.7765 34.6324 30.6238C34.4795 30.6238 34.3266 30.4711 34.1737 30.3183C34.1737 30.3183 34.0209 30.3183 34.0209 30.1656H33.868C33.7151 30.0128 33.5623 30.0128 33.4094 29.8601C33.2565 29.8601 33.2565 29.7074 33.1037 29.7074C32.9508 29.7074 32.9508 29.5546 32.7979 29.5546C32.6451 29.4019 32.4922 29.4019 32.3393 29.2492C32.1865 29.2492 32.1865 29.0964 32.0336 29.0964C31.8807 29.0964 31.8807 28.9437 31.7279 28.9437C31.575 28.9437 31.575 28.7909 31.4221 28.7909C31.8807 28.18 31.8807 28.0273 31.7279 28.0273H31.6973Z" fill="white"/>
<path d="M16.7467 79.7744C20.7519 79.7744 24.2984 82.2335 25.6895 85.777C23.2284 87.7778 19.9875 89.015 16.5939 89.015C13.2002 89.015 10.1123 87.9306 7.80396 86.0824C9.04219 82.3862 12.5734 79.7744 16.7467 79.7744Z" fill="white"/>
<path d="M65.2978 79.7744C69.3029 79.7744 72.8495 82.2335 74.2406 85.777C71.7794 87.7778 68.5386 89.015 65.1449 89.015C61.7512 89.015 58.6786 87.9306 56.355 86.0824C57.5932 82.3862 61.1245 79.7744 65.2978 79.7744Z" fill="white"/>
<path d="M40.6401 12.158C43.2541 12.158 45.4249 14.3115 45.4249 16.9386C45.4249 19.5657 43.2694 21.7193 40.6401 21.7193C38.0108 21.7193 35.8706 19.5657 35.8706 16.9386C35.8706 14.3115 38.026 12.158 40.6401 12.158Z" fill="#C0AED1"/>
<path d="M16.5939 70.2131C19.208 70.2131 21.3634 72.3667 21.3634 74.9938C21.3634 77.6209 19.208 79.7744 16.5939 79.7744C13.9799 79.7744 11.8092 77.6209 11.8092 74.9938C11.6563 72.382 13.8117 70.2131 16.5939 70.2131Z" fill="#C0AED1"/>
<path d="M64.9919 70.2131C67.6059 70.2131 69.7767 72.3667 69.7767 74.9938C69.7767 77.6209 67.6212 79.7744 64.9919 79.7744C62.3626 79.7744 60.2224 77.6209 60.2224 74.9938C60.2224 72.3667 62.3779 70.2131 64.9919 70.2131Z" fill="#C0AED1"/>
<path d="M64.9919 79.7744C67.606 79.7744 69.7767 77.6208 69.7767 74.9937C69.7767 72.3666 67.6212 70.213 64.9919 70.213C62.3626 70.213 60.2224 72.3666 60.2224 74.9937C60.2224 77.6208 62.3779 79.7744 64.9919 79.7744ZM74.2404 85.9296C72.8493 82.3862 69.3028 79.9271 65.2976 79.9271C61.2925 79.9271 57.5931 82.5389 56.202 86.2351C52.6554 83.6233 50.5 79.3009 50.5 74.5355C50.5 66.5321 56.9663 60.0561 64.839 59.9033C67.6059 59.9033 70.3882 60.667 72.8493 62.3624V62.2096C81.3182 67.6012 82.0979 79.6063 74.2404 85.9296Z" fill="white"/>
<path d="M16.5937 79.7744C19.2078 79.7744 21.3632 77.6208 21.3632 74.9938C21.3632 72.3667 19.2078 70.2131 16.5937 70.2131C13.9797 70.2131 11.809 72.3667 11.809 74.9938C11.6561 77.6056 13.8115 79.7744 16.5937 79.7744ZM25.6894 85.9297C24.2983 82.3862 20.7518 79.9272 16.7466 79.9272C12.7415 79.9272 9.04206 82.539 7.65096 86.2352C4.10442 83.6234 1.94897 79.301 1.94897 74.5356C1.94897 69.144 4.86876 64.2106 9.65353 61.7515C15.967 58.5135 23.0601 59.9034 27.5391 64.8368C28.4563 65.9212 29.3888 67.1431 29.8474 68.2275L30.0003 68.533C30.1532 68.6858 30.306 69.144 30.306 69.2967C32.0029 73.7566 31.5443 78.69 28.9149 82.6917C28.9149 82.8444 28.7621 82.8444 28.7621 82.9972C27.8296 83.9136 26.7595 84.998 25.6741 85.9297H25.6894Z" fill="white"/>
<path d="M40.793 21.7192C36.635 21.7192 33.0885 24.331 31.6974 28.0272C28.7776 25.8736 26.9279 22.7883 26.3011 19.5503C24.2985 10.4625 31.2388 1.84814 40.6401 1.84814C50.0415 1.84814 56.9818 10.4778 54.9792 19.5503C54.2148 22.9411 52.3651 25.8584 49.8887 27.8592C48.3447 24.163 44.7982 21.7039 40.793 21.7039V21.7192ZM35.8554 16.9385C35.8554 19.5503 38.0108 21.7192 40.6249 21.7192C43.2389 21.7192 45.4096 19.5656 45.4096 16.9385C45.4096 14.3115 43.2542 12.1579 40.6249 12.1579C37.9955 12.1579 35.8554 14.3115 35.8554 16.9385Z" fill="white"/>
<path d="M75.1729 61.446C80.4163 44.5075 72.7118 26.3318 56.9816 18.4811C58.2198 8.78236 50.5153 0 40.4871 0C30.459 0 22.9226 8.62962 23.9927 18.4811C8.27781 26.4845 0.726124 44.8129 6.12237 61.5987C-1.88792 68.0595 -2.34653 80.8435 6.58098 87.625C13.6741 93.0166 23.6869 91.7795 29.3889 85.0132C36.9406 87.4723 45.1038 87.3196 52.3497 84.8605C58.0517 91.7948 68.3856 93.0166 75.4634 87.3196C83.7794 80.6908 83.6265 67.922 75.1576 61.446H75.1729ZM40.64 3.69623C47.5802 3.69623 53.2822 9.39331 53.2822 16.3276C53.2822 18.1757 52.9765 19.871 52.1968 21.5664C51.993 21.9737 51.8401 22.2283 51.7382 22.3301C51.5854 22.6356 51.2796 22.9411 51.2796 22.9411C51.2796 23.0938 50.9739 23.2465 50.9739 23.3993C50.6682 23.7047 50.3624 24.1629 50.0567 24.6364C48.9713 23.0938 47.4426 21.8719 45.7458 20.9402C46.6783 19.8558 47.1369 18.3284 47.1369 16.7858C47.1369 13.0895 44.049 10.0043 40.3496 10.0043C36.6502 10.0043 33.8832 13.2423 33.8832 16.9385C33.8832 18.4811 34.4947 20.0238 35.4272 21.2457C33.7304 22.1621 32.3393 23.3993 31.2692 24.9419C30.1838 23.7047 29.2666 22.3301 28.808 20.7875C28.5023 20.0238 28.5023 19.5503 28.3494 19.0921C26.4997 11.2414 32.5074 3.69623 40.6859 3.69623H40.64ZM34.1737 27.4162C35.5648 25.1099 38.026 23.72 40.7929 23.72C43.4069 23.72 45.8834 25.1099 47.2745 27.2635C43.728 29.4171 39.2642 29.8753 35.2591 28.0272C35.1062 28.0272 35.1062 27.8744 34.9533 27.8744C35.1062 27.7217 34.6476 27.569 34.189 27.4162H34.1737ZM37.7202 16.9385C37.7202 15.3959 38.9585 14.006 40.6553 14.006C42.3521 14.006 43.5904 15.2431 43.5904 16.9385C43.5904 18.6339 42.3521 19.871 40.6553 19.871C38.9585 19.871 37.7202 18.4811 37.7202 16.9385ZM10.1275 85.4715C11.5186 83.1651 13.9798 81.7752 16.762 81.7752C19.376 81.7752 21.8525 83.1651 23.2283 85.3187C19.2232 87.7778 14.1327 87.7778 10.1275 85.4715ZM16.6091 77.9263C15.0652 77.9263 13.6741 76.6891 13.6741 74.9937C13.6741 73.4511 14.9123 72.0612 16.6091 72.0612C18.306 72.0612 19.5442 73.2983 19.5442 74.9937C19.3913 76.5364 18.1531 77.9263 16.6091 77.9263ZM26.1634 82.7069C25.078 81.1643 23.5493 79.9424 21.8525 79.0107C22.7697 77.9263 23.2436 76.3989 23.2436 74.8562C23.2436 71.16 20.1557 68.0747 16.4563 68.0747C12.7569 68.0747 9.66891 71.16 9.66891 74.8562C9.66891 76.3989 10.2804 77.9415 11.2129 79.1634C9.51605 80.0798 8.12494 81.317 7.05487 82.8596C1.96436 77.3153 2.89685 68.2275 9.36318 63.7676C12.7569 61.4612 17.3735 61.003 21.2257 62.5304C21.6844 62.6831 22.3111 62.9886 22.7697 63.2941C22.7697 63.2941 23.3812 63.5996 24.1608 64.2105C30.1685 68.9912 30.7953 77.3 26.1634 82.6916V82.7069ZM49.751 81.6225C43.7432 83.3179 37.4145 83.3179 31.4068 81.6225C33.4093 77.468 33.5622 72.5347 31.8654 68.2275C31.5596 67.4638 30.9482 66.2266 30.3214 65.2949C29.236 63.5996 27.2335 61.5987 25.5519 60.5143C20.92 57.429 14.6066 56.818 9.36318 59.4298C5.20516 44.9504 11.6715 29.4018 24.9252 22.1621C25.9952 24.9266 27.8449 27.401 30.3214 29.4018C31.8654 30.639 34.1737 31.7081 36.3291 32.3344C36.9406 32.4871 37.7202 32.6398 38.1788 32.6398C38.9432 32.7926 40.64 32.7926 41.2668 32.7926C44.8133 32.6398 48.207 31.2499 50.821 29.2491C53.1293 27.401 54.979 24.9419 55.9115 22.1621C69.1652 29.4018 75.6468 44.7977 71.6264 59.2771C69.3181 58.3607 67.0098 57.7345 64.5333 57.8872C60.3753 57.8872 56.0491 59.4298 52.8236 62.6679C47.886 67.754 46.8159 75.4519 49.7357 81.6072L49.751 81.6225ZM58.6937 85.4715C60.0848 83.1651 62.546 81.7752 65.3129 81.7752C67.927 81.7752 70.4035 83.1651 71.7793 85.3187C67.7741 87.7778 62.6836 87.7778 58.6785 85.4715H58.6937ZM65.0072 77.9263C63.4632 77.9263 62.0874 76.6891 62.0874 74.9937C62.0874 73.4511 63.3256 72.0612 65.0072 72.0612C66.5512 72.0612 67.9423 73.2983 67.9423 74.9937C67.9423 76.5364 66.704 77.9263 65.0072 77.9263ZM74.7143 82.7069C73.629 81.1643 72.1003 79.9424 70.4035 79.0107C71.3207 77.9263 71.7945 76.3989 71.7945 74.8562C71.7945 71.16 68.7066 68.0747 65.0072 68.0747C61.3078 68.0747 58.2199 71.16 58.2199 74.8562C58.2199 76.3989 58.8313 77.9415 59.7638 79.1634C58.067 80.0798 56.6759 81.317 55.6058 82.8596C53.4504 80.5533 52.365 77.468 52.365 74.3828C52.365 67.6013 57.9141 61.7514 64.8543 61.7514C67.3155 61.7514 69.6391 62.5151 71.7945 63.905C72.1003 64.0578 72.2532 64.2105 72.5589 64.2105C78.5666 68.6704 79.4991 77.1473 74.7143 82.6916V82.7069Z" fill="#541E80"/>
<path d="M30.1226 58.1622C29.878 58.1622 29.6334 58.04 29.4958 57.8261C29.2513 57.4748 29.3583 57.0014 29.6946 56.7722C30.0462 56.5279 30.5506 56.6042 30.7799 56.9555C31.0092 57.3068 30.9634 57.765 30.6118 57.9941L30.5506 58.04C30.413 58.1316 30.2755 58.1774 30.1226 58.1774V58.1622ZM32.7061 56.3904C32.4615 56.3904 32.2169 56.2682 32.0793 56.0544C31.8347 55.7031 31.9264 55.2296 32.278 55.0005L33.5468 54.1452C33.8984 53.9161 34.3723 53.9924 34.6016 54.3437C34.8462 54.695 34.7545 55.1685 34.4029 55.3976L33.1341 56.2529C32.9965 56.3446 32.8589 56.3904 32.7061 56.3904ZM36.4972 53.8092C36.2526 53.8092 36.008 53.687 35.8704 53.4731C35.6259 53.1218 35.7176 52.6484 36.0692 52.4193L37.338 51.5639C37.6896 51.3348 38.1635 51.4112 38.3928 51.7625C38.6374 52.1138 38.5456 52.5873 38.194 52.8164L36.9252 53.6717C36.7877 53.7633 36.6501 53.8092 36.4972 53.8092ZM40.2883 51.2279C40.0437 51.2279 39.7992 51.1057 39.6616 50.8919C39.417 50.5406 39.5087 50.0671 39.8603 49.838L41.1291 48.9827C41.4807 48.7536 41.9546 48.8299 42.1992 49.1812C42.4438 49.5325 42.3521 50.006 42.0005 50.2351L40.7317 51.0904C40.5941 51.1821 40.4565 51.2279 40.3036 51.2279H40.2883ZM44.0795 48.6467C43.8349 48.6467 43.5903 48.5245 43.4527 48.3106C43.2081 47.9593 43.2998 47.4859 43.6514 47.2568L44.9202 46.4014C45.2718 46.1723 45.7457 46.2487 45.975 46.6C46.2196 46.9513 46.1279 47.4248 45.7763 47.6539L44.5075 48.5092C44.3699 48.6008 44.2323 48.6467 44.0795 48.6467ZM47.8706 46.0654C47.626 46.0654 47.3814 45.9432 47.2438 45.7294C46.9993 45.3781 47.091 44.9046 47.4426 44.6755L48.7114 43.8202C49.063 43.5911 49.5369 43.6674 49.7815 44.0187C50.026 44.37 49.9343 44.8435 49.5827 45.0726L48.3139 45.9279C48.1763 46.0196 48.0388 46.0654 47.8859 46.0654H47.8706ZM51.6617 43.4842C51.4171 43.4842 51.1726 43.362 51.035 43.1481C50.7904 42.7968 50.8821 42.3234 51.2337 42.0943L52.5025 41.2389C52.8541 41.0098 53.328 41.0862 53.5573 41.4375C53.8019 41.7888 53.7102 42.2623 53.3586 42.4914L52.0898 43.3467C51.9522 43.4383 51.8146 43.4842 51.6617 43.4842Z" fill="#541E80"/>
<path d="M40.4415 61.0183C40.4415 61.0183 40.3957 61.0183 40.3651 61.0183C39.8453 60.9572 39.3103 60.8809 38.7905 60.7434C38.3778 60.6365 38.1332 60.2241 38.2249 59.827C38.3319 59.4146 38.7294 59.1702 39.1421 59.2619C39.5855 59.3688 40.0441 59.4452 40.5027 59.491C40.9154 59.5368 41.2212 59.9034 41.1906 60.331C41.1447 60.7281 40.8237 61.0183 40.4262 61.0183H40.4415ZM43.4072 60.9114C43.0403 60.9114 42.7193 60.6518 42.6581 60.2852C42.5817 59.8728 42.8568 59.4757 43.2696 59.3993C43.7282 59.323 44.1715 59.2008 44.6148 59.0633C45.0123 58.9258 45.4403 59.155 45.5779 59.5521C45.7002 59.9492 45.4862 60.3768 45.0887 60.5143C44.5843 60.6823 44.0645 60.8045 43.5447 60.8961C43.4989 60.8961 43.453 60.8961 43.4072 60.8961V60.9114ZM36.2071 59.659C36.0848 59.659 35.9472 59.6284 35.8249 59.5521C35.3663 59.2924 34.923 58.9869 34.495 58.6662C34.1586 58.4065 34.0975 57.9331 34.3574 57.597C34.6172 57.261 35.1064 57.1999 35.4274 57.4596C35.7943 57.7498 36.1765 58.0094 36.574 58.2233C36.9408 58.4371 37.0631 58.8953 36.8644 59.2619C36.7268 59.5062 36.467 59.6437 36.2071 59.6437V59.659ZM47.5193 59.2313C47.2747 59.2313 47.0301 59.1091 46.8926 58.8953C46.6633 58.544 46.755 58.0705 47.0913 57.8414C47.4735 57.5818 47.8403 57.2916 48.1767 56.9861C48.4977 56.6959 48.9716 56.7264 49.262 57.0472C49.5525 57.3679 49.5219 57.8414 49.2009 58.1316C48.8034 58.4829 48.3754 58.8189 47.9474 59.1091C47.8098 59.2008 47.6722 59.2466 47.5193 59.2466V59.2313ZM32.8898 56.6959C32.6605 56.6959 32.4312 56.589 32.2784 56.3904C31.9726 55.9627 31.6822 55.5198 31.4223 55.0463C31.2236 54.6798 31.3612 54.2063 31.728 54.0077C32.0949 53.8092 32.5688 53.9466 32.7675 54.3132C32.9816 54.7256 33.2414 55.1074 33.5013 55.474C33.7459 55.81 33.6847 56.2988 33.3332 56.5432C33.1956 56.6501 33.0427 56.6959 32.8745 56.6959H32.8898ZM50.6073 56.0238C50.4697 56.0238 50.3321 55.9933 50.2098 55.9017C49.8582 55.6726 49.7359 55.2143 49.9652 54.8478C50.2098 54.4507 50.4238 54.0383 50.6073 53.6259C50.7754 53.244 51.234 53.0608 51.6162 53.244C51.9984 53.4121 52.1818 53.8703 51.9984 54.2521C51.7843 54.7409 51.5398 55.2143 51.2493 55.6573C51.1117 55.8864 50.8519 56.0238 50.6073 56.0238ZM31.0707 52.6484C30.7191 52.6484 30.3981 52.404 30.3216 52.0527C30.2146 51.5334 30.1382 50.9988 30.0923 50.4795C30.0618 50.0518 30.3828 49.6853 30.7955 49.6547C31.2236 49.6242 31.5905 49.9449 31.621 50.3573C31.6516 50.8155 31.728 51.2737 31.8198 51.7319C31.9115 52.1443 31.6516 52.5567 31.2389 52.6484C31.1777 52.6484 31.1319 52.6636 31.0707 52.6636V52.6484ZM52.1359 51.8541C52.1359 51.8541 52.0595 51.8541 52.0289 51.8541C51.6162 51.793 51.3257 51.4112 51.3716 50.9988C51.4328 50.5406 51.4633 50.0824 51.4633 49.6242C51.4633 49.1965 51.7996 48.7994 52.2277 48.7994C52.6557 48.7994 52.992 49.0743 52.992 49.502H52.2277L52.992 49.5936C52.992 50.1588 52.9614 50.6933 52.885 51.2126C52.8391 51.5945 52.5028 51.8694 52.1359 51.8694V51.8541ZM31.0554 48.219C31.0554 48.219 30.9484 48.219 30.9025 48.2037C30.4898 48.1121 30.2146 47.715 30.3064 47.3026C30.4134 46.7833 30.5662 46.264 30.7344 45.7599C30.872 45.3628 31.3153 45.149 31.7128 45.3017C32.1102 45.4392 32.3242 45.8821 32.1714 46.2792C32.0185 46.7069 31.8962 47.1651 31.8045 47.6081C31.728 47.9746 31.407 48.219 31.0554 48.219ZM51.7843 47.3179C51.448 47.3179 51.1423 47.104 51.0506 46.768C50.9283 46.3251 50.7601 45.8974 50.5614 45.4697C50.378 45.0879 50.5614 44.6297 50.9436 44.4617C51.3257 44.2937 51.7843 44.4617 51.9525 44.8435C52.1818 45.3323 52.3652 45.8363 52.5181 46.3403C52.6404 46.7375 52.4111 47.1651 51.9984 47.2873C51.9219 47.3026 51.8608 47.3179 51.7843 47.3179ZM32.8287 44.1562C32.6758 44.1562 32.523 44.1104 32.3854 44.0187C32.0491 43.7744 31.9573 43.3009 32.2019 42.9496C32.5077 42.5219 32.844 42.1095 33.2261 41.7277C33.5166 41.4222 34.0058 41.4069 34.3115 41.6971C34.6172 41.9873 34.6325 42.4761 34.3421 42.7816C34.0211 43.1176 33.7306 43.4689 33.4554 43.8507C33.3026 44.0646 33.0733 44.1715 32.8287 44.1715V44.1562ZM49.6595 43.4231C49.4455 43.4231 49.2314 43.3314 49.0786 43.1634C48.7728 42.8121 48.4518 42.4761 48.1002 42.1706C47.7792 41.8957 47.7486 41.4069 48.0391 41.0862C48.3142 40.7655 48.8034 40.7349 49.1244 41.0251C49.5219 41.3764 49.9041 41.7582 50.2404 42.1554C50.5155 42.4761 50.485 42.9649 50.1639 43.2398C50.0264 43.362 49.8429 43.4231 49.6595 43.4231ZM36.1154 41.1626C35.8555 41.1626 35.5956 41.0251 35.458 40.7807C35.244 40.4142 35.3663 39.956 35.7332 39.7421C36.1918 39.4672 36.6657 39.2381 37.1549 39.0243C37.5523 38.8562 37.9956 39.0548 38.1485 39.4366C38.3167 39.8338 38.1179 40.2767 37.7358 40.4294C37.3077 40.5974 36.895 40.8113 36.4975 41.0404C36.3752 41.1167 36.2376 41.1473 36.1154 41.1473V41.1626ZM46.1435 40.7349C46.0365 40.7349 45.9142 40.7044 45.8072 40.6585C45.3945 40.46 44.9664 40.292 44.5231 40.1545C44.1256 40.0323 43.8963 39.6047 44.0186 39.1923C44.1409 38.7952 44.569 38.566 44.9817 38.6882C45.4862 38.841 45.9906 39.0395 46.4645 39.2686C46.8467 39.4519 46.9996 39.9101 46.8314 40.292C46.6938 40.5669 46.434 40.7196 46.1435 40.7196V40.7349ZM40.3345 39.7727C39.9523 39.7727 39.616 39.4825 39.5702 39.1006C39.5243 38.6882 39.8301 38.3064 40.2428 38.2606C40.6708 38.2148 41.0989 38.1842 41.5422 38.1842H41.8326C42.2607 38.1842 42.597 38.5508 42.5817 38.9632C42.5817 39.3908 42.1842 39.7421 41.8021 39.7116H41.5422C41.16 39.7116 40.7931 39.7268 40.411 39.7727C40.3804 39.7727 40.3498 39.7727 40.3192 39.7727H40.3345Z" fill="#541E80"/>
</svg>
