<svg width="78" height="80" viewBox="0 0 78 80" fill="none" xmlns="http://www.w3.org/2000/svg">
<path d="M59.3157 78.102H38.8733V68.7315C38.8733 60.7211 45.3696 54.3396 53.2217 54.3396C57.1552 54.3396 60.8057 55.9686 63.3833 58.5541C65.961 61.1395 67.585 64.801 67.585 68.7465V78.1169H59.3306L59.3157 78.102Z" fill="white"/>
<path d="M54.3095 37.4818C58.6453 37.8853 61.8934 41.5617 61.8934 45.8958C61.8934 50.6482 58.1089 54.4592 53.3559 54.4592C48.6029 54.4592 44.8184 50.6482 44.8184 45.8958C44.8184 43.7288 45.6378 41.6813 47.1129 40.1868C48.6029 38.5578 50.8974 37.4668 53.341 37.4668C53.7433 37.3323 54.0115 37.3323 54.2946 37.4668L54.3095 37.4818Z" fill="#C0AED1"/>
<path d="M54.7116 6.24702V35.5838C54.7116 36.2564 54.5775 36.8093 54.3093 37.3473H53.4899C51.0463 37.3473 48.7518 38.4383 47.2618 40.0673H25.5976V49.1687L11.7856 40.0673H6.22797C3.78442 40.0673 1.75806 38.0348 1.75806 35.5838V6.24702C1.75806 3.79606 3.78442 1.76355 6.22797 1.76355H50.1076C52.6853 1.76355 54.7116 3.79606 54.7116 6.24702Z" fill="white"/>
<path d="M47.3959 10.7305H27.3558C26.4022 10.7305 25.5977 9.90852 25.5977 8.96699C25.5977 8.02546 26.4171 7.20349 27.3558 7.20349H47.3959C48.3495 7.20349 49.1541 8.02546 49.1541 8.96699C49.1541 9.90852 48.3346 10.7305 47.3959 10.7305Z" fill="#541E80"/>
<path d="M16.3896 10.7305H9.07384C8.12026 10.7305 7.31567 9.90852 7.31567 8.96699C7.31567 8.02546 8.13516 7.20349 9.07384 7.20349H16.3896C17.3432 7.20349 18.1478 8.02546 18.1478 8.96699C18.1478 9.90852 17.3283 10.7305 16.3896 10.7305Z" fill="#541E80"/>
<path d="M23.6905 32.7293H9.07384C8.12026 32.7293 7.31567 31.9073 7.31567 30.9658C7.31567 30.0242 8.13516 29.2023 9.07384 29.2023H23.7054C24.6589 29.2023 25.4635 30.0242 25.4635 30.9658C25.3294 31.9222 24.644 32.7293 23.7054 32.7293H23.6905Z" fill="#541E80"/>
<path d="M31.0063 18.0684H10.9662C10.0126 18.0684 9.20801 17.2464 9.20801 16.3049C9.20801 15.3634 10.0275 14.6759 10.9662 14.6759H31.0063C31.9599 14.6759 32.7645 15.4979 32.7645 16.3049C32.6304 17.2614 31.945 18.0684 31.0063 18.0684Z" fill="#541E80"/>
<path d="M47.396 25.4063H20.0401C19.0866 25.4063 18.282 24.5992 18.282 23.6428C18.282 22.6863 19.1015 21.8793 20.0401 21.8793H47.396C48.3496 21.8793 49.1542 22.7012 49.1542 23.6428C49.1542 24.5843 48.3347 25.4063 47.396 25.4063Z" fill="#541E80"/>
<path d="M14.4824 25.4063H9.05895C8.10537 25.4063 7.30078 24.5992 7.30078 23.6428C7.30078 22.6863 8.12027 21.8793 9.05895 21.8793H14.4824C15.436 21.8793 16.2406 22.7012 16.2406 23.6428C16.2406 24.5843 15.4211 25.4063 14.4824 25.4063Z" fill="#541E80"/>
<path d="M47.3961 32.7293H29.1141C28.1605 32.7293 27.356 31.9073 27.356 30.9658C27.356 30.0242 28.1605 29.2023 29.1141 29.2023H47.3961C48.3497 29.2023 49.1542 30.0242 49.1542 30.9658C49.0201 31.9222 48.3348 32.7293 47.3961 32.7293Z" fill="#541E80"/>
<path d="M67.8384 79.8655C66.8848 79.8655 66.0802 79.0435 66.0802 78.102V68.7316C66.0802 65.3391 64.7243 62.0811 62.4298 59.7646C59.9862 57.3137 56.8722 56.1031 53.49 56.1031C46.4424 56.1031 40.7656 61.8121 40.7656 68.8661V78.2365C40.7656 79.193 39.9461 80 39.0074 80C38.0688 80 37.2493 79.178 37.2493 78.2365V68.8661C37.2493 60.0336 44.4309 52.6957 53.3708 52.6957C57.7066 52.6957 61.7593 54.3247 64.7392 57.4482C67.7192 60.4371 69.4774 64.5171 69.4774 68.8511V78.2216C69.4774 79.0286 68.8069 79.8505 67.8533 79.8505L67.8384 79.8655Z" fill="#541E80"/>
<path d="M25.4636 50.9322C25.1954 50.9322 24.7931 50.7977 24.51 50.6632L11.2344 41.8307H6.22808C2.84585 41.8307 0 38.9763 0 35.5838V6.24696C0 2.85447 2.84585 0 6.22808 0H50.1077C53.49 0 56.3358 2.85447 56.3358 6.24696V35.5838C56.3358 36.4058 56.2017 37.3473 55.7994 38.0347C55.3971 38.8418 54.4436 39.2602 53.639 38.8418C52.8195 38.4383 52.4172 37.4818 52.8195 36.6748C52.9536 36.2713 53.0877 36.0022 53.0877 35.5838V6.24696C53.0877 4.75247 51.8659 3.39249 50.2418 3.39249H6.22808C4.73811 3.39249 3.38224 4.61797 3.38224 6.24696V35.5838C3.38224 37.0783 4.60401 38.4383 6.22808 38.4383H11.7857C12.0539 38.4383 12.4562 38.5728 12.7393 38.7073L23.8395 46.0452V40.0673C23.8395 39.1108 24.659 38.3038 25.5977 38.3038H47.2619C48.2155 38.3038 49.0201 39.1257 49.0201 40.0673C49.0201 41.0088 48.2006 41.8307 47.2619 41.8307H27.2218V49.3032C27.2218 49.9757 26.8195 50.5287 26.2682 50.7977C26 50.9322 25.7318 50.9322 25.4487 50.9322H25.4636Z" fill="#541E80"/>
<path d="M53.49 56.1031C47.9324 56.1031 43.3284 51.4851 43.3284 45.9107C43.3284 43.3252 44.282 40.8892 46.0401 38.9762C47.9324 36.9437 50.6441 35.7183 53.49 35.7183H54.5777C59.7181 36.2563 63.6516 40.6052 63.6516 45.9107C63.6516 51.4851 59.0476 56.1031 53.49 56.1031ZM53.49 39.1257C51.5977 39.1257 49.8395 39.9477 48.4837 41.2927C47.2619 42.5182 46.7255 44.1472 46.7255 45.9107C46.7255 49.7067 49.7054 52.6957 53.49 52.6957C57.2745 52.6957 60.2544 49.7067 60.2544 45.9107C60.2544 42.3837 57.6768 39.5292 54.1605 39.1257H53.49Z" fill="#541E80"/>
<path d="M76.2418 79.8655H8.53746C7.58388 79.8655 6.7793 79.0435 6.7793 78.102C6.7793 77.1605 7.59878 76.3385 8.53746 76.3385H76.2418C77.1953 76.3385 77.9999 77.1605 77.9999 78.102C77.9999 79.0435 77.1804 79.8655 76.2418 79.8655Z" fill="#541E80"/>
<path d="M3.51633 79.8655H1.75817C0.804584 79.8655 0 79.0435 0 78.102C0 77.1605 0.819484 76.3385 1.75817 76.3385H3.51633C4.46991 76.3385 5.2745 77.1605 5.2745 78.102C5.1404 79.0585 4.45501 79.8655 3.51633 79.8655Z" fill="#541E80"/>
<path d="M47.5301 79.8655C46.5766 79.8655 45.772 79.0436 45.772 78.102V67.9096C45.772 66.9531 46.5915 66.1461 47.5301 66.1461C48.4688 66.1461 49.2883 66.9681 49.2883 67.9096V78.102C49.1542 79.0585 48.4688 79.8655 47.5301 79.8655Z" fill="#541E80"/>
<path d="M59.3158 79.8655C58.3622 79.8655 57.5576 79.0436 57.5576 78.102V67.9096C57.5576 66.9531 58.3771 66.1461 59.3158 66.1461C60.2545 66.1461 61.074 66.9681 61.074 67.9096V78.102C61.074 79.0585 60.2545 79.8655 59.3158 79.8655Z" fill="#541E80"/>
</svg>
