<svg width="84" height="63" viewBox="0 0 84 63" fill="none" xmlns="http://www.w3.org/2000/svg">
<path d="M48.6595 34.5211L51.2046 37.4676L44.7551 50.1824L41.6636 44.4222L48.6595 34.5211Z" fill="#C0AED1"/>
<path d="M34.4145 34.5211L41.6636 44.4222L38.3056 50.1824L31.9893 37.4676L34.4145 34.5211Z" fill="#C0AED1"/>
<path d="M26.4859 60.4816H18.6904V42.2854L28.8978 38.808L31.9893 37.4675L38.3056 50.1823L41.6636 44.4222L44.7551 50.1823L51.2047 37.4675L64.2371 42.2854V60.4816H56.4416H26.4859Z" fill="white"/>
<path d="M81.9264 63H2.07364C0.948954 63 0 62.0678 0 61C0 59.9322 0.966527 59 2.07364 59H81.9264C83.051 59 84 59.9322 84 61C84 62.0678 83.0335 63 81.9264 63Z" fill="#541E80"/>
<path d="M16.5449 10.8434C19.9029 10.8434 22.5947 13.9225 22.5947 17.6653C22.5947 21.4081 19.9029 24.4873 16.5449 24.4873C13.1869 24.4873 10.4951 21.4081 10.4951 17.6653C10.4951 13.9225 13.1869 10.8434 16.5449 10.8434Z" fill="#C0AED1"/>
<path d="M66.5156 10.8434C69.8736 10.8434 72.5654 13.9225 72.5654 17.6653C72.5654 21.4081 69.8736 24.4873 66.5156 24.4873C63.1576 24.4873 60.4658 21.4081 60.4658 17.6653C60.4658 13.9225 63.1576 10.8434 66.5156 10.8434Z" fill="#C0AED1"/>
<path d="M30.1104 12.8475C30.1104 12.0379 30.2436 11.1089 30.3769 10.2993C31.0431 10.8302 31.9893 11.2416 32.9354 11.2416H45.8345C47.0471 11.2416 48.1131 10.4453 48.5262 9.50293L53.2301 11.7725V11.6398C53.3634 12.0379 53.3634 12.4361 53.3634 12.7148C53.3634 19.1386 49.1925 30.6456 41.6769 30.6456C34.1613 30.6456 30.1237 19.2713 30.1237 12.8475H30.1104Z" fill="#C0AED1"/>
<path d="M53.35 8.56058V11.9052L48.6461 9.63564C48.1131 10.578 47.167 11.3743 45.9544 11.3743H33.0553C32.1092 11.3743 31.3096 10.9761 30.4968 10.432C29.2842 9.48964 28.4846 7.8837 28.4846 6.27776V1.73865H45.6879C47.0337 1.73865 48.0998 2.8137 48.6461 3.87548C48.7794 4.0082 48.7794 4.14092 48.9126 4.40637L53.35 8.54731V8.56058Z" fill="white"/>
<path d="M64.9033 40.8123L51.7377 35.9944C50.9248 35.729 49.8588 36.1271 49.5923 36.9368C49.3258 37.7464 49.7256 38.8081 50.5251 39.0736L62.6113 43.4932V58.8758H20.4361V43.4932L29.4441 40.2814L32.6689 39.0736C33.4817 38.6754 34.0148 37.7331 33.615 36.9368C33.2152 36.1404 32.2691 35.5963 31.4696 35.9944L28.3781 37.2022L18.304 40.8123C17.6377 41.0777 17.2246 41.6219 17.2246 42.4182V60.6144C17.2246 61.5568 18.0241 62.3531 18.9703 62.3531H64.5169C65.4497 62.3531 66.2625 61.5568 66.2625 60.6144V42.2855C65.996 41.6219 65.5962 40.945 64.9166 40.8123H64.9033Z" fill="#541E80"/>
<path d="M44.7549 51.7883C44.0887 51.7883 43.5423 51.5229 43.2758 50.992L40.1843 45.3778C39.9178 44.8469 39.9178 44.1701 40.3175 43.6392L47.3001 33.7381C47.5666 33.3399 48.0996 33.0745 48.646 33.0745C49.1923 33.0745 49.7254 33.2072 49.9919 33.6054L52.4171 36.5518C52.8169 37.0827 52.9501 37.7596 52.6836 38.4232L46.2341 50.8726C45.9675 51.4034 45.4212 51.8149 44.7549 51.8149V51.7883ZM43.5423 44.5682L44.6217 46.5723L49.0591 37.7463L48.6593 37.3481L43.5556 44.5682H43.5423Z" fill="#541E80"/>
<path d="M38.3054 51.7883C38.2166 51.7883 38.2166 51.7883 38.3054 51.7883C37.6391 51.7883 37.0928 51.3901 36.8263 50.846L30.51 38.2639C30.2435 37.733 30.2434 37.0561 30.6432 36.5252L32.9219 33.5788C33.1884 33.1806 33.7214 32.9152 34.2678 32.9152C34.8141 32.9152 35.3471 33.1806 35.6136 33.5788L42.8627 43.4799C43.2625 44.0108 43.2625 44.6876 42.996 45.3513L39.6379 50.9654C39.3714 51.4963 38.8251 51.7618 38.2921 51.7618L38.3054 51.7883ZM34.0012 37.733L38.4386 46.559L39.6513 44.5549L34.2811 37.3348L34.0146 37.733H34.0012Z" fill="#541E80"/>
<path d="M41.7969 32.3843C37.9058 32.3843 34.268 29.7033 31.5895 25.0314C29.5774 21.4214 28.3647 16.6036 28.3647 12.8608C28.3647 11.9185 28.498 10.9894 28.6313 10.0471C28.7645 9.10474 29.7106 8.57385 30.6434 8.70657C31.5895 8.83929 32.1225 9.78162 31.9893 10.7107C31.856 11.3743 31.856 12.1839 31.856 12.8475C31.856 16.0594 32.9354 20.2003 34.681 23.4122C36.0269 25.9605 38.4388 29.0264 41.7969 29.0264C45.1549 29.0264 47.5668 25.9472 48.9127 23.4122C50.6583 20.2003 51.7377 16.0594 51.7377 12.8475C51.7377 12.7148 51.7377 12.5821 51.6045 12.1839C51.3379 11.2416 51.871 10.3125 52.8171 10.1798C53.7632 9.91434 54.696 10.4452 54.8292 11.3876C54.9625 11.9185 55.0957 12.4626 55.0957 12.9935C55.0957 16.7363 53.8831 21.5541 51.871 25.1642C49.3125 29.7165 45.8212 32.3843 41.7969 32.3843Z" fill="#541E80"/>
<path d="M53.3502 13.5112C53.0837 13.5112 52.8172 13.5112 52.6839 13.3784L49.1926 11.6398C48.3931 12.4361 47.1805 12.9803 45.9678 12.9803H33.0687C31.8561 12.9803 30.5102 12.5821 29.4442 11.7725C27.8318 10.432 26.7524 8.42788 26.7524 6.29105V1.73866C26.7524 0.796335 27.552 0 28.4981 0H45.5547C47.5669 0 49.1793 1.47322 49.9921 2.81372C50.1254 2.94644 50.2587 3.07916 50.2587 3.34461L54.6961 7.35283C55.0958 7.61827 55.2291 8.14916 55.2291 8.5606V11.9052C55.2291 12.4361 54.9626 12.9803 54.4162 13.2457C53.8832 13.3784 53.6167 13.5112 53.3369 13.5112H53.3502ZM29.9772 3.34461V6.29105C29.9772 7.3661 30.5102 8.42788 31.4564 9.10476C31.7229 9.37021 32.2692 9.63565 32.9355 9.63565H45.8346C46.6474 9.63565 46.9139 8.97204 47.0472 8.83932C47.447 8.02971 48.3931 7.63154 49.3259 8.02971L51.4713 9.10476L47.5802 5.49471C47.3137 5.36199 47.1805 5.09654 47.1805 4.8311C47.1805 4.8311 47.0472 4.69838 47.0472 4.56565C46.6474 3.90204 45.9678 3.35788 45.5681 3.35788H29.9772V3.34461Z" fill="#541E80"/>
<path d="M80.0945 44.0241H66.5291C65.583 44.0241 64.7835 43.2277 64.7835 42.2854C64.7835 41.3431 65.5963 40.5467 66.5291 40.5467H78.4821V32.9152L72.8454 30.7784L68.0083 34.2557C67.4752 34.6539 66.6624 34.6539 65.9961 34.2557L61.1589 30.7784L60.2128 31.1765C59.4 31.5747 58.3339 31.0438 58.0674 30.2342C57.6677 29.4379 58.2007 28.3628 59.0135 28.0974L60.8924 27.4338C61.4254 27.1683 61.9718 27.301 62.5048 27.6992L67.0755 31.0438L71.6461 27.6992C72.0459 27.4338 72.7255 27.301 73.2585 27.4338L80.9207 30.2475C81.587 30.5129 82 31.0571 82 31.8534V42.2854C81.7335 43.3605 81.0539 44.0241 80.1211 44.0241H80.0945Z" fill="#541E80"/>
<path d="M74.1778 44.0241C73.2317 44.0241 72.4321 43.2278 72.4321 42.2854V36.6713C72.4321 35.729 73.2317 34.9326 74.1778 34.9326C75.1239 34.9326 75.9234 35.729 75.9234 36.6713V42.2854C75.9234 43.3605 75.1239 44.0241 74.1778 44.0241Z" fill="#541E80"/>
<path d="M17.3445 44.0241H3.77909C2.83298 44.0241 2.03345 43.2277 2.03345 42.2854V31.8534C2.03345 31.1898 2.43321 30.5129 3.11281 30.2475L10.775 27.4337C11.308 27.301 11.8544 27.301 12.3874 27.6992L16.958 31.0438L21.5287 27.6992C21.9284 27.301 22.608 27.301 23.1411 27.4337L25.02 28.0974C25.8195 28.4955 26.3658 29.4379 25.9528 30.2342C25.553 31.0438 24.6069 31.5747 23.8073 31.1765L22.8612 30.7784L18.0241 34.2557C17.491 34.6539 16.6782 34.6539 16.0119 34.2557L11.1748 30.7784L5.53806 32.9152V40.5467H17.491C18.4372 40.5467 19.2367 41.3431 19.2367 42.2854C19.1034 43.3605 18.2906 44.0241 17.3578 44.0241H17.3445Z" fill="#541E80"/>
<path d="M10.3619 44.0241C9.42907 44.0241 8.61621 43.2278 8.61621 42.2854V36.6713C8.61621 35.729 9.42907 34.9326 10.3619 34.9326C11.2946 34.9326 12.1075 35.729 12.1075 36.6713V42.2854C12.1075 43.3605 11.308 44.0241 10.3619 44.0241Z" fill="#541E80"/>
<path d="M16.5449 25.9605C12.2408 25.9605 8.74951 22.2177 8.74951 17.5326C8.74951 12.8475 12.2408 9.10474 16.5449 9.10474C20.8491 9.10474 24.3404 12.8475 24.3404 17.5326C24.3404 22.2177 20.8491 25.9605 16.5449 25.9605ZM16.5449 12.4493C14.133 12.4493 12.1075 14.7189 12.1075 17.5326C12.1075 20.3463 14.1197 22.6159 16.5449 22.6159C18.9702 22.6159 20.9823 20.3463 20.9823 17.5326C20.9823 14.7189 18.9702 12.4493 16.5449 12.4493Z" fill="#541E80"/>
<path d="M66.5156 25.9605C62.2115 25.9605 58.7202 22.2177 58.7202 17.5326C58.7202 12.8475 62.2115 9.10474 66.5156 9.10474C70.8198 9.10474 74.3111 12.8475 74.3111 17.5326C74.1778 22.2177 70.6865 25.9605 66.5156 25.9605ZM66.5156 12.4493C64.1037 12.4493 62.0782 14.7189 62.0782 17.5326C62.0782 20.3463 64.0904 22.6159 66.5156 22.6159C68.9409 22.6159 70.953 20.3463 70.953 17.5326C70.8198 14.7189 68.8076 12.4493 66.5156 12.4493Z" fill="#541E80"/>
</svg>
