<svg width="157" height="37" viewBox="0 0 157 37" fill="none" xmlns="http://www.w3.org/2000/svg">
<path d="M35.3674 17.5944C34.9279 8.57921 27.6024 1.29279 18.5871 0.902096C11.7012 0.599309 5.62591 4.29136 2.4906 9.84896C1.78735 11.0992 2.25618 12.6913 3.57477 13.2871C4.74685 13.8145 6.07521 13.3261 6.68078 12.242C6.68078 12.242 6.68078 12.2322 6.68078 12.2224C6.74915 12.0954 6.82729 11.9685 6.90543 11.8415C6.93473 11.8024 6.96403 11.7536 6.98357 11.7145C7.04217 11.6266 7.09101 11.5387 7.14961 11.4606C7.17892 11.4117 7.21798 11.3629 7.24729 11.3141C7.29612 11.2359 7.35473 11.1578 7.40356 11.0894C7.44263 11.0406 7.4817 10.982 7.52077 10.9331C7.56961 10.8648 7.62821 10.7866 7.67705 10.7183C7.71612 10.6694 7.75519 10.6108 7.80402 10.562C7.86263 10.4936 7.91146 10.4252 7.97007 10.3569C8.00914 10.308 8.05797 10.2494 8.09704 10.2006C8.15565 10.1322 8.20448 10.0736 8.26309 10.0052C8.31192 9.9564 8.35099 9.90757 8.39983 9.85873C8.45843 9.80013 8.51704 9.73175 8.57564 9.67315C8.62448 9.62431 8.67332 9.57548 8.71238 9.52664C8.77099 9.46804 8.82959 9.40943 8.89796 9.34106C8.9468 9.29222 8.99564 9.24339 9.04447 9.20432C9.11284 9.14572 9.17145 9.08711 9.23982 9.02851C9.28866 8.98944 9.33749 8.9406 9.38633 8.90153C9.4547 8.84293 9.52307 8.78432 9.59144 8.72572C9.64028 8.68665 9.68912 8.64758 9.73795 8.60851C9.81609 8.54991 9.89423 8.48154 9.97237 8.42293C10.0114 8.39363 10.0603 8.35456 10.0993 8.32526C10.197 8.24712 10.3045 8.17875 10.4021 8.10061C10.4217 8.08108 10.451 8.07131 10.4705 8.05178C10.5975 7.96387 10.7245 7.87596 10.8514 7.79782C10.8905 7.76852 10.9296 7.74899 10.9686 7.72945C11.0565 7.67085 11.1542 7.61225 11.2421 7.55364C11.291 7.52434 11.3398 7.49504 11.3984 7.46574C11.4765 7.4169 11.5644 7.36806 11.6426 7.31923C11.7012 7.28992 11.7598 7.26062 11.8086 7.23132C11.8868 7.19225 11.9649 7.14341 12.043 7.10434C12.1016 7.07504 12.1602 7.04574 12.2189 7.01644C12.297 6.97737 12.3751 6.9383 12.4533 6.89923C12.5119 6.86993 12.5802 6.84063 12.6388 6.81133C12.717 6.77226 12.7951 6.74295 12.883 6.70388C12.9416 6.67458 13.01 6.65505 13.0686 6.62575C13.1467 6.59644 13.2347 6.55737 13.3128 6.52807C13.3812 6.50854 13.4398 6.47924 13.5081 6.4597C13.5863 6.4304 13.6742 6.4011 13.7621 6.3718C13.8305 6.35226 13.8891 6.33273 13.9574 6.30342C14.0453 6.27412 14.1332 6.25459 14.2114 6.22529C14.2798 6.20575 14.3384 6.18622 14.4067 6.16668C14.4946 6.13738 14.5825 6.11785 14.6802 6.09831C14.7388 6.07878 14.8072 6.06901 14.8658 6.04947C14.9635 6.02994 15.0611 6.01041 15.1588 5.99087C15.2174 5.9811 15.276 5.96157 15.3346 5.9518C15.4518 5.93227 15.5593 5.91273 15.6765 5.8932C15.7156 5.8932 15.7644 5.87366 15.8035 5.87366C15.9597 5.84436 16.116 5.82483 16.2821 5.80529C16.3211 5.80529 16.3504 5.80529 16.3895 5.79552C16.5165 5.78576 16.6434 5.76622 16.7607 5.75645C16.8193 5.75645 16.8779 5.75645 16.9365 5.74669C17.0439 5.74669 17.1416 5.73692 17.249 5.72715C17.3174 5.72715 17.3858 5.72715 17.4444 5.72715C17.542 5.72715 17.6397 5.72715 17.7374 5.72715C17.7765 5.72715 17.8253 5.72715 17.8644 5.72715C18.1281 5.72715 18.3918 5.72715 18.6458 5.75645C18.6751 5.75645 18.6946 5.75645 18.7239 5.75645C18.9192 5.76622 19.1146 5.79552 19.3197 5.81506C23.3341 6.29366 26.7819 8.63781 28.7647 11.9685C29.507 13.2187 29.0577 14.8303 27.7782 15.514C26.5768 16.1489 25.1019 15.7289 24.4085 14.5666C23.0703 12.3103 20.609 10.7964 17.796 10.7964C14.5044 10.7964 11.7012 12.8671 10.5975 15.7777C10.2752 16.6177 10.1091 17.5358 10.1091 18.4833C10.1091 19.4307 10.2849 20.3488 10.5975 21.1888C11.6914 24.0995 14.5044 26.1702 17.796 26.1702C20.609 26.1702 23.0606 24.6562 24.4085 22.4C25.1019 21.2377 26.5866 20.8079 27.7782 21.4525C29.0577 22.1363 29.507 23.7479 28.7647 24.9981C26.6257 28.5925 22.7773 31.0343 18.343 31.2296C18.1574 31.2296 17.9816 31.2492 17.796 31.2492C17.6397 31.2492 17.4737 31.2492 17.3174 31.2492C17.2686 31.2492 17.21 31.2492 17.1611 31.2492C17.0537 31.2492 16.9462 31.2394 16.8388 31.2296C16.7802 31.2296 16.7216 31.2199 16.6532 31.2101C16.5555 31.2101 16.4579 31.1906 16.3602 31.1808C16.3016 31.1808 16.2332 31.1613 16.1746 31.1613C16.0769 31.1515 15.989 31.132 15.8914 31.1222C15.8328 31.1222 15.7644 31.1027 15.7058 31.0929C15.6081 31.0734 15.5202 31.0636 15.4225 31.0441C15.3639 31.0343 15.3053 31.0245 15.2467 31.0147C15.1393 30.9952 15.0416 30.9757 14.9439 30.9464C14.8951 30.9366 14.8463 30.9268 14.7974 30.9171C14.6509 30.878 14.4946 30.8389 14.3481 30.7999C14.2016 30.7608 14.0551 30.712 13.9086 30.6631C13.8598 30.6436 13.8109 30.6338 13.7719 30.6143C13.6742 30.585 13.5765 30.5459 13.4788 30.5166C13.4202 30.4971 13.3714 30.4775 13.3128 30.458C13.2249 30.4287 13.137 30.3896 13.0491 30.3603C12.9905 30.3408 12.9319 30.3115 12.883 30.292C12.7951 30.2529 12.717 30.2236 12.6291 30.1845C12.5705 30.1552 12.5216 30.1357 12.463 30.1064C12.3751 30.0673 12.297 30.0282 12.2091 29.9892C12.1602 29.9599 12.1016 29.9403 12.0528 29.911C11.9649 29.8622 11.877 29.8134 11.7793 29.7743C11.7403 29.7548 11.6914 29.7255 11.6523 29.7059C11.5254 29.6376 11.3886 29.5594 11.2617 29.4813C11.1347 29.4031 11.0077 29.325 10.8807 29.2469C10.8417 29.2176 10.8026 29.1883 10.7538 29.1687C10.6658 29.1101 10.5877 29.0613 10.4998 29.0027C10.451 28.9734 10.4021 28.9343 10.3631 28.905C10.2849 28.8464 10.2166 28.7976 10.1384 28.739C10.0896 28.6999 10.0407 28.6706 9.9919 28.6315C9.92353 28.5729 9.84539 28.5241 9.77702 28.4655C9.72819 28.4264 9.67935 28.3873 9.64028 28.3483C9.57191 28.2897 9.49377 28.2311 9.4254 28.1627C9.38633 28.1236 9.33749 28.0846 9.29842 28.0455C9.22029 27.9771 9.15191 27.9087 9.07378 27.8404C9.03471 27.8111 9.0054 27.772 8.96634 27.7427C8.85889 27.6353 8.75145 27.5376 8.64401 27.4301C8.53657 27.3227 8.4389 27.2153 8.34123 27.1078C8.31192 27.0688 8.27285 27.0297 8.24355 27.0004C8.17518 26.9222 8.10681 26.8539 8.04821 26.7757C8.00914 26.7269 7.97007 26.6878 7.94077 26.639C7.88216 26.5706 7.82356 26.4925 7.76495 26.4241C7.72588 26.3753 7.68682 26.3264 7.65751 26.2776C7.59891 26.2092 7.55007 26.1311 7.49147 26.0627C7.4524 26.0139 7.4231 25.965 7.38403 25.9162C7.33519 25.8381 7.27659 25.7599 7.22775 25.6916C7.19845 25.6427 7.15938 25.5939 7.13008 25.545C7.07147 25.4571 7.02264 25.379 6.96403 25.2911C6.93473 25.252 6.9152 25.213 6.8859 25.1641C6.80776 25.0371 6.72962 24.9102 6.66125 24.7734C6.10451 23.7869 4.96173 23.2888 3.87756 23.6014H3.85803C2.37339 24.0409 1.67991 25.7306 2.432 27.0785C5.44033 32.4603 11.1933 36.1133 17.7862 36.1133C27.7684 36.1133 35.8362 27.7525 35.3479 17.6628L35.3674 17.5944Z" fill="white"/>
<path d="M2.63718 21.101C4.09365 21.101 5.27435 19.9203 5.27435 18.4638C5.27435 17.0074 4.09365 15.8267 2.63718 15.8267C1.1807 15.8267 0 17.0074 0 18.4638C0 19.9203 1.1807 21.101 2.63718 21.101Z" fill="white"/>
<path d="M54.8826 21.6179C54.5114 22.0477 54.0328 22.3798 53.4663 22.6337C52.8998 22.8779 52.2552 23.0049 51.5715 23.0049C50.7217 23.0049 49.9501 22.8095 49.2762 22.4188C48.6022 22.0281 48.065 21.4909 47.6841 20.8072C47.3032 20.1235 47.1078 19.3324 47.1078 18.4631C47.1078 17.5938 47.3032 16.7929 47.6841 16.1092C48.065 15.4254 48.6022 14.8882 49.2664 14.4975C49.9403 14.1069 50.712 13.9115 51.5715 13.9115C52.5775 13.9115 53.437 14.1557 54.1403 14.6441C54.697 15.0347 55.1073 15.5133 55.371 16.1092C55.4003 16.1678 55.4686 16.1971 55.5272 16.1678L57.2561 15.2008C57.3147 15.1715 57.3342 15.1031 57.3049 15.0445C57.1096 14.6734 56.8849 14.3217 56.6114 13.9896C56.0449 13.2962 55.3124 12.7492 54.4431 12.3585C53.5836 11.9678 52.6068 11.7725 51.5422 11.7725C50.292 11.7725 49.1394 12.0655 48.1236 12.632C47.1078 13.2083 46.2971 14.0092 45.7111 15.0347C45.1348 16.0505 44.8418 17.2031 44.8418 18.4631C44.8418 19.7231 45.1348 20.8756 45.7111 21.8914C46.2874 22.9072 47.098 23.7179 48.1236 24.2942C49.1394 24.8704 50.292 25.1537 51.5422 25.1537C52.6264 25.1537 53.6324 24.9388 54.531 24.5286C55.4296 24.1086 56.1817 23.5323 56.7677 22.8095C56.9923 22.5263 57.1877 22.2333 57.3537 21.9305C57.383 21.8719 57.3537 21.8035 57.3049 21.7742L55.5663 20.7975C55.5077 20.7682 55.4393 20.7975 55.41 20.8463C55.2733 21.1198 55.0975 21.3835 54.8924 21.6277L54.8826 21.6179Z" fill="white"/>
<path d="M65.4801 21.1977C66.9905 21.1977 68.2149 19.9733 68.2149 18.4629C68.2149 16.9525 66.9905 15.728 65.4801 15.728C63.9697 15.728 62.7452 16.9525 62.7452 18.4629C62.7452 19.9733 63.9697 21.1977 65.4801 21.1977Z" fill="white"/>
<path d="M72.337 18.0823C72.1514 14.5563 69.2114 11.6945 65.6757 11.5968C62.7064 11.5089 60.1571 13.3159 59.112 15.8944C58.7213 16.8614 57.9888 17.633 56.9535 17.887C56.0646 18.1116 55.0781 17.8967 54.3553 17.34C53.9256 17.0079 53.5935 16.5684 53.154 16.2461C52.3042 15.621 51.0735 15.5624 50.1652 16.0898C49.2568 16.6172 48.7001 17.7112 48.827 18.766C48.9443 19.8111 49.7256 20.7586 50.7317 21.0711C51.4349 21.286 52.2358 21.2079 52.8707 20.8269C53.3981 20.5046 53.7888 20.0065 54.2967 19.6451C55.2051 18.9809 56.4358 18.8246 57.4614 19.2739C58.0767 19.5474 58.4869 19.987 58.819 20.4949C58.9655 20.7097 59.073 20.9442 59.1706 21.1786C60.2255 23.6204 62.6478 25.3394 65.4803 25.3394C69.397 25.3394 72.5519 22.0576 72.337 18.0921V18.0823ZM65.4803 23.0441C62.9506 23.0441 60.8897 20.993 60.8897 18.4535C60.8897 15.914 62.9408 13.8628 65.4803 13.8628C68.0198 13.8628 70.071 15.914 70.071 18.4535C70.071 20.993 68.0198 23.0441 65.4803 23.0441Z" fill="white"/>
<path d="M103.123 22.5267V14.0878H109.98V12.0562H100.916V24.5486H110.107V22.5267H103.123Z" fill="white"/>
<path d="M135.131 14.1654C134.711 13.4915 134.096 12.964 133.304 12.6026C132.533 12.2412 131.605 12.0654 130.56 12.0654H126.038V24.5578H128.245V20.9342H130.56C131.605 20.9342 132.533 20.7486 133.304 20.397C134.096 20.0356 134.711 19.5081 135.131 18.8342C135.551 18.1602 135.766 17.3789 135.766 16.4998C135.766 15.6207 135.551 14.8393 135.131 14.1654ZM132.777 18.2384C132.23 18.6584 131.449 18.8733 130.443 18.8733H128.245V14.1166H130.443C131.449 14.1166 132.23 14.3314 132.777 14.7514C133.304 15.1617 133.558 15.7282 133.558 16.49C133.558 17.2519 133.304 17.8282 132.777 18.2286V18.2384Z" fill="white"/>
<path d="M139.624 22.4974V12.0562H137.417V24.5486H146.129V22.4974H139.624Z" fill="white"/>
<path d="M150.016 22.5267V19.1863H156.355V17.1547H150.016V14.0878H156.873V12.0562H147.809V24.5486H157V22.5267H150.016Z" fill="white"/>
<path d="M121.379 21.6184C121.008 22.0482 120.529 22.3803 119.962 22.6342C119.396 22.8784 118.751 23.0054 118.068 23.0054C117.218 23.0054 116.446 22.81 115.772 22.4193C115.098 22.0286 114.561 21.4914 114.18 20.8077C113.799 20.124 113.604 19.3329 113.604 18.4636C113.604 17.5943 113.799 16.7934 114.18 16.1096C114.561 15.4259 115.098 14.8887 115.762 14.498C116.436 14.1073 117.208 13.912 118.068 13.912C119.074 13.912 119.933 14.1562 120.636 14.6445C121.193 15.0352 121.603 15.5138 121.867 16.1096C121.896 16.1682 121.965 16.1975 122.023 16.1682L123.752 15.2013C123.811 15.172 123.83 15.1036 123.801 15.045C123.606 14.6738 123.381 14.3222 123.108 13.9901C122.541 13.2967 121.808 12.7497 120.939 12.359C120.08 11.9683 119.103 11.7729 118.038 11.7729C116.788 11.7729 115.636 12.066 114.62 12.6325C113.604 13.2087 112.793 14.0097 112.207 15.0352C111.631 16.051 111.338 17.2036 111.338 18.4636C111.338 19.7236 111.631 20.8761 112.207 21.8919C112.783 22.9077 113.594 23.7184 114.62 24.2947C115.636 24.8709 116.788 25.1542 118.038 25.1542C119.122 25.1542 120.128 24.9393 121.027 24.5291C121.926 24.1091 122.678 23.5328 123.264 22.81C123.488 22.5268 123.684 22.2338 123.85 21.931C123.879 21.8724 123.85 21.804 123.801 21.7747L122.062 20.798C122.004 20.7687 121.935 20.798 121.906 20.8468C121.769 21.1203 121.594 21.384 121.388 21.6282L121.379 21.6184Z" fill="white"/>
<path d="M82.9246 11.9878V20.6514L76.2437 12.0562H74.3098V24.5486H76.5172V15.885L83.1981 24.4802H85.1515V11.9878H82.9246Z" fill="white"/>
<path d="M118.155 21.1396C119.666 21.1396 120.89 19.9152 120.89 18.4048C120.89 16.8944 119.666 15.6699 118.155 15.6699C116.645 15.6699 115.42 16.8944 115.42 18.4048C115.42 19.9152 116.645 21.1396 118.155 21.1396Z" fill="white"/>
<path d="M117.345 17.2524H98.4449V11.9878H96.2277V20.6514L89.5468 12.0562H87.6129V24.5486H89.8203V15.885L96.5012 24.4802H98.4449V19.284H117.345V17.2524Z" fill="white"/>
</svg>
