<svg width="37" height="37" viewBox="0 0 37 37" fill="none" xmlns="http://www.w3.org/2000/svg">
<path d="M36.2099 17.1077C35.7599 7.87774 28.2599 0.417743 19.0299 0.0177427C11.9799 -0.292257 5.75995 3.48774 2.54995 9.17774C1.82995 10.4577 2.30995 12.0877 3.65995 12.6977C4.85995 13.2377 6.21995 12.7377 6.83995 11.6277C6.83995 11.6277 6.83995 11.6177 6.83995 11.6077C6.90995 11.4777 6.98995 11.3477 7.06995 11.2177C7.09995 11.1777 7.12995 11.1277 7.14995 11.0877C7.20995 10.9977 7.25995 10.9077 7.31995 10.8277C7.34995 10.7777 7.38995 10.7277 7.41995 10.6777C7.46995 10.5977 7.52995 10.5177 7.57995 10.4477C7.61995 10.3977 7.65995 10.3377 7.69995 10.2877C7.74995 10.2177 7.80995 10.1377 7.85995 10.0677C7.89995 10.0177 7.93995 9.95774 7.98995 9.90774C8.04995 9.83774 8.09995 9.76774 8.15995 9.69774C8.19995 9.64774 8.24995 9.58774 8.28995 9.53774C8.34995 9.46774 8.39995 9.40774 8.45995 9.33774C8.50995 9.28774 8.54995 9.23774 8.59995 9.18774C8.65995 9.12774 8.71995 9.05774 8.77995 8.99774C8.82995 8.94774 8.87995 8.89774 8.91995 8.84774C8.97995 8.78774 9.03995 8.72774 9.10995 8.65774C9.15995 8.60774 9.20995 8.55774 9.25995 8.51774C9.32995 8.45774 9.38995 8.39774 9.45995 8.33774C9.50995 8.29774 9.55995 8.24774 9.60995 8.20774C9.67995 8.14774 9.74995 8.08774 9.81995 8.02774C9.86995 7.98774 9.91995 7.94774 9.96995 7.90774C10.0499 7.84774 10.1299 7.77774 10.2099 7.71774C10.2499 7.68774 10.2999 7.64774 10.3399 7.61774C10.4399 7.53774 10.5499 7.46774 10.6499 7.38774C10.6699 7.36774 10.6999 7.35774 10.7199 7.33774C10.8499 7.24774 10.9799 7.15774 11.1099 7.07774C11.1499 7.04774 11.1899 7.02774 11.2299 7.00774C11.3199 6.94774 11.4199 6.88774 11.5099 6.82774C11.5599 6.79774 11.6099 6.76774 11.6699 6.73774C11.7499 6.68774 11.8399 6.63774 11.9199 6.58774C11.9799 6.55774 12.0399 6.52774 12.0899 6.49774C12.1699 6.45774 12.2499 6.40774 12.3299 6.36774C12.3899 6.33774 12.4499 6.30774 12.5099 6.27774C12.5899 6.23774 12.6699 6.19774 12.7499 6.15774C12.8099 6.12774 12.8799 6.09774 12.9399 6.06774C13.0199 6.02774 13.0999 5.99774 13.1899 5.95774C13.2499 5.92774 13.3199 5.90774 13.3799 5.87774C13.4599 5.84774 13.5499 5.80774 13.6299 5.77774C13.6999 5.75774 13.7599 5.72774 13.8299 5.70774C13.9099 5.67774 13.9999 5.64774 14.0899 5.61774C14.1599 5.59774 14.2199 5.57774 14.2899 5.54774C14.3799 5.51774 14.4699 5.49774 14.5499 5.46774C14.6199 5.44774 14.6799 5.42774 14.7499 5.40774C14.8399 5.37774 14.9299 5.35774 15.0299 5.33774C15.0899 5.31774 15.1599 5.30774 15.2199 5.28774C15.3199 5.26774 15.4199 5.24774 15.5199 5.22774C15.5799 5.21774 15.6399 5.19774 15.6999 5.18774C15.8199 5.16774 15.9299 5.14774 16.0499 5.12774C16.0899 5.12774 16.1399 5.10774 16.1799 5.10774C16.3399 5.07774 16.4999 5.05774 16.6699 5.03774C16.7099 5.03774 16.7399 5.03774 16.7799 5.02774C16.9099 5.01774 17.0399 4.99774 17.1599 4.98774C17.2199 4.98774 17.2799 4.98774 17.3399 4.97774C17.4499 4.97774 17.5499 4.96774 17.6599 4.95774C17.7299 4.95774 17.7999 4.95774 17.8599 4.95774C17.9599 4.95774 18.0599 4.95774 18.1599 4.95774C18.1999 4.95774 18.2499 4.95774 18.2899 4.95774C18.5599 4.95774 18.8299 4.95774 19.0899 4.98774C19.1199 4.98774 19.1399 4.98774 19.1699 4.98774C19.3699 4.99774 19.57 5.02774 19.7799 5.04774C23.8899 5.53774 27.4199 7.93774 29.4499 11.3477C30.2099 12.6277 29.7499 14.2777 28.4399 14.9777C27.2099 15.6277 25.6999 15.1977 24.9899 14.0077C23.6199 11.6977 21.0999 10.1477 18.2199 10.1477C14.8499 10.1477 11.9799 12.2677 10.8499 15.2477C10.5199 16.1077 10.3499 17.0477 10.3499 18.0177C10.3499 18.9877 10.5299 19.9277 10.8499 20.7877C11.9699 23.7677 14.8499 25.8877 18.2199 25.8877C21.0999 25.8877 23.6099 24.3377 24.9899 22.0277C25.6999 20.8377 27.2199 20.3977 28.4399 21.0577C29.7499 21.7577 30.2099 23.4077 29.4499 24.6877C27.2599 28.3677 23.32 30.8677 18.7799 31.0677C18.5899 31.0677 18.4099 31.0877 18.2199 31.0877C18.0599 31.0877 17.8899 31.0877 17.7299 31.0877C17.6799 31.0877 17.6199 31.0877 17.5699 31.0877C17.4599 31.0877 17.3499 31.0777 17.2399 31.0677C17.1799 31.0677 17.1199 31.0577 17.0499 31.0477C16.9499 31.0477 16.8499 31.0277 16.7499 31.0177C16.6899 31.0177 16.6199 30.9977 16.5599 30.9977C16.4599 30.9877 16.3699 30.9677 16.2699 30.9577C16.2099 30.9577 16.1399 30.9377 16.0799 30.9277C15.9799 30.9077 15.8899 30.8977 15.7899 30.8777C15.7299 30.8677 15.6699 30.8577 15.6099 30.8477C15.4999 30.8277 15.3999 30.8077 15.2999 30.7777C15.2499 30.7677 15.1999 30.7577 15.1499 30.7477C14.9999 30.7077 14.8399 30.6677 14.6899 30.6277C14.5399 30.5877 14.3899 30.5377 14.2399 30.4877C14.1899 30.4677 14.1399 30.4577 14.0999 30.4377C13.9999 30.4077 13.8999 30.3677 13.7999 30.3377C13.7399 30.3177 13.6899 30.2977 13.6299 30.2777C13.5399 30.2477 13.4499 30.2077 13.3599 30.1777C13.2999 30.1577 13.2399 30.1277 13.1899 30.1077C13.0999 30.0677 13.0199 30.0377 12.9299 29.9977C12.8699 29.9677 12.8199 29.9477 12.7599 29.9177C12.6699 29.8777 12.5899 29.8377 12.4999 29.7977C12.4499 29.7677 12.3899 29.7477 12.3399 29.7177C12.2499 29.6677 12.1599 29.6177 12.0599 29.5777C12.0199 29.5577 11.9699 29.5277 11.9299 29.5077C11.7999 29.4377 11.6599 29.3577 11.5299 29.2777C11.3999 29.1977 11.2699 29.1177 11.1399 29.0377C11.0999 29.0077 11.0599 28.9777 11.0099 28.9577C10.9199 28.8977 10.8399 28.8477 10.7499 28.7877C10.6999 28.7577 10.6499 28.7177 10.6099 28.6877C10.5299 28.6277 10.4599 28.5777 10.3799 28.5177C10.3299 28.4777 10.2799 28.4477 10.2299 28.4077C10.1599 28.3477 10.0799 28.2977 10.0099 28.2377C9.95995 28.1977 9.90995 28.1577 9.86995 28.1177C9.79995 28.0577 9.71995 27.9977 9.64995 27.9277C9.60995 27.8877 9.55995 27.8477 9.51995 27.8077C9.43995 27.7377 9.36995 27.6677 9.28995 27.5977C9.24995 27.5677 9.21995 27.5277 9.17995 27.4977C9.06995 27.3877 8.95995 27.2877 8.84995 27.1777C8.73995 27.0677 8.63995 26.9577 8.53995 26.8477C8.50995 26.8077 8.46995 26.7677 8.43995 26.7377C8.36995 26.6577 8.29995 26.5877 8.23995 26.5077C8.19995 26.4577 8.15995 26.4177 8.12995 26.3677C8.06995 26.2977 8.00995 26.2177 7.94995 26.1477C7.90995 26.0977 7.86995 26.0477 7.83995 25.9977C7.77995 25.9277 7.72995 25.8477 7.66995 25.7777C7.62995 25.7277 7.59995 25.6777 7.55995 25.6277C7.50995 25.5477 7.44995 25.4677 7.39995 25.3977C7.36995 25.3477 7.32995 25.2977 7.29995 25.2477C7.23995 25.1577 7.18995 25.0777 7.12995 24.9877C7.09995 24.9477 7.07995 24.9077 7.04995 24.8577C6.96995 24.7277 6.88995 24.5977 6.81995 24.4577C6.24995 23.4477 5.07995 22.9377 3.96995 23.2577H3.94995C2.42995 23.7077 1.71995 25.4377 2.48995 26.8177C5.56995 32.3277 11.4599 36.0677 18.2099 36.0677C28.4299 36.0677 36.6899 27.5077 36.1899 17.1777L36.2099 17.1077Z" fill="#541E80"/>
<path d="M2.7 20.6977C4.19117 20.6977 5.4 19.4889 5.4 17.9977C5.4 16.5066 4.19117 15.2977 2.7 15.2977C1.20883 15.2977 0 16.5066 0 17.9977C0 19.4889 1.20883 20.6977 2.7 20.6977Z" fill="#541E80"/>
</svg>
