<svg width="64" height="64" viewBox="0 0 64 64" fill="none" xmlns="http://www.w3.org/2000/svg">
<path d="M58.6845 23.7006C57.2212 23.7006 55.7683 24.2158 54.7275 25.3493L50.8736 27.6163H43.8871V25.0402C43.8871 19.2696 38.57 14.5295 31.9029 14.5295C25.2359 14.5295 19.9187 19.1666 19.9187 24.9372C19.9187 25.6585 20.5473 26.2767 21.2789 26.2767C22.0105 26.2767 22.6288 25.6585 22.6288 24.9372C22.6288 20.6092 26.8022 17.1057 31.9029 17.1057C37.0037 17.1057 41.177 20.6092 41.177 24.9372V28.5437C39.9302 29.5742 39.5077 31.326 40.0332 32.7686H23.6696C23.7726 32.3564 23.8757 31.9443 23.8757 31.429C23.8757 29.2651 22.1033 27.5133 19.9187 27.5133H13.0353L9.18137 25.2463C8.1406 24.2158 6.67736 23.5976 5.11106 23.5976C2.19487 23.7006 0 25.9676 0 28.8529V44.6189C0 47.5041 2.40096 49.8742 5.31715 49.8742H12.8189L21.4747 62.2397C21.8869 62.858 22.7216 62.961 23.3501 62.5488C23.9787 62.1366 24.0818 61.3123 23.6593 60.694L14.5913 47.8133C14.3852 47.5042 13.9627 47.2981 13.5505 47.2981H5.31715C3.85391 47.2981 2.7101 46.1646 2.7101 44.7219V28.9559C2.7101 27.5133 3.85391 26.2767 5.4202 26.3798C6.15182 26.3798 6.88345 26.6889 7.29563 27.3072C7.39868 27.4102 7.50172 27.5133 7.60477 27.6163L11.9842 30.1925C12.1903 30.2955 12.3964 30.3986 12.7158 30.3986H19.9084C20.64 30.3986 21.2686 31.0168 21.2686 31.7382C21.2686 32.4595 20.64 33.0778 19.9084 33.0778H11.9842C11.7781 33.0778 11.4587 32.9747 11.2526 32.8717L10.0057 32.1503C9.58324 31.9443 9.06802 31.9443 8.64553 32.1503C8.23335 32.3564 8.01695 32.8717 8.01695 33.2838V43.5884C8.01695 44.3097 8.64553 44.928 9.37715 44.928H14.6943C15.0034 44.928 15.3229 45.0311 15.529 45.2371L25.3286 58.8392C25.7408 59.4574 26.5755 59.5605 27.204 59.1483C27.8326 58.7361 27.9357 57.9118 27.5132 57.2935C16.8789 42.4549 17.6105 43.3823 17.4044 43.1762C16.6728 42.4549 15.632 42.0427 14.5913 42.0427H10.6343V35.2417C11.0465 35.3448 11.469 35.4478 11.9945 35.4478H30.553V61.7244C30.553 62.4458 31.1816 63.064 31.9132 63.064C32.6449 63.064 33.2631 62.4458 33.2631 61.7244V35.4478H51.8216C52.2338 35.4478 52.7594 35.3448 53.1715 35.2417V42.0427H49.2146C48.1738 42.0427 47.1331 42.4549 46.4014 43.1762C46.2984 43.2793 46.927 42.4549 36.3957 56.9843C35.9835 57.6026 36.0866 58.427 36.7049 58.8392C37.3334 59.2514 38.1681 59.1483 38.5803 58.53L48.3799 44.928C48.586 44.7219 48.9055 44.6189 49.2146 44.6189H54.5317C55.2634 44.6189 55.892 44.0006 55.892 43.2793V32.9747C55.892 32.4595 55.6859 32.0473 55.2634 31.8412C54.8512 31.6351 54.3257 31.6351 53.9135 31.8412L52.6666 32.5625C52.4605 32.6656 52.2544 32.7686 51.935 32.7686H44.0108C43.2792 32.7686 42.6506 32.1503 42.6506 31.429C42.6506 30.7077 43.2792 30.0894 44.0108 30.0894H51.2034C51.4095 30.0894 51.7289 29.9864 51.935 29.8833L56.3144 27.3072C56.4175 27.2042 56.5205 27.1011 56.6236 26.9981C57.1491 26.3798 57.8704 26.0707 58.7051 26.0707C60.1683 26.1737 61.3121 27.3072 61.3121 28.6468V44.4128C61.3121 45.8554 60.1683 46.9889 58.7051 46.9889H50.4717C50.0596 46.9889 49.6371 47.195 49.431 47.5041L40.363 60.3849C39.9508 61.0031 40.0538 61.8275 40.6721 62.2397C41.3007 62.6519 42.1354 62.5488 42.5475 61.9305L51.2034 49.5651H58.499C61.4152 49.5651 63.8162 47.195 63.8162 44.3097V28.9559C63.8162 26.0707 61.6316 23.8036 58.7051 23.7006H58.6845Z" fill="#4E217B"/>
<path d="M57.1282 22.3605C60.776 22.3605 63.7953 19.3722 63.7953 15.7656C63.7953 12.159 60.776 9.17065 57.1282 9.17065C53.4804 9.17065 50.4612 12.159 50.4612 15.7656C50.4612 19.3722 53.4804 22.3605 57.1282 22.3605ZM57.1282 11.8498C59.3128 11.8498 61.0852 13.6016 61.0852 15.7656C61.0852 17.9295 59.3128 19.6813 57.1282 19.6813C54.9437 19.6813 53.1713 17.9295 53.1713 15.7656C53.1713 13.6016 54.9437 11.8498 57.1282 11.8498Z" fill="#4E217B"/>
<path d="M6.66705 22.3605C10.3149 22.3605 13.3341 19.3722 13.3341 15.7656C13.3341 12.159 10.3149 9.17065 6.66705 9.17065C3.01924 9.17065 0 12.159 0 15.7656C0 19.3722 3.01924 22.3605 6.66705 22.3605ZM6.66705 11.8498C8.85162 11.8498 10.624 13.6016 10.624 15.7656C10.624 17.9295 8.85162 19.6813 6.66705 19.6813C4.48249 19.6813 2.7101 17.9295 2.7101 15.7656C2.7101 13.6016 4.48249 11.8498 6.66705 11.8498Z" fill="#4E217B"/>
<path d="M31.8924 13.1898C35.5402 13.1898 38.5594 10.2015 38.5594 6.59492C38.5594 2.98832 35.5402 0 31.8924 0C28.2446 0 25.2253 2.98832 25.2253 6.59492C25.2253 10.2015 28.2446 13.1898 31.8924 13.1898ZM31.8924 2.67919C34.077 2.67919 35.8493 4.43096 35.8493 6.59492C35.8493 8.75888 34.077 10.5107 31.8924 10.5107C29.7078 10.5107 27.9354 8.75888 27.9354 6.59492C27.9354 4.43096 29.7078 2.67919 31.8924 2.67919Z" fill="#4E217B"/>
</svg>
