<svg width="52" height="52" viewBox="0 0 52 52" fill="none" xmlns="http://www.w3.org/2000/svg">
<path d="M50.5383 0H18.2018C17.6076 0 17.1055 0.502121 17.1055 1.08793C17.1055 1.67374 17.616 2.17586 18.2018 2.17586H49.5257V49.1241H18.2018C17.6076 49.1241 17.1055 49.6263 17.1055 50.2121C17.1055 50.7979 17.616 51.3 18.2018 51.3H50.5383C51.1325 51.3 51.643 50.7979 51.643 50.2121V1.08793C51.643 0.502121 51.1325 0 50.5383 0Z" fill="#4E217B"/>
<path d="M18.2019 34.1443C18.7961 34.1443 19.3065 33.6421 19.3065 33.0563V24.5203C19.3065 20.587 16.9382 17.2395 13.5489 15.7332C15.072 14.5615 16.0846 12.7204 16.0846 10.6283C16.0846 7.11342 13.2058 4.26807 9.64909 4.26807C6.0924 4.26807 3.21357 7.11342 3.21357 10.6283C3.21357 12.7204 4.22618 14.5615 5.75765 15.7332C2.36834 17.2395 0 20.587 0 24.5203V33.0563C0 33.6421 0.510489 34.1443 1.10467 34.1443H4.15086V46.9483C4.15086 47.5341 4.66135 48.0363 5.24716 48.0363C5.83297 48.0363 6.35183 47.5341 6.35183 46.9483V29.8762C6.35183 29.2904 5.84134 28.7883 5.24716 28.7883C4.65299 28.7883 4.15086 29.2904 4.15086 29.8762V31.9684H2.03359V24.5203C2.03359 20.4196 5.4229 17.0721 9.5654 17.0721C13.7079 17.0721 17.0972 20.4196 17.0972 24.5203V31.9684H14.9799V29.8762C14.9799 29.2904 14.4694 28.7883 13.8753 28.7883C13.2811 28.7883 12.779 29.2904 12.779 29.8762V46.9483C12.779 47.5341 13.2895 48.0363 13.8753 48.0363C14.4611 48.0363 14.9799 47.5341 14.9799 46.9483V34.1443H18.1935H18.2019ZM5.24716 10.7119C5.24716 8.36872 7.19706 6.44392 9.5654 6.44392C11.9337 6.44392 13.8836 8.36872 13.8836 10.7119C13.8836 13.0552 11.9337 14.98 9.5654 14.98C7.19706 14.98 5.24716 13.0552 5.24716 10.7119Z" fill="#4E217B"/>
<path d="M9.56554 37.3245C8.97136 37.3245 8.46924 37.8266 8.46924 38.4124V46.9484C8.46924 47.5343 8.97973 48.0364 9.56554 48.0364C10.1513 48.0364 10.6702 47.5343 10.6702 46.9484V38.4124C10.6702 37.8266 10.1597 37.3245 9.56554 37.3245Z" fill="#4E217B"/>
<path d="M25.7336 9.62408C25.7336 10.2099 26.2441 10.712 26.8383 10.712H43.174L40.2115 13.0552C39.701 13.39 39.701 14.0595 40.0441 14.5616C40.3788 15.0637 41.0567 15.0637 41.5672 14.729L46.9817 10.4609C47.4922 10.0425 47.4922 9.20565 46.9817 8.78721L41.5672 4.51919C41.1404 4.18444 40.3788 4.18444 40.0441 4.68656C39.701 5.10499 39.701 5.85818 40.2115 6.19292L43.174 8.53615H26.8383C26.2441 8.53615 25.7336 9.03827 25.7336 9.62408Z" fill="#4E217B"/>
<path d="M24.6374 46.9483H46.2202C46.8144 46.9483 47.3249 46.4462 47.3249 45.8604C47.3249 45.2746 46.8144 44.7725 46.2202 44.7725H24.6374C24.0432 44.7725 23.5327 45.2746 23.5327 45.8604C23.6164 46.4462 24.0432 46.9483 24.6374 46.9483Z" fill="#4E217B"/>
<path d="M40.8058 34.1442C43.1741 34.1442 45.124 32.2194 45.124 29.8762C45.124 27.533 43.1741 25.6082 40.8058 25.6082C38.4375 25.6082 36.4875 27.533 36.4875 29.8762C36.4875 32.2194 38.4375 34.1442 40.8058 34.1442ZM40.8058 27.7003C41.9941 27.7003 42.9231 28.6209 42.9231 29.7925C42.9231 30.9641 41.9941 31.8847 40.8058 31.8847C39.6174 31.8847 38.6885 30.9641 38.6885 29.7925C38.6885 28.7046 39.6174 27.7003 40.8058 27.7003Z" fill="#4E217B"/>
<path d="M25.7337 17.072H23.6165V19.1642H25.7337V17.072Z" fill="#4E217B"/>
<path d="M31.0731 17.072H28.9558V19.1642H31.0731V17.072Z" fill="#4E217B"/>
<path d="M10.5865 23.5161H8.46924V25.6083H10.5865V23.5161Z" fill="#4E217B"/>
<path d="M36.4874 17.072H34.3701V19.1642H36.4874V17.072Z" fill="#4E217B"/>
</svg>
