<svg width="63" height="62" viewBox="0 0 63 62" fill="none" xmlns="http://www.w3.org/2000/svg">
<path d="M57.1472 22.9792C55.7223 22.9792 54.3074 23.4809 53.2939 24.5847L49.541 26.7923H42.7375C40.6102 26.7923 38.8842 28.4982 38.8842 30.6055C38.8842 31.0069 38.9846 31.5086 39.0849 31.91H34.3184L25.6887 20.8719C25.488 20.5709 25.0765 20.3702 24.7755 20.3702L7.92736 19.0657C7.41559 19.0657 6.91386 19.2664 6.71317 19.6678C6.51248 20.0691 6.51248 20.6712 6.81352 21.0726L14.3295 31.91H1.31454C0.602078 31.91 0 32.5121 0 33.2145C0 33.9169 0.612113 34.519 1.31454 34.519H6.49241V60.1073C6.49241 60.8097 7.10452 61.4118 7.80694 61.4118C8.50937 61.4118 9.13152 60.8097 9.13152 60.1073V34.4187H29.843V60.007C29.843 60.7094 30.4551 61.3115 31.1575 61.3115C31.86 61.3115 32.4721 60.7094 32.4721 60.007V34.4187H50.5444C50.9458 34.4187 51.4576 34.3183 51.859 34.218V40.8408H48.0057C46.9922 40.8408 45.9787 41.2422 45.2662 41.9446C45.1659 42.045 45.778 41.2422 35.5226 55.391C35.1212 55.9931 35.2216 56.7959 35.8236 57.1973C36.4358 57.5987 37.2486 57.4983 37.6499 56.8962L47.1929 43.6505C47.3936 43.4498 47.7046 43.3495 48.0057 43.3495H53.1836C53.896 43.3495 54.5081 42.7474 54.5081 42.045V32.0103C54.5081 31.5086 54.3074 31.1072 53.896 30.9065C53.4846 30.7058 52.9829 30.7058 52.5714 30.9065L51.3573 31.609C51.1566 31.7093 50.9559 31.8097 50.6448 31.8097H42.9282C42.2157 31.8097 41.6036 31.2076 41.6036 30.5052C41.6036 29.8027 42.2157 29.2007 42.9282 29.2007H49.9323C50.133 29.2007 50.4441 29.1003 50.6448 29L54.9095 26.4913C55.0099 26.391 55.1102 26.2906 55.2105 26.1903C55.7223 25.5882 56.4247 25.2871 57.2375 25.2871C58.6625 25.3875 59.7763 26.4913 59.7763 27.7958V43.1488C59.7763 44.5536 58.6625 45.6574 57.2375 45.6574H49.2199C48.8185 45.6574 48.4071 45.8581 48.2064 46.1592L39.3759 58.7025C38.9745 59.3046 39.0749 60.1073 39.6769 60.5087C40.2891 60.9101 41.1019 60.8097 41.5032 60.2077L49.9323 48.1661H56.9365C59.7763 48.1661 62.1144 45.8581 62.1144 43.0484V28.0968C62.1144 25.2871 59.987 23.0795 57.1372 22.9792H57.1472ZM10.4561 21.8754L23.9527 22.8788L31.0572 31.91H17.4502L10.4461 21.8754H10.4561Z" fill="#4E217B"/>
<path d="M55.6219 21.6749C59.1742 21.6749 62.1143 18.7649 62.1143 15.2527C62.1143 11.7406 59.1742 8.83057 55.6219 8.83057C52.0697 8.83057 49.1295 11.7406 49.1295 15.2527C49.1295 18.7649 52.0697 21.6749 55.6219 21.6749ZM55.6219 11.4396C57.7493 11.4396 59.4752 13.1455 59.4752 15.2527C59.4752 17.36 57.7493 19.0659 55.6219 19.0659C53.4946 19.0659 51.7686 17.36 51.7686 15.2527C51.7686 13.1455 53.4946 11.4396 55.6219 11.4396Z" fill="#4E217B"/>
<path d="M33.596 17.8616C38.5732 17.8616 42.6272 13.8478 42.6272 8.93082C42.6272 4.01385 38.5732 0 33.596 0C28.6188 0 24.5648 4.01385 24.5648 8.93082C24.5648 13.8478 28.6288 17.8616 33.596 17.8616ZM33.596 2.50866C37.1482 2.50866 40.0884 5.4187 40.0884 8.93082C40.0884 12.4429 37.1482 15.353 33.596 15.353C30.0437 15.353 27.1036 12.4429 27.1036 8.93082C27.2039 5.31836 30.0437 2.50866 33.596 2.50866Z" fill="#4E217B"/>
<path d="M35.3219 12.3424C35.8337 12.8442 36.6364 12.8442 37.1482 12.3424C37.66 11.8407 37.66 11.0379 37.1482 10.5362L34.9105 8.32858V5.01715C34.9105 4.31472 34.2984 3.71265 33.5959 3.71265C32.8935 3.71265 32.2714 4.31472 32.2714 5.01715V8.83031C32.2714 9.13135 32.3717 9.53273 32.6727 9.73343L35.3119 12.3424H35.3219Z" fill="#4E217B"/>
</svg>
