<svg width="67" height="61" viewBox="0 0 67 61" fill="none" xmlns="http://www.w3.org/2000/svg">
<path d="M38.496 22.5259C40.469 21.1305 41.7808 18.9376 41.7808 16.4458C41.7808 12.2595 38.0515 8.87061 33.4441 8.87061C28.8367 8.87061 25.1075 12.2595 25.1075 16.4458C25.1075 18.9376 26.4192 21.1305 28.4031 22.5259C24.0126 24.32 20.9446 28.307 20.9446 32.9916V43.1584C20.9446 43.8561 21.6059 44.4541 22.3647 44.4541H26.5276V59.7042C26.5276 60.4019 27.1889 61 27.9478 61C28.7067 61 29.3788 60.4019 29.3788 59.7042V39.2711C29.3788 38.5734 28.7175 37.9753 27.9478 37.9753C27.1781 37.9753 26.5276 38.5734 26.5276 39.2711V41.8626H23.7849V32.892C23.7849 28.008 28.1755 24.021 33.5417 24.021C38.9079 24.021 43.2985 28.008 43.2985 32.892V41.8626H40.5557V39.3708C40.5557 38.673 39.8945 38.075 39.1247 38.075C38.355 38.075 37.7046 38.673 37.7046 39.3708V59.7042C37.7046 60.4019 38.3659 61 39.1247 61C39.8836 61 40.5557 60.4019 40.5557 59.7042V44.3544H44.7186C45.4883 44.3544 46.1496 43.7564 46.1496 43.0587V32.892C46.0412 28.307 42.9733 24.2204 38.4743 22.5259H38.496ZM27.8611 16.4458C27.8611 13.6549 30.387 11.3624 33.455 11.3624C36.5229 11.3624 39.0489 13.6549 39.0489 16.4458C39.0489 19.2367 36.5229 21.5292 33.455 21.5292C30.387 21.5292 27.8611 19.2367 27.8611 16.4458Z" fill="#4E217B"/>
<path d="M33.4441 48.1423C32.6744 48.1423 32.0131 48.7404 32.0131 49.4381V59.6048C32.0131 60.3025 32.6744 60.9006 33.4441 60.9006C34.2138 60.9006 34.8642 60.3025 34.8642 59.6048V49.4381C34.8642 48.7404 34.2029 48.1423 33.4441 48.1423Z" fill="#4E217B"/>
<path d="M18.0934 15.1504C22.7008 15.1504 26.43 11.7615 26.43 7.5752C26.43 3.38891 22.7008 0 18.0934 0C13.486 0 9.75676 3.38891 9.75676 7.5752C9.64835 11.7615 13.486 15.1504 18.0934 15.1504ZM18.0934 2.49184C21.1614 2.49184 23.6873 4.78434 23.6873 7.5752C23.6873 10.3661 21.1614 12.6586 18.0934 12.6586C15.0254 12.6586 12.4995 10.3661 12.4995 7.5752C12.4995 4.78434 15.0254 2.49184 18.0934 2.49184Z" fill="#BDAFCE"/>
<path d="M48.8058 15.1504C53.4131 15.1504 57.1424 11.7615 57.1424 7.5752C57.1424 3.38891 53.4131 0 48.8058 0C44.1984 0 40.4691 3.38891 40.4691 7.5752C40.4691 11.7615 44.1984 15.1504 48.8058 15.1504ZM48.8058 2.49184C51.8737 2.49184 54.3997 4.78434 54.3997 7.5752C54.3997 10.3661 51.8737 12.6586 48.8058 12.6586C45.7378 12.6586 43.2119 10.3661 43.2119 7.5752C43.2119 4.78434 45.7378 2.49184 48.8058 2.49184Z" fill="#BDAFCE"/>
<path d="M16.012 40.5674C15.2423 40.5674 14.5918 41.1654 14.5918 41.8631V59.6051C14.5918 60.3028 15.2531 60.9008 16.012 60.9008C16.7708 60.9008 17.443 60.3028 17.443 59.6051V41.8631C17.3345 41.1654 16.7817 40.5674 16.012 40.5674Z" fill="#BDAFCE"/>
<path d="M11.0793 49.4382C10.3096 49.4382 9.64832 50.0363 9.64832 50.734V59.605C9.64832 60.3027 10.3096 60.9007 11.0793 60.9007C11.849 60.9007 12.5103 60.3027 12.5103 59.605V50.734C12.5103 50.0363 11.849 49.4382 11.0793 49.4382Z" fill="#BDAFCE"/>
<path d="M11.0794 14.9512C6.91649 14.9512 3.62086 18.0411 3.62086 21.8287C3.62086 23.9218 4.71579 25.8156 6.3636 27.1114C2.63434 28.7061 0 32.2944 0 36.2813V45.1523C0 45.85 0.661294 46.4481 1.42016 46.4481H4.9326V59.605C4.9326 60.3027 5.5939 60.9007 6.3636 60.9007C7.1333 60.9007 7.78376 60.3027 7.78376 59.605V41.8631C7.78376 41.1654 7.12246 40.5673 6.3636 40.5673C5.60474 40.5673 4.9326 41.1654 4.9326 41.8631V43.8565H2.85115V36.2813C2.85115 32.0951 6.58042 28.7061 11.1878 28.7061C15.3507 28.7061 18.7547 25.6163 18.7547 21.9283C18.6463 18.0411 15.2423 14.9512 11.0794 14.9512ZM11.0794 26.1146C8.44505 26.1146 6.3636 24.2208 6.3636 21.8287C6.3636 19.4365 8.44505 17.5427 11.0794 17.5427C13.7137 17.5427 15.7952 19.4365 15.7952 21.8287C15.7952 24.2208 13.7137 26.1146 11.0794 26.1146Z" fill="#BDAFCE"/>
<path d="M60.5355 27.1113C62.1833 25.8155 63.2783 23.9217 63.2783 21.8286C63.2783 18.041 59.8742 15.0508 55.8197 15.0508C51.7652 15.0508 48.3612 18.1407 48.3612 21.8286C48.3612 25.5165 51.7652 28.6064 55.8197 28.6064C60.4271 28.6064 64.1564 31.9953 64.1564 36.1816V43.8565H62.0749V41.863C62.0749 41.1653 61.4136 40.5673 60.6439 40.5673C59.8742 40.5673 59.2238 41.1653 59.2238 41.863V59.6049C59.2238 60.3026 59.8851 60.9007 60.6439 60.9007C61.4028 60.9007 62.0749 60.3026 62.0749 59.6049V46.448H65.5874C66.3571 46.448 67.0075 45.85 67.0075 45.1522V36.2813C67.0075 32.1947 64.3732 28.7061 60.5355 27.1113ZM51.1039 21.8286C51.1039 19.4364 53.1854 17.5426 55.8197 17.5426C58.4541 17.5426 60.5355 19.4364 60.5355 21.8286C60.5355 24.2208 58.4541 26.1146 55.8197 26.1146C53.1854 26.1146 51.1039 24.2208 51.1039 21.8286Z" fill="#BDAFCE"/>
<path d="M50.8872 40.5674C50.1175 40.5674 49.4562 41.1654 49.4562 41.8631V59.6051C49.4562 60.3028 50.1175 60.9008 50.8872 60.9008C51.6569 60.9008 52.3182 60.3028 52.3182 59.6051V41.8631C52.3182 41.1654 51.6569 40.5674 50.8872 40.5674Z" fill="#BDAFCE"/>
<path d="M55.8198 49.4382C55.0501 49.4382 54.3997 50.0363 54.3997 50.734V59.605C54.3997 60.3027 55.061 60.9007 55.8198 60.9007C56.5787 60.9007 57.2508 60.3027 57.2508 59.605V50.734C57.2508 50.0363 56.5895 49.4382 55.8198 49.4382Z" fill="#BDAFCE"/>
</svg>
