<svg width="62" height="61" viewBox="0 0 62 61" fill="none" xmlns="http://www.w3.org/2000/svg">
<path d="M16.1371 13.6552C17.9511 12.2598 19.1572 10.067 19.1572 7.57516C19.1572 3.38889 15.7284 0 11.4923 0C7.25621 0 3.82745 3.38889 3.82745 7.57516C3.82745 10.067 5.0335 12.2598 6.85752 13.6552C2.82075 15.4493 0 19.4363 0 24.1209V38.0752C0 38.7729 0.608006 39.3709 1.30572 39.3709H5.0335V59.7042C5.0335 60.402 5.6415 61 6.34918 61C7.05686 61 7.6549 60.402 7.6549 59.7042V34.2876C7.6549 33.5899 7.04689 32.9918 6.34918 32.9918C5.65147 32.9918 5.0335 33.5899 5.0335 34.2876V36.7794H2.51176V24.1209C2.51176 19.2369 6.54853 15.25 11.4824 15.25C16.4162 15.25 20.4529 19.2369 20.4529 24.1209V36.7794H17.9312V34.2876C17.9312 33.5899 17.3232 32.9918 16.6255 32.9918C15.9278 32.9918 15.3098 33.5899 15.3098 34.2876V59.7042C15.3098 60.402 15.9178 61 16.6255 61C17.3332 61 17.9312 60.402 17.9312 59.7042V39.3709H21.7587C22.4663 39.3709 23.0743 38.7729 23.0743 38.0752V24.1209C23.0743 19.5359 20.1539 15.4493 16.1172 13.6552H16.1371ZM6.34918 7.67484C6.34918 4.88399 8.67157 2.5915 11.4923 2.5915C14.3131 2.5915 16.6355 4.88399 16.6355 7.67484C16.6355 10.4657 14.3131 12.7582 11.4923 12.7582C8.67157 12.7582 6.34918 10.4657 6.34918 7.67484Z" fill="#4E217B"/>
<path d="M11.4922 39.3711C10.7845 39.3711 10.1765 39.9691 10.1765 40.6668V59.7044C10.1765 60.4021 10.7845 61.0002 11.4922 61.0002C12.1999 61.0002 12.7979 60.4021 12.7979 59.7044V40.6668C12.7979 39.9691 12.1899 39.3711 11.4922 39.3711Z" fill="#4E217B"/>
<path d="M12.7083 22.9248H10.1865V25.4166H12.7083V22.9248Z" fill="#4E217B"/>
<path d="M30.7493 0C30.0416 0 29.4336 0.598039 29.4336 1.29575V59.7042C29.4336 60.402 30.0416 61 30.7493 61C47.7934 61 61.5981 47.3448 61.5981 30.5C61.5981 13.6552 47.7934 0 30.7493 0ZM55.9566 43.1585H48.2918C49.2985 39.5703 49.9065 35.683 50.0061 31.6961H58.9767C58.7774 35.8824 57.661 39.7696 55.9467 43.1585H55.9566ZM42.3413 10.4657C43.2483 11.9608 44.0557 13.5556 44.6637 15.25H32.055V2.5915C35.8824 3.18954 39.5205 5.88072 42.3413 10.4657ZM45.5707 17.8415C46.6771 21.3301 47.2851 25.2173 47.3847 29.3039H32.055V17.8415H45.5707ZM32.055 58.4085V45.75H44.7633C44.0557 47.4444 43.348 49.0392 42.4409 50.5343C39.5205 55.1193 35.8824 57.8105 32.055 58.4085ZM32.055 43.1585V31.7957H47.3847C47.2851 35.7827 46.6771 39.6699 45.5707 43.2582H32.055V43.1585ZM50.0061 29.2042C49.9065 25.2173 49.2985 21.3301 48.2918 17.7418H55.9566C57.7707 21.2304 58.8771 25.1176 58.9867 29.2042H50.0161H50.0061ZM54.4416 15.25H47.4844C46.069 11.2631 43.8563 7.27614 40.7266 4.38562C46.3681 6.47876 51.2122 10.366 54.4416 15.25ZM40.7266 56.6144C43.8563 53.7239 46.069 49.7369 47.4844 45.75H54.4416C51.2122 50.634 46.378 54.5212 40.7266 56.6144Z" fill="#4E217B"/>
</svg>
