<svg width="52" height="52" viewBox="0 0 52 52" fill="none" xmlns="http://www.w3.org/2000/svg">
<path d="M13.5532 19.0866C15.0768 17.9147 16.0897 16.073 16.0897 13.9801C16.0897 10.4642 13.21 7.61792 9.65215 7.61792C6.09433 7.61792 3.21459 10.4642 3.21459 13.9801C3.21459 16.073 4.22752 17.9147 5.75948 19.0866C2.36909 20.5935 0 23.942 0 27.8766V36.4153C0 37.0013 0.510651 37.5036 1.09664 37.5036H4.22752V50.3117C4.22752 50.8977 4.73818 51.4 5.33254 51.4C5.92691 51.4 6.42919 50.8977 6.42919 50.3117V33.1505C6.42919 32.5645 5.91853 32.0622 5.33254 32.0622C4.74655 32.0622 4.22752 32.5645 4.22752 33.1505V35.327H2.10958V27.7928C2.10958 23.6909 5.49997 20.3423 9.64378 20.3423C13.7876 20.3423 17.178 23.6909 17.178 27.7928V35.327H15.06V33.2342C15.06 32.6482 14.5494 32.1459 13.9634 32.1459C13.3774 32.1459 12.8584 32.6482 12.8584 33.2342V50.3117C12.8584 50.8977 13.369 51.4 13.9634 51.4C14.5578 51.4 15.06 50.8977 15.06 50.3117V37.4199H18.2746C18.869 37.4199 19.3796 36.9176 19.3796 36.3316V27.7928C19.3796 23.942 16.9268 20.5098 13.5364 19.0866H13.5532ZM5.34091 13.9801C5.34091 11.6362 7.29143 9.71075 9.66052 9.71075C12.0296 9.71075 13.9801 11.6362 13.9801 13.9801C13.9801 16.3241 12.0296 18.2495 9.66052 18.2495C7.29143 18.2495 5.34091 16.3241 5.34091 13.9801Z" fill="#4E217B"/>
<path d="M9.65214 40.6011C9.05777 40.6011 8.54712 41.1034 8.54712 41.6893V50.2281C8.54712 50.8141 9.05777 51.3164 9.65214 51.3164C10.2465 51.3164 10.7488 50.8141 10.7488 50.2281V41.6893C10.7488 41.1034 10.2381 40.6011 9.65214 40.6011Z" fill="#4E217B"/>
<path d="M10.6734 26.7883H8.55542V28.8812H10.6734V26.7883Z" fill="#4E217B"/>
<path d="M45.9839 19.0866C47.5074 17.9147 48.5287 16.073 48.5287 13.9801C48.5287 10.4642 45.649 7.61792 42.0912 7.61792C38.5334 7.61792 35.6536 10.4642 35.6536 13.9801C35.6536 16.073 36.6666 17.9147 38.1901 19.0866C34.7997 20.5935 32.4307 23.942 32.4307 27.8766V36.4153C32.4307 37.0013 32.9413 37.5036 33.5357 37.5036H36.7503V50.3117C36.7503 50.8977 37.2609 51.4 37.8553 51.4C38.4497 51.4 38.9603 50.8977 38.9603 50.3117V33.1505C38.9603 32.5645 38.4497 32.0622 37.8553 32.0622C37.2609 32.0622 36.7503 32.5645 36.7503 33.1505V35.327H34.6323V27.7928C34.6323 23.6909 38.0227 20.3423 42.1665 20.3423C46.3103 20.3423 49.7007 23.6909 49.7007 27.7928V35.327H47.4154V33.2342C47.4154 32.6482 46.9047 32.1459 46.3187 32.1459C45.7327 32.1459 45.2137 32.6482 45.2137 33.2342V50.3117C45.2137 50.8977 45.7243 51.4 46.3187 51.4C46.9131 51.4 47.4154 50.8977 47.4154 50.3117V37.4199H50.6299C51.2243 37.4199 51.7266 36.9176 51.7266 36.3316V27.7928C51.7266 23.942 49.3575 20.5098 45.9671 19.0866H45.9839ZM37.6879 13.9801C37.6879 11.6362 39.6384 9.71075 42.0075 9.71075C44.3766 9.71075 46.3271 11.6362 46.3271 13.9801C46.3271 16.3241 44.3766 18.2495 42.0075 18.2495C39.6384 18.2495 37.6879 16.3241 37.6879 13.9801Z" fill="#4E217B"/>
<path d="M41.9991 40.6011C41.4047 40.6011 40.894 41.1034 40.894 41.6893V50.2281C40.894 50.8141 41.4047 51.3164 41.9991 51.3164C42.5934 51.3164 43.0957 50.8141 43.0957 50.2281V41.6893C43.0957 41.1034 42.5851 40.6011 41.9991 40.6011Z" fill="#4E217B"/>
<path d="M43.0203 26.7883H40.9023V28.8812H43.0203V26.7883Z" fill="#4E217B"/>
<path d="M32.263 18.2495C32.8574 18.2495 33.368 17.7472 33.368 17.1612C33.368 16.5752 32.8574 16.073 32.263 16.073H31.1664V15.2358C33.2006 13.6453 34.381 11.1339 34.381 8.53876C34.381 3.85081 30.4883 0 25.7418 0C20.9952 0 17.1025 3.85081 17.1025 8.53876C17.1025 11.1339 18.2913 13.5616 20.3171 15.2358V16.073H19.2121C18.6178 16.073 18.1071 16.5752 18.1071 17.1612C18.1071 17.7472 18.6178 18.2495 19.2121 18.2495H20.3171V20.3423C20.3171 20.9283 20.8278 21.4306 21.4138 21.4306H22.5188V24.6117C22.5188 25.1977 23.0294 25.7 23.6154 25.7H27.935C28.5294 25.7 29.0401 25.1977 29.0401 24.6117V21.4306H30.1451C30.7394 21.4306 31.2417 20.9283 31.2417 20.3423V18.2495H32.2547H32.263ZM22.1002 13.8964C20.3255 12.7244 19.3042 10.7153 19.3042 8.62248C19.3042 5.10651 22.1839 2.26026 25.7418 2.26026C29.2996 2.26026 32.1793 5.10651 32.1793 8.62248C32.1793 10.7153 31.1664 12.6407 29.3833 13.8964C29.1321 14.0638 28.9564 14.3987 28.9564 14.7336V16.073H26.8384V9.71075C26.8384 9.12476 26.3278 8.62248 25.7334 8.62248C25.139 8.62248 24.6284 9.12476 24.6284 9.71075V16.073H22.5104V14.7336C22.5941 14.3987 22.4267 14.0638 22.0835 13.8964H22.1002ZM26.9305 23.6072H24.8125V21.5143H26.9305V23.6072ZM29.0484 19.3378H22.6109V18.2495H29.0484V19.3378Z" fill="#4E217B"/>
</svg>
