<svg width="168" height="4" viewBox="0 0 168 4" fill="none" xmlns="http://www.w3.org/2000/svg">
<path d="M1.60021 0.515255C2.54163 0.476176 3.77569 0.517961 4.71356 0.575313C5.00748 0.593101 4.85865 0.672613 5.06155 0.688472C5.45838 0.719387 5.82809 0.680391 6.22024 0.717219C6.35021 0.729814 6.18843 0.855761 6.32471 0.866084C7.07147 0.921745 7.77794 0.889665 8.53443 0.916438C12.2606 1.04853 15.9234 1.09581 19.6952 1.15319C20.9388 1.17201 22.4507 1.28631 23.7352 1.23632C23.8852 1.23037 23.7958 1.11982 23.8243 1.11071C24.2718 0.971225 24.123 1.1944 24.4152 1.22405C25.5748 1.34113 26.8644 1.35131 27.9804 1.30865C28.4552 1.29017 27.9791 1.07059 28.4572 1.19384C28.4904 1.20217 28.3699 1.31956 28.5001 1.33209C28.7954 1.36025 29.3556 1.33926 29.5845 1.34857C30.0255 1.36709 30.0985 1.3659 30.5156 1.36724C31.0859 1.37009 31.7642 1.42845 32.3761 1.40185C32.5067 1.39582 32.3338 1.27548 32.5421 1.255C32.7505 1.23455 33.3021 1.24476 33.488 1.27313C33.674 1.30151 33.5948 1.3961 33.6277 1.41778C33.8985 1.60077 34.5364 1.34733 34.6185 1.34106C36.1151 1.23426 37.3985 1.37864 38.8034 1.37823C39.8699 1.37761 41.0103 1.32994 42.025 1.33648C43.234 1.34473 44.2587 1.40995 45.4332 1.39874C45.5571 1.39769 45.4119 1.25619 45.5633 1.25463C47.1717 1.23817 48.769 1.25359 50.3704 1.34911C50.5311 1.35882 50.3241 1.48305 50.4845 1.50018C51.467 1.60227 53.0214 1.84754 53.6049 1.30663C54.2704 1.32776 55.0783 1.34958 55.6737 1.45861C56.0575 1.52879 55.6847 1.66413 56.1562 1.60638C56.2626 1.59351 56.1243 1.47499 56.2838 1.46465C56.9552 1.42126 57.6889 1.45979 58.3531 1.39855C58.4882 1.38582 58.4514 1.27962 58.4896 1.26049C58.8114 1.10561 59.347 1.36164 59.4638 1.38024C60.3529 1.51897 61.0022 1.46438 61.8305 1.46777C62.0227 1.46861 61.7955 1.32596 61.9805 1.32165C62.9397 1.3012 63.9334 1.31346 64.8727 1.37676C65.0816 1.39119 64.8895 1.5127 64.9893 1.52581C65.4296 1.58214 65.5272 1.35263 65.9494 1.40221C66.0384 1.41237 65.9882 1.5164 66.0045 1.52782C66.2586 1.70717 66.4794 1.45305 66.5447 1.44744C67.3715 1.37078 67.9 1.63607 68.6987 1.5985C68.7943 1.59374 68.5788 1.46212 68.8474 1.45678C70.6368 1.42044 72.5293 1.4566 74.3006 1.56188C74.5759 1.57807 74.3794 1.67695 74.3967 1.68914C74.6791 1.87959 74.8619 1.62441 74.9517 1.6148C75.6601 1.54562 76.3218 1.75962 76.8031 1.45568C79.8033 1.56116 82.7897 1.39048 85.7651 1.66277C85.8029 1.66593 85.7351 1.7916 85.8106 1.79736C86.7194 1.86792 86.5449 1.6726 87.1462 1.43371C87.2976 1.37372 87.7584 1.66214 87.7992 1.68328C87.9478 1.76119 87.7937 1.94816 87.8434 1.96325C88.255 2.08172 88.188 1.46339 88.7432 1.46319C88.7606 1.46422 88.6877 1.57803 88.7342 1.58935C88.879 1.62488 89.0226 1.57965 89.1643 1.61883C89.4885 1.70948 89.604 2.00994 90.0993 1.83507C90.162 1.81238 90.0663 1.46163 90.562 1.4782C90.7597 1.48511 91.6344 1.47909 91.8796 1.50182C92.1245 1.52453 91.9564 1.63755 91.9738 1.64245C92.6337 1.79191 92.3835 1.85385 92.714 2.07513C93.0446 2.29556 92.9529 1.7698 93.0877 1.71111C93.2227 1.6526 93.7064 1.77591 93.8253 1.81878C93.9441 1.86167 93.7959 1.93349 93.9016 1.95776C94.6021 2.11632 94.2091 1.69678 94.4399 1.61333C94.9841 1.41575 95.408 1.80566 95.9062 1.84386C96.041 1.85418 95.931 1.76538 96.0511 1.75707C96.5265 1.72536 96.8124 1.84702 97.3533 1.73547C97.4418 1.71729 97.879 1.48286 98.1621 1.6549C98.2022 1.67971 98.0883 1.77687 98.2909 1.79864C98.5936 1.8313 99.1389 1.85254 99.4643 1.82006C99.7045 1.79603 99.4292 1.63593 99.7316 1.68566C99.866 1.70787 99.6169 1.80153 99.8694 1.83544C100.12 1.86934 100.763 1.86523 101.007 1.86199C101.251 1.85869 101.117 1.73724 101.137 1.72906C101.256 1.68219 101.724 1.62363 101.766 1.62377C103.852 1.60895 105.776 1.81366 107.807 1.7459C107.967 1.74076 107.86 1.61269 107.885 1.61059C108.43 1.55693 108 1.89743 108.381 2.0114C108.326 1.75152 108.551 1.79857 108.936 1.77007C109.121 1.75613 109.02 1.6555 109.037 1.6452C109.312 1.49235 109.503 1.68977 109.552 1.73016C109.734 1.87872 109.932 1.70318 110.056 1.80248C110.18 1.90104 109.895 2.04715 110.264 2.04528C110.367 1.95225 110.093 1.70913 110.373 1.66973C111.429 1.52069 113.401 1.71144 114.25 1.73125C115.097 1.75105 115.371 1.73389 115.865 1.76751C116.757 1.8283 116.43 1.64792 116.984 1.56536C117.539 1.48281 117.269 1.92662 117.349 2.02202C117.427 2.11739 117.513 2.01922 117.611 2.07165C117.708 2.12406 117.497 2.18893 117.726 2.20861C117.955 2.22827 118.58 2.05861 118.661 1.95885C118.832 1.74751 118.551 1.52569 119.156 1.60363C119.191 1.60826 119.078 1.72495 119.211 1.73675C120.269 1.82659 121.369 1.83215 122.426 1.91161C122.571 1.92272 122.441 2.05254 122.526 2.06048C123.407 2.14351 123.092 1.92462 123.575 1.68145C123.467 2.00505 123.734 2.20304 124.403 2.20495C124.805 2.20621 124.735 2.06487 124.995 1.96526C125.073 1.93523 125.358 2.03228 125.409 1.96581C125.579 1.74854 125.311 1.50532 126.001 1.60217C126.031 1.60677 125.935 1.7257 126.039 1.7329C126.715 1.78005 126.796 1.55278 127.526 1.52526C128.099 1.50367 129.117 1.64225 129.769 1.66479C129.755 2.02861 130.37 1.9453 130.62 1.69445C131.043 1.70472 131.5 1.69054 131.909 1.72521C132.05 1.73703 131.957 1.84237 131.975 1.85375C132.247 2.0323 132.431 1.78825 132.522 1.77868C133.512 1.68567 134.318 1.87064 135.263 1.68987C135.296 1.68336 135.351 1.43064 135.603 1.61517C135.619 1.62789 135.307 1.74287 135.752 1.75176C136.196 1.76067 137.034 1.89615 137.651 1.77904C137.8 1.75085 138.177 1.54569 138.481 1.70599C138.521 1.72775 138.477 1.80023 138.535 1.84057C138.723 1.96909 138.826 1.71365 139.048 1.93066C139.269 2.14766 139.73 2.31017 140.352 2.16045C140.372 2.1561 140.519 1.95364 140.715 1.95684C141.027 1.96212 141.47 2.0043 141.796 2.00298C141.953 2.00228 141.853 1.87656 141.88 1.87426C142.93 1.80381 143.677 1.91589 144.801 1.96453C145.008 1.9737 145.6 1.80226 145.999 1.9378C146.438 2.08617 145.987 2.70337 146.994 2.55632C147.401 2.49751 147.915 1.71448 148.645 2.12017C150.061 2.01964 151.371 2.22727 152.791 2.08373C152.855 2.07737 153.057 1.85883 153.207 1.86181C153.43 1.86665 153.552 1.96879 153.711 1.97552C154.378 2.00628 154.989 1.91889 155.632 1.93249C155.876 1.93743 155.79 2.04304 156.081 2.04894C156.372 2.05475 156.566 1.91567 156.961 1.98284C157.258 2.03404 157.556 2.3183 157.951 2.35143C157.967 2.07104 158.238 2.07682 158.72 2.0028C158.813 1.98844 158.714 1.89085 158.758 1.87902C158.936 1.82872 159.101 1.9096 159.271 1.85485C159.312 1.8417 159.314 1.74594 159.348 1.72979C159.635 1.58877 160.107 1.80416 160.188 1.84167C160.499 1.98409 160.644 1.85955 160.883 1.91564C161.121 1.97172 160.765 2.04183 161.043 2.07586C161.619 2.14625 162.36 2.13078 162.946 2.13518C163.179 2.13635 163.02 2.00853 163.053 2.00573C163.536 1.97331 164.025 2.10927 164.293 1.85467C164.628 2.51298 164.584 1.79081 165.275 1.9226C165.329 1.93326 165.398 2.24457 165.189 2.29027C164.981 2.33593 164.664 2.23862 164.374 2.30987C164.306 2.32658 163.913 2.6183 163.859 2.63598C163.439 2.77408 163.379 2.30887 163.357 2.28332C163.105 2.00757 162.625 2.32184 162.498 2.34356C161.92 2.44306 161.428 2.37764 160.944 2.44866C160.628 2.49456 160.597 2.79929 160.348 2.78997C159.522 2.75914 159.234 2.33403 158.455 2.70263C158.288 2.78124 158.454 3.1143 157.856 2.85241C157.818 2.83589 157.374 2.59631 157.118 2.74785C157.085 2.76696 157.086 2.86403 157.044 2.87218C156.759 2.92493 156.569 2.8476 156.259 2.88463C155.949 2.92167 155.576 2.97688 155.221 2.94396C155.008 2.92427 154.734 2.74342 154.632 2.69915C154.343 2.5716 154.034 2.78072 153.855 2.62627C153.675 2.47104 154.027 2.2353 153.554 2.135C153.537 2.38719 153.497 2.64603 153.469 2.89965C152.433 2.89077 151.413 2.80922 150.374 2.82036C150.245 2.822 150.377 2.95757 150.239 2.96282C149.656 2.98436 149.147 2.88771 148.542 2.9262C148.074 2.95651 147.561 3.10005 147.072 3.13622C146.773 2.84765 146.047 2.94561 145.52 2.91924C145.335 2.91013 145.347 2.83305 145.216 2.80791C144.72 2.71492 144.953 2.96993 144.817 3.01006C144.234 3.18133 144.184 2.60414 143.497 2.6184C143.46 2.61896 143.015 2.92663 142.954 2.94579C142.564 3.07073 142.889 2.8387 142.646 2.81597C142.2 2.77442 141.891 2.70095 141.369 2.79107C141.217 2.81776 140.851 3.00953 140.556 2.86119C140.517 2.84177 140.538 2.74007 140.507 2.73412C139.94 2.63484 139.925 2.95439 139.601 3.06261C139.277 3.17081 138.777 2.95022 138.675 2.88665C138.409 2.72218 138.879 2.81636 138.894 2.80022C139.063 2.60815 138.698 2.64122 138.42 2.62499C138.379 2.31167 137.989 2.33048 138.131 2.60943C138.147 2.63989 138.364 2.61068 138.42 2.62499C138.175 2.9324 137.746 2.97177 137.273 2.6845C137.052 2.54986 137.261 2.39288 136.588 2.45031C136.283 2.47623 136.401 2.69197 136.131 2.75078C135.515 2.88498 134.715 2.68373 134.08 2.71544C133.85 2.72695 134.074 2.84505 133.917 2.85698C133.499 2.88903 133.13 2.80042 132.711 2.84581C132.673 2.85008 132.766 2.97369 132.635 2.97527C131.646 2.98963 130.784 2.91045 129.751 2.90825C129.252 2.90725 128.36 2.97543 127.843 2.96172C126.947 2.93869 125.844 2.75893 125.079 2.8026C124.579 2.83055 124.689 2.9542 124.475 3.03844C124.062 3.20174 123.331 2.90923 123.233 2.86394C123.23 2.86244 123.66 2.83329 123.43 2.76983C123.297 2.63758 123.238 2.86337 123.233 2.86394C123.168 2.83468 122.31 2.80661 122.14 2.83025C122.047 2.84317 122.099 2.96031 122.051 2.96483C120.903 3.06967 119.753 3.09944 118.589 3.04467C118.569 3.0423 118.6 2.91127 118.551 2.90734C117.878 2.84908 117.446 3.00937 116.89 3.10454C116.335 3.19967 115.894 3.16781 115.565 2.94286C115.146 2.97118 114.544 2.87173 114.198 2.81139C113.852 2.75105 113.803 3.00612 113.773 3.01116C112.823 3.17255 112.274 3.02655 111.288 3.00383C110.82 2.99259 109.89 3.02959 109.383 3.05748C108.982 3.07995 108.741 3.02018 108.371 3.0584C108.321 3.0635 108.372 3.17707 108.356 3.18145C107.944 3.31732 108.142 3.03969 108.057 2.9901C107.748 2.80978 107.558 2.71375 107.03 2.79857C106.908 2.818 106.553 3.21776 106.331 3.24114C106.043 3.2708 106.152 3.12751 105.849 3.16222C105.823 3.16506 105.829 3.25346 105.642 3.24956C104.776 3.23263 103.832 3.18119 102.933 3.19005C102.81 3.19092 102.967 3.33114 102.79 3.3347C101.957 3.35132 101.043 3.34614 100.231 3.2805C100.032 3.26391 100.157 3.16573 100.114 3.13658C99.8472 2.96021 99.4696 3.21648 99.4073 3.22136C97.921 3.34451 96.7834 3.11259 95.2686 3.22301C95.1861 3.22949 94.5513 3.50422 94.2682 3.2686C94.2488 3.25293 93.9686 3.01187 93.7209 3.17668C93.7055 3.187 93.8801 3.3111 93.5754 3.29845C93.2707 3.28583 92.7804 3.3687 92.3616 3.23235C92.229 3.18939 91.9156 2.94893 91.5201 3.14061C91.4943 3.15399 90.8838 3.58742 90.6658 3.28838C90.6305 3.23915 90.6675 2.9227 90.1954 3.08495C90.1052 3.1164 90.269 3.18699 90.0314 3.23107C89.6673 3.299 89.185 3.21424 88.7374 3.35521C88.6594 3.38017 88.3272 3.59496 88.0607 3.43193C88.019 3.4064 88.0982 3.30075 87.9575 3.28893C87.2883 3.23221 86.5875 3.30288 85.908 3.22978C85.6673 3.2041 85.7904 3.03331 85.5395 2.98754C85.2886 2.94178 84.7831 2.89777 84.5205 2.97582C84.2579 3.0539 84.5448 3.32611 84.1514 3.34789C82.4411 3.44249 80.7469 3.28281 79.0391 3.25945C78.7859 3.25596 78.9958 3.35336 78.6226 3.35521C77.2464 3.36246 74.8705 3.45378 73.6763 3.24681C72.7196 3.08104 73.9236 2.95484 73.1925 2.88738C72.8397 2.8552 72.458 3.17166 72.3728 3.18163C71.5408 3.28283 70.9626 3.14265 70.2137 3.18566C70.0591 3.19458 70.2107 3.32285 70.0791 3.32903C69.6296 3.35127 69.1571 3.29402 68.7275 3.30449C68.5348 3.30948 68.5703 3.40745 68.393 3.39989C67.9687 3.38293 67.5935 3.34175 67.1798 3.24993C67.1421 3.24156 67.3964 3.11969 67.0824 3.11516C66.5743 3.10817 65.9437 3.01759 65.3591 3.11113C65.1857 3.13927 65.1789 3.36317 64.8061 3.20854C64.7278 3.17625 64.8276 2.9074 64.3933 3.1397C64.3203 3.1783 63.5907 3.49163 63.2327 3.28966C63.1383 3.2365 62.8972 3.0165 62.6886 3.05107C62.6603 3.05659 62.7736 3.17686 62.6008 3.18859C61.9917 3.22784 61.3533 3.215 60.7276 3.25267C60.5604 3.26297 60.8094 3.38742 60.5603 3.39879C59.8754 3.43025 59.0203 3.39856 58.3506 3.35961C58.1037 3.34501 58.2743 3.24192 58.2564 3.2307C57.9674 3.04823 57.7966 3.29452 57.7007 3.30889C57.1043 3.39488 56.6502 3.27918 56.1005 3.3098C55.9487 3.31794 56.0563 3.43538 56.0261 3.44585C55.7129 3.54816 55.9462 3.33726 55.748 3.31401C55.1926 3.24819 54.5735 3.25762 54.0119 3.27263C53.8056 3.27832 54.0374 3.41449 53.8523 3.41802C52.7565 3.44148 51.6174 3.42845 50.548 3.35338C50.3466 3.339 50.4733 3.23414 50.4313 3.21019C50.1421 3.04264 49.7182 3.27118 49.6206 3.29296C49.1771 3.39236 49.0048 3.29964 48.6132 3.31694C46.6998 3.40311 44.3374 3.3417 42.5313 3.30376C40.1778 3.25493 38.3516 3.15518 36.1072 3.18108C35.9646 3.18259 36.1084 3.32209 35.9855 3.32518C34.3979 3.35881 32.835 3.3043 31.2443 3.34459C31.1138 3.34765 31.3019 3.47989 31.0924 3.48924C30.6627 3.50936 30.1183 3.50217 29.6838 3.45995C29.4719 3.4396 29.7561 3.32613 29.5428 3.30797C29.0461 3.26543 28.5136 3.25601 28.0034 3.27721C27.7863 3.28652 28.1139 3.42177 27.8317 3.42333C25.9093 3.43674 24.0213 3.46004 22.0786 3.2849C21.9454 3.27287 21.8285 2.998 21.5454 3.05071C21.524 3.12699 21.5252 3.21673 21.5159 3.29827C18.7174 3.34219 15.9474 3.2469 13.141 3.23216C13.0227 3.23158 13.2272 3.37722 12.9981 3.37682C11.6722 3.37466 10.3847 3.41501 9.02854 3.27025C8.89398 3.25609 8.96301 2.99987 8.56647 3.03862C8.49653 3.04569 7.89929 3.07987 7.74487 3.13549C7.7239 3.14388 7.83286 3.26347 7.64041 3.26696C6.52202 3.28512 5.35 3.25781 4.23355 3.18474C4.05336 3.17272 4.24524 3.04536 4.11691 3.03569C3.20654 2.96809 2.21632 3.0649 1.34642 2.94927C0.764145 2.87141 0.979722 2.65126 0.670306 2.43456C0.626542 2.40399 0.265978 2.39914 0.247332 2.27306C0.199462 1.95602 0.374108 1.60886 0.302446 1.27093C0.287306 1.19814 -0.195583 1.27654 0.0903183 1.10064C0.110292 1.08887 0.460389 1.03049 0.546618 0.97082C0.606654 0.929565 0.498467 0.801341 0.620959 0.74853C0.74344 0.695769 0.878031 0.803253 1.0811 0.741206C1.28409 0.678391 1.19483 0.532522 1.60021 0.515255ZM112.639 2.54168C112.319 2.41918 112.272 2.86783 112.618 2.76049C112.635 2.75477 112.656 2.54769 112.639 2.54168ZM151.419 2.47081C151 2.27293 150.713 2.5639 151.009 2.71672C151.304 2.86939 151.547 2.5308 151.419 2.47081ZM155.764 2.32635C155.274 2.17032 155.197 2.80652 155.722 2.67791C155.752 2.67064 155.793 2.3354 155.764 2.32635ZM2.10522 2.37285C2.10079 2.3669 1.8416 2.36109 1.83541 2.36699C1.6974 2.50948 2.21567 2.52099 2.10522 2.37285ZM160.076 2.16906C159.923 2.083 159.483 2.18234 159.673 2.28936C159.826 2.37545 160.266 2.27611 160.076 2.16906ZM95.9197 2.06286C95.9146 2.05617 95.7288 2.05015 95.7325 2.08794C95.7452 2.20966 96.0037 2.17531 95.9197 2.06286ZM167.404 2.16173C166.322 2.13779 165.665 1.61226 166.844 1.67156C167.058 1.68229 166.384 1.83915 166.656 1.88653C167.153 1.97284 167.483 1.64288 167.991 1.81969C168.083 1.85206 167.466 2.16427 167.402 2.16247C167.403 2.16222 167.404 2.16198 167.404 2.16173ZM112.455 2.0028C112.448 1.99687 112.191 1.99124 112.185 1.99712C112.046 2.13955 112.564 2.15097 112.455 2.0028ZM85.0768 1.78545C85.0626 1.77281 84.4657 1.76099 84.4462 1.77264C84.1348 2.00555 85.3416 2.03014 85.0768 1.78545ZM129.779 1.67449C130.059 1.53121 130.395 1.51433 130.619 1.69427C130.34 1.68472 130.059 1.68331 129.779 1.67449Z" fill="#C0AED1"/>
</svg>
