<svg width="32" height="52" viewBox="0 0 32 52" fill="none" xmlns="http://www.w3.org/2000/svg">
<path d="M27.0894 19.248C25.901 19.248 24.7211 19.6665 23.8758 20.587L20.7459 22.4281H15.072C13.2978 22.4281 11.8584 23.8508 11.8584 25.6082C11.8584 25.943 11.9421 26.3614 12.0258 26.6962H4.31822C3.72404 26.6962 3.22192 27.1983 3.22192 27.7841C3.22192 28.3699 3.73241 28.872 4.31822 28.872H5.42289V50.2122C5.42289 50.798 5.93338 51.3001 6.52755 51.3001C7.12173 51.3001 7.62385 50.798 7.62385 50.2122V28.7883H21.6749C22.0096 28.7883 22.4364 28.7047 22.7712 28.621V34.1443H19.5576C18.7123 34.1443 17.8671 34.479 17.2729 35.0649C17.1892 35.1485 17.6997 34.479 9.14695 46.2789C8.80383 46.781 8.89589 47.4505 9.39801 47.7852C9.9085 48.12 10.5864 48.0363 10.9211 47.5342L18.8797 36.4875C19.0471 36.3202 19.3065 36.2365 19.5576 36.2365H23.8758C24.47 36.2365 24.9721 35.7343 24.9721 35.1485V26.7799C24.9721 26.3614 24.8047 26.0267 24.4616 25.8593C24.1269 25.6919 23.7001 25.6919 23.357 25.8593L22.3444 26.4451C22.177 26.5288 22.0096 26.6125 21.7502 26.6125H15.3147C14.7205 26.6125 14.21 26.1104 14.21 25.5246C14.21 24.9387 14.7205 24.4366 15.3147 24.4366H21.156C21.3234 24.4366 21.5828 24.3529 21.7502 24.2693L25.3069 22.1771C25.3906 22.0934 25.4742 22.0097 25.5579 21.926C25.9847 21.4239 26.5705 21.1728 27.2484 21.1728C28.4368 21.2565 29.3657 22.1771 29.3657 23.265V36.0691C29.3657 37.2407 28.4368 38.1613 27.2484 38.1613H20.5618C20.2271 38.1613 19.884 38.3286 19.7166 38.5797L12.3522 49.0405C12.0174 49.5427 12.1011 50.2122 12.6032 50.5469C13.1137 50.8817 13.7916 50.798 14.1263 50.2958L21.156 40.2534H26.9137C29.282 40.2534 31.2319 38.3286 31.2319 35.9854V23.5161C31.2319 21.1728 29.4577 19.3317 27.081 19.248H27.0894Z" fill="#4E217B"/>
<path d="M25.8174 18.1599C28.7799 18.1599 31.2319 15.733 31.2319 12.804C31.2319 9.87492 28.7799 7.448 25.8174 7.448C22.8549 7.448 20.4028 9.87492 20.4028 12.804C20.4028 15.733 22.8549 18.1599 25.8174 18.1599ZM25.8174 9.62385C27.5915 9.62385 29.0309 11.0465 29.0309 12.804C29.0309 14.5614 27.5915 15.9841 25.8174 15.9841C24.0432 15.9841 22.6038 14.5614 22.6038 12.804C22.6038 11.0465 24.0432 9.62385 25.8174 9.62385Z" fill="#4E217B"/>
<path d="M15.072 7.44812C15.072 3.34747 11.6827 0 7.53181 0C3.38095 0 0 3.34747 0 7.44812C0 11.5488 3.38932 14.8962 7.53181 14.8962C11.6743 14.8962 15.0636 11.6325 15.0636 7.44812H15.072ZM2.11728 7.44812C2.11728 4.51909 4.5693 2.09217 7.53181 2.09217C10.4943 2.09217 12.9463 4.51909 12.9463 7.44812C12.9463 10.3772 10.4943 12.8041 7.53181 12.8041C4.5693 12.8041 2.11728 10.3772 2.11728 7.44812Z" fill="#4E217B"/>
<path d="M10.4108 10.3772C10.8292 9.95881 10.8292 9.28931 10.4108 8.87088L8.54454 7.02977V4.2681C8.54454 3.6823 8.03405 3.18018 7.43987 3.18018C6.84569 3.18018 6.33521 3.6823 6.33521 4.2681V7.4482C6.33521 7.69926 6.41889 8.03401 6.67832 8.20138L8.7956 10.2936C9.30609 10.7957 9.98395 10.7957 10.4024 10.3772H10.4108Z" fill="#4E217B"/>
</svg>
