<svg width="62" height="61" viewBox="0 0 62 61" fill="none" xmlns="http://www.w3.org/2000/svg">
<path d="M42.3046 18.9721C42.3046 12.019 36.5733 6.35718 29.5407 6.35718C22.5082 6.35718 16.7769 12.019 16.7769 18.9721C16.7769 25.9252 22.5082 31.587 29.5407 31.587C36.5733 31.6863 42.3046 26.0245 42.3046 18.9721ZM25.6271 28.4084V24.0379C25.6271 21.952 27.3356 20.2634 29.4414 20.2634C31.5472 20.2634 33.2557 21.952 33.2557 24.0379V28.4084C30.9413 29.3024 28.1303 29.4017 25.6172 28.4084H25.6271ZM28.2395 16.4888C28.2395 15.7935 28.8454 15.1975 29.5407 15.1975C30.236 15.1975 30.8519 15.7935 30.8519 16.4888C30.8519 17.1841 30.246 17.7801 29.5407 17.7801C28.7362 17.7801 28.2395 17.1841 28.2395 16.4888ZM19.2005 18.9721C19.2005 13.4096 23.8193 8.84042 29.4513 8.84042C35.0833 8.84042 39.7022 13.4096 39.7022 18.9721C39.7022 22.1506 38.1924 25.0312 35.8879 26.9185V24.0379C35.8879 21.654 34.5867 19.6674 32.6696 18.5747C33.0669 17.9788 33.2755 17.2835 33.2755 16.4888C33.2755 14.4029 31.5671 12.7143 29.4613 12.7143C27.3555 12.7143 25.647 14.4029 25.647 16.4888C25.647 17.2835 25.8457 17.9788 26.2529 18.5747C24.3458 19.6674 23.0346 21.7533 23.0346 24.0379V26.9185C20.7203 25.0312 19.2204 22.1506 19.2204 18.9721H19.2005Z" fill="#4E217B"/>
<path d="M61.0878 58.6046C60.6905 58.2073 60.1839 58.1079 59.7866 58.3066C58.0781 58.5053 45.8208 58.5053 31.5471 58.4059C35.4707 51.2542 48.8305 27.0177 48.6319 18.972C48.5325 8.44303 39.9902 0 29.4414 0C18.8925 0 10.3502 8.44303 10.2508 18.972C10.1515 27.6137 23.0147 50.8569 27.3356 58.4059C11.9593 58.3066 1.70847 58.2073 1.31115 58.2073C0.605912 58.2073 0 58.8033 0 59.4986C0 60.1939 0.605912 60.7898 1.31115 60.7898C7.63846 60.7898 53.2607 61.1872 59.588 60.8892C60.3925 60.8892 61.0978 60.7898 61.3958 59.9952C61.5944 59.4986 61.4951 59.0019 61.0978 58.6046H61.0878ZM12.8632 18.972C12.9625 9.93298 20.4023 2.48325 29.5407 2.48325C38.679 2.48325 46.0195 9.73432 46.2182 18.972C46.2182 21.3559 44.7084 27.3157 37.4771 42.0165C34.3582 48.2743 31.2492 54.0354 29.64 56.916C28.0309 54.0354 24.9219 48.4729 21.8029 42.3145C14.2638 27.9117 12.7639 21.6539 12.8632 18.972Z" fill="#4E217B"/>
<path d="M30.7525 36.752H28.2395V39.2352H30.7525V36.752Z" fill="#4E217B"/>
<path d="M30.7525 41.8179H28.2395V44.3011H30.7525V41.8179Z" fill="#4E217B"/>
<path d="M8.93968 41.8179H6.42664V44.3011H8.93968V41.8179Z" fill="#4E217B"/>
<path d="M55.0686 43.0098H52.5555V45.493H55.0686V43.0098Z" fill="#4E217B"/>
<path d="M30.7525 46.8838H28.2395V49.367H30.7525V46.8838Z" fill="#4E217B"/>
</svg>
