<?xml version="1.0" standalone="no"?>
<!DOCTYPE svg PUBLIC "-//W3C//DTD SVG 20010904//EN"
 "http://www.w3.org/TR/2001/REC-SVG-20010904/DTD/svg10.dtd">
<svg version="1.0" xmlns="http://www.w3.org/2000/svg"
 width="656.000000pt" height="111.000000pt" viewBox="0 0 656.000000 111.000000"
 preserveAspectRatio="xMidYMid meet">

<g transform="translate(0.000000,111.000000) scale(0.100000,-0.100000)"
fill="#000000" stroke="none">
<path d="M1180 909 c-110 -22 -212 -103 -269 -216 -70 -140 -183 -172 -287
-82 -73 63 -90 71 -145 71 -138 0 -200 -165 -97 -259 44 -41 129 -47 176 -12
11 8 38 29 62 47 57 42 108 56 160 42 56 -15 95 -52 136 -131 118 -225 388
-283 587 -127 51 41 91 102 117 179 44 127 5 284 -93 383 -52 52 -104 80 -184
101 -63 16 -95 17 -163 4z m162 -131 c53 -16 121 -78 149 -135 27 -56 30 -149
7 -204 -24 -56 -83 -114 -140 -139 -42 -18 -65 -21 -118 -18 -75 6 -115 24
-164 74 -92 95 -101 226 -21 335 61 85 177 120 287 87z"/>
<path d="M1219 680 c-93 -28 -135 -126 -93 -215 55 -116 238 -99 276 26 23 77
-25 168 -100 189 -42 11 -47 11 -83 0z"/>
<path d="M403 900 c-111 -23 -212 -101 -260 -199 -25 -51 -28 -66 -28 -166 0
-100 2 -115 28 -167 36 -74 119 -150 195 -179 80 -30 204 -30 286 1 64 24 182
127 174 151 -2 7 -24 23 -49 37 l-44 24 -51 -49 c-123 -121 -318 -88 -400 67
-28 53 -26 181 3 236 80 150 278 181 397 63 27 -27 51 -49 53 -49 3 0 24 12
49 26 43 25 43 26 29 54 -22 43 -102 107 -161 129 -63 24 -163 33 -221 21z"/>
<path d="M4110 899 c-113 -22 -221 -111 -259 -215 -31 -82 -30 -84 38 -84 57
0 59 1 70 32 45 127 208 194 339 138 48 -21 94 -61 104 -92 4 -10 14 -8 46 6
64 29 69 40 38 84 -46 66 -125 113 -221 131 -67 12 -91 12 -155 0z"/>
<path d="M3240 745 l0 -145 60 0 60 0 0 90 0 90 190 0 190 0 0 55 0 55 -250 0
-250 0 0 -145z"/>
<path d="M4640 545 l0 -345 60 0 60 0 0 99 0 99 118 4 c137 5 187 22 244 86
41 46 58 94 58 167 0 65 -27 121 -78 167 -61 56 -117 68 -304 68 l-158 0 0
-345z m347 216 c67 -31 93 -112 58 -181 -25 -48 -67 -63 -182 -68 l-103 -4 0
136 0 136 93 0 c69 0 103 -5 134 -19z"/>
<path d="M5280 545 l0 -345 240 0 240 0 0 55 0 55 -180 0 -180 0 0 290 0 290
-60 0 -60 0 0 -345z"/>
<path d="M5860 545 l0 -345 255 0 255 0 0 55 0 55 -195 0 -195 0 0 95 0 95
175 0 175 0 0 55 0 55 -175 0 -175 0 0 85 0 85 190 0 190 0 0 55 0 55 -250 0
-250 0 0 -345z"/>
<path d="M3240 345 l0 -145 255 0 255 0 0 55 0 55 -195 0 -195 0 0 90 0 90
-60 0 -60 0 0 -145z"/>
<path d="M3831 448 c51 -232 306 -349 534 -244 52 23 123 85 144 124 9 17 4
23 -40 47 l-50 27 -37 -40 c-58 -62 -94 -77 -187 -77 -70 0 -86 4 -128 28 -51
30 -103 99 -114 150 -5 26 -8 27 -68 27 l-63 0 9 -42z"/>
</g>
</svg>
