<svg width="46" height="46" viewBox="0 0 46 46" fill="none" xmlns="http://www.w3.org/2000/svg">
<path d="M34.5821 17.7922C35.1577 17.1493 35.1031 16.1615 34.4602 15.5858C33.8173 15.0102 32.8295 15.0648 32.2539 15.7077L25.2347 23.5477C23.8125 25.1363 22.8546 26.2005 22.0357 26.8888C21.2556 27.5445 20.7974 27.6875 20.3971 27.6875C19.9969 27.6875 19.5387 27.5445 18.7586 26.8888C17.9396 26.2005 16.9818 25.1363 15.5595 23.5477L13.7487 21.5252C13.1731 20.8822 12.1853 20.8277 11.5424 21.4033C10.8995 21.9789 10.8449 22.9667 11.4205 23.6096L13.3086 25.7185C14.6333 27.1982 15.7383 28.4325 16.7479 29.2811C17.8159 30.1787 18.9678 30.8125 20.3971 30.8125C21.8265 30.8125 22.9784 30.1787 24.0464 29.2811C25.056 28.4325 26.1609 27.1983 27.4856 25.7186L34.5821 17.7922Z" fill="#BF83E4"/>
<path fill-rule="evenodd" clip-rule="evenodd" d="M23.0013 0.604126C10.6324 0.604126 0.605469 10.6311 0.605469 23C0.605469 35.3688 10.6324 45.3958 23.0013 45.3958C35.3702 45.3958 45.3971 35.3688 45.3971 23C45.3971 10.6311 35.3702 0.604126 23.0013 0.604126ZM3.73047 23C3.73047 12.357 12.3583 3.72913 23.0013 3.72913C33.6443 3.72913 42.2721 12.357 42.2721 23C42.2721 33.6429 33.6443 42.2708 23.0013 42.2708C12.3583 42.2708 3.73047 33.6429 3.73047 23Z" fill="#BF83E4"/>
</svg>
