<svg width="272" height="61" viewBox="0 0 272 61" fill="none" xmlns="http://www.w3.org/2000/svg">
<path d="M61.2381 28.9325C60.477 13.3228 47.7931 0.706484 32.1833 0.0300064C20.2604 -0.494264 9.74119 5.89845 4.31246 15.5213C3.0948 17.6861 3.90657 20.4427 6.18968 21.4743C8.21912 22.3876 10.5191 21.542 11.5677 19.6648C11.5677 19.6648 11.5677 19.6479 11.5677 19.6309C11.6861 19.4111 11.8214 19.1912 11.9567 18.9714C12.0074 18.9037 12.0581 18.8192 12.092 18.7515C12.1934 18.5993 12.278 18.4471 12.3795 18.3118C12.4302 18.2273 12.4978 18.1427 12.5486 18.0581C12.6331 17.9228 12.7346 17.7875 12.8192 17.6692C12.8868 17.5846 12.9545 17.4831 13.0221 17.3986C13.1067 17.2802 13.2081 17.1449 13.2927 17.0265C13.3603 16.9419 13.428 16.8405 13.5126 16.7559C13.614 16.6375 13.6986 16.5192 13.8001 16.4008C13.8677 16.3162 13.9523 16.2147 14.0199 16.1302C14.1214 16.0118 14.2059 15.9103 14.3074 15.7919C14.392 15.7074 14.4596 15.6228 14.5442 15.5383C14.6457 15.4368 14.7471 15.3184 14.8486 15.2169C14.9332 15.1324 15.0177 15.0478 15.0854 14.9633C15.1868 14.8618 15.2883 14.7603 15.4067 14.6419C15.4913 14.5574 15.5758 14.4728 15.6604 14.4052C15.7788 14.3037 15.8802 14.2022 15.9986 14.1007C16.0832 14.0331 16.1677 13.9485 16.2523 13.8809C16.3707 13.7794 16.4891 13.6779 16.6074 13.5765C16.692 13.5088 16.7766 13.4412 16.8611 13.3735C16.9964 13.2721 17.1317 13.1537 17.267 13.0522C17.3347 13.0015 17.4192 12.9338 17.4869 12.8831C17.656 12.7478 17.842 12.6294 18.0111 12.4941C18.045 12.4603 18.0957 12.4434 18.1295 12.4095C18.3494 12.2573 18.5692 12.1051 18.7891 11.9698C18.8567 11.9191 18.9244 11.8853 18.992 11.8515C19.1442 11.75 19.3134 11.6485 19.4656 11.547C19.5501 11.4963 19.6347 11.4456 19.7362 11.3948C19.8714 11.3103 20.0237 11.2257 20.1589 11.1412C20.2604 11.0904 20.3619 11.0397 20.4465 10.9889C20.5817 10.9213 20.717 10.8367 20.8523 10.7691C20.9538 10.7184 21.0553 10.6676 21.1568 10.6169C21.2921 10.5492 21.4273 10.4816 21.5626 10.4139C21.6641 10.3632 21.7825 10.3125 21.884 10.2617C22.0193 10.1941 22.1546 10.1433 22.3068 10.0757C22.4082 10.025 22.5266 9.99114 22.6281 9.94041C22.7634 9.88967 22.9156 9.82202 23.0509 9.77129C23.1693 9.73746 23.2707 9.68673 23.3891 9.6529C23.5244 9.60217 23.6766 9.55143 23.8288 9.50069C23.9472 9.46687 24.0487 9.43305 24.1671 9.38231C24.3193 9.33158 24.4715 9.29775 24.6068 9.24701C24.7252 9.21319 24.8266 9.17937 24.945 9.14554C25.0972 9.09481 25.2494 9.06098 25.4186 9.02716C25.52 8.99334 25.6384 8.97642 25.7399 8.9426C25.909 8.90878 26.0781 8.87495 26.2472 8.84113C26.3487 8.82422 26.4502 8.79039 26.5517 8.77348C26.7546 8.73966 26.9406 8.70583 27.1436 8.67201C27.2112 8.67201 27.2958 8.63819 27.3634 8.63819C27.634 8.58745 27.9046 8.55363 28.1921 8.5198C28.2598 8.5198 28.3105 8.5198 28.3782 8.50289C28.598 8.48598 28.8179 8.45215 29.0208 8.43524C29.1223 8.43524 29.2238 8.43524 29.3252 8.41833C29.5113 8.41833 29.6804 8.40142 29.8664 8.38451C29.9848 8.38451 30.1032 8.38451 30.2046 8.38451C30.3738 8.38451 30.5429 8.38451 30.712 8.38451C30.7796 8.38451 30.8642 8.38451 30.9319 8.38451C31.3885 8.38451 31.8451 8.38451 32.2848 8.43524C32.3355 8.43524 32.3694 8.43524 32.4201 8.43524C32.7583 8.45215 33.0966 8.50289 33.4517 8.53671C40.4025 9.3654 46.3725 13.4243 49.8056 19.1912C51.0909 21.356 50.3129 24.1464 48.0975 25.3303C46.0173 26.4295 43.4636 25.7023 42.2629 23.6898C39.9459 19.7832 35.6841 17.1618 30.8135 17.1618C25.1141 17.1618 20.2604 20.7471 18.3494 25.7869C17.7913 27.2413 17.5038 28.831 17.5038 30.4715C17.5038 32.112 17.8082 33.7017 18.3494 35.1561C20.2435 40.1959 25.1141 43.7812 30.8135 43.7812C35.6841 43.7812 39.929 41.1599 42.2629 37.2532C43.4636 35.2407 46.0342 34.4965 48.0975 35.6127C50.3129 36.7966 51.0909 39.587 49.8056 41.7518C46.1019 47.9754 39.4386 52.2034 31.7605 52.5416C31.4392 52.5416 31.1348 52.5754 30.8135 52.5754C30.5429 52.5754 30.2554 52.5754 29.9848 52.5754C29.9002 52.5754 29.7988 52.5754 29.7142 52.5754C29.5282 52.5754 29.3421 52.5585 29.1561 52.5416C29.0546 52.5416 28.9532 52.5247 28.8348 52.5078C28.6657 52.5078 28.4965 52.4739 28.3274 52.457C28.2259 52.457 28.1076 52.4232 28.0061 52.4232C27.837 52.4063 27.6848 52.3725 27.5156 52.3556C27.4142 52.3556 27.2958 52.3217 27.1943 52.3048C27.0252 52.271 26.873 52.2541 26.7039 52.2203C26.6024 52.2034 26.5009 52.1864 26.3995 52.1695C26.2134 52.1357 26.0443 52.1019 25.8752 52.0511C25.7906 52.0342 25.7061 52.0173 25.6215 52.0004C25.3678 51.9328 25.0972 51.8651 24.8436 51.7975C24.5899 51.7298 24.3362 51.6453 24.0825 51.5607C23.998 51.5269 23.9134 51.51 23.8458 51.4761C23.6766 51.4254 23.5075 51.3578 23.3384 51.307C23.2369 51.2732 23.1524 51.2394 23.0509 51.2055C22.8987 51.1548 22.7465 51.0872 22.5943 51.0364C22.4928 51.0026 22.3913 50.9519 22.3068 50.918C22.1546 50.8504 22.0193 50.7997 21.8671 50.732C21.7656 50.6813 21.681 50.6475 21.5796 50.5967C21.4273 50.5291 21.292 50.4614 21.1398 50.3938C21.0553 50.343 20.9538 50.3092 20.8693 50.2585C20.717 50.1739 20.5648 50.0894 20.3957 50.0217C20.3281 49.9879 20.2435 49.9372 20.1759 49.9033C19.956 49.7849 19.7192 49.6496 19.4994 49.5144C19.2795 49.3791 19.0597 49.2438 18.8398 49.1085C18.7722 49.0577 18.7045 49.007 18.62 48.9732C18.4678 48.8717 18.3325 48.7871 18.1803 48.6857C18.0957 48.6349 18.0111 48.5673 17.9435 48.5165C17.8082 48.4151 17.6898 48.3305 17.5545 48.229C17.47 48.1614 17.3854 48.1107 17.3008 48.043C17.1824 47.9415 17.0472 47.857 16.9288 47.7555C16.8442 47.6879 16.7596 47.6202 16.692 47.5526C16.5736 47.4511 16.4383 47.3496 16.3199 47.2312C16.2523 47.1636 16.1677 47.0959 16.1001 47.0283C15.9648 46.9099 15.8464 46.7915 15.7111 46.6731C15.6435 46.6224 15.5927 46.5548 15.5251 46.504C15.339 46.318 15.153 46.1489 14.967 45.9628C14.781 45.7768 14.6118 45.5908 14.4427 45.4048C14.392 45.3371 14.3243 45.2695 14.2736 45.2187C14.1552 45.0834 14.0368 44.965 13.9354 44.8297C13.8677 44.7452 13.8001 44.6775 13.7493 44.593C13.6479 44.4746 13.5464 44.3393 13.4449 44.2209C13.3773 44.1364 13.3096 44.0518 13.2589 43.9672C13.1574 43.8489 13.0728 43.7136 12.9714 43.5952C12.9037 43.5106 12.853 43.4261 12.7853 43.3415C12.7008 43.2062 12.5993 43.0709 12.5148 42.9525C12.464 42.868 12.3964 42.7834 12.3456 42.6988C12.2442 42.5466 12.1596 42.4113 12.0581 42.2591C12.0074 42.1915 11.9736 42.1238 11.9228 42.0393C11.7875 41.8194 11.6522 41.5996 11.5339 41.3628C10.5699 39.6547 8.59118 38.7922 6.71395 39.3334H6.68013C4.10952 40.0944 2.90877 43.0202 4.21099 45.354C9.41987 54.6725 19.381 60.9976 30.7966 60.9976C48.0806 60.9976 62.0498 46.5209 61.2042 29.0509L61.2381 28.9325Z" fill="#541E80"/>
<path d="M4.56622 35.004C7.08808 35.004 9.13245 32.9597 9.13245 30.4378C9.13245 27.916 7.08808 25.8716 4.56622 25.8716C2.04437 25.8716 0 27.916 0 30.4378C0 32.9597 2.04437 35.004 4.56622 35.004Z" fill="#541E80"/>
<path d="M95.0283 35.8998C94.3856 36.6439 93.557 37.2189 92.5761 37.6586C91.5952 38.0814 90.479 38.3013 89.2951 38.3013C87.8238 38.3013 86.4878 37.963 85.3208 37.2866C84.1539 36.6101 83.2238 35.6799 82.5642 34.4961C81.9046 33.3123 81.5664 31.9424 81.5664 30.4372C81.5664 28.9321 81.9046 27.5453 82.5642 26.3614C83.2238 25.1776 84.1539 24.2474 85.3039 23.571C86.4709 22.8945 87.8069 22.5563 89.2951 22.5563C91.0371 22.5563 92.5253 22.9791 93.743 23.8247C94.707 24.5011 95.4173 25.3298 95.8739 26.3614C95.9246 26.4629 96.043 26.5136 96.1445 26.4629L99.1379 24.7886C99.2394 24.7379 99.2732 24.6195 99.2225 24.518C98.8842 23.8754 98.4952 23.2666 98.0217 22.6916C97.0408 21.4908 95.7724 20.5437 94.2673 19.8673C92.779 19.1908 91.0878 18.8525 89.2444 18.8525C87.0797 18.8525 85.0841 19.3599 83.3252 20.3408C81.5664 21.3386 80.1627 22.7254 79.148 24.5011C78.1502 26.26 77.6428 28.2556 77.6428 30.4372C77.6428 32.6189 78.1502 34.6145 79.148 36.3733C80.1458 38.1322 81.5495 39.5358 83.3252 40.5336C85.0841 41.5315 87.0797 42.0219 89.2444 42.0219C91.1216 42.0219 92.8636 41.6498 94.4195 40.9395C95.9754 40.2123 97.2776 39.2145 98.2923 37.963C98.6813 37.4726 99.0195 36.9652 99.307 36.441C99.3578 36.3395 99.307 36.2211 99.2225 36.1704L96.2121 34.4792C96.1107 34.4284 95.9923 34.4792 95.9415 34.5637C95.7048 35.0373 95.4004 35.4939 95.0452 35.9167L95.0283 35.8998Z" fill="#541E80"/>
<path d="M113.378 35.1723C115.993 35.1723 118.113 33.0523 118.113 30.437C118.113 27.8217 115.993 25.7017 113.378 25.7017C110.762 25.7017 108.642 27.8217 108.642 30.437C108.642 33.0523 110.762 35.1723 113.378 35.1723Z" fill="#541E80"/>
<path d="M125.25 29.7778C124.929 23.6726 119.838 18.7174 113.716 18.5483C108.575 18.3961 104.161 21.5248 102.351 25.9895C101.675 27.6638 100.406 28.9999 98.6137 29.4396C97.0747 29.8286 95.3666 29.4565 94.1151 28.4925C93.371 27.9175 92.796 27.1565 92.0349 26.5984C90.5636 25.516 88.4327 25.4145 86.8599 26.3278C85.2871 27.241 84.3231 29.1352 84.5429 30.9617C84.7459 32.7712 86.0988 34.4117 87.8408 34.9529C89.0584 35.3249 90.4452 35.1896 91.5445 34.5301C92.4577 33.972 93.1342 33.1095 94.0136 32.4837C95.5864 31.3337 97.7173 31.0631 99.4931 31.8411C100.559 32.3146 101.269 33.0756 101.844 33.9551C102.098 34.3271 102.284 34.733 102.453 35.1389C104.279 39.3669 108.473 42.3434 113.378 42.3434C120.159 42.3434 125.622 36.661 125.25 29.7947V29.7778ZM113.378 38.3691C108.998 38.3691 105.429 34.8176 105.429 30.4205C105.429 26.0234 108.981 22.4719 113.378 22.4719C117.775 22.4719 121.326 26.0234 121.326 30.4205C121.326 34.8176 117.775 38.3691 113.378 38.3691Z" fill="#541E80"/>
<path d="M178.556 37.4729V22.8609H190.429V19.3433H174.734V40.9736H190.649V37.4729H178.556Z" fill="#541E80"/>
<path d="M233.977 22.9954C233.25 21.8285 232.184 20.9153 230.814 20.2895C229.478 19.6638 227.872 19.3594 226.062 19.3594H218.232V40.9897H222.054V34.7154H226.062C227.872 34.7154 229.478 34.3941 230.814 33.7853C232.184 33.1595 233.25 32.2463 233.977 31.0794C234.704 29.9124 235.076 28.5595 235.076 27.0374C235.076 25.5153 234.704 24.1624 233.977 22.9954ZM229.901 30.0477C228.954 30.7749 227.601 31.147 225.859 31.147H222.054V22.9109H225.859C227.601 22.9109 228.954 23.2829 229.901 24.0102C230.814 24.7205 231.254 25.7014 231.254 27.0205C231.254 28.3396 230.814 29.3374 229.901 30.0308V30.0477Z" fill="#541E80"/>
<path d="M241.756 37.4221V19.3433H237.934V40.9736H253.02V37.4221H241.756Z" fill="#541E80"/>
<path d="M259.751 37.4729V31.689H270.727V28.1713H259.751V22.8609H271.623V19.3433H255.929V40.9736H271.843V37.4729H259.751Z" fill="#541E80"/>
<path d="M210.165 35.8998C209.522 36.6439 208.694 37.2189 207.713 37.6586C206.732 38.0814 205.616 38.3013 204.432 38.3013C202.961 38.3013 201.624 37.963 200.458 37.2866C199.291 36.6101 198.36 35.6799 197.701 34.4961C197.041 33.3123 196.703 31.9424 196.703 30.4372C196.703 28.9321 197.041 27.5453 197.701 26.3614C198.36 25.1776 199.291 24.2474 200.441 23.571C201.608 22.8945 202.944 22.5563 204.432 22.5563C206.174 22.5563 207.662 22.9791 208.88 23.8247C209.844 24.5011 210.554 25.3298 211.011 26.3614C211.061 26.4629 211.18 26.5136 211.281 26.4629L214.275 24.7886C214.376 24.7379 214.41 24.6195 214.359 24.518C214.021 23.8754 213.632 23.2666 213.158 22.6916C212.178 21.4908 210.909 20.5437 209.404 19.8673C207.916 19.1908 206.225 18.8525 204.381 18.8525C202.216 18.8525 200.221 19.3599 198.462 20.3408C196.703 21.3386 195.299 22.7254 194.285 24.5011C193.287 26.26 192.78 28.2556 192.78 30.4372C192.78 32.6189 193.287 34.6145 194.285 36.3733C195.283 38.1322 196.686 39.5358 198.462 40.5336C200.221 41.5315 202.216 42.0219 204.381 42.0219C206.258 42.0219 208 41.6498 209.556 40.9395C211.112 40.2123 212.414 39.2145 213.429 37.963C213.818 37.4726 214.156 36.9652 214.444 36.441C214.494 36.3395 214.444 36.2211 214.359 36.1704L211.349 34.4792C211.247 34.4284 211.129 34.4792 211.078 34.5637C210.841 35.0373 210.537 35.4939 210.182 35.9167L210.165 35.8998Z" fill="#541E80"/>
<path d="M143.582 19.2251V34.226L132.015 19.3435H128.666V40.9739H132.488V25.973L144.056 40.8555H147.438V19.2251H143.582Z" fill="#541E80"/>
<path d="M204.584 35.0713C207.199 35.0713 209.319 32.9512 209.319 30.3359C209.319 27.7207 207.199 25.6006 204.584 25.6006C201.968 25.6006 199.848 27.7207 199.848 30.3359C199.848 32.9512 201.968 35.0713 204.584 35.0713Z" fill="#541E80"/>
<path d="M203.18 28.3406H170.455V19.2251H166.616V34.226L155.049 19.3435H151.7V40.9739H155.522V25.973L167.09 40.8555H170.455V31.8583H203.18V28.3406Z" fill="#541E80"/>
</svg>
