<svg width="161" height="36" viewBox="0 0 161 36" fill="none" xmlns="http://www.w3.org/2000/svg">
<g clip-path="url(#clip0_1_131)">
<path d="M36.2099 17.11C35.7599 7.88 28.2599 0.419999 19.0299 0.0199991C11.9799 -0.290001 5.75995 3.49 2.54995 9.18C1.82995 10.46 2.30995 12.09 3.65995 12.7C4.85995 13.24 6.21995 12.74 6.83995 11.63C6.83995 11.63 6.83995 11.62 6.83995 11.61C6.90995 11.48 6.98995 11.35 7.06995 11.22C7.09995 11.18 7.12995 11.13 7.14995 11.09C7.20995 11 7.25995 10.91 7.31995 10.83C7.34995 10.78 7.38995 10.73 7.41995 10.68C7.46995 10.6 7.52995 10.52 7.57995 10.45C7.61995 10.4 7.65995 10.34 7.69995 10.29C7.74995 10.22 7.80995 10.14 7.85995 10.07C7.89995 10.02 7.93995 9.96 7.98995 9.91C8.04995 9.84 8.09995 9.77 8.15995 9.7C8.19995 9.65 8.24995 9.59 8.28995 9.54C8.34995 9.47 8.39995 9.41 8.45995 9.34C8.50995 9.29 8.54995 9.24 8.59995 9.19C8.65995 9.13 8.71995 9.06 8.77995 9C8.82995 8.95 8.87995 8.9 8.91995 8.85C8.97995 8.79 9.03995 8.73 9.10995 8.66C9.15995 8.61 9.20995 8.56 9.25995 8.52C9.32995 8.46 9.38995 8.4 9.45995 8.34C9.50995 8.3 9.55995 8.25 9.60995 8.21C9.67995 8.15 9.74995 8.09 9.81995 8.03C9.86995 7.99 9.91995 7.95 9.96995 7.91C10.0499 7.85 10.1299 7.78 10.2099 7.72C10.2499 7.69 10.2999 7.65 10.3399 7.62C10.4399 7.54 10.5499 7.47 10.6499 7.39C10.6699 7.37 10.6999 7.36 10.7199 7.34C10.8499 7.25 10.9799 7.16 11.1099 7.08C11.1499 7.05 11.1899 7.03 11.2299 7.01C11.3199 6.95 11.4199 6.89 11.5099 6.83C11.5599 6.8 11.6099 6.77 11.6699 6.74C11.7499 6.69 11.8399 6.64 11.9199 6.59C11.9799 6.56 12.0399 6.53 12.0899 6.5C12.1699 6.46 12.2499 6.41 12.3299 6.37C12.3899 6.34 12.4499 6.31 12.5099 6.28C12.5899 6.24 12.6699 6.2 12.7499 6.16C12.8099 6.13 12.8799 6.1 12.9399 6.07C13.0199 6.03 13.0999 6 13.1899 5.96C13.2499 5.93 13.3199 5.91 13.3799 5.88C13.4599 5.85 13.5499 5.81 13.6299 5.78C13.6999 5.76 13.7599 5.73 13.8299 5.71C13.9099 5.68 13.9999 5.65 14.0899 5.62C14.1599 5.6 14.2199 5.58 14.2899 5.55C14.3799 5.52 14.4699 5.5 14.5499 5.47C14.6199 5.45 14.6799 5.43 14.7499 5.41C14.8399 5.38 14.9299 5.36 15.0299 5.34C15.0899 5.32 15.1599 5.31 15.2199 5.29C15.3199 5.27 15.4199 5.25 15.5199 5.23C15.5799 5.22 15.6399 5.2 15.6999 5.19C15.8199 5.17 15.9299 5.15 16.0499 5.13C16.0899 5.13 16.1399 5.11 16.1799 5.11C16.3399 5.08 16.4999 5.06 16.6699 5.04C16.7099 5.04 16.7399 5.04 16.7799 5.03C16.9099 5.02 17.0399 5 17.1599 4.99C17.2199 4.99 17.2799 4.99 17.3399 4.98C17.4499 4.98 17.5499 4.97 17.6599 4.96C17.7299 4.96 17.7999 4.96 17.8599 4.96C17.9599 4.96 18.0599 4.96 18.1599 4.96C18.1999 4.96 18.2499 4.96 18.2899 4.96C18.5599 4.96 18.8299 4.96 19.0899 4.99C19.1199 4.99 19.1399 4.99 19.1699 4.99C19.3699 5 19.57 5.03 19.7799 5.05C23.8899 5.54 27.4199 7.94 29.4499 11.35C30.2099 12.63 29.7499 14.28 28.4399 14.98C27.2099 15.63 25.6999 15.2 24.9899 14.01C23.6199 11.7 21.0999 10.15 18.2199 10.15C14.8499 10.15 11.9799 12.27 10.8499 15.25C10.5199 16.11 10.3499 17.05 10.3499 18.02C10.3499 18.99 10.5299 19.93 10.8499 20.79C11.9699 23.77 14.8499 25.89 18.2199 25.89C21.0999 25.89 23.6099 24.34 24.9899 22.03C25.6999 20.84 27.2199 20.4 28.4399 21.06C29.7499 21.76 30.2099 23.41 29.4499 24.69C27.2599 28.37 23.32 30.87 18.7799 31.07C18.5899 31.07 18.4099 31.09 18.2199 31.09C18.0599 31.09 17.8899 31.09 17.7299 31.09C17.6799 31.09 17.6199 31.09 17.5699 31.09C17.4599 31.09 17.3499 31.08 17.2399 31.07C17.1799 31.07 17.1199 31.06 17.0499 31.05C16.9499 31.05 16.8499 31.03 16.7499 31.02C16.6899 31.02 16.6199 31 16.5599 31C16.4599 30.99 16.3699 30.97 16.2699 30.96C16.2099 30.96 16.1399 30.94 16.0799 30.93C15.9799 30.91 15.8899 30.9 15.7899 30.88C15.7299 30.87 15.6699 30.86 15.6099 30.85C15.4999 30.83 15.3999 30.81 15.2999 30.78C15.2499 30.77 15.1999 30.76 15.1499 30.75C14.9999 30.71 14.8399 30.67 14.6899 30.63C14.5399 30.59 14.3899 30.54 14.2399 30.49C14.1899 30.47 14.1399 30.46 14.0999 30.44C13.9999 30.41 13.8999 30.37 13.7999 30.34C13.7399 30.32 13.6899 30.3 13.6299 30.28C13.5399 30.25 13.4499 30.21 13.3599 30.18C13.2999 30.16 13.2399 30.13 13.1899 30.11C13.0999 30.07 13.0199 30.04 12.9299 30C12.8699 29.97 12.8199 29.95 12.7599 29.92C12.6699 29.88 12.5899 29.84 12.4999 29.8C12.4499 29.77 12.3899 29.75 12.3399 29.72C12.2499 29.67 12.1599 29.62 12.0599 29.58C12.0199 29.56 11.9699 29.53 11.9299 29.51C11.7999 29.44 11.6599 29.36 11.5299 29.28C11.3999 29.2 11.2699 29.12 11.1399 29.04C11.0999 29.01 11.0599 28.98 11.0099 28.96C10.9199 28.9 10.8399 28.85 10.7499 28.79C10.6999 28.76 10.6499 28.72 10.6099 28.69C10.5299 28.63 10.4599 28.58 10.3799 28.52C10.3299 28.48 10.2799 28.45 10.2299 28.41C10.1599 28.35 10.0799 28.3 10.0099 28.24C9.95995 28.2 9.90995 28.16 9.86995 28.12C9.79995 28.06 9.71995 28 9.64995 27.93C9.60995 27.89 9.55995 27.85 9.51995 27.81C9.43995 27.74 9.36995 27.67 9.28995 27.6C9.24995 27.57 9.21995 27.53 9.17995 27.5C9.06995 27.39 8.95995 27.29 8.84995 27.18C8.73995 27.07 8.63995 26.96 8.53995 26.85C8.50995 26.81 8.46995 26.77 8.43995 26.74C8.36995 26.66 8.29995 26.59 8.23995 26.51C8.19995 26.46 8.15995 26.42 8.12995 26.37C8.06995 26.3 8.00995 26.22 7.94995 26.15C7.90995 26.1 7.86995 26.05 7.83995 26C7.77995 25.93 7.72995 25.85 7.66995 25.78C7.62995 25.73 7.59995 25.68 7.55995 25.63C7.50995 25.55 7.44995 25.47 7.39995 25.4C7.36995 25.35 7.32995 25.3 7.29995 25.25C7.23995 25.16 7.18995 25.08 7.12995 24.99C7.09995 24.95 7.07995 24.91 7.04995 24.86C6.96995 24.73 6.88995 24.6 6.81995 24.46C6.24995 23.45 5.07995 22.94 3.96995 23.26H3.94995C2.42995 23.71 1.71995 25.44 2.48995 26.82C5.56995 32.33 11.4599 36.07 18.2099 36.07C28.4299 36.07 36.6899 27.51 36.1899 17.18L36.2099 17.11Z" fill="#541E80"/>
<path d="M2.7 20.7C4.19117 20.7 5.4 19.4912 5.4 18C5.4 16.5088 4.19117 15.3 2.7 15.3C1.20883 15.3 0 16.5088 0 18C0 19.4912 1.20883 20.7 2.7 20.7Z" fill="#541E80"/>
<path d="M56.19 21.23C55.81 21.67 55.32 22.01 54.74 22.27C54.16 22.52 53.5 22.65 52.8 22.65C51.93 22.65 51.14 22.45 50.45 22.05C49.76 21.65 49.21 21.1 48.82 20.4C48.43 19.7 48.23 18.89 48.23 18C48.23 17.11 48.43 16.29 48.82 15.59C49.21 14.89 49.76 14.34 50.44 13.94C51.13 13.54 51.92 13.34 52.8 13.34C53.83 13.34 54.71 13.59 55.43 14.09C56 14.49 56.42 14.98 56.69 15.59C56.72 15.65 56.79 15.68 56.85 15.65L58.62 14.66C58.68 14.63 58.7 14.56 58.67 14.5C58.47 14.12 58.24 13.76 57.96 13.42C57.38 12.71 56.63 12.15 55.74 11.75C54.86 11.35 53.86 11.15 52.77 11.15C51.49 11.15 50.31 11.45 49.27 12.03C48.23 12.62 47.4 13.44 46.8 14.49C46.21 15.53 45.91 16.71 45.91 18C45.91 19.29 46.21 20.47 46.8 21.51C47.39 22.55 48.22 23.38 49.27 23.97C50.31 24.56 51.49 24.85 52.77 24.85C53.88 24.85 54.91 24.63 55.83 24.21C56.75 23.78 57.52 23.19 58.12 22.45C58.35 22.16 58.55 21.86 58.72 21.55C58.75 21.49 58.72 21.42 58.67 21.39L56.89 20.39C56.83 20.36 56.76 20.39 56.73 20.44C56.59 20.72 56.41 20.99 56.2 21.24L56.19 21.23Z" fill="#541E80"/>
<path d="M67.04 20.8C68.5864 20.8 69.84 19.5464 69.84 18C69.84 16.4536 68.5864 15.2 67.04 15.2C65.4936 15.2 64.24 16.4536 64.24 18C64.24 19.5464 65.4936 20.8 67.04 20.8Z" fill="#541E80"/>
<path d="M74.0601 17.61C73.8701 14 70.8601 11.07 67.2401 10.97C64.2001 10.88 61.5901 12.73 60.5201 15.37C60.1201 16.36 59.3701 17.15 58.3101 17.41C57.4001 17.64 56.3901 17.42 55.6501 16.85C55.2101 16.51 54.8701 16.06 54.4201 15.73C53.5501 15.09 52.2901 15.03 51.3601 15.57C50.4301 16.11 49.8601 17.23 49.9901 18.31C50.1101 19.38 50.9101 20.35 51.9401 20.67C52.6601 20.89 53.4801 20.81 54.1301 20.42C54.6701 20.09 55.0701 19.58 55.5901 19.21C56.5201 18.53 57.7801 18.37 58.8301 18.83C59.4601 19.11 59.8801 19.56 60.2201 20.08C60.3701 20.3 60.4801 20.54 60.5801 20.78C61.6601 23.28 64.1401 25.04 67.0401 25.04C71.0501 25.04 74.2801 21.68 74.0601 17.62V17.61ZM67.0401 22.69C64.4501 22.69 62.3401 20.59 62.3401 17.99C62.3401 15.39 64.4401 13.29 67.0401 13.29C69.6401 13.29 71.7401 15.39 71.7401 17.99C71.7401 20.59 69.6401 22.69 67.0401 22.69Z" fill="#541E80"/>
<path d="M105.58 22.16V13.52H112.6V11.44H103.32V24.23H112.73V22.16H105.58Z" fill="#541E80"/>
<path d="M138.35 13.6C137.92 12.91 137.29 12.37 136.48 12C135.69 11.63 134.74 11.45 133.67 11.45H129.04V24.24H131.3V20.53H133.67C134.74 20.53 135.69 20.34 136.48 19.98C137.29 19.61 137.92 19.07 138.35 18.38C138.78 17.69 139 16.89 139 15.99C139 15.09 138.78 14.29 138.35 13.6ZM135.94 17.77C135.38 18.2 134.58 18.42 133.55 18.42H131.3V13.55H133.55C134.58 13.55 135.38 13.77 135.94 14.2C136.48 14.62 136.74 15.2 136.74 15.98C136.74 16.76 136.48 17.35 135.94 17.76V17.77Z" fill="#541E80"/>
<path d="M142.95 22.13V11.44H140.69V24.23H149.61V22.13H142.95Z" fill="#541E80"/>
<path d="M153.59 22.16V18.74H160.08V16.66H153.59V13.52H160.61V11.44H151.33V24.23H160.74V22.16H153.59Z" fill="#541E80"/>
<path d="M124.27 21.23C123.89 21.67 123.4 22.01 122.82 22.27C122.24 22.52 121.58 22.65 120.88 22.65C120.01 22.65 119.22 22.45 118.53 22.05C117.84 21.65 117.29 21.1 116.9 20.4C116.51 19.7 116.31 18.89 116.31 18C116.31 17.11 116.51 16.29 116.9 15.59C117.29 14.89 117.84 14.34 118.52 13.94C119.21 13.54 120 13.34 120.88 13.34C121.91 13.34 122.79 13.59 123.51 14.09C124.08 14.49 124.5 14.98 124.77 15.59C124.8 15.65 124.87 15.68 124.93 15.65L126.7 14.66C126.76 14.63 126.78 14.56 126.75 14.5C126.55 14.12 126.32 13.76 126.04 13.42C125.46 12.71 124.71 12.15 123.82 11.75C122.94 11.35 121.94 11.15 120.85 11.15C119.57 11.15 118.39 11.45 117.35 12.03C116.31 12.62 115.48 13.44 114.88 14.49C114.29 15.53 113.99 16.71 113.99 18C113.99 19.29 114.29 20.47 114.88 21.51C115.47 22.55 116.3 23.38 117.35 23.97C118.39 24.56 119.57 24.85 120.85 24.85C121.96 24.85 122.99 24.63 123.91 24.21C124.83 23.78 125.6 23.19 126.2 22.45C126.43 22.16 126.63 21.86 126.8 21.55C126.83 21.49 126.8 21.42 126.75 21.39L124.97 20.39C124.91 20.36 124.84 20.39 124.81 20.44C124.67 20.72 124.49 20.99 124.28 21.24L124.27 21.23Z" fill="#541E80"/>
<path d="M84.9 11.37V20.24L78.06 11.44H76.08V24.23H78.34V15.36L85.18 24.16H87.18V11.37H84.9Z" fill="#541E80"/>
<path d="M120.97 20.74C122.516 20.74 123.77 19.4864 123.77 17.94C123.77 16.3936 122.516 15.14 120.97 15.14C119.424 15.14 118.17 16.3936 118.17 17.94C118.17 19.4864 119.424 20.74 120.97 20.74Z" fill="#541E80"/>
<path d="M120.14 16.76H100.79V11.37H98.52V20.24L91.68 11.44H89.7V24.23H91.96V15.36L98.8 24.16H100.79V18.84H120.14V16.76Z" fill="#541E80"/>
</g>
<defs>
<clipPath id="clip0_1_131">
<rect width="160.74" height="36" fill="white"/>
</clipPath>
</defs>
</svg>
